<?xml version="1.0" standalone="no"?>
<!DOCTYPE svg PUBLIC "-//W3C//DTD SVG 1.1//EN" "http://www.w3.org/Graphics/SVG/1.1/DTD/svg11.dtd" >
<svg>
<metadata>
Created by FontForge 20120731 at Mon Jun 19 19:18:32 2017
 By www-data
Copyright (c) 2004-2015 by Phil's Fonts, Inc &#38; Joshua Darden All rights reserved. This is a custom font with default lining figures licensed to Facebook and it subsidiaries. August 10, 2015
</metadata>
<defs>
<font id="FreightSansLFPro-Medium" horiz-adv-x="500" >
  <font-face 
    font-family="FreightSansLFPro Med"
    font-weight="500"
    font-stretch="normal"
    units-per-em="1000"
    panose-1="2 0 6 6 3 0 0 2 0 4"
    ascent="750"
    descent="-250"
    x-height="458"
    cap-height="625"
    bbox="-198 -269 1211 996"
    underline-thickness="20"
    underline-position="-113"
    stemh="77"
    stemv="83"
    unicode-range="U+0020-FB04"
  />
<missing-glyph 
 />
    <glyph glyph-name="fi" unicode="fi" horiz-adv-x="537" 
d="M482 618c0 -31 -17 -59 -54 -59s-54 28 -54 59s17 59 54 59s54 -28 54 -59zM331 674c0 -2 -20 -77 -20 -75c-21 9 -50 20 -73 20c-46 0 -68 -28 -68 -97v-64h145l-3 -74h-142v-384h-82v383l-80 6l4 52l75 22l1 58c2 128 61 175 151 175c34 0 70 -12 92 -22zM469 0h-82
v460l82 13v-473z" />
    <glyph glyph-name="fl" unicode="fl" horiz-adv-x="540" 
d="M331 674c0 -2 -20 -77 -20 -75c-21 9 -50 20 -73 20c-46 0 -68 -28 -68 -97v-64h145l-3 -74h-142v-384h-82v383l-80 6l4 52l75 22l1 58c2 128 61 175 151 175c34 0 70 -12 92 -22zM469 0h-82v674l82 13v-687z" />
    <glyph glyph-name="ff" unicode="ff" horiz-adv-x="642" 
d="M170 384v-384h-82v383l-80 6l4 52l75 22l1 48c2 128 61 175 151 175c34 0 70 -12 92 -22c0 -2 -20 -77 -20 -75c-21 9 -50 20 -73 20c-46 0 -68 -28 -68 -97v-54h243l1 63c2 128 61 175 151 175c34 0 70 -12 92 -22c0 -2 -20 -77 -20 -75c-21 9 -50 20 -73 20
c-46 0 -68 -28 -68 -97v-64h145l-3 -74h-142v-384h-82v384h-244z" />
    <glyph glyph-name="ffi" unicode="ffi" horiz-adv-x="863" 
d="M808 618c0 -31 -17 -59 -54 -59s-54 28 -54 59s17 59 54 59s54 -28 54 -59zM170 384v-384h-82v383l-80 6l4 52l75 22l1 48c2 128 61 175 151 175c34 0 70 -12 92 -22c0 -2 -20 -77 -20 -75c-21 9 -50 20 -73 20c-46 0 -68 -28 -68 -97v-54h243l1 63c2 128 61 175 151 175
c34 0 70 -12 92 -22c0 -2 -20 -77 -20 -75c-21 9 -50 20 -73 20c-46 0 -68 -28 -68 -97v-64h145l-3 -74h-142v-384h-82v384h-244zM795 0h-82v460l82 13v-473z" />
    <glyph glyph-name="ffl" unicode="ffl" horiz-adv-x="866" 
d="M170 384v-384h-82v383l-80 6l4 52l75 22l1 48c2 128 61 175 151 175c34 0 70 -12 92 -22c0 -2 -20 -77 -20 -75c-21 9 -50 20 -73 20c-46 0 -68 -28 -68 -97v-54h243l1 63c2 128 61 175 151 175c34 0 70 -12 92 -22c0 -2 -20 -77 -20 -75c-21 9 -50 20 -73 20
c-46 0 -68 -28 -68 -97v-64h145l-3 -74h-142v-384h-82v384h-244zM795 0h-82v674l82 13v-687z" />
    <glyph glyph-name=".notdef" 
 />
    <glyph glyph-name="space" unicode=" " horiz-adv-x="228" 
 />
    <glyph glyph-name="nbspace" unicode="&#xa0;" horiz-adv-x="154" 
 />
    <glyph glyph-name="thinspace" unicode="&#x2009;" horiz-adv-x="76" 
 />
    <glyph glyph-name="A" unicode="A" horiz-adv-x="574" 
d="M337 625l232 -625h-87l-59 164h-271l-59 -164h-88l235 625h97zM395 241l-107 296l-108 -296h215z" />
    <glyph glyph-name="B" unicode="B" horiz-adv-x="566" 
d="M397 322c83 -21 127 -75 127 -145c0 -106 -71 -177 -232 -177h-213v625h207c151 0 218 -68 218 -166c0 -64 -37 -111 -107 -137zM419 452c0 60 -44 95 -126 95h-129v-196h116c90 0 139 40 139 101zM439 176c0 72 -64 98 -152 98h-123v-196h136c93 0 139 33 139 98z" />
    <glyph glyph-name="C" unicode="C" horiz-adv-x="601" 
d="M557 588l-27 -77c-55 36 -106 53 -171 53c-136 0 -227 -94 -227 -249s92 -254 229 -254c67 0 133 27 177 61l14 -85c-51 -32 -123 -52 -193 -52c-183 0 -313 127 -313 326s131 329 313 329c71 0 147 -20 198 -52z" />
    <glyph glyph-name="D" unicode="D" horiz-adv-x="644" 
d="M598 317c0 -193 -120 -317 -335 -317h-184v625h188c207 0 331 -122 331 -308zM513 311c0 154 -92 235 -250 235h-99v-467h103c149 0 246 79 246 232z" />
    <glyph glyph-name="E" unicode="E" horiz-adv-x="523" 
d="M475 0h-396v625h396v-79h-311v-193h259v-79h-259v-195h311v-79z" />
    <glyph glyph-name="F" unicode="F" horiz-adv-x="495" 
d="M79 0v625h386v-80h-301v-203h249v-79h-249v-263h-85z" />
    <glyph glyph-name="G" unicode="G" horiz-adv-x="640" 
d="M579 45c-65 -40 -153 -60 -220 -60c-183 0 -313 127 -313 326s131 329 313 329c73 0 156 -21 208 -54l-28 -78c-50 32 -116 56 -180 56c-136 0 -227 -94 -227 -249s92 -254 229 -254c52 0 99 14 136 32v148h-175v79h257v-275z" />
    <glyph glyph-name="H" unicode="H" horiz-adv-x="670" 
d="M591 0h-84v276h-343v-276h-85v625h85v-272h343v272h84v-625z" />
    <glyph glyph-name="I" unicode="I" horiz-adv-x="247" 
d="M165 0h-84v625h84v-625z" />
    <glyph glyph-name="J" unicode="J" horiz-adv-x="418" 
d="M340 190c0 -122 -57 -205 -188 -205c-54 0 -105 18 -138 39l13 82c38 -26 78 -44 124 -44c72 0 105 44 105 132v431h84v-435z" />
    <glyph glyph-name="J.alt" horiz-adv-x="371" 
d="M308 177c0 -127 -61 -192 -173 -192c-45 0 -88 15 -118 33l12 81c36 -24 70 -36 104 -36c62 0 91 34 91 115v447h84v-448z" />
    <glyph glyph-name="K" unicode="K" horiz-adv-x="548" 
d="M164 327h1l265 298h107l-289 -309l292 -316h-109l-266 297h-1v-297h-85v625h85v-298z" />
    <glyph glyph-name="L" unicode="L" horiz-adv-x="494" 
d="M466 0h-387v625h85v-545h302v-80z" />
    <glyph glyph-name="M" unicode="M" horiz-adv-x="772" 
d="M624 0l-6 520l-190 -511h-85l-191 512l-7 -521h-83l21 625h113l192 -514l191 514h111l20 -625h-86z" />
    <glyph glyph-name="N" unicode="N" horiz-adv-x="668" 
d="M506 121v504h83v-631h-92l-335 510v-504h-83v625h94z" />
    <glyph glyph-name="O" unicode="O" horiz-adv-x="720" 
d="M674 315c0 -187 -130 -330 -314 -330c-183 0 -314 128 -314 326c0 187 130 329 314 329c183 0 314 -127 314 -325zM589 311c0 154 -94 253 -231 253c-133 0 -226 -99 -226 -249c0 -154 93 -254 230 -254c133 0 227 100 227 250z" />
    <glyph glyph-name="P" unicode="P" horiz-adv-x="537" 
d="M500 423c0 -141 -98 -213 -254 -215l-82 -1v-207h-85v625h173c171 0 248 -85 248 -202zM414 419c0 84 -55 127 -166 127h-84v-259l91 2c105 2 159 49 159 130z" />
    <glyph glyph-name="Q" unicode="Q" horiz-adv-x="720" 
d="M496 17l197 -98l-37 -74l-269 142c-8 -1 -18 -2 -27 -2c-183 0 -314 128 -314 326c0 187 130 329 314 329c183 0 314 -127 314 -325c0 -135 -70 -247 -178 -298zM589 311c0 154 -94 253 -231 253c-133 0 -226 -99 -226 -249c0 -154 93 -255 230 -255
c133 0 227 101 227 251z" />
    <glyph glyph-name="R" unicode="R" horiz-adv-x="545" 
d="M164 241v-241h-85v625h187c151 0 230 -72 230 -183c0 -94 -55 -152 -141 -180l169 -262h-101l-152 248zM164 316l103 3c82 3 144 42 144 119c0 74 -60 109 -155 109h-92v-231z" />
    <glyph glyph-name="S" unicode="S" horiz-adv-x="509" 
d="M247 61c79 0 136 43 136 105c0 64 -48 88 -150 115c-89 24 -187 62 -187 183c0 105 85 176 209 176c72 0 137 -18 197 -55l-30 -74c-48 32 -110 52 -166 52c-90 0 -127 -41 -127 -93c0 -63 53 -85 152 -112c91 -24 184 -68 184 -186c0 -108 -89 -187 -220 -187
c-73 0 -149 21 -209 59l28 77c53 -35 110 -60 183 -60z" />
    <glyph glyph-name="T" unicode="T" horiz-adv-x="560" 
d="M541 545h-219v-545h-84v545h-219v80h522v-80z" />
    <glyph glyph-name="U" unicode="U" horiz-adv-x="646" 
d="M568 241c0 -158 -82 -256 -246 -256c-157 0 -244 97 -244 247v393h84v-380c0 -113 54 -180 165 -180c97 0 157 57 157 174c0 -5 0 386 0 386h84v-384z" />
    <glyph glyph-name="V" unicode="V" horiz-adv-x="563" 
d="M563 625l-234 -625h-98l-231 625h87l194 -534l194 534h88z" />
    <glyph glyph-name="W" unicode="W" horiz-adv-x="898" 
d="M450 520l-158 -520h-83l-178 625h89l135 -509l147 509h98l151 -509l133 509h83l-177 -625h-85z" />
    <glyph glyph-name="X" unicode="X" horiz-adv-x="574" 
d="M285 257l-173 -257h-100l224 314l-217 311h104l163 -245l168 245h101l-219 -306l226 -319h-106z" />
    <glyph glyph-name="Y" unicode="Y" horiz-adv-x="540" 
d="M530 625l-217 -377v-248h-85v249l-218 376h96l166 -292l164 292h94z" />
    <glyph glyph-name="Z" unicode="Z" horiz-adv-x="521" 
d="M482 0h-459v64l354 482h-348v79h454v-66l-353 -480h352v-79z" />
    <glyph glyph-name="a" unicode="a" horiz-adv-x="451" 
d="M306 104v124c-136 -18 -186 -46 -186 -102c0 -41 31 -71 81 -71c42 0 79 21 105 49zM309 49h-4c-35 -41 -77 -64 -126 -64c-86 0 -146 57 -146 131c0 82 59 154 273 164v13c0 74 -29 104 -103 104c-47 0 -105 -22 -148 -51l-16 74c40 28 107 53 172 53
c124 0 179 -53 177 -178v-192c0 -38 5 -45 45 -45l-5 -69c-74 -6 -107 20 -119 60z" />
    <glyph glyph-name="a.alt" horiz-adv-x="526" 
d="M373 366c-27 22 -62 35 -102 35c-93 0 -145 -78 -145 -172c0 -101 51 -170 136 -170c43 0 80 19 111 46c0 -5 0 261 0 261zM245 -15c-129 0 -204 104 -204 242c0 139 96 246 233 246c43 0 88 -9 117 -17l64 17v-370c0 -38 5 -45 45 -45l-5 -69c-74 -6 -113 25 -122 60
c-35 -41 -74 -64 -128 -64z" />
    <glyph glyph-name="b" unicode="b" horiz-adv-x="523" 
d="M485 231c0 -139 -96 -246 -233 -246c-27 0 -70 6 -99 15l-82 -15v689l82 13v-271c33 31 74 57 128 57c129 0 204 -104 204 -242zM400 229c0 101 -51 168 -136 168c-43 0 -80 -17 -111 -44c0 5 0 -261 0 -261c27 -22 62 -33 102 -33c93 0 145 76 145 170z" />
    <glyph glyph-name="c" unicode="c" horiz-adv-x="456" 
d="M417 23c-41 -25 -93 -38 -151 -38c-145 0 -225 99 -225 244c0 146 97 244 231 244c59 0 106 -13 148 -39l-21 -75c-38 26 -81 38 -127 38c-94 0 -146 -64 -146 -167c0 -106 58 -169 144 -169c48 0 95 13 132 38z" />
    <glyph glyph-name="d" unicode="d" horiz-adv-x="526" 
d="M373 458v216l82 13v-687h-82v42c-33 -31 -74 -57 -128 -57c-129 0 -204 104 -204 242c0 139 96 246 233 246c33 0 70 -6 99 -15zM373 366c-27 22 -62 33 -102 33c-93 0 -145 -76 -145 -170c0 -101 51 -168 136 -168c43 0 80 17 111 44c0 -5 0 261 0 261z" />
    <glyph glyph-name="e" unicode="e" horiz-adv-x="480" 
d="M124 219v-4c3 -90 63 -154 151 -154c48 0 100 13 137 38l15 -76c-41 -25 -96 -38 -154 -38c-138 0 -232 99 -232 239c0 148 98 249 226 249c111 0 175 -70 175 -179c0 -25 -4 -53 -10 -73c-1 0 -308 -2 -308 -2zM128 279l235 2v7c0 68 -32 113 -104 113
c-78 0 -124 -62 -131 -122z" />
    <glyph glyph-name="f" unicode="f" horiz-adv-x="316" 
d="M331 674c0 -2 -20 -77 -20 -75c-21 9 -50 20 -73 20c-46 0 -68 -28 -68 -97v-64h145l-3 -74h-142v-384h-82v383l-80 6l4 52l75 22l1 58c2 128 61 175 151 175c34 0 70 -12 92 -22z" />
    <glyph glyph-name="g" unicode="g" horiz-adv-x="476" 
d="M127 299c0 -61 41 -102 107 -102c60 0 98 43 98 107c0 60 -35 103 -105 103c-60 0 -100 -44 -100 -108zM167 -22c-46 -13 -79 -40 -79 -74c0 -49 58 -85 145 -85c86 0 154 37 154 93c0 50 -45 62 -137 62c-29 0 -63 2 -83 4zM105 -7c-39 17 -60 45 -60 77
c0 38 30 73 76 89c-48 28 -76 78 -76 141c0 90 67 173 186 173c49 0 89 -13 118 -26l118 11l3 -81l-88 16c18 -17 31 -60 31 -94c0 -92 -76 -168 -183 -168c-23 0 -37 3 -64 11c-19 -7 -45 -25 -45 -48c0 -27 18 -43 104 -43c0 0 52 0 42 0c137 0 200 -42 200 -123
c0 -101 -109 -176 -247 -176c-121 0 -213 52 -213 134c0 52 35 95 98 107z" />
    <glyph glyph-name="g.alt" horiz-adv-x="528" 
d="M457 -4c0 -163 -78 -234 -211 -234c-62 0 -113 14 -160 38l21 76c42 -24 90 -37 139 -37c88 0 129 49 129 150v55c-33 -31 -74 -57 -128 -57c-129 0 -206 102 -206 240c0 139 98 246 235 246c43 0 88 -9 117 -17l64 17v-477zM375 107c0 -5 0 259 0 259
c-27 22 -62 35 -102 35c-93 0 -147 -78 -147 -172c0 -101 53 -168 138 -168c43 0 80 19 111 46z" />
    <glyph glyph-name="h" unicode="h" horiz-adv-x="517" 
d="M450 0h-82v288c0 79 -30 106 -90 106c-53 0 -99 -25 -125 -50v-344h-82v674l82 13v-281c42 42 96 67 154 67c88 0 143 -59 143 -158v-315z" />
    <glyph glyph-name="i" unicode="i" horiz-adv-x="224" 
d="M166 618c0 -31 -17 -59 -54 -59s-54 28 -54 59s17 59 54 59s54 -28 54 -59zM153 0h-82v460l82 13v-473z" />
    <glyph glyph-name="j" unicode="j" horiz-adv-x="221" 
d="M166 618c0 -31 -17 -59 -54 -59s-54 28 -54 59s17 59 54 59s54 -28 54 -59zM46 -249l-55 58c57 27 80 67 80 166c0 -15 0 485 0 485l82 13s0 -507 0 -492c0 -131 -29 -188 -107 -230z" />
    <glyph glyph-name="k" unicode="k" horiz-adv-x="456" 
d="M155 226h-2v-226h-82v674l82 13v-439h2l189 210h104l-210 -217l211 -241h-105z" />
    <glyph glyph-name="l" unicode="l" horiz-adv-x="224" 
d="M153 0h-82v674l82 13v-687z" />
    <glyph glyph-name="m" unicode="m" horiz-adv-x="792" 
d="M725 0h-82v286c0 80 -29 109 -88 109c-51 0 -90 -27 -116 -52v-28v-315h-82v286c0 80 -29 109 -88 109c-51 0 -90 -22 -116 -47v-348h-82v460l82 13v-63c44 42 92 63 147 63c53 0 97 -25 120 -76c49 49 103 76 166 76c84 0 139 -59 139 -160v-313z" />
    <glyph glyph-name="n" unicode="n" horiz-adv-x="517" 
d="M450 0h-82v288c0 79 -30 106 -95 106c-48 0 -94 -25 -120 -50v-344h-82v460l82 13v-69c42 42 96 69 149 69c93 0 148 -59 148 -158v-315z" />
    <glyph glyph-name="o" unicode="o" horiz-adv-x="528" 
d="M487 229c0 -147 -96 -244 -225 -244c-130 0 -221 96 -221 244c0 147 94 245 226 245c131 0 220 -97 220 -245zM406 228c0 98 -53 172 -143 172c-91 0 -141 -71 -141 -170c0 -98 53 -171 143 -171c91 0 141 70 141 169z" />
    <glyph glyph-name="p" unicode="p" horiz-adv-x="526" 
d="M153 416c33 31 74 57 128 57c129 0 204 -104 204 -242c0 -139 -96 -246 -233 -246c-27 0 -70 4 -99 12v-230h-82v693l82 13v-57zM153 353c0 5 0 -261 0 -261c27 -22 62 -33 102 -33c93 0 145 76 145 170c0 101 -51 168 -136 168c-43 0 -80 -17 -111 -44z" />
    <glyph glyph-name="q" unicode="q" horiz-adv-x="526" 
d="M455 -233h-82v275c-33 -31 -74 -57 -128 -57c-129 0 -204 104 -204 242c0 139 96 246 233 246c43 0 88 -9 117 -17l64 17v-706zM373 366c-27 22 -62 35 -102 35c-93 0 -145 -78 -145 -172c0 -101 51 -170 136 -170c43 0 80 19 111 46c0 -5 0 261 0 261z" />
    <glyph glyph-name="r" unicode="r" horiz-adv-x="381" 
d="M153 299v-299h-82v460l82 13v-81c32 51 70 81 128 81c31 0 62 -8 86 -23l-21 -77c-25 15 -50 21 -73 21c-44 0 -86 -32 -120 -95z" />
    <glyph glyph-name="s" unicode="s" horiz-adv-x="401" 
d="M364 130c0 -87 -73 -146 -173 -146c-56 0 -118 17 -160 43l21 75c38 -26 94 -43 141 -43c52 0 91 24 91 65c0 46 -54 61 -108 76c-65 18 -136 50 -136 134c0 85 72 139 164 139c53 0 106 -13 148 -34l-21 -75c-38 21 -93 34 -131 34c-49 0 -81 -20 -81 -57
c0 -44 49 -59 106 -74c67 -18 139 -50 139 -137z" />
    <glyph glyph-name="t" unicode="t" horiz-adv-x="339" 
d="M312 5c-34 -13 -69 -20 -103 -20c-89 0 -136 43 -133 143l7 256l-76 5l3 52l76 23l2 99h79l-3 -105h143l-3 -74h-143l-7 -259c-1 -43 19 -65 60 -65c28 0 56 7 83 17c1 0 15 -72 15 -72z" />
    <glyph glyph-name="u" unicode="u" horiz-adv-x="517" 
d="M67 458h82v-288c0 -79 30 -106 90 -106c53 0 99 25 125 50v344h82v-460l-82 -13v67c-42 -42 -96 -67 -154 -67c-88 0 -143 59 -143 158v315z" />
    <glyph glyph-name="v" unicode="v" horiz-adv-x="441" 
d="M439 458l-180 -459h-76l-181 459h88l134 -356l128 356h87z" />
    <glyph glyph-name="w" unicode="w" horiz-adv-x="684" 
d="M230 -2h-75l-141 460h88l97 -340l106 338h75l117 -339l84 341h91l-138 -460h-75l-117 342z" />
    <glyph glyph-name="x" unicode="x" horiz-adv-x="414" 
d="M413 0h-92l-114 179l-112 -179h-94l157 234l-148 224h92l105 -165l100 165h94l-145 -222z" />
    <glyph glyph-name="y" unicode="y" horiz-adv-x="441" 
d="M439 458l-183 -463l-31 -82c-44 -116 -90 -151 -161 -151c-35 0 -66 10 -97 24l24 76c24 -12 50 -22 73 -22c35 0 57 19 88 99l28 71l-178 448h88l133 -356l129 356h87z" />
    <glyph glyph-name="z" unicode="z" horiz-adv-x="410" 
d="M386 0h-365v70l266 313h-257v75h356v-68l-266 -315h266v-75z" />
    <glyph glyph-name="germandbls" unicode="&#xdf;" horiz-adv-x="580" 
d="M88 0v383l-80 6l4 52l75 22s1 58 1 53c2 134 86 180 181 180c102 0 174 -65 174 -156c0 -84 -85 -118 -85 -160c0 -106 195 -89 195 -247c0 -91 -65 -149 -168 -149c-51 0 -103 17 -145 43l21 75c38 -26 83 -46 125 -46c55 0 85 25 85 68c0 113 -194 91 -194 239
c0 83 79 98 79 172c0 52 -35 89 -88 89c-62 0 -98 -36 -98 -102v-522h-82z" />
    <glyph glyph-name="Agrave" unicode="&#xc0;" horiz-adv-x="574" 
d="M337 625l232 -625h-87l-59 164h-271l-59 -164h-88l235 625h97zM395 241l-107 296l-108 -296h215zM317 687h-60l-146 181h100z" />
    <glyph glyph-name="agrave" unicode="&#xe0;" horiz-adv-x="451" 
d="M306 104v124c-136 -18 -186 -46 -186 -102c0 -41 31 -71 81 -71c42 0 79 21 105 49zM309 49h-4c-35 -41 -77 -64 -126 -64c-86 0 -146 57 -146 131c0 82 59 154 273 164v13c0 74 -29 104 -103 104c-47 0 -105 -22 -148 -51l-16 74c40 28 107 53 172 53
c124 0 179 -53 177 -178v-192c0 -38 5 -45 45 -45l-5 -69c-74 -6 -107 20 -119 60zM251 520h-60l-146 181h100z" />
    <glyph glyph-name="agrave.alt" horiz-adv-x="526" 
d="M373 366c-27 22 -62 35 -102 35c-93 0 -145 -78 -145 -172c0 -101 51 -170 136 -170c43 0 80 19 111 46c0 -5 0 261 0 261zM245 -15c-129 0 -204 104 -204 242c0 139 96 246 233 246c43 0 88 -9 117 -17l64 17v-370c0 -38 5 -45 45 -45l-5 -69c-74 -6 -113 25 -122 60
c-35 -41 -74 -64 -128 -64zM343 520h-60l-146 181h100z" />
    <glyph glyph-name="Aacute" unicode="&#xc1;" horiz-adv-x="574" 
d="M337 625l232 -625h-87l-59 164h-271l-59 -164h-88l235 625h97zM395 241l-107 296l-108 -296h215zM459 868l-146 -181h-60l106 181h100z" />
    <glyph glyph-name="aacute" unicode="&#xe1;" horiz-adv-x="451" 
d="M306 104v124c-136 -18 -186 -46 -186 -102c0 -41 31 -71 81 -71c42 0 79 21 105 49zM309 49h-4c-35 -41 -77 -64 -126 -64c-86 0 -146 57 -146 131c0 82 59 154 273 164v13c0 74 -29 104 -103 104c-47 0 -105 -22 -148 -51l-16 74c40 28 107 53 172 53
c124 0 179 -53 177 -178v-192c0 -38 5 -45 45 -45l-5 -69c-74 -6 -107 20 -119 60zM373 701l-146 -181h-60l106 181h100z" />
    <glyph glyph-name="aacute.alt" horiz-adv-x="526" 
d="M373 366c-27 22 -62 35 -102 35c-93 0 -145 -78 -145 -172c0 -101 51 -170 136 -170c43 0 80 19 111 46c0 -5 0 261 0 261zM245 -15c-129 0 -204 104 -204 242c0 139 96 246 233 246c43 0 88 -9 117 -17l64 17v-370c0 -38 5 -45 45 -45l-5 -69c-74 -6 -113 25 -122 60
c-35 -41 -74 -64 -128 -64zM460 701l-146 -181h-60l106 181h100z" />
    <glyph glyph-name="Acircumflex" unicode="&#xc2;" horiz-adv-x="574" 
d="M337 625l232 -625h-87l-59 164h-271l-59 -164h-88l235 625h97zM395 241l-107 296l-108 -296h215zM449 687h-60l-98 127h-1l-99 -127h-60l115 187h88z" />
    <glyph glyph-name="acircumflex" unicode="&#xe2;" horiz-adv-x="451" 
d="M306 104v124c-136 -18 -186 -46 -186 -102c0 -41 31 -71 81 -71c42 0 79 21 105 49zM309 49h-4c-35 -41 -77 -64 -126 -64c-86 0 -146 57 -146 131c0 82 59 154 273 164v13c0 74 -29 104 -103 104c-47 0 -105 -22 -148 -51l-16 74c40 28 107 53 172 53
c124 0 179 -53 177 -178v-192c0 -38 5 -45 45 -45l-5 -69c-74 -6 -107 20 -119 60zM373 520h-60l-98 127h-1l-99 -127h-60l115 187h88z" />
    <glyph glyph-name="acircumflex.alt" horiz-adv-x="526" 
d="M373 366c-27 22 -62 35 -102 35c-93 0 -145 -78 -145 -172c0 -101 51 -170 136 -170c43 0 80 19 111 46c0 -5 0 261 0 261zM245 -15c-129 0 -204 104 -204 242c0 139 96 246 233 246c43 0 88 -9 117 -17l64 17v-370c0 -38 5 -45 45 -45l-5 -69c-74 -6 -113 25 -122 60
c-35 -41 -74 -64 -128 -64zM442 520h-60l-98 127h-1l-99 -127h-60l115 187h88z" />
    <glyph glyph-name="Atilde" unicode="&#xc3;" horiz-adv-x="574" 
d="M337 625l232 -625h-87l-59 164h-271l-59 -164h-88l235 625h97zM395 241l-107 296l-108 -296h215zM461 816c-9 -85 -36 -126 -97 -126c-62 0 -116 69 -153 69c-18 0 -31 -16 -38 -62c-3 0 -63 0 -55 0c9 86 36 127 97 127c62 0 116 -70 153 -70c18 0 31 16 37 62
c3 0 61 0 56 0z" />
    <glyph glyph-name="atilde" unicode="&#xe3;" horiz-adv-x="451" 
d="M306 104v124c-136 -18 -186 -46 -186 -102c0 -41 31 -71 81 -71c42 0 79 21 105 49zM309 49h-4c-35 -41 -77 -64 -126 -64c-86 0 -146 57 -146 131c0 82 59 154 273 164v13c0 74 -29 104 -103 104c-47 0 -105 -22 -148 -51l-16 74c40 28 107 53 172 53
c124 0 179 -53 177 -178v-192c0 -38 5 -45 45 -45l-5 -69c-74 -6 -107 20 -119 60zM385 649c-9 -85 -36 -126 -97 -126c-62 0 -116 69 -153 69c-18 0 -31 -16 -38 -62c-3 0 -63 0 -55 0c9 86 36 127 97 127c62 0 116 -70 153 -70c18 0 31 16 37 62c3 0 61 0 56 0z" />
    <glyph glyph-name="atilde.alt" horiz-adv-x="526" 
d="M373 366c-27 22 -62 35 -102 35c-93 0 -145 -78 -145 -172c0 -101 51 -170 136 -170c43 0 80 19 111 46c0 -5 0 261 0 261zM245 -15c-129 0 -204 104 -204 242c0 139 96 246 233 246c43 0 88 -9 117 -17l64 17v-370c0 -38 5 -45 45 -45l-5 -69c-74 -6 -113 25 -122 60
c-35 -41 -74 -64 -128 -64zM453 649c-9 -85 -36 -126 -97 -126c-62 0 -116 69 -153 69c-18 0 -31 -16 -38 -62c-3 0 -63 0 -55 0c9 86 36 127 97 127c62 0 116 -70 153 -70c18 0 31 16 37 62c3 0 61 0 56 0z" />
    <glyph glyph-name="Adieresis" unicode="&#xc4;" horiz-adv-x="574" 
d="M337 625l232 -625h-87l-59 164h-271l-59 -164h-88l235 625h97zM395 241l-107 296l-108 -296h215zM450 754c0 -34 -24 -63 -60 -63s-60 29 -60 63c0 33 24 62 60 62s60 -29 60 -62zM246 754c0 -34 -25 -63 -61 -63c-35 0 -60 29 -60 63c0 33 25 62 60 62
c36 0 61 -29 61 -62z" />
    <glyph glyph-name="adieresis" unicode="&#xe4;" horiz-adv-x="451" 
d="M306 104v124c-136 -18 -186 -46 -186 -102c0 -41 31 -71 81 -71c42 0 79 21 105 49zM309 49h-4c-35 -41 -77 -64 -126 -64c-86 0 -146 57 -146 131c0 82 59 154 273 164v13c0 74 -29 104 -103 104c-47 0 -105 -22 -148 -51l-16 74c40 28 107 53 172 53
c124 0 179 -53 177 -178v-192c0 -38 5 -45 45 -45l-5 -69c-74 -6 -107 20 -119 60zM376 587c0 -34 -24 -63 -60 -63s-60 29 -60 63c0 33 24 62 60 62s60 -29 60 -62zM172 587c0 -34 -25 -63 -61 -63c-35 0 -60 29 -60 63c0 33 25 62 60 62c36 0 61 -29 61 -62z" />
    <glyph glyph-name="adieresis.alt" horiz-adv-x="526" 
d="M373 366c-27 22 -62 35 -102 35c-93 0 -145 -78 -145 -172c0 -101 51 -170 136 -170c43 0 80 19 111 46c0 -5 0 261 0 261zM245 -15c-129 0 -204 104 -204 242c0 139 96 246 233 246c43 0 88 -9 117 -17l64 17v-370c0 -38 5 -45 45 -45l-5 -69c-74 -6 -113 25 -122 60
c-35 -41 -74 -64 -128 -64zM449 587c0 -34 -24 -63 -60 -63s-60 29 -60 63c0 33 24 62 60 62s60 -29 60 -62zM245 587c0 -34 -25 -63 -61 -63c-35 0 -60 29 -60 63c0 33 25 62 60 62c36 0 61 -29 61 -62z" />
    <glyph glyph-name="Aring" unicode="&#xc5;" horiz-adv-x="574" 
d="M395 241l-107 296l-108 -296h215zM225 587c-37 19 -60 54 -60 95c0 59 47 109 123 109c77 0 122 -50 123 -109c1 -40 -21 -76 -60 -95l218 -587h-87l-59 164h-271l-59 -164h-88zM361 683c0 36 -28 66 -73 66c-44 0 -71 -30 -71 -66s27 -67 71 -67c45 0 73 31 73 67z" />
    <glyph glyph-name="aring" unicode="&#xe5;" horiz-adv-x="451" 
d="M306 104v124c-136 -18 -186 -46 -186 -102c0 -41 31 -71 81 -71c42 0 79 21 105 49zM309 49h-4c-35 -41 -77 -64 -126 -64c-86 0 -146 57 -146 131c0 82 59 154 273 164v13c0 74 -29 104 -103 104c-47 0 -105 -22 -148 -51l-16 74c40 28 107 53 172 53
c124 0 179 -53 177 -178v-192c0 -38 5 -45 45 -45l-5 -69c-74 -6 -107 20 -119 60zM338 631c1 -60 -47 -109 -124 -109s-124 49 -124 109s47 110 124 110s123 -50 124 -110zM286 632c0 36 -27 66 -72 66c-44 0 -71 -30 -71 -66s27 -67 71 -67c45 0 72 31 72 67z" />
    <glyph glyph-name="aring.alt" horiz-adv-x="526" 
d="M373 366c-27 22 -62 35 -102 35c-93 0 -145 -78 -145 -172c0 -101 51 -170 136 -170c43 0 80 19 111 46c0 -5 0 261 0 261zM245 -15c-129 0 -204 104 -204 242c0 139 96 246 233 246c43 0 88 -9 117 -17l64 17v-370c0 -38 5 -45 45 -45l-5 -69c-74 -6 -113 25 -122 60
c-35 -41 -74 -64 -128 -64zM405 631c1 -60 -47 -109 -124 -109s-124 49 -124 109s47 110 124 110s123 -50 124 -110zM353 632c0 36 -27 66 -72 66c-44 0 -71 -30 -71 -66s27 -67 71 -67c45 0 72 31 72 67z" />
    <glyph glyph-name="Aringacute" unicode="&#x1fa;" horiz-adv-x="574" 
d="M395 241l-107 296l-108 -296h215zM225 587c-37 19 -60 54 -60 95c0 59 47 109 123 109c77 0 122 -50 123 -109c1 -40 -21 -76 -60 -95l218 -587h-87l-59 164h-271l-59 -164h-88zM361 683c0 36 -28 66 -73 66c-44 0 -71 -30 -71 -66s27 -67 71 -67c45 0 73 31 73 67z
M399 996l-146 -181h-60l106 181h100z" />
    <glyph glyph-name="aringacute" unicode="&#x1fb;" horiz-adv-x="451" 
d="M349 949l-146 -181h-60l106 181h100zM306 104v124c-136 -18 -186 -46 -186 -102c0 -41 31 -71 81 -71c42 0 79 21 105 49zM309 49h-4c-35 -41 -77 -64 -126 -64c-86 0 -146 57 -146 131c0 82 59 154 273 164v13c0 74 -29 104 -103 104c-47 0 -105 -22 -148 -51l-16 74
c40 28 107 53 172 53c124 0 179 -53 177 -178v-192c0 -38 5 -45 45 -45l-5 -69c-74 -6 -107 20 -119 60zM338 631c1 -60 -47 -109 -124 -109s-124 49 -124 109s47 110 124 110s123 -50 124 -110zM286 632c0 36 -27 66 -72 66c-44 0 -71 -30 -71 -66s27 -67 71 -67
c45 0 72 31 72 67z" />
    <glyph glyph-name="aringacute.alt" horiz-adv-x="526" 
d="M409 949l-146 -181h-60l106 181h100zM373 366c-27 22 -62 35 -102 35c-93 0 -145 -78 -145 -172c0 -101 51 -170 136 -170c43 0 80 19 111 46c0 -5 0 261 0 261zM245 -15c-129 0 -204 104 -204 242c0 139 96 246 233 246c43 0 88 -9 117 -17l64 17v-370
c0 -38 5 -45 45 -45l-5 -69c-74 -6 -113 25 -122 60c-35 -41 -74 -64 -128 -64zM405 631c1 -60 -47 -109 -124 -109s-124 49 -124 109s47 110 124 110s123 -50 124 -110zM353 632c0 36 -27 66 -72 66c-44 0 -71 -30 -71 -66s27 -67 71 -67c45 0 72 31 72 67z" />
    <glyph glyph-name="Amacron" unicode="&#x100;" horiz-adv-x="574" 
d="M337 625l232 -625h-87l-59 164h-271l-59 -164h-88l235 625h97zM395 241l-107 296l-108 -296h215zM425 705h-275l4 53h266z" />
    <glyph glyph-name="amacron" unicode="&#x101;" horiz-adv-x="451" 
d="M306 104v124c-136 -18 -186 -46 -186 -102c0 -41 31 -71 81 -71c42 0 79 21 105 49zM309 49h-4c-35 -41 -77 -64 -126 -64c-86 0 -146 57 -146 131c0 82 59 154 273 164v13c0 74 -29 104 -103 104c-47 0 -105 -22 -148 -51l-16 74c40 28 107 53 172 53
c124 0 179 -53 177 -178v-192c0 -38 5 -45 45 -45l-5 -69c-74 -6 -107 20 -119 60zM351 538h-275l4 53h266z" />
    <glyph glyph-name="amacron.alt" horiz-adv-x="526" 
d="M373 366c-27 22 -62 35 -102 35c-93 0 -145 -78 -145 -172c0 -101 51 -170 136 -170c43 0 80 19 111 46c0 -5 0 261 0 261zM245 -15c-129 0 -204 104 -204 242c0 139 96 246 233 246c43 0 88 -9 117 -17l64 17v-370c0 -38 5 -45 45 -45l-5 -69c-74 -6 -113 25 -122 60
c-35 -41 -74 -64 -128 -64zM427 538h-275l4 53h266z" />
    <glyph glyph-name="Abreve" unicode="&#x102;" horiz-adv-x="574" 
d="M337 625l232 -625h-87l-59 164h-271l-59 -164h-88l235 625h97zM395 241l-107 296l-108 -296h215zM448 873c-14 -106 -63 -187 -160 -187s-146 81 -160 187h67c12 -66 40 -122 93 -122s82 56 93 122h67z" />
    <glyph glyph-name="abreve" unicode="&#x103;" horiz-adv-x="451" 
d="M306 104v124c-136 -18 -186 -46 -186 -102c0 -41 31 -71 81 -71c42 0 79 21 105 49zM309 49h-4c-35 -41 -77 -64 -126 -64c-86 0 -146 57 -146 131c0 82 59 154 273 164v13c0 74 -29 104 -103 104c-47 0 -105 -22 -148 -51l-16 74c40 28 107 53 172 53
c124 0 179 -53 177 -178v-192c0 -38 5 -45 45 -45l-5 -69c-74 -6 -107 20 -119 60zM393 706c-14 -106 -63 -187 -160 -187s-146 81 -160 187h67c12 -66 40 -122 93 -122s82 56 93 122h67z" />
    <glyph glyph-name="abreve.alt" horiz-adv-x="526" 
d="M373 366c-27 22 -62 35 -102 35c-93 0 -145 -78 -145 -172c0 -101 51 -170 136 -170c43 0 80 19 111 46c0 -5 0 261 0 261zM245 -15c-129 0 -204 104 -204 242c0 139 96 246 233 246c43 0 88 -9 117 -17l64 17v-370c0 -38 5 -45 45 -45l-5 -69c-74 -6 -113 25 -122 60
c-35 -41 -74 -64 -128 -64zM451 706c-14 -106 -63 -187 -160 -187s-146 81 -160 187h67c12 -66 40 -122 93 -122s82 56 93 122h67z" />
    <glyph glyph-name="Aogonek" unicode="&#x104;" horiz-adv-x="574" 
d="M337 625l232 -625c-61 -13 -112 -55 -112 -95c0 -30 16 -49 45 -49c18 0 38 6 51 16l18 -62c-21 -15 -50 -27 -90 -27c-62 0 -106 37 -106 96c0 63 55 109 106 122l-58 163h-271l-59 -164h-88l235 625h97zM395 241l-107 296l-108 -296h215z" />
    <glyph glyph-name="aogonek" unicode="&#x105;" horiz-adv-x="451" 
d="M309 49h-4c-35 -41 -77 -64 -126 -64c-86 0 -146 57 -146 131c0 82 59 154 273 164v13c0 74 -29 104 -103 104c-47 0 -105 -22 -148 -51l-16 74c40 28 107 53 172 53c124 0 179 -53 177 -178v-192c0 -38 5 -45 45 -45l-5 -69c-68 -2 -113 -31 -113 -84
c0 -30 16 -49 45 -49c18 0 38 6 51 16l18 -62c-21 -15 -50 -27 -90 -27c-62 0 -106 37 -106 96c0 60 45 107 99 132c-11 10 -19 23 -23 38zM306 104v124c-136 -18 -186 -46 -186 -102c0 -41 31 -71 81 -71c42 0 79 21 105 49z" />
    <glyph glyph-name="aogonek.alt" horiz-adv-x="526" 
d="M245 -15c-129 0 -204 104 -204 242c0 139 96 246 233 246c43 0 88 -9 117 -17l64 17v-370c0 -38 5 -45 45 -45l-5 -69c-67 0 -114 -32 -114 -84c0 -30 16 -49 45 -49c18 0 38 6 51 16l18 -62c-21 -15 -50 -27 -90 -27c-62 0 -106 37 -106 96c0 60 45 107 99 132
c-13 10 -22 24 -25 38c-35 -41 -74 -64 -128 -64zM373 366c-27 22 -62 35 -102 35c-93 0 -145 -78 -145 -172c0 -101 51 -170 136 -170c43 0 80 19 111 46v261z" />
    <glyph glyph-name="AE" unicode="&#xc6;" horiz-adv-x="832" 
d="M222 242h172v305zM177 163l-91 -163h-94l357 625h441v-79h-312v-193h260v-79h-260v-195h312v-79h-396v163h-217z" />
    <glyph glyph-name="ae" unicode="&#xe6;" horiz-adv-x="754" 
d="M354 79c-32 -49 -92 -94 -175 -94c-86 0 -146 57 -146 131c0 82 61 156 283 164v10c0 82 -39 107 -113 107c-47 0 -105 -22 -148 -51l-16 74c40 28 107 53 172 53c94 0 139 -31 161 -77c36 46 95 77 167 77c111 0 175 -70 175 -179c0 -25 -4 -53 -10 -73
c-1 0 -308 -2 -308 -2v-4c3 -90 63 -154 151 -154c48 0 100 13 137 38l15 -76c-41 -25 -96 -38 -154 -38c-83 0 -151 37 -191 94zM400 279l235 2v7c0 68 -32 113 -104 113c-78 0 -124 -62 -131 -122zM316 228c-143 -13 -196 -46 -196 -102c0 -41 31 -71 86 -71
c44 0 99 30 125 66c-7 20 -15 83 -15 107z" />
    <glyph glyph-name="AEacute" unicode="&#x1fc;" horiz-adv-x="832" 
d="M222 242h172v305zM177 163l-91 -163h-94l357 625h441v-79h-312v-193h260v-79h-260v-195h312v-79h-396v163h-217zM652 868l-146 -181h-60l106 181h100z" />
    <glyph glyph-name="aeacute" unicode="&#x1fd;" horiz-adv-x="754" 
d="M354 79c-32 -49 -92 -94 -175 -94c-86 0 -146 57 -146 131c0 82 61 156 283 164v10c0 82 -39 107 -113 107c-47 0 -105 -22 -148 -51l-16 74c40 28 107 53 172 53c94 0 139 -31 161 -77c36 46 95 77 167 77c111 0 175 -70 175 -179c0 -25 -4 -53 -10 -73
c-1 0 -308 -2 -308 -2v-4c3 -90 63 -154 151 -154c48 0 100 13 137 38l15 -76c-41 -25 -96 -38 -154 -38c-83 0 -151 37 -191 94zM400 279l235 2v7c0 68 -32 113 -104 113c-78 0 -124 -62 -131 -122zM316 228c-143 -13 -196 -46 -196 -102c0 -41 31 -71 86 -71
c44 0 99 30 125 66c-7 20 -15 83 -15 107zM529 701l-146 -181h-60l106 181h100z" />
    <glyph glyph-name="Ccedilla" unicode="&#xc7;" horiz-adv-x="601" 
d="M327 -68c78 0 123 -32 123 -82c0 -56 -47 -96 -164 -111l-6 52c74 4 106 25 106 54c0 31 -37 47 -120 34l-8 42l66 66c-164 14 -278 138 -278 324c0 199 131 329 313 329c71 0 147 -20 198 -52l-27 -77c-55 36 -106 53 -171 53c-136 0 -227 -94 -227 -249
s92 -254 229 -254c67 0 133 27 177 61l14 -85c-46 -29 -108 -47 -170 -51z" />
    <glyph glyph-name="ccedilla" unicode="&#xe7;" horiz-adv-x="456" 
d="M241 -68c78 0 123 -32 123 -82c0 -56 -47 -96 -164 -111l-6 52c74 4 106 25 106 54c0 31 -37 47 -120 34l-8 42l66 65c-128 12 -197 107 -197 243c0 146 97 244 231 244c59 0 106 -13 148 -39l-21 -75c-38 26 -81 38 -127 38c-94 0 -146 -64 -146 -167
c0 -106 58 -169 144 -169c48 0 95 13 132 38l15 -76c-34 -21 -75 -33 -121 -37z" />
    <glyph glyph-name="Cacute" unicode="&#x106;" horiz-adv-x="601" 
d="M557 588l-27 -77c-55 36 -106 53 -171 53c-136 0 -227 -94 -227 -249s92 -254 229 -254c67 0 133 27 177 61l14 -85c-51 -32 -123 -52 -193 -52c-183 0 -313 127 -313 326s131 329 313 329c71 0 147 -20 198 -52zM462 868l-146 -181h-60l106 181h100z" />
    <glyph glyph-name="cacute" unicode="&#x107;" horiz-adv-x="456" 
d="M417 23c-41 -25 -93 -38 -151 -38c-145 0 -225 99 -225 244c0 146 97 244 231 244c59 0 106 -13 148 -39l-21 -75c-38 26 -81 38 -127 38c-94 0 -146 -64 -146 -167c0 -106 58 -169 144 -169c48 0 95 13 132 38zM387 701l-146 -181h-60l106 181h100z" />
    <glyph glyph-name="Ccircumflex" unicode="&#x108;" horiz-adv-x="601" 
d="M557 588l-27 -77c-55 36 -106 53 -171 53c-136 0 -227 -94 -227 -249s92 -254 229 -254c67 0 133 27 177 61l14 -85c-51 -32 -123 -52 -193 -52c-183 0 -313 127 -313 326s131 329 313 329c71 0 147 -20 198 -52zM482 687h-60l-98 127h-1l-99 -127h-60l115 187h88z" />
    <glyph glyph-name="ccircumflex" unicode="&#x109;" horiz-adv-x="456" 
d="M417 23c-41 -25 -93 -38 -151 -38c-145 0 -225 99 -225 244c0 146 97 244 231 244c59 0 106 -13 148 -39l-21 -75c-38 26 -81 38 -127 38c-94 0 -146 -64 -146 -167c0 -106 58 -169 144 -169c48 0 95 13 132 38zM418 520h-60l-98 127h-1l-99 -127h-60l115 187h88z" />
    <glyph glyph-name="Cdotaccent" unicode="&#x10a;" horiz-adv-x="601" 
d="M557 588l-27 -77c-55 36 -106 53 -171 53c-136 0 -227 -94 -227 -249s92 -254 229 -254c67 0 133 27 177 61l14 -85c-51 -32 -123 -52 -193 -52c-183 0 -313 127 -313 326s131 329 313 329c71 0 147 -20 198 -52zM396 752c0 -32 -23 -60 -58 -60c-34 0 -57 28 -57 60
c0 33 23 61 57 61c35 0 58 -28 58 -61z" />
    <glyph glyph-name="cdotaccent" unicode="&#x10b;" horiz-adv-x="456" 
d="M417 23c-41 -25 -93 -38 -151 -38c-145 0 -225 99 -225 244c0 146 97 244 231 244c59 0 106 -13 148 -39l-21 -75c-38 26 -81 38 -127 38c-94 0 -146 -64 -146 -167c0 -106 58 -169 144 -169c48 0 95 13 132 38zM328 585c0 -32 -23 -60 -58 -60c-34 0 -57 28 -57 60
c0 33 23 61 57 61c35 0 58 -28 58 -61z" />
    <glyph glyph-name="Ccaron" unicode="&#x10c;" horiz-adv-x="601" 
d="M557 588l-27 -77c-55 36 -106 53 -171 53c-136 0 -227 -94 -227 -249s92 -254 229 -254c67 0 133 27 177 61l14 -85c-51 -32 -123 -52 -193 -52c-183 0 -313 127 -313 326s131 329 313 329c71 0 147 -20 198 -52zM482 874l-115 -187h-88l-115 187h60l98 -127h1l99 127h60
z" />
    <glyph glyph-name="ccaron" unicode="&#x10d;" horiz-adv-x="456" 
d="M417 23c-41 -25 -93 -38 -151 -38c-145 0 -225 99 -225 244c0 146 97 244 231 244c59 0 106 -13 148 -39l-21 -75c-38 26 -81 38 -127 38c-94 0 -146 -64 -146 -167c0 -106 58 -169 144 -169c48 0 95 13 132 38zM416 707l-115 -187h-88l-115 187h60l98 -127h1l99 127h60z
" />
    <glyph glyph-name="Dcaron" unicode="&#x10e;" horiz-adv-x="644" 
d="M598 317c0 -193 -120 -317 -335 -317h-184v625h188c207 0 331 -122 331 -308zM513 311c0 154 -92 235 -250 235h-99v-467h103c149 0 246 79 246 232zM446 874l-115 -187h-88l-115 187h60l98 -127h1l99 127h60z" />
    <glyph glyph-name="dcaron" unicode="&#x10f;" horiz-adv-x="745" 
d="M373 458v216l82 13v-687h-82v42c-33 -31 -74 -57 -128 -57c-129 0 -204 104 -204 242c0 139 96 246 233 246c33 0 70 -6 99 -15zM373 366c-27 22 -62 33 -102 33c-93 0 -145 -76 -145 -170c0 -101 51 -168 136 -168c43 0 80 17 111 44c0 -5 0 261 0 261zM567 634
c4 32 26 59 68 59c41 0 85 -38 85 -91c0 -83 -74 -146 -148 -195l-35 34c69 50 102 92 102 127c0 25 -18 41 -72 66z" />
    <glyph glyph-name="Eth" unicode="&#xd0;" horiz-adv-x="659" 
d="M184 353h159v-73h-159v-201h103c149 0 246 79 246 232c0 154 -92 235 -250 235h-99v-193zM99 280h-83v73h83v272h188c207 0 331 -122 331 -308c0 -193 -120 -317 -335 -317h-184v280z" />
    <glyph glyph-name="eth" unicode="&#xf0;" horiz-adv-x="534" 
d="M493 243c0 -146 -77 -258 -225 -258c-137 0 -227 95 -227 220c0 147 109 229 199 229c71 0 113 -28 146 -68l2 1c-19 52 -88 134 -144 191l-103 -28l-14 55l70 19c-25 24 -51 48 -79 70l93 22c27 -22 52 -44 75 -67l103 27l14 -55l-72 -19c96 -106 162 -226 162 -339z
M412 224c0 38 -9 67 -18 87c-18 29 -75 50 -137 50c-68 0 -128 -55 -128 -144c0 -101 59 -158 142 -158c82 0 141 59 141 165z" />
    <glyph glyph-name="Dcroat" unicode="&#x110;" horiz-adv-x="659" 
d="M184 353h159v-73h-159v-201h103c149 0 246 79 246 232c0 154 -92 235 -250 235h-99v-193zM99 280h-83v73h83v272h188c207 0 331 -122 331 -308c0 -193 -120 -317 -335 -317h-184v280z" />
    <glyph glyph-name="dcroat" unicode="&#x111;" horiz-adv-x="526" 
d="M373 458v80h-109l5 53h104v83l82 13v-97l64 1l4 -53h-68v-538h-82v42c-33 -31 -74 -57 -128 -57c-129 0 -204 104 -204 242c0 139 96 246 233 246c33 0 70 -6 99 -15zM373 366c-27 22 -62 33 -102 33c-93 0 -145 -76 -145 -170c0 -101 51 -168 136 -168
c43 0 80 17 111 44v261z" />
    <glyph glyph-name="Egrave" unicode="&#xc8;" horiz-adv-x="523" 
d="M475 0h-396v625h396v-79h-311v-193h259v-79h-259v-195h311v-79zM321 687h-60l-146 181h100z" />
    <glyph glyph-name="egrave" unicode="&#xe8;" horiz-adv-x="480" 
d="M124 219v-4c3 -90 63 -154 151 -154c48 0 100 13 137 38l15 -76c-41 -25 -96 -38 -154 -38c-138 0 -232 99 -232 239c0 148 98 249 226 249c111 0 175 -70 175 -179c0 -25 -4 -53 -10 -73c-1 0 -308 -2 -308 -2zM128 279l235 2v7c0 68 -32 113 -104 113
c-78 0 -124 -62 -131 -122zM293 520h-60l-146 181h100z" />
    <glyph glyph-name="Eacute" unicode="&#xc9;" horiz-adv-x="523" 
d="M475 0h-396v625h396v-79h-311v-193h259v-79h-259v-195h311v-79zM432 868l-146 -181h-60l106 181h100z" />
    <glyph glyph-name="eacute" unicode="&#xe9;" horiz-adv-x="480" 
d="M124 219v-4c3 -90 63 -154 151 -154c48 0 100 13 137 38l15 -76c-41 -25 -96 -38 -154 -38c-138 0 -232 99 -232 239c0 148 98 249 226 249c111 0 175 -70 175 -179c0 -25 -4 -53 -10 -73c-1 0 -308 -2 -308 -2zM128 279l235 2v7c0 68 -32 113 -104 113
c-78 0 -124 -62 -131 -122zM415 701l-146 -181h-60l106 181h100z" />
    <glyph glyph-name="Ecircumflex" unicode="&#xca;" horiz-adv-x="523" 
d="M475 0h-396v625h396v-79h-311v-193h259v-79h-259v-195h311v-79zM433 687h-60l-98 127h-1l-99 -127h-60l115 187h88z" />
    <glyph glyph-name="ecircumflex" unicode="&#xea;" horiz-adv-x="480" 
d="M124 219v-4c3 -90 63 -154 151 -154c48 0 100 13 137 38l15 -76c-41 -25 -96 -38 -154 -38c-138 0 -232 99 -232 239c0 148 98 249 226 249c111 0 175 -70 175 -179c0 -25 -4 -53 -10 -73c-1 0 -308 -2 -308 -2zM128 279l235 2v7c0 68 -32 113 -104 113
c-78 0 -124 -62 -131 -122zM395 520h-60l-98 127h-1l-99 -127h-60l115 187h88z" />
    <glyph glyph-name="Edieresis" unicode="&#xcb;" horiz-adv-x="523" 
d="M475 0h-396v625h396v-79h-311v-193h259v-79h-259v-195h311v-79zM436 754c0 -34 -24 -63 -60 -63s-60 29 -60 63c0 33 24 62 60 62s60 -29 60 -62zM232 754c0 -34 -25 -63 -61 -63c-35 0 -60 29 -60 63c0 33 25 62 60 62c36 0 61 -29 61 -62z" />
    <glyph glyph-name="edieresis" unicode="&#xeb;" horiz-adv-x="480" 
d="M124 219v-4c3 -90 63 -154 151 -154c48 0 100 13 137 38l15 -76c-41 -25 -96 -38 -154 -38c-138 0 -232 99 -232 239c0 148 98 249 226 249c111 0 175 -70 175 -179c0 -25 -4 -53 -10 -73c-1 0 -308 -2 -308 -2zM128 279l235 2v7c0 68 -32 113 -104 113
c-78 0 -124 -62 -131 -122zM403 587c0 -34 -24 -63 -60 -63s-60 29 -60 63c0 33 24 62 60 62s60 -29 60 -62zM199 587c0 -34 -25 -63 -61 -63c-35 0 -60 29 -60 63c0 33 25 62 60 62c36 0 61 -29 61 -62z" />
    <glyph glyph-name="Emacron" unicode="&#x112;" horiz-adv-x="523" 
d="M475 0h-396v625h396v-79h-311v-193h259v-79h-259v-195h311v-79zM413 705h-275l4 53h266z" />
    <glyph glyph-name="emacron" unicode="&#x113;" horiz-adv-x="480" 
d="M124 219v-4c3 -90 63 -154 151 -154c48 0 100 13 137 38l15 -76c-41 -25 -96 -38 -154 -38c-138 0 -232 99 -232 239c0 148 98 249 226 249c111 0 175 -70 175 -179c0 -25 -4 -53 -10 -73c-1 0 -308 -2 -308 -2zM128 279l235 2v7c0 68 -32 113 -104 113
c-78 0 -124 -62 -131 -122zM390 538h-275l4 53h266z" />
    <glyph glyph-name="Ebreve" unicode="&#x114;" horiz-adv-x="523" 
d="M475 0h-396v625h396v-79h-311v-193h259v-79h-259v-195h311v-79zM448 873c-14 -106 -63 -187 -160 -187s-146 81 -160 187h67c12 -66 40 -122 93 -122s82 56 93 122h67z" />
    <glyph glyph-name="ebreve" unicode="&#x115;" horiz-adv-x="480" 
d="M124 219v-4c3 -90 63 -154 151 -154c48 0 100 13 137 38l15 -76c-41 -25 -96 -38 -154 -38c-138 0 -232 99 -232 239c0 148 98 249 226 249c111 0 175 -70 175 -179c0 -25 -4 -53 -10 -73c-1 0 -308 -2 -308 -2zM128 279l235 2v7c0 68 -32 113 -104 113
c-78 0 -124 -62 -131 -122zM412 706c-14 -106 -63 -187 -160 -187s-146 81 -160 187h67c12 -66 40 -122 93 -122s82 56 93 122h67z" />
    <glyph glyph-name="Edotaccent" unicode="&#x116;" horiz-adv-x="523" 
d="M475 0h-396v625h396v-79h-311v-193h259v-79h-259v-195h311v-79zM339 752c0 -32 -23 -60 -58 -60c-34 0 -57 28 -57 60c0 33 23 61 57 61c35 0 58 -28 58 -61z" />
    <glyph glyph-name="edotaccent" unicode="&#x117;" horiz-adv-x="480" 
d="M124 219v-4c3 -90 63 -154 151 -154c48 0 100 13 137 38l15 -76c-41 -25 -96 -38 -154 -38c-138 0 -232 99 -232 239c0 148 98 249 226 249c111 0 175 -70 175 -179c0 -25 -4 -53 -10 -73c-1 0 -308 -2 -308 -2zM128 279l235 2v7c0 68 -32 113 -104 113
c-78 0 -124 -62 -131 -122zM311 585c0 -32 -23 -60 -58 -60c-34 0 -57 28 -57 60c0 33 23 61 57 61c35 0 58 -28 58 -61z" />
    <glyph glyph-name="Eogonek" unicode="&#x118;" horiz-adv-x="523" 
d="M475 0h-54c-39 -29 -60 -59 -60 -95c0 -30 16 -49 45 -49c18 0 38 6 51 16l18 -62c-21 -15 -50 -27 -90 -27c-62 0 -106 37 -106 96c0 52 35 94 79 121h-279v625h396v-79h-311v-193h259v-79h-259v-195h311v-79z" />
    <glyph glyph-name="eogonek" unicode="&#x119;" horiz-adv-x="480" 
d="M124 219v-4c3 -90 63 -154 151 -154c48 0 100 13 137 38l15 -76c-57 -16 -115 -64 -115 -118c0 -30 16 -49 45 -49c18 0 38 6 51 16l18 -62c-21 -15 -50 -27 -90 -27c-62 0 -106 37 -106 96c0 44 24 80 58 106h-15c-138 0 -232 99 -232 239c0 148 98 249 226 249
c111 0 175 -70 175 -179c0 -25 -4 -53 -10 -73c-1 0 -308 -2 -308 -2zM128 279l235 2v7c0 68 -32 113 -104 113c-78 0 -124 -62 -131 -122z" />
    <glyph glyph-name="Ecaron" unicode="&#x11a;" horiz-adv-x="523" 
d="M475 0h-396v625h396v-79h-311v-193h259v-79h-259v-195h311v-79zM446 874l-115 -187h-88l-115 187h60l98 -127h1l99 127h60z" />
    <glyph glyph-name="ecaron" unicode="&#x11b;" horiz-adv-x="480" 
d="M124 219v-4c3 -90 63 -154 151 -154c48 0 100 13 137 38l15 -76c-41 -25 -96 -38 -154 -38c-138 0 -232 99 -232 239c0 148 98 249 226 249c111 0 175 -70 175 -179c0 -25 -4 -53 -10 -73c-1 0 -308 -2 -308 -2zM128 279l235 2v7c0 68 -32 113 -104 113
c-78 0 -124 -62 -131 -122zM411 707l-115 -187h-88l-115 187h60l98 -127h1l99 127h60z" />
    <glyph glyph-name="Gcircumflex" unicode="&#x11c;" horiz-adv-x="640" 
d="M579 45c-65 -40 -153 -60 -220 -60c-183 0 -313 127 -313 326s131 329 313 329c73 0 156 -21 208 -54l-28 -78c-50 32 -116 56 -180 56c-136 0 -227 -94 -227 -249s92 -254 229 -254c52 0 99 14 136 32v148h-175v79h257v-275zM490 687h-60l-98 127h-1l-99 -127h-60
l115 187h88z" />
    <glyph glyph-name="gcircumflex" unicode="&#x11d;" horiz-adv-x="476" 
d="M127 299c0 -61 41 -102 107 -102c60 0 98 43 98 107c0 60 -35 103 -105 103c-60 0 -100 -44 -100 -108zM167 -22c-46 -13 -79 -40 -79 -74c0 -49 58 -85 145 -85c86 0 154 37 154 93c0 50 -45 62 -137 62c-29 0 -63 2 -83 4zM105 -7c-39 17 -60 45 -60 77
c0 38 30 73 76 89c-48 28 -76 78 -76 141c0 90 67 173 186 173c49 0 89 -13 118 -26l118 11l3 -81l-88 16c18 -17 31 -60 31 -94c0 -92 -76 -168 -183 -168c-23 0 -37 3 -64 11c-19 -7 -45 -25 -45 -48c0 -27 18 -43 104 -43c0 0 52 0 42 0c137 0 200 -42 200 -123
c0 -101 -109 -176 -247 -176c-121 0 -213 52 -213 134c0 52 35 95 98 107zM389 520h-60l-98 127h-1l-99 -127h-60l115 187h88z" />
    <glyph glyph-name="gcircumflex.alt" horiz-adv-x="528" 
d="M457 -4c0 -163 -78 -234 -211 -234c-62 0 -113 14 -160 38l21 76c42 -24 90 -37 139 -37c88 0 129 49 129 150v55c-33 -31 -74 -57 -128 -57c-129 0 -206 102 -206 240c0 139 98 246 235 246c43 0 88 -9 117 -17l64 17v-477zM375 107c0 -5 0 259 0 259
c-27 22 -62 35 -102 35c-93 0 -147 -78 -147 -172c0 -101 53 -168 138 -168c43 0 80 19 111 46zM435 520h-60l-98 127h-1l-99 -127h-60l115 187h88z" />
    <glyph glyph-name="Gbreve" unicode="&#x11e;" horiz-adv-x="640" 
d="M579 45c-65 -40 -153 -60 -220 -60c-183 0 -313 127 -313 326s131 329 313 329c73 0 156 -21 208 -54l-28 -78c-50 32 -116 56 -180 56c-136 0 -227 -94 -227 -249s92 -254 229 -254c52 0 99 14 136 32v148h-175v79h257v-275zM480 873c-14 -106 -63 -187 -160 -187
s-146 81 -160 187h67c12 -66 40 -122 93 -122s82 56 93 122h67z" />
    <glyph glyph-name="gbreve" unicode="&#x11f;" horiz-adv-x="476" 
d="M127 299c0 -61 41 -102 107 -102c60 0 98 43 98 107c0 60 -35 103 -105 103c-60 0 -100 -44 -100 -108zM167 -22c-46 -13 -79 -40 -79 -74c0 -49 58 -85 145 -85c86 0 154 37 154 93c0 50 -45 62 -137 62c-29 0 -63 2 -83 4zM105 -7c-39 17 -60 45 -60 77
c0 38 30 73 76 89c-48 28 -76 78 -76 141c0 90 67 173 186 173c49 0 89 -13 118 -26l118 11l3 -81l-88 16c18 -17 31 -60 31 -94c0 -92 -76 -168 -183 -168c-23 0 -37 3 -64 11c-19 -7 -45 -25 -45 -48c0 -27 18 -43 104 -43c0 0 52 0 42 0c137 0 200 -42 200 -123
c0 -101 -109 -176 -247 -176c-121 0 -213 52 -213 134c0 52 35 95 98 107zM400 706c-14 -106 -63 -187 -160 -187s-146 81 -160 187h67c12 -66 40 -122 93 -122s82 56 93 122h67z" />
    <glyph glyph-name="gbreve.alt" horiz-adv-x="528" 
d="M457 -4c0 -163 -78 -234 -211 -234c-62 0 -113 14 -160 38l21 76c42 -24 90 -37 139 -37c88 0 129 49 129 150v55c-33 -31 -74 -57 -128 -57c-129 0 -206 102 -206 240c0 139 98 246 235 246c43 0 88 -9 117 -17l64 17v-477zM375 107c0 -5 0 259 0 259
c-27 22 -62 35 -102 35c-93 0 -147 -78 -147 -172c0 -101 53 -168 138 -168c43 0 80 19 111 46zM445 706c-14 -106 -63 -187 -160 -187s-146 81 -160 187h67c12 -66 40 -122 93 -122s82 56 93 122h67z" />
    <glyph glyph-name="Gdotaccent" unicode="&#x120;" horiz-adv-x="640" 
d="M579 45c-65 -40 -153 -60 -220 -60c-183 0 -313 127 -313 326s131 329 313 329c73 0 156 -21 208 -54l-28 -78c-50 32 -116 56 -180 56c-136 0 -227 -94 -227 -249s92 -254 229 -254c52 0 99 14 136 32v148h-175v79h257v-275zM408 752c0 -32 -23 -60 -58 -60
c-34 0 -57 28 -57 60c0 33 23 61 57 61c35 0 58 -28 58 -61z" />
    <glyph glyph-name="gdotaccent" unicode="&#x121;" horiz-adv-x="476" 
d="M127 299c0 -61 41 -102 107 -102c60 0 98 43 98 107c0 60 -35 103 -105 103c-60 0 -100 -44 -100 -108zM167 -22c-46 -13 -79 -40 -79 -74c0 -49 58 -85 145 -85c86 0 154 37 154 93c0 50 -45 62 -137 62c-29 0 -63 2 -83 4zM105 -7c-39 17 -60 45 -60 77
c0 38 30 73 76 89c-48 28 -76 78 -76 141c0 90 67 173 186 173c49 0 89 -13 118 -26l118 11l3 -81l-88 16c18 -17 31 -60 31 -94c0 -92 -76 -168 -183 -168c-23 0 -37 3 -64 11c-19 -7 -45 -25 -45 -48c0 -27 18 -43 104 -43c0 0 52 0 42 0c137 0 200 -42 200 -123
c0 -101 -109 -176 -247 -176c-121 0 -213 52 -213 134c0 52 35 95 98 107zM293 585c0 -32 -23 -60 -58 -60c-34 0 -57 28 -57 60c0 33 23 61 57 61c35 0 58 -28 58 -61z" />
    <glyph glyph-name="gdotaccent.alt" horiz-adv-x="528" 
d="M457 -4c0 -163 -78 -234 -211 -234c-62 0 -113 14 -160 38l21 76c42 -24 90 -37 139 -37c88 0 129 49 129 150v55c-33 -31 -74 -57 -128 -57c-129 0 -206 102 -206 240c0 139 98 246 235 246c43 0 88 -9 117 -17l64 17v-477zM375 107c0 -5 0 259 0 259
c-27 22 -62 35 -102 35c-93 0 -147 -78 -147 -172c0 -101 53 -168 138 -168c43 0 80 19 111 46zM333 585c0 -32 -23 -60 -58 -60c-34 0 -57 28 -57 60c0 33 23 61 57 61c35 0 58 -28 58 -61z" />
    <glyph glyph-name="Gcommaaccent" unicode="&#x122;" horiz-adv-x="640" 
d="M579 45c-65 -40 -153 -60 -220 -60c-183 0 -313 127 -313 326s131 329 313 329c73 0 156 -21 208 -54l-28 -78c-50 32 -116 56 -180 56c-136 0 -227 -94 -227 -249s92 -254 229 -254c52 0 99 14 136 32v148h-175v79h257v-275zM299 -100c3 23 22 49 57 49
c40 0 71 -32 71 -75c0 -62 -46 -105 -108 -142l-30 26c58 38 65 65 65 86c0 24 -10 37 -55 56z" />
    <glyph glyph-name="gcommaaccent" unicode="&#x123;" horiz-adv-x="476" 
d="M127 299c0 -61 41 -102 107 -102c60 0 98 43 98 107c0 60 -35 103 -105 103c-60 0 -100 -44 -100 -108zM167 -22c-46 -13 -79 -40 -79 -74c0 -49 58 -85 145 -85c86 0 154 37 154 93c0 50 -45 62 -137 62c-29 0 -63 2 -83 4zM105 -7c-39 17 -60 45 -60 77
c0 38 30 73 76 89c-48 28 -76 78 -76 141c0 90 67 173 186 173c49 0 89 -13 118 -26l118 11l3 -81l-88 16c18 -17 31 -60 31 -94c0 -92 -76 -168 -183 -168c-23 0 -37 3 -64 11c-19 -7 -45 -25 -45 -48c0 -27 18 -43 104 -43c0 0 52 0 42 0c137 0 200 -42 200 -123
c0 -101 -109 -176 -247 -176c-121 0 -213 52 -213 134c0 52 35 95 98 107zM293 568c-3 -23 -22 -49 -57 -49c-40 0 -71 32 -71 75c0 62 46 105 108 142l30 -26c-58 -38 -65 -65 -65 -86c0 -24 10 -37 55 -56z" />
    <glyph glyph-name="gcommaaccent.alt" horiz-adv-x="528" 
d="M457 -4c0 -163 -78 -234 -211 -234c-62 0 -113 14 -160 38l21 76c42 -24 90 -37 139 -37c88 0 129 49 129 150v55c-33 -31 -74 -57 -128 -57c-129 0 -206 102 -206 240c0 139 98 246 235 246c43 0 88 -9 117 -17l64 17v-477zM375 107c0 -5 0 259 0 259
c-27 22 -62 35 -102 35c-93 0 -147 -78 -147 -172c0 -101 53 -168 138 -168c43 0 80 19 111 46zM336 568c-3 -23 -22 -49 -57 -49c-40 0 -71 32 -71 75c0 62 46 105 108 142l30 -26c-58 -38 -65 -65 -65 -86c0 -24 10 -37 55 -56z" />
    <glyph glyph-name="Hcircumflex" unicode="&#x124;" horiz-adv-x="670" 
d="M591 0h-84v276h-343v-276h-85v625h85v-272h343v272h84v-625zM497 687h-60l-98 127h-1l-99 -127h-60l115 187h88z" />
    <glyph glyph-name="hcircumflex" unicode="&#x125;" horiz-adv-x="517" 
d="M450 0h-82v288c0 79 -30 106 -90 106c-53 0 -99 -25 -125 -50v-344h-82v674l82 13v-281c42 42 96 67 154 67c88 0 143 -59 143 -158v-315zM276 687h-60l-98 127h-1l-99 -127h-60l115 187h88z" />
    <glyph glyph-name="Hbar" unicode="&#x126;" horiz-adv-x="670" 
d="M591 0h-84v276h-343v-276h-85v448h-80l4 53h76v124h85v-124h343v124h84v-124h70l5 -53h-75v-448zM164 353h343v95h-343v-95z" />
    <glyph glyph-name="hbar" unicode="&#x127;" horiz-adv-x="517" 
d="M450 0h-82v288c0 79 -30 106 -90 106c-53 0 -99 -25 -125 -50v-344h-82v538h-68l4 53h64v83l82 13v-96h104l5 -53h-109v-132c42 42 96 67 154 67c88 0 143 -59 143 -158v-315z" />
    <glyph glyph-name="Igrave" unicode="&#xcc;" horiz-adv-x="247" 
d="M165 0h-84v625h84v-625zM163 687h-60l-146 181h100z" />
    <glyph glyph-name="igrave" unicode="&#xec;" horiz-adv-x="224" 
d="M156 0h-82v451l82 13v-464zM152 520h-60l-146 181h100z" />
    <glyph glyph-name="Iacute" unicode="&#xcd;" horiz-adv-x="247" 
d="M165 0h-84v625h84v-625zM295 868l-146 -181h-60l106 181h100z" />
    <glyph glyph-name="iacute" unicode="&#xed;" horiz-adv-x="224" 
d="M156 0h-82v451l82 13v-464zM284 701l-146 -181h-60l106 181h100z" />
    <glyph glyph-name="Icircumflex" unicode="&#xce;" horiz-adv-x="247" 
d="M165 0h-84v625h84v-625zM285 687h-60l-98 127h-1l-99 -127h-60l115 187h88z" />
    <glyph glyph-name="icircumflex" unicode="&#xee;" horiz-adv-x="224" 
d="M156 0h-82v451l82 13v-464zM274 520h-60l-98 127h-1l-99 -127h-60l115 187h88z" />
    <glyph glyph-name="Idieresis" unicode="&#xcf;" horiz-adv-x="247" 
d="M165 0h-84v625h84v-625zM288 754c0 -34 -24 -63 -60 -63s-60 29 -60 63c0 33 24 62 60 62s60 -29 60 -62zM84 754c0 -34 -25 -63 -61 -63c-35 0 -60 29 -60 63c0 33 25 62 60 62c36 0 61 -29 61 -62z" />
    <glyph glyph-name="idieresis" unicode="&#xef;" horiz-adv-x="224" 
d="M156 0h-82v451l82 13v-464zM277 587c0 -34 -24 -63 -60 -63s-60 29 -60 63c0 33 24 62 60 62s60 -29 60 -62zM73 587c0 -34 -25 -63 -61 -63c-35 0 -60 29 -60 63c0 33 25 62 60 62c36 0 61 -29 61 -62z" />
    <glyph glyph-name="Imacron" unicode="&#x12a;" horiz-adv-x="247" 
d="M165 0h-84v625h84v-625zM263 705h-275l4 53h266z" />
    <glyph glyph-name="imacron" unicode="&#x12b;" horiz-adv-x="224" 
d="M156 0h-82v451l82 13v-464zM252 538h-275l4 53h266z" />
    <glyph glyph-name="Ibreve" unicode="&#x12c;" horiz-adv-x="247" 
d="M165 0h-84v625h84v-625zM286 873c-14 -106 -63 -187 -160 -187s-146 81 -160 187h67c12 -66 40 -122 93 -122s82 56 93 122h67z" />
    <glyph glyph-name="ibreve" unicode="&#x12d;" horiz-adv-x="224" 
d="M156 0h-82v451l82 13v-464zM275 706c-14 -106 -63 -187 -160 -187s-146 81 -160 187h67c12 -66 40 -122 93 -122s82 56 93 122h67z" />
    <glyph glyph-name="Iogonek" unicode="&#x12e;" horiz-adv-x="247" 
d="M129 -217c-62 0 -106 37 -106 96c0 52 34 94 78 121h-20v625h84v-625c-38 -30 -60 -60 -60 -95c0 -30 16 -49 45 -49c18 0 38 6 51 16l18 -62c-21 -15 -50 -27 -90 -27z" />
    <glyph glyph-name="iogonek" unicode="&#x12f;" horiz-adv-x="224" 
d="M117 -217c-62 0 -106 37 -106 96c0 52 34 95 79 121h-19v460l82 13v-473c-38 -30 -60 -60 -60 -95c0 -30 16 -49 45 -49c18 0 38 6 51 16l18 -62c-21 -15 -50 -27 -90 -27zM166 618c0 -31 -17 -59 -54 -59s-54 28 -54 59s17 59 54 59s54 -28 54 -59z" />
    <glyph glyph-name="Idotaccent" unicode="&#x130;" horiz-adv-x="247" 
d="M165 0h-84v625h84v-625zM183 752c0 -32 -23 -60 -58 -60c-34 0 -57 28 -57 60c0 33 23 61 57 61c35 0 58 -28 58 -61z" />
    <glyph glyph-name="dotlessi" unicode="&#x131;" horiz-adv-x="224" 
d="M156 0h-82v451l82 13v-464z" />
    <glyph glyph-name="Jcircumflex" unicode="&#x134;" horiz-adv-x="418" 
d="M340 190c0 -122 -57 -205 -188 -205c-54 0 -105 18 -138 39l13 82c38 -26 78 -44 124 -44c72 0 105 44 105 132v431h84v-435zM454 687h-60l-98 127h-1l-99 -127h-60l115 187h88z" />
    <glyph glyph-name="Jcircumflex.alt" horiz-adv-x="371" 
d="M308 177c0 -127 -61 -192 -173 -192c-45 0 -88 15 -118 33l12 81c36 -24 70 -36 104 -36c62 0 91 34 91 115v447h84v-448zM424 687h-60l-98 127h-1l-99 -127h-60l115 187h88z" />
    <glyph glyph-name="jcircumflex" unicode="&#x135;" horiz-adv-x="221" 
d="M46 -249l-55 58c57 27 80 67 80 166c0 -15 0 485 0 485l82 13s0 -507 0 -492c0 -131 -29 -188 -107 -230zM272 520h-60l-98 127h-1l-99 -127h-60l115 187h88z" />
    <glyph glyph-name="dotlessj" unicode="&#x237;" horiz-adv-x="221" 
d="M46 -249l-55 58c57 27 80 67 80 166c0 -15 0 485 0 485l82 13s0 -507 0 -492c0 -131 -29 -188 -107 -230z" />
    <glyph glyph-name="Kcommaaccent" unicode="&#x136;" horiz-adv-x="548" 
d="M164 327h1l265 298h107l-289 -309l292 -316h-109l-266 297h-1v-297h-85v625h85v-298zM231 -100c3 23 22 49 57 49c40 0 71 -32 71 -75c0 -62 -46 -105 -108 -142l-30 26c58 38 65 65 65 86c0 24 -10 37 -55 56z" />
    <glyph glyph-name="kcommaaccent" unicode="&#x137;" horiz-adv-x="456" 
d="M155 226h-2v-226h-82v674l82 13v-439h2l189 210h104l-210 -217l211 -241h-105zM176 -100c3 23 22 49 57 49c40 0 71 -32 71 -75c0 -62 -46 -105 -108 -142l-30 26c58 38 65 65 65 86c0 24 -10 37 -55 56z" />
    <glyph glyph-name="Lacute" unicode="&#x139;" horiz-adv-x="494" 
d="M466 0h-387v625h85v-545h302v-80zM284 868l-146 -181h-60l106 181h100z" />
    <glyph glyph-name="lacute" unicode="&#x13a;" horiz-adv-x="224" 
d="M153 0h-82v674l82 13v-687zM272 899l-146 -181h-60l106 181h100z" />
    <glyph glyph-name="Lcommaaccent" unicode="&#x13b;" horiz-adv-x="494" 
d="M466 0h-387v625h85v-545h302v-80zM196 -100c3 23 22 49 57 49c40 0 71 -32 71 -75c0 -62 -46 -105 -108 -142l-30 26c58 38 65 65 65 86c0 24 -10 37 -55 56z" />
    <glyph glyph-name="lcommaaccent" unicode="&#x13c;" horiz-adv-x="224" 
d="M153 0h-82v674l82 13v-687zM50 -100c3 23 22 49 57 49c40 0 71 -32 71 -75c0 -62 -46 -105 -108 -142l-30 26c58 38 65 65 65 86c0 24 -10 37 -55 56z" />
    <glyph glyph-name="Lcaron" unicode="&#x13d;" horiz-adv-x="604" 
d="M466 0h-387v625h85v-545h302v-80zM473 579c4 32 26 59 68 59c41 0 85 -38 85 -91c0 -83 -74 -146 -148 -195l-35 34c69 50 102 92 102 127c0 25 -18 41 -72 66z" />
    <glyph glyph-name="lcaron" unicode="&#x13e;" horiz-adv-x="444" 
d="M153 0h-82v674l82 13v-687zM265 637c4 32 26 59 68 59c41 0 85 -38 85 -91c0 -83 -74 -146 -148 -195l-35 34c69 50 102 92 102 127c0 25 -18 41 -72 66z" />
    <glyph glyph-name="Ldot" unicode="&#x13f;" horiz-adv-x="557" 
d="M466 0h-387v625h85v-545h302v-80zM613 313c0 -34 -26 -65 -63 -65c-38 0 -65 31 -65 65s27 63 65 63c37 0 63 -29 63 -63z" />
    <glyph glyph-name="ldotaccent" unicode="&#x140;" horiz-adv-x="397" 
d="M153 0h-82v674l82 13v-687zM372 313c0 -34 -26 -65 -63 -65c-38 0 -65 31 -65 65s27 63 65 63c37 0 63 -29 63 -63z" />
    <glyph glyph-name="Lslash" unicode="&#x141;" horiz-adv-x="511" 
d="M186 268v-186h302v-82h-386s0 246 0 245l-84 -22v73l84 23v306h84v-284l156 42v-73z" />
    <glyph glyph-name="lslash" unicode="&#x142;" horiz-adv-x="261" 
d="M176 266v-266h-82v244l-84 -22v76s84 23 84 22v354l82 13v-345c0 1 84 23 84 23v-76z" />
    <glyph glyph-name="Ntilde" unicode="&#xd1;" horiz-adv-x="668" 
d="M506 121v504h83v-631h-92l-335 510v-504h-83v625h94zM507 816c-9 -85 -36 -126 -97 -126c-62 0 -116 69 -153 69c-18 0 -31 -16 -38 -62c-3 0 -63 0 -55 0c9 86 36 127 97 127c62 0 116 -70 153 -70c18 0 31 16 37 62c3 0 61 0 56 0z" />
    <glyph glyph-name="ntilde" unicode="&#xf1;" horiz-adv-x="517" 
d="M450 0h-82v288c0 79 -30 106 -95 106c-48 0 -94 -25 -120 -50v-344h-82v460l82 13v-69c42 42 96 69 149 69c93 0 148 -59 148 -158v-315zM432 649c-9 -85 -36 -126 -97 -126c-62 0 -116 69 -153 69c-18 0 -31 -16 -38 -62c-3 0 -63 0 -55 0c9 86 36 127 97 127
c62 0 116 -70 153 -70c18 0 31 16 37 62c3 0 61 0 56 0z" />
    <glyph glyph-name="Nacute" unicode="&#x143;" horiz-adv-x="668" 
d="M506 121v504h83v-631h-92l-335 510v-504h-83v625h94zM476 868l-146 -181h-60l106 181h100z" />
    <glyph glyph-name="nacute" unicode="&#x144;" horiz-adv-x="517" 
d="M450 0h-82v288c0 79 -30 106 -95 106c-48 0 -94 -25 -120 -50v-344h-82v460l82 13v-69c42 42 96 69 149 69c93 0 148 -59 148 -158v-315zM389 701l-146 -181h-60l106 181h100z" />
    <glyph glyph-name="Ncommaaccent" unicode="&#x145;" horiz-adv-x="668" 
d="M506 121v504h83v-631h-92l-335 510v-504h-83v625h94zM272 -100c3 23 22 49 57 49c40 0 71 -32 71 -75c0 -62 -46 -105 -108 -142l-30 26c58 38 65 65 65 86c0 24 -10 37 -55 56z" />
    <glyph glyph-name="ncommaaccent" unicode="&#x146;" horiz-adv-x="517" 
d="M450 0h-82v288c0 79 -30 106 -95 106c-48 0 -94 -25 -120 -50v-344h-82v460l82 13v-69c42 42 96 69 149 69c93 0 148 -59 148 -158v-315zM199 -100c3 23 22 49 57 49c40 0 71 -32 71 -75c0 -62 -46 -105 -108 -142l-30 26c58 38 65 65 65 86c0 24 -10 37 -55 56z" />
    <glyph glyph-name="Ncaron" unicode="&#x147;" horiz-adv-x="668" 
d="M506 121v504h83v-631h-92l-335 510v-504h-83v625h94zM496 874l-115 -187h-88l-115 187h60l98 -127h1l99 127h60z" />
    <glyph glyph-name="ncaron" unicode="&#x148;" horiz-adv-x="517" 
d="M450 0h-82v288c0 79 -30 106 -95 106c-48 0 -94 -25 -120 -50v-344h-82v460l82 13v-69c42 42 96 69 149 69c93 0 148 -59 148 -158v-315zM414 707l-115 -187h-88l-115 187h60l98 -127h1l99 127h60z" />
    <glyph glyph-name="Ograve" unicode="&#xd2;" horiz-adv-x="720" 
d="M674 315c0 -187 -130 -330 -314 -330c-183 0 -314 128 -314 326c0 187 130 329 314 329c183 0 314 -127 314 -325zM589 311c0 154 -94 253 -231 253c-133 0 -226 -99 -226 -249c0 -154 93 -254 230 -254c133 0 227 100 227 250zM400 687h-60l-146 181h100z" />
    <glyph glyph-name="ograve" unicode="&#xf2;" horiz-adv-x="528" 
d="M487 229c0 -147 -96 -244 -225 -244c-130 0 -221 96 -221 244c0 147 94 245 226 245c131 0 220 -97 220 -245zM406 228c0 98 -53 172 -143 172c-91 0 -141 -71 -141 -170c0 -98 53 -171 143 -171c91 0 141 70 141 169zM324 520h-60l-146 181h100z" />
    <glyph glyph-name="Oacute" unicode="&#xd3;" horiz-adv-x="720" 
d="M674 315c0 -187 -130 -330 -314 -330c-183 0 -314 128 -314 326c0 187 130 329 314 329c183 0 314 -127 314 -325zM589 311c0 154 -94 253 -231 253c-133 0 -226 -99 -226 -249c0 -154 93 -254 230 -254c133 0 227 100 227 250zM532 868l-146 -181h-60l106 181h100z" />
    <glyph glyph-name="oacute" unicode="&#xf3;" horiz-adv-x="528" 
d="M487 229c0 -147 -96 -244 -225 -244c-130 0 -221 96 -221 244c0 147 94 245 226 245c131 0 220 -97 220 -245zM406 228c0 98 -53 172 -143 172c-91 0 -141 -71 -141 -170c0 -98 53 -171 143 -171c91 0 141 70 141 169zM416 701l-146 -181h-60l106 181h100z" />
    <glyph glyph-name="Ocircumflex" unicode="&#xd4;" horiz-adv-x="720" 
d="M674 315c0 -187 -130 -330 -314 -330c-183 0 -314 128 -314 326c0 187 130 329 314 329c183 0 314 -127 314 -325zM589 311c0 154 -94 253 -231 253c-133 0 -226 -99 -226 -249c0 -154 93 -254 230 -254c133 0 227 100 227 250zM522 687h-60l-98 127h-1l-99 -127h-60
l115 187h88z" />
    <glyph glyph-name="ocircumflex" unicode="&#xf4;" horiz-adv-x="528" 
d="M487 229c0 -147 -96 -244 -225 -244c-130 0 -221 96 -221 244c0 147 94 245 226 245c131 0 220 -97 220 -245zM406 228c0 98 -53 172 -143 172c-91 0 -141 -71 -141 -170c0 -98 53 -171 143 -171c91 0 141 70 141 169zM426 520h-60l-98 127h-1l-99 -127h-60l115 187h88z
" />
    <glyph glyph-name="Otilde" unicode="&#xd5;" horiz-adv-x="720" 
d="M674 315c0 -187 -130 -330 -314 -330c-183 0 -314 128 -314 326c0 187 130 329 314 329c183 0 314 -127 314 -325zM589 311c0 154 -94 253 -231 253c-133 0 -226 -99 -226 -249c0 -154 93 -254 230 -254c133 0 227 100 227 250zM534 816c-9 -85 -36 -126 -97 -126
c-62 0 -116 69 -153 69c-18 0 -31 -16 -38 -62c-3 0 -63 0 -55 0c9 86 36 127 97 127c62 0 116 -70 153 -70c18 0 31 16 37 62c3 0 61 0 56 0z" />
    <glyph glyph-name="otilde" unicode="&#xf5;" horiz-adv-x="528" 
d="M487 229c0 -147 -96 -244 -225 -244c-130 0 -221 96 -221 244c0 147 94 245 226 245c131 0 220 -97 220 -245zM406 228c0 98 -53 172 -143 172c-91 0 -141 -71 -141 -170c0 -98 53 -171 143 -171c91 0 141 70 141 169zM438 649c-9 -85 -36 -126 -97 -126
c-62 0 -116 69 -153 69c-18 0 -31 -16 -38 -62c-3 0 -63 0 -55 0c9 86 36 127 97 127c62 0 116 -70 153 -70c18 0 31 16 37 62c3 0 61 0 56 0z" />
    <glyph glyph-name="Odieresis" unicode="&#xd6;" horiz-adv-x="720" 
d="M674 315c0 -187 -130 -330 -314 -330c-183 0 -314 128 -314 326c0 187 130 329 314 329c183 0 314 -127 314 -325zM589 311c0 154 -94 253 -231 253c-133 0 -226 -99 -226 -249c0 -154 93 -254 230 -254c133 0 227 100 227 250zM525 754c0 -34 -24 -63 -60 -63
s-60 29 -60 63c0 33 24 62 60 62s60 -29 60 -62zM321 754c0 -34 -25 -63 -61 -63c-35 0 -60 29 -60 63c0 33 25 62 60 62c36 0 61 -29 61 -62z" />
    <glyph glyph-name="odieresis" unicode="&#xf6;" horiz-adv-x="528" 
d="M487 229c0 -147 -96 -244 -225 -244c-130 0 -221 96 -221 244c0 147 94 245 226 245c131 0 220 -97 220 -245zM406 228c0 98 -53 172 -143 172c-91 0 -141 -71 -141 -170c0 -98 53 -171 143 -171c91 0 141 70 141 169zM429 587c0 -34 -24 -63 -60 -63s-60 29 -60 63
c0 33 24 62 60 62s60 -29 60 -62zM225 587c0 -34 -25 -63 -61 -63c-35 0 -60 29 -60 63c0 33 25 62 60 62c36 0 61 -29 61 -62z" />
    <glyph glyph-name="Omacron" unicode="&#x14c;" horiz-adv-x="720" 
d="M674 315c0 -187 -130 -330 -314 -330c-183 0 -314 128 -314 326c0 187 130 329 314 329c183 0 314 -127 314 -325zM589 311c0 154 -94 253 -231 253c-133 0 -226 -99 -226 -249c0 -154 93 -254 230 -254c133 0 227 100 227 250zM492 705h-275l4 53h266z" />
    <glyph glyph-name="omacron" unicode="&#x14d;" horiz-adv-x="528" 
d="M487 229c0 -147 -96 -244 -225 -244c-130 0 -221 96 -221 244c0 147 94 245 226 245c131 0 220 -97 220 -245zM406 228c0 98 -53 172 -143 172c-91 0 -141 -71 -141 -170c0 -98 53 -171 143 -171c91 0 141 70 141 169zM398 538h-275l4 53h266z" />
    <glyph glyph-name="Obreve" unicode="&#x14e;" horiz-adv-x="720" 
d="M674 315c0 -187 -130 -330 -314 -330c-183 0 -314 128 -314 326c0 187 130 329 314 329c183 0 314 -127 314 -325zM589 311c0 154 -94 253 -231 253c-133 0 -226 -99 -226 -249c0 -154 93 -254 230 -254c133 0 227 100 227 250zM511 873c-14 -106 -63 -187 -160 -187
s-146 81 -160 187h67c12 -66 40 -122 93 -122s82 56 93 122h67z" />
    <glyph glyph-name="obreve" unicode="&#x14f;" horiz-adv-x="528" 
d="M487 229c0 -147 -96 -244 -225 -244c-130 0 -221 96 -221 244c0 147 94 245 226 245c131 0 220 -97 220 -245zM406 228c0 98 -53 172 -143 172c-91 0 -141 -71 -141 -170c0 -98 53 -171 143 -171c91 0 141 70 141 169zM415 706c-14 -106 -63 -187 -160 -187
s-146 81 -160 187h67c12 -66 40 -122 93 -122s82 56 93 122h67z" />
    <glyph glyph-name="Ohungarumlaut" unicode="&#x150;" horiz-adv-x="720" 
d="M674 315c0 -187 -130 -330 -314 -330c-183 0 -314 128 -314 326c0 187 130 329 314 329c183 0 314 -127 314 -325zM589 311c0 154 -94 253 -231 253c-133 0 -226 -99 -226 -249c0 -154 93 -254 230 -254c133 0 227 100 227 250zM578 864l-147 -177h-71l134 177h84z
M392 864l-124 -177h-70l111 177h83z" />
    <glyph glyph-name="ohungarumlaut" unicode="&#x151;" horiz-adv-x="528" 
d="M487 229c0 -147 -96 -244 -225 -244c-130 0 -221 96 -221 244c0 147 94 245 226 245c131 0 220 -97 220 -245zM406 228c0 98 -53 172 -143 172c-91 0 -141 -71 -141 -170c0 -98 53 -171 143 -171c91 0 141 70 141 169zM487 697l-147 -177h-71l134 177h84zM301 697
l-124 -177h-70l111 177h83z" />
    <glyph glyph-name="Oslash" unicode="&#xd8;" horiz-adv-x="720" 
d="M677 315c0 -186 -130 -330 -314 -330c-51 0 -99 11 -140 29l-46 -81h-64l62 108c-78 56 -126 150 -126 270c0 187 130 329 314 329c51 0 98 -11 140 -29l47 81h64l-62 -108c77 -56 125 -149 125 -269zM464 542c-31 15 -65 22 -103 22c-133 0 -227 -99 -227 -249
c0 -88 31 -158 82 -202zM510 512l-248 -429c31 -15 65 -22 103 -22c133 0 226 100 226 250c0 87 -30 157 -81 201z" />
    <glyph glyph-name="oslash" unicode="&#xf8;" horiz-adv-x="528" 
d="M490 229c0 -147 -96 -244 -225 -244c-34 0 -66 7 -94 19l-41 -71h-66s59 102 58 102c-49 42 -78 110 -78 194c0 147 94 245 226 245c35 0 66 -7 94 -19l41 71h66l-59 -102c49 -43 78 -111 78 -195zM326 388c-17 8 -38 12 -60 12c-91 0 -141 -71 -141 -170
c0 -53 13 -96 37 -126zM409 228c0 52 -13 96 -37 126l-163 -284c17 -7 37 -11 59 -11c91 0 141 70 141 169z" />
    <glyph glyph-name="Oslashacute" unicode="&#x1fe;" horiz-adv-x="720" 
d="M677 315c0 -186 -130 -330 -314 -330c-51 0 -99 11 -140 29l-46 -81h-64l62 108c-78 56 -126 150 -126 270c0 187 130 329 314 329c51 0 98 -11 140 -29l47 81h64l-62 -108c77 -56 125 -149 125 -269zM464 542c-31 15 -65 22 -103 22c-133 0 -227 -99 -227 -249
c0 -88 31 -158 82 -202zM510 512l-248 -429c31 -15 65 -22 103 -22c133 0 226 100 226 250c0 87 -30 157 -81 201zM530 868l-146 -181h-60l106 181h100z" />
    <glyph glyph-name="oslashacute" unicode="&#x1ff;" horiz-adv-x="528" 
d="M490 229c0 -147 -96 -244 -225 -244c-34 0 -66 7 -94 19l-41 -71h-66s59 102 58 102c-49 42 -78 110 -78 194c0 147 94 245 226 245c35 0 66 -7 94 -19l41 71h66l-59 -102c49 -43 78 -111 78 -195zM326 388c-17 8 -38 12 -60 12c-91 0 -141 -71 -141 -170
c0 -53 13 -96 37 -126zM409 228c0 52 -13 96 -37 126l-163 -284c17 -7 37 -11 59 -11c91 0 141 70 141 169zM384 701l-146 -181h-60l106 181h100z" />
    <glyph glyph-name="OE" unicode="&#x152;" horiz-adv-x="922" 
d="M879 625v-79h-311v-193h259v-79h-259v-195h311v-79h-499c-207 0 -331 122 -331 308c0 193 120 317 335 317h495zM134 314c0 -154 92 -235 250 -235h99v467h-103c-149 0 -246 -79 -246 -232z" />
    <glyph glyph-name="oe" unicode="&#x153;" horiz-adv-x="850" 
d="M498 279l235 2v7c0 68 -32 113 -104 113c-78 0 -124 -62 -131 -122zM122 230c0 -98 53 -171 143 -171c91 0 141 70 141 169c0 98 -53 172 -143 172c-91 0 -141 -71 -141 -170zM447 88c-38 -65 -104 -103 -185 -103c-130 0 -221 96 -221 244c0 147 94 245 226 245
c83 0 147 -39 183 -105c40 65 108 104 187 104c111 0 175 -70 175 -179c0 -25 -4 -53 -10 -73c-1 0 -308 -2 -308 -2v-4c3 -90 63 -154 151 -154c48 0 100 13 137 38l15 -76c-41 -25 -96 -38 -154 -38c-87 0 -156 39 -196 103z" />
    <glyph glyph-name="Thorn" unicode="&#xde;" horiz-adv-x="531" 
d="M500 321c0 -141 -98 -213 -254 -215l-82 -1v-105h-85v625h85v-102h88c171 0 248 -85 248 -202zM414 317c0 84 -55 127 -166 127h-84v-259l91 2c105 2 159 49 159 130z" />
    <glyph glyph-name="thorn" unicode="&#xfe;" horiz-adv-x="520" 
d="M153 -3v-243h-82v920l82 13v-266c33 26 74 52 123 52c134 0 209 -104 209 -242c0 -139 -96 -246 -233 -246c-27 0 -70 4 -99 12zM153 353c0 5 0 -261 0 -261c27 -22 62 -33 102 -33c93 0 145 76 145 170c0 101 -51 168 -136 168c-43 0 -80 -17 -111 -44z" />
    <glyph glyph-name="Racute" unicode="&#x154;" horiz-adv-x="545" 
d="M164 241v-241h-85v625h187c151 0 230 -72 230 -183c0 -94 -55 -152 -141 -180l169 -262h-101l-152 248zM164 316l103 3c82 3 144 42 144 119c0 74 -60 109 -155 109h-92v-231zM386 868l-146 -181h-60l106 181h100z" />
    <glyph glyph-name="racute" unicode="&#x155;" horiz-adv-x="381" 
d="M153 299v-299h-82v460l82 13v-81c32 51 70 81 128 81c31 0 62 -8 86 -23l-21 -77c-25 15 -50 21 -73 21c-44 0 -86 -32 -120 -95zM357 701l-146 -181h-60l106 181h100z" />
    <glyph glyph-name="Rcommaaccent" unicode="&#x156;" horiz-adv-x="545" 
d="M164 241v-241h-85v625h187c151 0 230 -72 230 -183c0 -94 -55 -152 -141 -180l169 -262h-101l-152 248zM164 316l103 3c82 3 144 42 144 119c0 74 -60 109 -155 109h-92v-231zM210 -100c3 23 22 49 57 49c40 0 71 -32 71 -75c0 -62 -46 -105 -108 -142l-30 26
c58 38 65 65 65 86c0 24 -10 37 -55 56z" />
    <glyph glyph-name="rcommaaccent" unicode="&#x157;" horiz-adv-x="381" 
d="M153 299v-299h-82v460l82 13v-81c32 51 70 81 128 81c31 0 62 -8 86 -23l-21 -77c-25 15 -50 21 -73 21c-44 0 -86 -32 -120 -95zM54 -100c3 23 22 49 57 49c40 0 71 -32 71 -75c0 -62 -46 -105 -108 -142l-30 26c58 38 65 65 65 86c0 24 -10 37 -55 56z" />
    <glyph glyph-name="Rcaron" unicode="&#x158;" horiz-adv-x="545" 
d="M164 241v-241h-85v625h187c151 0 230 -72 230 -183c0 -94 -55 -152 -141 -180l169 -262h-101l-152 248zM164 316l103 3c82 3 144 42 144 119c0 74 -60 109 -155 109h-92v-231zM420 874l-115 -187h-88l-115 187h60l98 -127h1l99 127h60z" />
    <glyph glyph-name="rcaron" unicode="&#x159;" horiz-adv-x="381" 
d="M153 299v-299h-82v460l82 13v-81c32 51 70 81 128 81c31 0 62 -8 86 -23l-21 -77c-25 15 -50 21 -73 21c-44 0 -86 -32 -120 -95zM356 707l-115 -187h-88l-115 187h60l98 -127h1l99 127h60z" />
    <glyph glyph-name="Sacute" unicode="&#x15a;" horiz-adv-x="509" 
d="M247 61c79 0 136 43 136 105c0 64 -48 88 -150 115c-89 24 -187 62 -187 183c0 105 85 176 209 176c72 0 137 -18 197 -55l-30 -74c-48 32 -110 52 -166 52c-90 0 -127 -41 -127 -93c0 -63 53 -85 152 -112c91 -24 184 -68 184 -186c0 -108 -89 -187 -220 -187
c-73 0 -149 21 -209 59l28 77c53 -35 110 -60 183 -60zM382 868l-146 -181h-60l106 181h100z" />
    <glyph glyph-name="sacute" unicode="&#x15b;" horiz-adv-x="401" 
d="M364 130c0 -87 -73 -146 -173 -146c-56 0 -118 17 -160 43l21 75c38 -26 94 -43 141 -43c52 0 91 24 91 65c0 46 -54 61 -108 76c-65 18 -136 50 -136 134c0 85 72 139 164 139c53 0 106 -13 148 -34l-21 -75c-38 21 -93 34 -131 34c-49 0 -81 -20 -81 -57
c0 -44 49 -59 106 -74c67 -18 139 -50 139 -137zM348 701l-146 -181h-60l106 181h100z" />
    <glyph glyph-name="Scircumflex" unicode="&#x15c;" horiz-adv-x="509" 
d="M247 61c79 0 136 43 136 105c0 64 -48 88 -150 115c-89 24 -187 62 -187 183c0 105 85 176 209 176c72 0 137 -18 197 -55l-30 -74c-48 32 -110 52 -166 52c-90 0 -127 -41 -127 -93c0 -63 53 -85 152 -112c91 -24 184 -68 184 -186c0 -108 -89 -187 -220 -187
c-73 0 -149 21 -209 59l28 77c53 -35 110 -60 183 -60zM414 687h-60l-98 127h-1l-99 -127h-60l115 187h88z" />
    <glyph glyph-name="scircumflex" unicode="&#x15d;" horiz-adv-x="401" 
d="M364 130c0 -87 -73 -146 -173 -146c-56 0 -118 17 -160 43l21 75c38 -26 94 -43 141 -43c52 0 91 24 91 65c0 46 -54 61 -108 76c-65 18 -136 50 -136 134c0 85 72 139 164 139c53 0 106 -13 148 -34l-21 -75c-38 21 -93 34 -131 34c-49 0 -81 -20 -81 -57
c0 -44 49 -59 106 -74c67 -18 139 -50 139 -137zM370 520h-60l-98 127h-1l-99 -127h-60l115 187h88z" />
    <glyph glyph-name="Scedilla" unicode="&#x15e;" horiz-adv-x="509" 
d="M229 -68c78 0 123 -32 123 -82c0 -56 -47 -96 -164 -111l-6 52c74 4 106 25 106 54c0 31 -37 47 -120 34l-8 42l65 65c-67 3 -135 23 -189 58l28 77c53 -35 110 -60 183 -60c79 0 136 43 136 105c0 64 -48 88 -150 115c-89 24 -187 62 -187 183c0 105 85 176 209 176
c72 0 137 -18 197 -55l-30 -74c-48 32 -110 52 -166 52c-90 0 -127 -41 -127 -93c0 -63 53 -85 152 -112c91 -24 184 -68 184 -186c0 -96 -71 -169 -179 -184z" />
    <glyph glyph-name="scedilla" unicode="&#x15f;" horiz-adv-x="401" 
d="M173 -68c78 0 123 -32 123 -82c0 -56 -47 -96 -164 -111l-6 52c74 4 106 25 106 54c0 31 -37 47 -120 34l-8 42l65 64c-50 4 -102 19 -138 42l21 75c38 -26 94 -43 141 -43c52 0 91 24 91 65c0 46 -54 61 -108 76c-65 18 -136 50 -136 134c0 85 72 139 164 139
c53 0 106 -13 148 -34l-21 -75c-38 21 -93 34 -131 34c-49 0 -81 -20 -81 -57c0 -44 49 -59 106 -74c67 -18 139 -50 139 -137c0 -76 -55 -130 -135 -143z" />
    <glyph glyph-name="Scommaaccent" unicode="&#x218;" horiz-adv-x="509" 
d="M247 61c79 0 136 43 136 105c0 64 -48 88 -150 115c-89 24 -187 62 -187 183c0 105 85 176 209 176c72 0 137 -18 197 -55l-30 -74c-48 32 -110 52 -166 52c-90 0 -127 -41 -127 -93c0 -63 53 -85 152 -112c91 -24 184 -68 184 -186c0 -108 -89 -187 -220 -187
c-73 0 -149 21 -209 59l28 77c53 -35 110 -60 183 -60zM193 -100c3 23 22 49 57 49c40 0 71 -32 71 -75c0 -62 -46 -105 -108 -142l-30 26c58 38 65 65 65 86c0 24 -10 37 -55 56z" />
    <glyph glyph-name="scommaaccent" unicode="&#x219;" horiz-adv-x="401" 
d="M364 130c0 -87 -73 -146 -173 -146c-56 0 -118 17 -160 43l21 75c38 -26 94 -43 141 -43c52 0 91 24 91 65c0 46 -54 61 -108 76c-65 18 -136 50 -136 134c0 85 72 139 164 139c53 0 106 -13 148 -34l-21 -75c-38 21 -93 34 -131 34c-49 0 -81 -20 -81 -57
c0 -44 49 -59 106 -74c67 -18 139 -50 139 -137zM128 -100c3 23 22 49 57 49c40 0 71 -32 71 -75c0 -62 -46 -105 -108 -142l-30 26c58 38 65 65 65 86c0 24 -10 37 -55 56z" />
    <glyph glyph-name="Scaron" unicode="&#x160;" horiz-adv-x="509" 
d="M247 61c79 0 136 43 136 105c0 64 -48 88 -150 115c-89 24 -187 62 -187 183c0 105 85 176 209 176c72 0 137 -18 197 -55l-30 -74c-48 32 -110 52 -166 52c-90 0 -127 -41 -127 -93c0 -63 53 -85 152 -112c91 -24 184 -68 184 -186c0 -108 -89 -187 -220 -187
c-73 0 -149 21 -209 59l28 77c53 -35 110 -60 183 -60zM416 874l-115 -187h-88l-115 187h60l98 -127h1l99 127h60z" />
    <glyph glyph-name="scaron" unicode="&#x161;" horiz-adv-x="401" 
d="M364 130c0 -87 -73 -146 -173 -146c-56 0 -118 17 -160 43l21 75c38 -26 94 -43 141 -43c52 0 91 24 91 65c0 46 -54 61 -108 76c-65 18 -136 50 -136 134c0 85 72 139 164 139c53 0 106 -13 148 -34l-21 -75c-38 21 -93 34 -131 34c-49 0 -81 -20 -81 -57
c0 -44 49 -59 106 -74c67 -18 139 -50 139 -137zM362 707l-115 -187h-88l-115 187h60l98 -127h1l99 127h60z" />
    <glyph glyph-name="Tcommaaccent" unicode="&#x162;" horiz-adv-x="560" 
d="M541 545h-219v-545h-84v545h-219v80h522v-80zM218 -100c3 23 22 49 57 49c40 0 71 -32 71 -75c0 -62 -46 -105 -108 -142l-30 26c58 38 65 65 65 86c0 24 -10 37 -55 56z" />
    <glyph glyph-name="tcommaaccent" unicode="&#x163;" horiz-adv-x="339" 
d="M312 5c-34 -13 -69 -20 -103 -20c-89 0 -136 43 -133 143l7 256l-76 5l3 52l76 23l2 99h79l-3 -105h143l-3 -74h-143l-7 -259c-1 -43 19 -65 60 -65c28 0 56 7 83 17c1 0 15 -72 15 -72zM130 -100c3 23 22 49 57 49c40 0 71 -32 71 -75c0 -62 -46 -105 -108 -142l-30 26
c58 38 65 65 65 86c0 24 -10 37 -55 56z" />
    <glyph glyph-name="uni021A" unicode="&#x21a;" horiz-adv-x="560" 
d="M541 545h-219v-545h-84v545h-219v80h522v-80zM218 -100c3 23 22 49 57 49c40 0 71 -32 71 -75c0 -62 -46 -105 -108 -142l-30 26c58 38 65 65 65 86c0 24 -10 37 -55 56z" />
    <glyph glyph-name="uni021B" unicode="&#x21b;" horiz-adv-x="339" 
d="M312 5c-34 -13 -69 -20 -103 -20c-89 0 -136 43 -133 143l7 256l-76 5l3 52l76 23l2 99h79l-3 -105h143l-3 -74h-143l-7 -259c-1 -43 19 -65 60 -65c28 0 56 7 83 17c1 0 15 -72 15 -72zM130 -100c3 23 22 49 57 49c40 0 71 -32 71 -75c0 -62 -46 -105 -108 -142l-30 26
c58 38 65 65 65 86c0 24 -10 37 -55 56z" />
    <glyph glyph-name="Tcaron" unicode="&#x164;" horiz-adv-x="560" 
d="M541 545h-219v-545h-84v545h-219v80h522v-80zM442 874l-115 -187h-88l-115 187h60l98 -127h1l99 127h60z" />
    <glyph glyph-name="tcaron" unicode="&#x165;" horiz-adv-x="379" 
d="M312 5c-34 -13 -69 -20 -103 -20c-89 0 -136 43 -133 143l7 256l-76 5l3 52l76 23l2 99h79l-3 -105h143l-3 -74h-143l-7 -259c-1 -43 19 -65 60 -65c28 0 56 7 83 17c1 0 15 -72 15 -72zM230 666c3 26 21 48 54 48s68 -31 68 -73c0 -67 -59 -117 -118 -156l-28 27
c55 40 81 74 81 102c0 20 -14 32 -57 52z" />
    <glyph glyph-name="Ugrave" unicode="&#xd9;" horiz-adv-x="646" 
d="M568 241c0 -158 -82 -256 -246 -256c-157 0 -244 97 -244 247v393h84v-380c0 -113 54 -180 165 -180c97 0 157 57 157 174c0 -5 0 386 0 386h84v-384zM372 687h-60l-146 181h100z" />
    <glyph glyph-name="ugrave" unicode="&#xf9;" horiz-adv-x="517" 
d="M67 458h82v-288c0 -79 30 -106 90 -106c53 0 99 25 125 50v344h82v-460l-82 -13v67c-42 -42 -96 -67 -154 -67c-88 0 -143 59 -143 158v315zM308 520h-60l-146 181h100z" />
    <glyph glyph-name="Uacute" unicode="&#xda;" horiz-adv-x="646" 
d="M568 241c0 -158 -82 -256 -246 -256c-157 0 -244 97 -244 247v393h84v-380c0 -113 54 -180 165 -180c97 0 157 57 157 174c0 -5 0 386 0 386h84v-384zM484 868l-146 -181h-60l106 181h100z" />
    <glyph glyph-name="uacute" unicode="&#xfa;" horiz-adv-x="517" 
d="M67 458h82v-288c0 -79 30 -106 90 -106c53 0 99 25 125 50v344h82v-460l-82 -13v67c-42 -42 -96 -67 -154 -67c-88 0 -143 59 -143 158v315zM420 701l-146 -181h-60l106 181h100z" />
    <glyph glyph-name="Ucircumflex" unicode="&#xdb;" horiz-adv-x="646" 
d="M568 241c0 -158 -82 -256 -246 -256c-157 0 -244 97 -244 247v393h84v-380c0 -113 54 -180 165 -180c97 0 157 57 157 174c0 -5 0 386 0 386h84v-384zM484 687h-60l-98 127h-1l-99 -127h-60l115 187h88z" />
    <glyph glyph-name="ucircumflex" unicode="&#xfb;" horiz-adv-x="517" 
d="M67 458h82v-288c0 -79 30 -106 90 -106c53 0 99 25 125 50v344h82v-460l-82 -13v67c-42 -42 -96 -67 -154 -67c-88 0 -143 59 -143 158v315zM420 520h-60l-98 127h-1l-99 -127h-60l115 187h88z" />
    <glyph glyph-name="Udieresis" unicode="&#xdc;" horiz-adv-x="646" 
d="M568 241c0 -158 -82 -256 -246 -256c-157 0 -244 97 -244 247v393h84v-380c0 -113 54 -180 165 -180c97 0 157 57 157 174c0 -5 0 386 0 386h84v-384zM487 754c0 -34 -24 -63 -60 -63s-60 29 -60 63c0 33 24 62 60 62s60 -29 60 -62zM283 754c0 -34 -25 -63 -61 -63
c-35 0 -60 29 -60 63c0 33 25 62 60 62c36 0 61 -29 61 -62z" />
    <glyph glyph-name="udieresis" unicode="&#xfc;" horiz-adv-x="517" 
d="M67 458h82v-288c0 -79 30 -106 90 -106c53 0 99 25 125 50v344h82v-460l-82 -13v67c-42 -42 -96 -67 -154 -67c-88 0 -143 59 -143 158v315zM418 587c0 -34 -24 -63 -60 -63s-60 29 -60 63c0 33 24 62 60 62s60 -29 60 -62zM214 587c0 -34 -25 -63 -61 -63
c-35 0 -60 29 -60 63c0 33 25 62 60 62c36 0 61 -29 61 -62z" />
    <glyph glyph-name="Umacron" unicode="&#x16a;" horiz-adv-x="646" 
d="M568 241c0 -158 -82 -256 -246 -256c-157 0 -244 97 -244 247v393h84v-380c0 -113 54 -180 165 -180c97 0 157 57 157 174c0 -5 0 386 0 386h84v-384zM463 705h-275l4 53h266z" />
    <glyph glyph-name="umacron" unicode="&#x16b;" horiz-adv-x="517" 
d="M67 458h82v-288c0 -79 30 -106 90 -106c53 0 99 25 125 50v344h82v-460l-82 -13v67c-42 -42 -96 -67 -154 -67c-88 0 -143 59 -143 158v315zM394 538h-275l4 53h266z" />
    <glyph glyph-name="Ubreve" unicode="&#x16c;" horiz-adv-x="646" 
d="M568 241c0 -158 -82 -256 -246 -256c-157 0 -244 97 -244 247v393h84v-380c0 -113 54 -180 165 -180c97 0 157 57 157 174c0 -5 0 386 0 386h84v-384zM486 873c-14 -106 -63 -187 -160 -187s-146 81 -160 187h67c12 -66 40 -122 93 -122s82 56 93 122h67z" />
    <glyph glyph-name="ubreve" unicode="&#x16d;" horiz-adv-x="517" 
d="M67 458h82v-288c0 -79 30 -106 90 -106c53 0 99 25 125 50v344h82v-460l-82 -13v67c-42 -42 -96 -67 -154 -67c-88 0 -143 59 -143 158v315zM414 706c-14 -106 -63 -187 -160 -187s-146 81 -160 187h67c12 -66 40 -122 93 -122s82 56 93 122h67z" />
    <glyph glyph-name="Uring" unicode="&#x16e;" horiz-adv-x="646" 
d="M568 241c0 -158 -82 -256 -246 -256c-157 0 -244 97 -244 247v393h84v-380c0 -113 54 -180 165 -180c97 0 157 57 157 174c0 -5 0 386 0 386h84v-384zM450 778c1 -60 -47 -109 -124 -109s-124 49 -124 109s47 110 124 110s123 -50 124 -110zM398 779c0 36 -27 66 -72 66
c-44 0 -71 -30 -71 -66s27 -67 71 -67c45 0 72 31 72 67z" />
    <glyph glyph-name="uring" unicode="&#x16f;" horiz-adv-x="517" 
d="M67 458h82v-288c0 -79 30 -106 90 -106c53 0 99 25 125 50v344h82v-460l-82 -13v67c-42 -42 -96 -67 -154 -67c-88 0 -143 59 -143 158v315zM382 631c1 -60 -47 -109 -124 -109s-124 49 -124 109s47 110 124 110s123 -50 124 -110zM330 632c0 36 -27 66 -72 66
c-44 0 -71 -30 -71 -66s27 -67 71 -67c45 0 72 31 72 67z" />
    <glyph glyph-name="Uhungarumlaut" unicode="&#x170;" horiz-adv-x="646" 
d="M568 241c0 -158 -82 -256 -246 -256c-157 0 -244 97 -244 247v393h84v-380c0 -113 54 -180 165 -180c97 0 157 57 157 174c0 -5 0 386 0 386h84v-384zM554 864l-147 -177h-71l134 177h84zM368 864l-124 -177h-70l111 177h83z" />
    <glyph glyph-name="uhungarumlaut" unicode="&#x171;" horiz-adv-x="517" 
d="M67 458h82v-288c0 -79 30 -106 90 -106c53 0 99 25 125 50v344h82v-460l-82 -13v67c-42 -42 -96 -67 -154 -67c-88 0 -143 59 -143 158v315zM482 697l-147 -177h-71l134 177h84zM296 697l-124 -177h-70l111 177h83z" />
    <glyph glyph-name="Uogonek" unicode="&#x172;" horiz-adv-x="646" 
d="M568 241c0 -110 -39 -186 -114 -230c-51 -30 -80 -66 -80 -106c0 -30 16 -49 45 -49c18 0 38 6 51 16l18 -62c-21 -15 -50 -27 -90 -27c-62 0 -106 37 -106 96c0 44 24 81 59 107c-10 0 -19 -1 -29 -1c-157 0 -244 97 -244 247v393h84v-380c0 -113 54 -180 165 -180
c97 0 157 57 157 174v386h84v-384z" />
    <glyph glyph-name="uogonek" unicode="&#x173;" horiz-adv-x="517" 
d="M67 458h82v-288c0 -79 30 -106 90 -106c53 0 99 25 125 50v344h82v-460c-57 -11 -123 -56 -123 -93c0 -30 16 -49 45 -49c18 0 38 6 51 16l18 -62c-21 -15 -50 -27 -90 -27c-62 0 -106 37 -106 96c0 68 60 119 123 141v32c-42 -42 -96 -67 -154 -67
c-88 0 -143 59 -143 158v315z" />
    <glyph glyph-name="Wcircumflex" unicode="&#x174;" horiz-adv-x="898" 
d="M450 520l-158 -520h-83l-178 625h89l135 -509l147 509h98l151 -509l133 509h83l-177 -625h-85zM611 687h-60l-98 127h-1l-99 -127h-60l115 187h88z" />
    <glyph glyph-name="wcircumflex" unicode="&#x175;" horiz-adv-x="684" 
d="M230 -2h-75l-141 460h88l97 -340l106 338h75l117 -339l84 341h91l-138 -460h-75l-117 342zM504 520h-60l-98 127h-1l-99 -127h-60l115 187h88z" />
    <glyph glyph-name="Wgrave" unicode="&#x1e80;" horiz-adv-x="898" 
d="M450 520l-158 -520h-83l-178 625h89l135 -509l147 509h98l151 -509l133 509h83l-177 -625h-85zM495 687h-60l-146 181h100z" />
    <glyph glyph-name="wgrave" unicode="&#x1e81;" horiz-adv-x="684" 
d="M230 -2h-75l-141 460h88l97 -340l106 338h75l117 -339l84 341h91l-138 -460h-75l-117 342zM378 520h-60l-146 181h100z" />
    <glyph glyph-name="Wacute" unicode="&#x1e82;" horiz-adv-x="898" 
d="M450 520l-158 -520h-83l-178 625h89l135 -509l147 509h98l151 -509l133 509h83l-177 -625h-85zM614 868l-146 -181h-60l106 181h100z" />
    <glyph glyph-name="wacute" unicode="&#x1e83;" horiz-adv-x="684" 
d="M230 -2h-75l-141 460h88l97 -340l106 338h75l117 -339l84 341h91l-138 -460h-75l-117 342zM504 701l-146 -181h-60l106 181h100z" />
    <glyph glyph-name="Wdieresis" unicode="&#x1e84;" horiz-adv-x="898" 
d="M450 520l-158 -520h-83l-178 625h89l135 -509l147 509h98l151 -509l133 509h83l-177 -625h-85zM614 754c0 -34 -24 -63 -60 -63s-60 29 -60 63c0 33 24 62 60 62s60 -29 60 -62zM410 754c0 -34 -25 -63 -61 -63c-35 0 -60 29 -60 63c0 33 25 62 60 62c36 0 61 -29 61 -62
z" />
    <glyph glyph-name="wdieresis" unicode="&#x1e85;" horiz-adv-x="684" 
d="M230 -2h-75l-141 460h88l97 -340l106 338h75l117 -339l84 341h91l-138 -460h-75l-117 342zM507 587c0 -34 -24 -63 -60 -63s-60 29 -60 63c0 33 24 62 60 62s60 -29 60 -62zM303 587c0 -34 -25 -63 -61 -63c-35 0 -60 29 -60 63c0 33 25 62 60 62c36 0 61 -29 61 -62z
" />
    <glyph glyph-name="Yacute" unicode="&#xdd;" horiz-adv-x="540" 
d="M530 625l-217 -377v-248h-85v249l-218 376h96l166 -292l164 292h94zM441 868l-146 -181h-60l106 181h100z" />
    <glyph glyph-name="yacute" unicode="&#xfd;" horiz-adv-x="441" 
d="M439 458l-183 -463l-31 -82c-44 -116 -90 -151 -161 -151c-35 0 -66 10 -97 24l24 76c24 -12 50 -22 73 -22c35 0 57 19 88 99l28 71l-178 448h88l133 -356l129 356h87zM392 701l-146 -181h-60l106 181h100z" />
    <glyph glyph-name="Ycircumflex" unicode="&#x176;" horiz-adv-x="540" 
d="M530 625l-217 -377v-248h-85v249l-218 376h96l166 -292l164 292h94zM434 687h-60l-98 127h-1l-99 -127h-60l115 187h88z" />
    <glyph glyph-name="ycircumflex" unicode="&#x177;" horiz-adv-x="441" 
d="M439 458l-183 -463l-31 -82c-44 -116 -90 -151 -161 -151c-35 0 -66 10 -97 24l24 76c24 -12 50 -22 73 -22c35 0 57 19 88 99l28 71l-178 448h88l133 -356l129 356h87zM379 520h-60l-98 127h-1l-99 -127h-60l115 187h88z" />
    <glyph glyph-name="Ydieresis" unicode="&#x178;" horiz-adv-x="540" 
d="M530 625l-217 -377v-248h-85v249l-218 376h96l166 -292l164 292h94zM434 754c0 -34 -24 -63 -60 -63s-60 29 -60 63c0 33 24 62 60 62s60 -29 60 -62zM230 754c0 -34 -25 -63 -61 -63c-35 0 -60 29 -60 63c0 33 25 62 60 62c36 0 61 -29 61 -62z" />
    <glyph glyph-name="ydieresis" unicode="&#xff;" horiz-adv-x="441" 
d="M439 458l-183 -463l-31 -82c-44 -116 -90 -151 -161 -151c-35 0 -66 10 -97 24l24 76c24 -12 50 -22 73 -22c35 0 57 19 88 99l28 71l-178 448h88l133 -356l129 356h87zM385 587c0 -34 -24 -63 -60 -63s-60 29 -60 63c0 33 24 62 60 62s60 -29 60 -62zM181 587
c0 -34 -25 -63 -61 -63c-35 0 -60 29 -60 63c0 33 25 62 60 62c36 0 61 -29 61 -62z" />
    <glyph glyph-name="Zacute" unicode="&#x179;" horiz-adv-x="521" 
d="M482 0h-459v64l354 482h-348v79h454v-66l-353 -480h352v-79zM402 868l-146 -181h-60l106 181h100z" />
    <glyph glyph-name="zacute" unicode="&#x17a;" horiz-adv-x="410" 
d="M386 0h-365v70l266 313h-257v75h356v-68l-266 -315h266v-75zM340 701l-146 -181h-60l106 181h100z" />
    <glyph glyph-name="Zdotaccent" unicode="&#x17b;" horiz-adv-x="521" 
d="M482 0h-459v64l354 482h-348v79h454v-66l-353 -480h352v-79zM311 752c0 -32 -23 -60 -58 -60c-34 0 -57 28 -57 60c0 33 23 61 57 61c35 0 58 -28 58 -61z" />
    <glyph glyph-name="zdotaccent" unicode="&#x17c;" horiz-adv-x="410" 
d="M386 0h-365v70l266 313h-257v75h356v-68l-266 -315h266v-75zM260 585c0 -32 -23 -60 -58 -60c-34 0 -57 28 -57 60c0 33 23 61 57 61c35 0 58 -28 58 -61z" />
    <glyph glyph-name="Zcaron" unicode="&#x17d;" horiz-adv-x="521" 
d="M482 0h-459v64l354 482h-348v79h454v-66l-353 -480h352v-79zM409 874l-115 -187h-88l-115 187h60l98 -127h1l99 127h60z" />
    <glyph glyph-name="zcaron" unicode="&#x17e;" horiz-adv-x="410" 
d="M386 0h-365v70l266 313h-257v75h356v-68l-266 -315h266v-75zM357 707l-115 -187h-88l-115 187h60l98 -127h1l99 127h60z" />
    <glyph glyph-name="zero" unicode="0" 
d="M465 314c0 -202 -85 -329 -217 -329s-213 125 -213 327c0 201 85 328 217 328s213 -125 213 -326zM383 311c0 180 -59 257 -135 257c-75 0 -131 -75 -131 -255c0 -176 59 -254 135 -254s131 76 131 252z" />
    <glyph glyph-name="one" unicode="1" 
d="M251 0v533l-156 -42l-3 76l237 66v-633h-78z" />
    <glyph glyph-name="two" unicode="2" 
d="M449 0h-400l-4 81c189 178 301 261 301 370c0 68 -49 113 -118 113c-53 0 -109 -29 -149 -67l-29 72c39 36 110 70 183 70c117 0 197 -75 197 -186c0 -119 -103 -203 -297 -378h312z" />
    <glyph glyph-name="three" unicode="3" 
d="M265 331c127 0 183 -75 183 -152c0 -119 -102 -194 -225 -194c-61 0 -136 19 -177 43l15 76c38 -21 100 -45 163 -45c74 0 140 39 140 111c0 63 -51 109 -142 109c-28 0 -65 -4 -92 -9v68c123 29 211 69 211 140c0 52 -39 87 -110 87c-49 0 -109 -24 -151 -63l-31 73
c44 35 115 65 183 65c113 0 192 -56 192 -152c0 -74 -58 -128 -159 -157z" />
    <glyph glyph-name="four" unicode="4" 
d="M488 159h-98v-159h-74v159h-284l-9 56l282 415h85v-400h95zM316 230v302l-205 -302h205z" />
    <glyph glyph-name="five" unicode="5" 
d="M152 367c17 4 40 8 73 8c125 0 216 -68 216 -185c0 -121 -89 -205 -218 -205c-65 0 -133 19 -172 43l15 78c39 -24 100 -46 158 -46c80 0 136 43 136 126c0 70 -51 117 -141 117c-55 0 -106 -13 -134 -27l-17 15l43 334h319l3 -78h-258z" />
    <glyph glyph-name="six" unicode="6" 
d="M42 244c0 172 111 340 342 394l20 -67c-147 -37 -249 -124 -281 -248l3 -1c41 39 100 64 161 64c99 0 176 -76 176 -193c0 -118 -81 -208 -205 -208c-146 0 -216 120 -216 259zM121 221c0 -87 49 -163 141 -163c73 0 121 55 121 131c0 78 -45 124 -117 124
c-57 0 -111 -27 -140 -54c-3 -11 -5 -24 -5 -38z" />
    <glyph glyph-name="seven" unicode="7" 
d="M372 547h-333l3 78h405l9 -68l-280 -557h-82z" />
    <glyph glyph-name="eight" unicode="8" 
d="M460 165c0 -97 -72 -180 -211 -180c-144 0 -210 79 -210 172c0 86 69 136 122 161c-60 31 -111 72 -111 143c0 104 77 180 205 180c134 0 195 -81 195 -172c0 -77 -57 -127 -108 -155c63 -33 118 -74 118 -149zM371 461c0 67 -53 109 -119 109c-80 0 -122 -46 -122 -100
c0 -64 70 -106 155 -128c51 24 86 64 86 119zM380 155c0 71 -75 113 -161 136c-58 -24 -101 -67 -101 -126c0 -66 56 -109 135 -109c83 0 127 37 127 99z" />
    <glyph glyph-name="nine" unicode="9" 
d="M457 381c0 -172 -111 -340 -342 -394l-20 67c148 37 249 124 281 248l-3 1c-41 -39 -100 -64 -161 -64c-99 0 -175 76 -175 193c0 118 80 208 204 208c146 0 216 -120 216 -259zM378 404c0 87 -49 163 -140 163c-74 0 -122 -55 -122 -131c0 -78 45 -124 117 -124
c57 0 111 27 140 54c3 11 5 24 5 38z" />
    <glyph glyph-name="dollar" unicode="$" 
d="M228 61h10c80 0 136 43 136 105c0 57 -37 82 -118 106zM264 640l12 90h48l-13 -95c47 -8 92 -24 133 -50l-30 -74c-33 22 -73 38 -113 46c0 1 -27 -199 -27 -199c91 -24 183 -69 183 -186c0 -108 -90 -187 -221 -187h-19c1 0 -14 -108 -14 -108h-48l15 114
c-51 8 -100 26 -142 53l28 77c37 -25 78 -45 124 -54l30 218c-85 25 -172 64 -172 179c0 105 85 176 208 176h18zM228 371l26 192h-7c-89 0 -126 -41 -126 -93c0 -53 37 -77 107 -99z" />
    <glyph glyph-name="cent" unicode="&#xa2;" 
d="M353 468c34 -6 65 -17 93 -34l-20 -72c-25 16 -53 28 -83 33l-45 -337c48 0 94 14 131 38l14 -73c-40 -24 -90 -38 -147 -38h-8l-14 -108h-47l15 113c-107 23 -173 114 -173 239c0 145 95 244 228 244h10l12 90h47zM297 400c-95 0 -146 -66 -146 -170
c0 -88 38 -147 101 -166z" />
    <glyph glyph-name="sterling" unicode="&#xa3;" 
d="M118 328c-2 36 -3 69 -3 98c0 146 87 214 199 214c58 0 107 -17 148 -43l-20 -73c-34 23 -79 42 -128 42c-81 0 -117 -56 -117 -132c0 -29 2 -65 4 -106h196l-3 -54h-191c1 -30 2 -60 2 -90c0 -25 -2 -47 -7 -67c45 -37 102 -57 138 -57c45 0 85 24 100 107l63 -14
c-7 -110 -78 -168 -156 -168c-60 0 -120 34 -169 77c-25 -36 -69 -62 -139 -79c0 0 -18 71 -18 66c86 23 106 55 106 127c0 31 -1 64 -3 98h-92l-3 54h93z" />
    <glyph glyph-name="yen" unicode="&#xa5;" 
d="M209 263h-174l-3 55h153l-195 307h95l165 -275l164 275h92l-194 -307h153l-3 -55h-174v-78h174l3 -54h-176v-131h-81v131h-176l3 54h174v78z" />
    <glyph glyph-name="florin" unicode="&#x192;" horiz-adv-x="356" 
d="M87 140l36 190l-109 6l14 52l110 22l15 73c19 94 58 148 143 148c44 0 82 -17 106 -35c0 -1 -35 -69 -35 -69c-23 15 -47 27 -71 27c-36 0 -55 -19 -67 -80l-13 -69h119l-11 -74h-122l-38 -198c-17 -89 -65 -137 -161 -151l-19 75c63 7 94 35 103 83z" />
    <glyph glyph-name="Euro" unicode="&#x20ac;" 
d="M95 369c1 0 -72 0 -72 0l-3 55h83c29 153 120 216 227 216c61 0 112 -13 153 -38l-20 -73c-38 25 -84 37 -133 37c-75 0 -124 -45 -144 -142h227l-3 -55h-231c-1 -16 -2 -34 -2 -52c0 -21 1 -41 3 -59h200l3 -55h-195c22 -100 74 -144 141 -144c52 0 100 13 137 37
l14 -74c-40 -24 -92 -37 -153 -37c-114 0 -201 58 -226 218h-81l3 55h72c-1 16 -2 33 -2 51c0 21 1 41 2 60z" />
    <glyph glyph-name="currency" unicode="&#xa4;" 
d="M439 501l-59 -59c13 -23 22 -56 22 -83c0 -30 -8 -60 -22 -84l64 -64l-48 -48l-63 63c-24 -15 -52 -23 -85 -23c-35 0 -61 6 -85 22l-58 -58l-47 47l58 58c-16 26 -23 55 -23 87s7 59 23 85l-61 60l48 48l60 -60c24 15 52 23 85 23c34 0 62 -7 87 -24l57 57zM341 359
c0 52 -35 96 -93 96c-59 0 -94 -44 -94 -96c0 -51 35 -96 94 -96c58 0 93 45 93 96z" />
    <glyph glyph-name="percent" unicode="%" horiz-adv-x="740" 
d="M346 482c0 -89 -63 -165 -166 -165c-102 0 -166 76 -166 165c0 91 64 167 166 167c103 0 166 -76 166 -167zM651 639l-498 -654h-63l498 654h63zM726 142c0 -91 -64 -167 -166 -167c-103 0 -166 76 -166 167c0 89 63 165 166 165c102 0 166 -76 166 -165zM292 482
c0 64 -42 115 -112 115s-112 -51 -112 -115c0 -60 42 -113 112 -113s112 53 112 113zM672 142c0 60 -42 113 -112 113s-112 -53 -112 -113c0 -64 42 -115 112 -115s112 51 112 115z" />
    <glyph glyph-name="perthousand" unicode="&#x2030;" horiz-adv-x="1120" 
d="M346 482c0 -89 -63 -165 -166 -165c-102 0 -166 76 -166 165c0 91 64 167 166 167c103 0 166 -76 166 -167zM651 639l-498 -654h-63l498 654h63zM726 142c0 -91 -64 -167 -166 -167c-103 0 -166 76 -166 167c0 89 63 165 166 165c102 0 166 -76 166 -165zM292 482
c0 64 -42 115 -112 115s-112 -51 -112 -115c0 -60 42 -113 112 -113s112 53 112 113zM672 142c0 60 -42 113 -112 113s-112 -53 -112 -113c0 -64 42 -115 112 -115s112 51 112 115zM1106 142c0 -91 -64 -167 -166 -167c-103 0 -166 76 -166 167c0 89 63 165 166 165
c102 0 166 -76 166 -165zM1052 142c0 60 -42 113 -112 113s-112 -53 -112 -113c0 -64 42 -115 112 -115s112 51 112 115z" />
    <glyph glyph-name="numbersign" unicode="#" horiz-adv-x="560" 
d="M162 364h-124v58h139l59 220h60l-59 -220h160l59 220h60l-59 -220h89v-58h-105l-39 -146h124v-58h-139l-63 -234h-60l63 234h-160l-63 -234h-60l63 234h-89v58h104zM382 364h-161l-39 -146h160z" />
    <glyph glyph-name="onesuperior" unicode="&#xb9;" horiz-adv-x="330" 
d="M159 273v311l-101 -23l-2 55l168 39v-382h-65z" />
    <glyph glyph-name="twosuperior" unicode="&#xb2;" horiz-adv-x="330" 
d="M296 273h-267l-2 54c123 107 191 153 191 215c0 37 -29 62 -71 62c-34 0 -69 -17 -96 -39l-22 50c28 23 76 43 126 43c80 0 129 -46 129 -112c0 -70 -61 -119 -183 -219c-3 -1 193 0 193 0z" />
    <glyph glyph-name="threesuperior" unicode="&#xb3;" horiz-adv-x="330" 
d="M179 472c82 0 120 -43 120 -91c0 -72 -69 -117 -154 -117c-42 0 -89 11 -118 26l11 52c27 -12 67 -25 107 -25c47 0 88 20 88 61c0 34 -31 60 -91 60c-20 -1 -44 -4 -61 -6v47c81 17 136 38 136 78c0 29 -23 48 -68 48c-32 0 -70 -14 -97 -36l-24 51c31 21 78 38 125 38
c77 0 130 -33 130 -92c0 -45 -37 -77 -104 -94z" />
    <glyph glyph-name="onequarter" unicode="&#xbc;" horiz-adv-x="715" 
d="M707 -49h-60v-94h-59v94h-183l-6 42l174 244h74v-236h58zM588 1v174l-124 -174h124zM675 625l-531 -741h-63l531 741h63zM159 273v311l-101 -23l-2 55l168 39v-382h-65z" />
    <glyph glyph-name="onehalf" unicode="&#xbd;" horiz-adv-x="715" 
d="M660 625l-531 -741h-63l531 741h63zM159 273v311l-101 -23l-2 55l168 39v-382h-65zM681 -143h-267l-2 54c123 107 191 153 191 215c0 37 -29 62 -71 62c-34 0 -69 -17 -96 -39l-22 50c28 23 76 43 126 43c80 0 129 -46 129 -112c0 -70 -61 -119 -183 -219
c-3 -1 193 0 193 0z" />
    <glyph glyph-name="threequarters" unicode="&#xbe;" horiz-adv-x="715" 
d="M707 -49h-60v-94h-59v94h-183l-6 42l174 244h74v-236h58zM588 1v174l-124 -174h124zM675 625l-531 -741h-63l531 741h63zM179 472c82 0 120 -43 120 -91c0 -72 -69 -117 -154 -117c-42 0 -89 11 -118 26l11 52c27 -12 67 -25 107 -25c47 0 88 20 88 61
c0 34 -31 60 -91 60c-20 -1 -44 -4 -61 -6v47c81 17 136 38 136 78c0 29 -23 48 -68 48c-32 0 -70 -14 -97 -36l-24 51c31 21 78 38 125 38c77 0 130 -33 130 -92c0 -45 -37 -77 -104 -94z" />
    <glyph glyph-name="degree" unicode="&#xb0;" 
d="M413 476c0 -88 -62 -163 -164 -163c-100 0 -163 75 -163 163c0 89 63 164 163 164c102 0 164 -75 164 -164zM360 476c0 63 -41 114 -111 114c-69 0 -110 -51 -110 -114c0 -60 41 -112 110 -112c70 0 111 52 111 112z" />
    <glyph glyph-name="ordfeminine" unicode="&#xaa;" horiz-adv-x="352" 
d="M337 264l-69 -16c-13 15 -23 32 -32 54h-1c-26 -28 -60 -53 -107 -53c-63 0 -106 44 -106 104c0 71 55 127 209 133v23c0 45 -26 68 -70 68c-39 0 -76 -16 -112 -44l-24 56c41 31 87 51 143 51c69 0 128 -30 128 -128v-144c0 -46 22 -80 41 -104zM231 341v95
c-112 -5 -144 -41 -144 -74c0 -38 28 -54 59 -54c34 0 67 15 85 33z" />
    <glyph glyph-name="ordmasculine" unicode="&#xba;" horiz-adv-x="421" 
d="M389 444c0 -117 -77 -195 -180 -195c-104 0 -177 77 -177 195s75 196 181 196c105 0 176 -77 176 -196zM324 443c0 79 -42 138 -114 138c-73 0 -113 -57 -113 -136c0 -78 42 -137 114 -137c73 0 113 56 113 135z" />
    <glyph glyph-name="plus" unicode="+" 
d="M454 199h-167v-170h-70v170h-169l3 71h166v169h70v-169h164z" />
    <glyph glyph-name="minus" unicode="&#x2212;" 
d="M454 199h-406l3 71h400z" />
    <glyph glyph-name="plusminus" unicode="&#xb1;" 
d="M454 229h-167v-140h-70v140h-169l3 71h166v140h70v-140h164zM454 0h-406l3 71h400z" />
    <glyph glyph-name="logicalnot" unicode="&#xac;" 
d="M452 330v-213h-70v142h-334l3 71h401z" />
    <glyph glyph-name="equal" unicode="=" 
d="M445 290h-388l-5 71h398zM450 108h-398l5 71h388z" />
    <glyph glyph-name="notequal" unicode="&#x2260;" 
d="M152 -33l37 141h-137l5 71h150l29 111h-179l-5 71h203l34 131h71l-34 -131h124l-5 -71h-138l-29 -111h167l5 -71h-190l-37 -141h-71z" />
    <glyph glyph-name="approxequal" unicode="&#x2248;" 
d="M433 210c-13 -71 -60 -114 -111 -114c-53 0 -112 49 -147 49c-12 0 -35 -1 -46 -44h-62c13 71 60 114 111 114c52 0 117 -49 147 -49c19 0 35 5 47 44h61zM433 368c-13 -71 -60 -114 -111 -114c-53 0 -112 49 -147 49c-12 0 -35 -1 -46 -44h-62c13 71 60 114 111 114
c52 0 117 -49 147 -49c19 0 35 5 47 44h61z" />
    <glyph glyph-name="multiply" unicode="&#xd7;" 
d="M458 77l-48 -48l-157 159l-157 -159l-48 48l159 157l-159 157l48 48l157 -159l157 159l48 -48l-159 -157z" />
    <glyph glyph-name="divide" unicode="&#xf7;" 
d="M454 199h-406l3 71h400zM319 82c0 -35 -27 -67 -66 -67s-68 32 -68 67s29 65 68 65s66 -30 66 -65zM319 387c0 -35 -29 -65 -68 -65s-66 30 -66 65s27 67 66 67s68 -32 68 -67z" />
    <glyph glyph-name="less" unicode="&#x3c;" 
d="M448 96v-79l-402 189v59l401 189v-79l-297 -135v-10z" />
    <glyph glyph-name="greater" unicode="&#x3e;" 
d="M444 206l-402 -189v79l298 134v10l-297 135v79l401 -189v-59z" />
    <glyph glyph-name="lessequal" unicode="&#x2264;" 
d="M430 161v-72l-361 152v88l361 152v-73l-285 -119v-9zM431 0h-355l3 68h349z" />
    <glyph glyph-name="greaterequal" unicode="&#x2265;" 
d="M70 89v72l285 119v9l-285 119v73l361 -152v-88zM424 0h-355l3 68h349z" />
    <glyph glyph-name="fraction" unicode="&#x2044;" horiz-adv-x="575" 
d="M568 639l-499 -654h-62l500 654h61z" />
    <glyph glyph-name="uni2215" unicode="&#x2215;" horiz-adv-x="575" 
d="M568 639l-499 -654h-62l500 654h61z" />
    <glyph glyph-name="mu" unicode="&#xb5;" 
d="M143 458v-292c0 -85 70 -102 109 -102c34 0 106 10 106 101v293h82v-458h-82v44c-23 -40 -63 -59 -107 -59c-41 0 -81 17 -108 58v-276h-82v691h82z" />
    <glyph glyph-name="mu" unicode="&#x3bc;" 
d="M143 458v-292c0 -85 70 -102 109 -102c34 0 106 10 106 101v293h82v-458h-82v44c-23 -40 -63 -59 -107 -59c-41 0 -81 17 -108 58v-276h-82v691h82z" />
    <glyph glyph-name="bar" unicode="|" horiz-adv-x="250" 
d="M91 -199v901h67v-901h-67z" />
    <glyph glyph-name="brokenbar" unicode="&#xa6;" horiz-adv-x="250" 
d="M91 307v335h67v-335h-67zM91 -139v335h67v-335h-67z" />
    <glyph glyph-name="at" unicode="@" horiz-adv-x="828" 
d="M547 206c-13 -67 5 -107 61 -107c77 0 143 72 143 207c0 178 -158 293 -324 293c-193 0 -346 -165 -346 -356c0 -182 131 -329 317 -329c42 0 83 8 123 20l11 -37c-46 -15 -87 -23 -136 -23c-209 0 -359 162 -359 368c0 216 171 396 390 396c196 0 368 -128 368 -332
c0 -169 -96 -262 -198 -262c-54 0 -96 26 -115 73c-35 -40 -77 -59 -118 -59c-85 0 -145 72 -145 164c0 124 93 227 212 227c32 0 68 -11 95 -23l69 23zM471 154l40 200c-20 21 -52 37 -88 37c-81 0 -135 -82 -135 -161c0 -69 43 -113 97 -113c34 0 60 15 86 37z" />
    <glyph glyph-name="bullet" unicode="&#x2022;" horiz-adv-x="449" 
d="M417 232c0 -29 -35 -116 -56 -137c-20 -20 -108 -56 -137 -56c-28 0 -116 36 -135 56c-20 21 -57 108 -57 137s37 116 57 136s108 56 136 56c29 0 116 -36 136 -56s56 -107 56 -136z" />
    <glyph glyph-name="asciicircum" unicode="^" horiz-adv-x="394" 
d="M359 520h-60l-98 127h-1l-99 -127h-60l115 187h88z" />
    <glyph glyph-name="asciitilde" unicode="~" 
d="M324 178c-62 0 -116 69 -153 69c-18 0 -31 -16 -38 -62c-3 0 -63 0 -55 0c9 86 36 127 97 127c62 0 116 -70 153 -70c18 0 31 16 37 62c3 0 61 0 56 0c-9 -85 -36 -126 -97 -126z" />
    <glyph glyph-name="slash" unicode="/" horiz-adv-x="217" 
d="M251 702l-243 -901h-60l243 901h60z" />
    <glyph glyph-name="backslash" unicode="\" horiz-adv-x="217" 
d="M-34 702h60l243 -901h-60z" />
    <glyph glyph-name="quotesingle" unicode="'" horiz-adv-x="154" 
d="M29 398h-34l115 247l75 -36z" />
    <glyph glyph-name="quotedbl" unicode="&#x22;" horiz-adv-x="304" 
d="M179 398h-34l115 247l75 -36zM29 398h-34l115 247l75 -36z" />
    <glyph glyph-name="ampersand" unicode="&#x26;" horiz-adv-x="622" 
d="M432 126c-59 -85 -131 -141 -219 -141c-121 0 -190 80 -190 176c0 83 68 146 152 169c-69 37 -103 84 -103 147c0 79 67 162 186 162c112 0 171 -74 171 -153c0 -67 -51 -119 -119 -147c37 -18 89 -64 130 -111l96 150h96l-153 -195l152 -183l-89 -15zM258 364
c53 23 90 60 90 115c0 52 -38 90 -97 90c-60 0 -95 -41 -95 -86c0 -57 34 -90 102 -119zM396 170c-55 63 -115 115 -172 135c-68 -32 -117 -77 -117 -137s42 -111 117 -111c65 0 124 44 172 113z" />
    <glyph glyph-name="parenleft" unicode="(" horiz-adv-x="364" 
d="M347 -257c-119 59 -280 227 -280 476s161 418 279 477l36 -52c-108 -59 -243 -214 -243 -425c0 -210 135 -365 243 -424z" />
    <glyph glyph-name="parenright" unicode=")" horiz-adv-x="364" 
d="M17 -257l-35 52c109 59 243 214 243 424c0 211 -134 366 -243 425l36 52c118 -59 279 -228 279 -477s-161 -417 -280 -476z" />
    <glyph glyph-name="bracketleft" unicode="[" horiz-adv-x="366" 
d="M357 -222h-274v897h274v-65h-203v-767h203v-65z" />
    <glyph glyph-name="bracketright" unicode="]" horiz-adv-x="366" 
d="M10 -222v65h203v767h-203v65h274v-897h-274z" />
    <glyph glyph-name="braceleft" unicode="{" horiz-adv-x="339" 
d="M322 -229c-143 6 -223 42 -223 134c0 81 47 141 47 204c0 57 -37 75 -122 82l-3 40l3 40c85 6 122 24 122 82c0 63 -47 123 -47 204c0 92 80 128 223 135v-57c-108 -8 -149 -31 -149 -73c0 -62 48 -117 48 -195c0 -75 -47 -126 -135 -131v-10c88 -6 135 -57 135 -132
c0 -77 -48 -132 -48 -191c0 -45 41 -69 149 -76v-56z" />
    <glyph glyph-name="braceright" unicode="}" horiz-adv-x="339" 
d="M318 231l-3 -40c-85 -7 -123 -25 -123 -82c0 -63 48 -123 48 -204c0 -92 -79 -128 -223 -134v56c107 7 149 31 149 75c0 60 -47 115 -47 192c0 75 45 126 134 132v10c-89 5 -134 56 -134 131c0 78 47 133 47 195c0 42 -42 65 -149 73v57c144 -7 223 -43 223 -135
c0 -81 -48 -141 -48 -204c0 -58 38 -76 123 -82z" />
    <glyph glyph-name="asterisk" unicode="*" horiz-adv-x="343" 
d="M166 454l-101 -111l-55 70l141 61v5l-137 63l50 71l102 -116l4 1l19 150l81 -26l-78 -132l3 -3l144 29v-84l-144 30l-3 -3l75 -133l-81 -24l-17 151z" />
    <glyph glyph-name="dagger" unicode="&#x2020;" horiz-adv-x="463" 
d="M201 386h-166l-3 56h169v183h60v-183h170l-3 -56h-167v-512h-60v512z" />
    <glyph glyph-name="daggerdbl" unicode="&#x2021;" horiz-adv-x="463" 
d="M201 401h-166l-3 56h169v168h60v-168h170l-3 -56h-167v-304h167l3 -56h-170v-167h-60v167h-169l3 56h166v304z" />
    <glyph glyph-name="section" unicode="&#xa7;" horiz-adv-x="471" 
d="M455 295c0 -59 -38 -103 -96 -124c28 -21 47 -49 47 -89c0 -87 -73 -148 -173 -148c-56 0 -118 17 -160 43l21 75c38 -26 94 -43 141 -43c52 0 91 24 91 65c0 44 -63 61 -131 80c-81 23 -169 50 -169 135c0 58 49 103 103 122c-32 21 -54 49 -54 91c0 85 72 141 164 141
c53 0 106 -13 148 -34l-21 -75c-38 21 -93 34 -131 34c-49 0 -81 -20 -81 -57c0 -42 62 -56 130 -75c81 -23 171 -53 171 -141zM378 277c0 64 -121 75 -210 114c-32 -20 -66 -48 -66 -83c0 -62 129 -71 218 -114c30 18 58 45 58 83z" />
    <glyph glyph-name="paragraph" unicode="&#xb6;" horiz-adv-x="498" 
d="M338 261c-19 -4 -38 -7 -61 -7c-158 0 -232 79 -232 182c0 125 98 189 239 189c-25 0 123 0 123 0v-689h-69v325z" />
    <glyph glyph-name="copyright" unicode="&#xa9;" horiz-adv-x="728" 
d="M364 -16c-181 0 -327 147 -327 327c0 181 146 328 327 328s327 -147 327 -328c0 -180 -146 -327 -327 -327zM661 311c0 164 -133 300 -297 300s-297 -136 -297 -300s133 -299 297 -299s297 135 297 299zM494 468l-20 -54c-30 19 -59 28 -94 28c-73 0 -120 -49 -120 -129
c0 -81 48 -133 121 -133c37 0 73 14 98 33l12 -59c-29 -18 -72 -28 -112 -28c-107 0 -181 70 -181 184c0 113 75 186 182 186c40 0 84 -10 114 -28z" />
    <glyph glyph-name="registered" unicode="&#xae;" horiz-adv-x="728" 
d="M364 -16c-181 0 -327 147 -327 327c0 181 146 328 327 328s327 -147 327 -328c0 -180 -146 -327 -327 -327zM661 311c0 164 -133 300 -297 300s-297 -136 -297 -300s133 -299 297 -299s297 135 297 299zM300 260v-122h-62v354h128c87 0 136 -41 136 -111
c0 -51 -25 -86 -68 -103l87 -140h-71l-77 126zM299 312l60 1c58 1 81 25 81 64c0 42 -27 60 -81 60h-60v-125z" />
    <glyph glyph-name="pcircle" unicode="&#x24df;" horiz-adv-x="728" 
d="M364 -16c-181 0 -327 146 -327 327s146 328 327 328s327 -147 327 -328s-146 -327 -327 -327zM661 311c0 164 -133 300 -297 300s-297 -136 -297 -300s133 -299 297 -299s297 135 297 299zM519 365c0 -83 -56 -125 -148 -125h-50v-112h-62v354h116c98 0 144 -49 144 -117
zM456 363c0 42 -28 64 -85 64h-51v-133l55 1c54 1 81 25 81 68z" />
    <glyph glyph-name="trademark" unicode="&#x2122;" horiz-adv-x="949" 
d="M863 252h-64l1 305h-11l-106 -294h-70l-93 293h-11l-5 -304h-58l7 374h114l80 -289h11l92 289h108zM395 565h-150v-313h-63v313h-139v61h352v-61z" />
    <glyph glyph-name="period" unicode="." horiz-adv-x="220" 
d="M175 50c0 -34 -26 -65 -63 -65c-38 0 -65 31 -65 65s27 63 65 63c37 0 63 -29 63 -63z" />
    <glyph glyph-name="comma" unicode="," horiz-adv-x="220" 
d="M41 63c4 32 26 59 68 59c41 0 85 -38 85 -92c0 -82 -74 -145 -148 -195l-35 35c69 50 102 92 102 127c0 25 -18 41 -72 66z" />
    <glyph glyph-name="colon" unicode=":" horiz-adv-x="220" 
d="M175 358c0 -34 -26 -65 -63 -65c-38 0 -65 31 -65 65s27 63 65 63c37 0 63 -29 63 -63zM175 50c0 -34 -26 -65 -63 -65c-38 0 -65 31 -65 65s27 63 65 63c37 0 63 -29 63 -63z" />
    <glyph glyph-name="semicolon" unicode=";" horiz-adv-x="220" 
d="M175 358c0 -34 -26 -65 -63 -65c-38 0 -65 31 -65 65s27 63 65 63c37 0 63 -29 63 -63zM41 63c4 32 26 59 68 59c41 0 85 -38 85 -92c0 -82 -74 -145 -148 -195l-35 35c69 50 102 92 102 127c0 25 -18 41 -72 66z" />
    <glyph glyph-name="exclam" unicode="!" horiz-adv-x="275" 
d="M115 194l-26 458h99l-25 -458h-48zM202 50c0 -34 -26 -65 -63 -65c-38 0 -66 31 -66 65s28 63 66 63c37 0 63 -29 63 -63z" />
    <glyph glyph-name="exclamdown" unicode="&#xa1;" horiz-adv-x="275" 
d="M73 574c0 34 26 65 64 65c37 0 65 -31 65 -65s-28 -63 -65 -63c-38 0 -64 29 -64 63zM161 430l26 -458h-100l26 458h48z" />
    <glyph glyph-name="question" unicode="?" horiz-adv-x="356" 
d="M317 478c0 -88 -55 -113 -105 -132c-42 -16 -77 -28 -77 -64c0 -31 27 -58 55 -85l-39 -12c-37 22 -78 62 -78 113c0 67 51 90 100 109c43 16 81 31 81 70c0 45 -44 84 -133 84c-26 0 -52 -5 -70 -8v77c19 5 42 9 76 9c111 0 190 -75 190 -161zM215 50
c0 -34 -26 -65 -64 -65c-37 0 -65 31 -65 65s28 63 65 63c38 0 64 -29 64 -63z" />
    <glyph glyph-name="questiondown" unicode="&#xbf;" horiz-adv-x="356" 
d="M38 146c0 88 56 113 106 132c43 16 76 28 76 64c0 31 -26 58 -54 85l38 12c38 -22 79 -62 79 -113c0 -67 -51 -90 -100 -109c-43 -16 -81 -31 -81 -70c0 -45 44 -84 133 -84c26 0 52 5 69 8v-77c-18 -5 -41 -9 -76 -9c-111 0 -190 75 -190 161zM141 574c0 34 26 65 63 65
c38 0 66 -31 66 -65s-28 -63 -66 -63c-37 0 -63 29 -63 63z" />
    <glyph glyph-name="quoteleft" unicode="&#x2018;" horiz-adv-x="220" 
d="M179 438c-4 -32 -26 -59 -68 -59c-41 0 -85 38 -85 91c0 83 74 146 149 195l34 -34c-69 -50 -101 -92 -101 -127c0 -25 17 -41 71 -66z" />
    <glyph glyph-name="quoteright" unicode="&#x2019;" horiz-adv-x="220" 
d="M41 608c4 32 26 59 68 59c41 0 85 -38 85 -91c0 -83 -74 -146 -148 -195l-35 34c69 50 102 92 102 127c0 25 -18 41 -72 66z" />
    <glyph glyph-name="quotedblleft" unicode="&#x201c;" horiz-adv-x="434" 
d="M393 438c-4 -32 -26 -59 -68 -59c-41 0 -85 38 -85 91c0 83 74 146 149 195l34 -34c-69 -50 -101 -92 -101 -127c0 -25 17 -41 71 -66zM179 438c-4 -32 -26 -59 -68 -59c-41 0 -85 38 -85 91c0 83 74 146 149 195l34 -34c-69 -50 -101 -92 -101 -127c0 -25 17 -41 71 -66
z" />
    <glyph glyph-name="quotedblright" unicode="&#x201d;" horiz-adv-x="434" 
d="M255 608c4 32 26 59 68 59c41 0 85 -38 85 -91c0 -83 -74 -146 -148 -195l-35 34c69 50 102 92 102 127c0 25 -18 41 -72 66zM41 608c4 32 26 59 68 59c41 0 85 -38 85 -91c0 -83 -74 -146 -148 -195l-35 34c69 50 102 92 102 127c0 25 -18 41 -72 66z" />
    <glyph glyph-name="quotesinglbase" unicode="&#x201a;" horiz-adv-x="220" 
d="M41 72c4 32 26 59 68 59c41 0 85 -38 85 -91c0 -83 -74 -146 -148 -195l-35 34c69 50 102 92 102 127c0 25 -18 41 -72 66z" />
    <glyph glyph-name="quotedblbase" unicode="&#x201e;" horiz-adv-x="420" 
d="M255 72c4 32 26 59 68 59c41 0 85 -38 85 -91c0 -83 -74 -146 -148 -195l-35 34c69 50 102 92 102 127c0 25 -18 41 -72 66zM41 72c4 32 26 59 68 59c41 0 85 -38 85 -91c0 -83 -74 -146 -148 -195l-35 34c69 50 102 92 102 127c0 25 -18 41 -72 66z" />
    <glyph glyph-name="guilsinglleft" unicode="&#x2039;" horiz-adv-x="342" 
d="M300 85l-8 -60l-262 162v94l262 162l8 -60l-200 -148v-2z" />
    <glyph glyph-name="guilsinglright" unicode="&#x203a;" horiz-adv-x="342" 
d="M312 187l-262 -162l-8 60l200 148v2l-200 148l8 60l262 -162v-94z" />
    <glyph glyph-name="guillemotleft" unicode="&#xab;" horiz-adv-x="580" 
d="M554 85l-7 -60l-262 162v94l262 162l7 -60l-194 -148v-2zM277 92l-8 -56l-249 153v90l249 153l8 -56l-185 -141v-2z" />
    <glyph glyph-name="guillemotright" unicode="&#xbb;" horiz-adv-x="586" 
d="M566 189l-249 -153l-8 56l185 141v2l-185 141l8 56l249 -153v-90zM301 187l-262 -162l-7 60l194 148v2l-194 148l7 60l262 -162v-94z" />
    <glyph glyph-name="periodcentered" unicode="&#xb7;" horiz-adv-x="220" 
d="M175 228c0 -34 -26 -65 -63 -65c-38 0 -65 31 -65 65s27 63 65 63c37 0 63 -29 63 -63z" />
    <glyph glyph-name="ellipsis" unicode="&#x2026;" horiz-adv-x="672" 
d="M627 50c0 -34 -26 -65 -64 -65c-37 0 -65 31 -65 65s28 63 65 63c38 0 64 -29 64 -63zM401 50c0 -34 -26 -65 -63 -65c-38 0 -66 31 -66 65s28 63 66 63c37 0 63 -29 63 -63zM175 50c0 -34 -26 -65 -63 -65c-38 0 -65 31 -65 65s27 63 65 63c37 0 63 -29 63 -63z" />
    <glyph glyph-name="hyphen" unicode="-" horiz-adv-x="310" 
d="M279 204h-246v77h246v-77z" />
    <glyph glyph-name="uni00AD" unicode="&#xad;" horiz-adv-x="310" 
d="M279 204h-246v77h246v-77z" />
    <glyph glyph-name="endash" unicode="&#x2013;" horiz-adv-x="461" 
d="M433 207h-403l3 59h397z" />
    <glyph glyph-name="emdash" unicode="&#x2014;" horiz-adv-x="931" 
d="M903 207h-873l3 59h867z" />
    <glyph glyph-name="underscore" unicode="_" horiz-adv-x="461" 
d="M473 -59h-485v59h485v-59z" />
    <glyph glyph-name="grave" unicode="`" horiz-adv-x="394" 
d="M277 520h-60l-146 181h100z" />
    <glyph glyph-name="acute" unicode="&#xb4;" horiz-adv-x="394" 
d="M329 701l-146 -181h-60l106 181h100z" />
    <glyph glyph-name="dieresis" unicode="&#xa8;" horiz-adv-x="394" 
d="M362 587c0 -34 -24 -63 -60 -63s-60 29 -60 63c0 33 24 62 60 62s60 -29 60 -62zM158 587c0 -34 -25 -63 -61 -63c-35 0 -60 29 -60 63c0 33 25 62 60 62c36 0 61 -29 61 -62z" />
    <glyph glyph-name="macron" unicode="&#xaf;" horiz-adv-x="394" 
d="M337 538h-275l4 53h266z" />
    <glyph glyph-name="cedilla" unicode="&#xb8;" horiz-adv-x="394" 
d="M193 -68c78 0 123 -32 123 -82c0 -56 -47 -96 -164 -111l-6 52c74 4 106 25 106 54c0 31 -37 47 -120 34l-8 42l120 118h59z" />
    <glyph glyph-name="circumflex" unicode="&#x2c6;" horiz-adv-x="394" 
d="M359 520h-60l-98 127h-1l-99 -127h-60l115 187h88z" />
    <glyph glyph-name="caron" unicode="&#x2c7;" horiz-adv-x="394" 
d="M359 707l-115 -187h-88l-115 187h60l98 -127h1l99 127h60z" />
    <glyph glyph-name="breve" unicode="&#x2d8;" horiz-adv-x="394" 
d="M360 706c-14 -106 -63 -187 -160 -187s-146 81 -160 187h67c12 -66 40 -122 93 -122s82 56 93 122h67z" />
    <glyph glyph-name="dotaccent" unicode="&#x2d9;" horiz-adv-x="394" 
d="M257 585c0 -32 -23 -60 -58 -60c-34 0 -57 28 -57 60c0 33 23 61 57 61c35 0 58 -28 58 -61z" />
    <glyph glyph-name="ring" unicode="&#x2da;" horiz-adv-x="394" 
d="M324 631c1 -60 -47 -109 -124 -109s-124 49 -124 109s47 110 124 110s123 -50 124 -110zM272 632c0 36 -27 66 -72 66c-44 0 -71 -30 -71 -66s27 -67 71 -67c45 0 72 31 72 67z" />
    <glyph glyph-name="ogonek" unicode="&#x2db;" horiz-adv-x="400" 
d="M224 -217c-62 0 -106 37 -106 96c0 72 67 125 134 145h43c-60 -38 -95 -74 -95 -119c0 -30 16 -49 45 -49c18 0 38 6 51 16l18 -62c-21 -15 -50 -27 -90 -27z" />
    <glyph glyph-name="tilde" unicode="&#x2dc;" horiz-adv-x="394" 
d="M371 649c-9 -85 -36 -126 -97 -126c-62 0 -116 69 -153 69c-18 0 -31 -16 -38 -62c-3 0 -63 0 -55 0c9 86 36 127 97 127c62 0 116 -70 153 -70c18 0 31 16 37 62c3 0 61 0 56 0z" />
    <glyph glyph-name="hungarumlaut" unicode="&#x2dd;" horiz-adv-x="394" 
d="M451 697l-147 -177h-71l134 177h84zM265 697l-124 -177h-70l111 177h83z" />
    <glyph glyph-name="commaaccent" unicode="&#xf6c3;" horiz-adv-x="394" 
d="M135 -100c3 23 22 49 57 49c40 0 71 -32 71 -75c0 -62 -46 -105 -108 -142l-30 26c58 38 65 65 65 86c0 24 -10 37 -55 56z" />
    <glyph glyph-name="dot" horiz-adv-x="220" 
d="M175 228c0 -34 -26 -65 -63 -65c-38 0 -65 31 -65 65s27 63 65 63c37 0 63 -29 63 -63z" />
    <glyph glyph-name="a.smallcap" horiz-adv-x="494" 
d="M295 472l172 -472h-80l-42 117h-197l-41 -117h-82l176 472h94zM322 186l-75 213l-75 -213h150z" />
    <glyph glyph-name="b.smallcap" horiz-adv-x="481" 
d="M346 243c55 -15 89 -57 89 -109c0 -80 -48 -134 -173 -134h-188v472h184c117 0 162 -51 162 -126c0 -48 -28 -84 -74 -103zM340 339c0 42 -30 65 -89 65h-99v-136h95c65 0 93 27 93 71zM355 136c0 50 -38 68 -102 68h-101v-136h105c67 0 98 25 98 68z" />
    <glyph glyph-name="c.smallcap" horiz-adv-x="483" 
d="M439 445l-25 -69c-40 24 -80 38 -127 38c-97 0 -158 -67 -158 -176c0 -110 61 -180 159 -180c50 0 98 19 131 44l16 -76c-39 -23 -96 -37 -149 -37c-142 0 -236 93 -236 246c0 150 95 248 237 248c55 0 112 -14 152 -38z" />
    <glyph glyph-name="d.smallcap" horiz-adv-x="528" 
d="M478 239c0 -145 -91 -239 -257 -239h-147v472h152c158 0 252 -92 252 -233zM398 235c0 111 -66 167 -179 167h-66v-332h70c105 0 175 56 175 165z" />
    <glyph glyph-name="e.smallcap" horiz-adv-x="437" 
d="M384 0h-310v472h310v-70h-232v-130h193v-71h-193v-131h232v-70z" />
    <glyph glyph-name="f.smallcap" horiz-adv-x="417" 
d="M74 0v472h303v-71h-225v-137h186v-72h-186v-192h-78z" />
    <glyph glyph-name="g.smallcap" horiz-adv-x="523" 
d="M128 238c0 -112 65 -181 164 -181c37 0 71 9 96 22v99h-121v71h196v-216c-50 -30 -117 -44 -172 -44c-142 0 -241 93 -241 246c0 151 99 248 241 248c57 0 122 -15 163 -40l-26 -71c-39 26 -88 42 -136 42c-98 0 -164 -67 -164 -176z" />
    <glyph glyph-name="h.smallcap" horiz-adv-x="545" 
d="M471 0h-79v202h-239v-202h-79v472h79v-199h239v199h79v-472z" />
    <glyph glyph-name="i.smallcap" horiz-adv-x="229" 
d="M154 0h-79v472h79v-472z" />
    <glyph glyph-name="j.smallcap" horiz-adv-x="352" 
d="M288 150c0 -98 -46 -161 -149 -161c-45 0 -85 13 -112 30l10 73c28 -18 65 -34 95 -34c54 0 77 32 77 97v317h79v-322z" />
    <glyph glyph-name="j.smallcap.alt" horiz-adv-x="326" 
d="M262 141c0 -101 -49 -152 -138 -152c-38 0 -74 11 -97 27l10 72c28 -19 56 -29 81 -29c43 0 65 24 65 83v330h79v-331z" />
    <glyph glyph-name="k.smallcap" horiz-adv-x="459" 
d="M153 251h1l187 221h97l-209 -232l211 -240h-98l-188 220h-1v-220h-79v472h79v-221z" />
    <glyph glyph-name="l.smallcap" horiz-adv-x="406" 
d="M377 0h-303v472h79v-401h224v-71z" />
    <glyph glyph-name="m.smallcap" horiz-adv-x="632" 
d="M572 0h-80l-6 371l-129 -371h-83l-131 372l-5 -372h-78l15 472h110l132 -381l132 381h108z" />
    <glyph glyph-name="n.smallcap" horiz-adv-x="546" 
d="M399 115l-2 357h76v-477h-85l-240 362l2 -357h-76v472h87z" />
    <glyph glyph-name="o.smallcap" horiz-adv-x="580" 
d="M530 238c0 -144 -101 -249 -240 -249s-240 94 -240 246c0 143 100 248 240 248c138 0 240 -93 240 -245zM450 235c0 109 -65 180 -162 180c-94 0 -159 -71 -159 -177c0 -110 65 -181 162 -181c95 0 159 71 159 178z" />
    <glyph glyph-name="p.smallcap" horiz-adv-x="460" 
d="M417 317c0 -110 -74 -165 -197 -165h-67v-152h-79v472h153c129 0 190 -65 190 -155zM337 314c0 58 -39 88 -116 88h-69v-182l73 2c75 2 112 33 112 92z" />
    <glyph glyph-name="q.smallcap" horiz-adv-x="580" 
d="M402 18l140 -69l-32 -67l-203 107c-5 2 -12 0 -17 0c-139 0 -240 94 -240 246c0 143 100 248 240 248c138 0 240 -93 240 -245c0 -99 -51 -181 -128 -220zM450 235c0 109 -65 180 -162 180c-94 0 -159 -71 -159 -177c0 -110 65 -181 162 -181c95 0 159 71 159 178z" />
    <glyph glyph-name="r.smallcap" horiz-adv-x="489" 
d="M153 164v-164h-79v472h166c117 0 182 -55 182 -147c0 -69 -35 -115 -92 -138l117 -187h-91l-104 170zM152 231l81 1c77 1 109 35 109 88c0 57 -36 82 -110 82h-80v-171z" />
    <glyph glyph-name="s.smallcap" horiz-adv-x="429" 
d="M207 57c55 0 95 29 95 70c0 44 -35 59 -109 80c-67 18 -144 48 -144 141c0 81 64 135 164 135c60 0 112 -14 157 -41l-23 -68c-40 25 -90 40 -133 40c-61 0 -87 -28 -87 -62c0 -43 41 -58 111 -77c69 -19 141 -52 141 -142c0 -84 -69 -144 -173 -144
c-59 0 -119 17 -165 44l21 69c42 -26 89 -45 145 -45z" />
    <glyph glyph-name="t.smallcap" horiz-adv-x="464" 
d="M434 401h-162v-401h-80v401h-162v71h404v-71z" />
    <glyph glyph-name="u.smallcap" horiz-adv-x="508" 
d="M445 185c0 -124 -67 -196 -191 -196c-120 0 -191 69 -191 188v295h79v-284c0 -81 36 -128 114 -128c70 0 110 40 110 124v288h79v-287z" />
    <glyph glyph-name="v.smallcap" horiz-adv-x="485" 
d="M459 472l-170 -472h-95l-169 472h83l134 -392l138 392h79z" />
    <glyph glyph-name="w.smallcap" horiz-adv-x="737" 
d="M369 377l-113 -377h-79l-132 472h83l92 -369l105 369h90l106 -369l92 369h79l-132 -472h-81z" />
    <glyph glyph-name="x.smallcap" horiz-adv-x="481" 
d="M239 185l-123 -185h-91l169 236l-164 236h95l115 -177l119 177h92l-164 -231l168 -241h-95z" />
    <glyph glyph-name="y.smallcap" horiz-adv-x="456" 
d="M432 472l-164 -288v-184h-79v185l-164 287h86l118 -212l116 212h87z" />
    <glyph glyph-name="z.smallcap" horiz-adv-x="442" 
d="M393 0h-357v57l260 344h-256v71h354v-58l-258 -343h257v-71z" />
    <glyph glyph-name="fi.smallcap" horiz-adv-x="646" 
d="M571 0h-79v472h79v-472zM74 0v472h303v-71h-225v-137h186v-72h-186v-192h-78z" />
    <glyph glyph-name="fl.smallcap" horiz-adv-x="823" 
d="M794 0h-303v472h79v-401h224v-71zM74 0v472h303v-71h-225v-137h186v-72h-186v-192h-78z" />
    <glyph glyph-name="ff.smallcap" horiz-adv-x="834" 
d="M491 0v472h303v-71h-225v-137h186v-72h-186v-192h-78zM74 0v472h303v-71h-225v-137h186v-72h-186v-192h-78z" />
    <glyph glyph-name="ffi.smallcap" horiz-adv-x="1063" 
d="M988 0h-79v472h79v-472zM491 0v472h303v-71h-225v-137h186v-72h-186v-192h-78zM74 0v472h303v-71h-225v-137h186v-72h-186v-192h-78z" />
    <glyph glyph-name="ffl.smallcap" horiz-adv-x="1240" 
d="M1211 0h-303v472h79v-401h224v-71zM491 0v472h303v-71h-225v-137h186v-72h-186v-192h-78zM74 0v472h303v-71h-225v-137h186v-72h-186v-192h-78z" />
    <glyph glyph-name="germandbls.smallcap" horiz-adv-x="858" 
d="M638 57c55 0 95 29 95 70c0 44 -35 59 -109 80c-67 18 -144 48 -144 141c0 81 64 135 164 135c60 0 112 -14 157 -41l-23 -68c-40 25 -90 40 -133 40c-61 0 -87 -28 -87 -62c0 -43 41 -58 111 -77c69 -19 141 -52 141 -142c0 -84 -69 -144 -173 -144
c-59 0 -119 17 -165 44l21 69c42 -26 89 -45 145 -45zM209 57c55 0 95 29 95 70c0 44 -35 59 -109 80c-67 18 -144 48 -144 141c0 81 64 135 164 135c60 0 112 -14 157 -41l-23 -68c-40 25 -90 40 -133 40c-61 0 -87 -28 -87 -62c0 -43 41 -58 111 -77
c69 -19 141 -52 141 -142c0 -84 -69 -144 -173 -144c-59 0 -119 17 -165 44l21 69c42 -26 89 -45 145 -45z" />
    <glyph glyph-name="agrave.smallcap" horiz-adv-x="488" 
d="M295 472l172 -472h-80l-42 117h-197l-41 -117h-82l176 472h94zM322 186l-75 213l-75 -213h150zM281 520h-60l-146 181h100z" />
    <glyph glyph-name="aacute.smallcap" horiz-adv-x="488" 
d="M295 472l172 -472h-80l-42 117h-197l-41 -117h-82l176 472h94zM322 186l-75 213l-75 -213h150zM413 701l-146 -181h-60l106 181h100z" />
    <glyph glyph-name="acircumflex.smallcap" horiz-adv-x="488" 
d="M295 472l172 -472h-80l-42 117h-197l-41 -117h-82l176 472h94zM322 186l-75 213l-75 -213h150zM402 520h-60l-98 127h-1l-99 -127h-60l115 187h88z" />
    <glyph glyph-name="atilde.smallcap" horiz-adv-x="488" 
d="M295 472l172 -472h-80l-42 117h-197l-41 -117h-82l176 472h94zM322 186l-75 213l-75 -213h150zM414 649c-9 -85 -36 -126 -97 -126c-62 0 -116 69 -153 69c-18 0 -31 -16 -38 -62c-3 0 -63 0 -55 0c9 86 36 127 97 127c62 0 116 -70 153 -70c18 0 31 16 37 62
c3 0 61 0 56 0z" />
    <glyph glyph-name="adieresis.smallcap" horiz-adv-x="488" 
d="M295 472l172 -472h-80l-42 117h-197l-41 -117h-82l176 472h94zM322 186l-75 213l-75 -213h150zM405 587c0 -34 -24 -63 -60 -63s-60 29 -60 63c0 33 24 62 60 62s60 -29 60 -62zM201 587c0 -34 -25 -63 -61 -63c-35 0 -60 29 -60 63c0 33 25 62 60 62c36 0 61 -29 61 -62
z" />
    <glyph glyph-name="aring.smallcap" horiz-adv-x="488" 
d="M186 441c-41 17 -65 54 -65 97c0 60 46 109 123 109c76 0 122 -49 123 -109c1 -42 -23 -78 -65 -97l162 -441h-80l-42 117h-197l-41 -117h-82zM316 539c0 36 -27 66 -72 66s-72 -30 -72 -66s27 -67 72 -67s72 31 72 67zM319 186l-75 213l-75 -213h150z" />
    <glyph glyph-name="aringacute.smallcap" horiz-adv-x="488" 
d="M186 441c-41 17 -65 54 -65 97c0 60 46 109 123 109c76 0 122 -49 123 -109c1 -42 -23 -78 -65 -97l162 -441h-80l-42 117h-197l-41 -117h-82zM316 539c0 36 -27 66 -72 66s-72 -30 -72 -66s27 -67 72 -67s72 31 72 67zM319 186l-75 213l-75 -213h150zM383 851l-146 -181
h-60l106 181h100z" />
    <glyph glyph-name="amacron.smallcap" horiz-adv-x="494" 
d="M295 472l172 -472h-80l-42 117h-197l-41 -117h-82l176 472h94zM322 186l-75 213l-75 -213h150zM385 538h-275l4 53h266z" />
    <glyph glyph-name="abreve.smallcap" horiz-adv-x="494" 
d="M295 472l172 -472h-80l-42 117h-197l-41 -117h-82l176 472h94zM322 186l-75 213l-75 -213h150zM407 706c-14 -106 -63 -187 -160 -187s-146 81 -160 187h67c12 -66 40 -122 93 -122s82 56 93 122h67z" />
    <glyph glyph-name="aogonek.smallcap" horiz-adv-x="494" 
d="M295 472l172 -472c-46 -19 -77 -60 -77 -95c0 -30 16 -49 45 -49c18 0 38 6 51 16l18 -62c-21 -15 -50 -27 -90 -27c-62 0 -106 37 -106 96c0 52 34 94 79 121l-42 117h-197l-41 -117h-82l176 472h94zM322 186l-75 213l-75 -213h150z" />
    <glyph glyph-name="ae.smallcap" horiz-adv-x="692" 
d="M172 117l-63 -117h-87l259 472h358v-70h-233v-130h194v-71h-194v-131h233v-70h-311v117h-156zM208 187h120v220z" />
    <glyph glyph-name="aeacute.smallcap" horiz-adv-x="692" 
d="M172 117l-63 -117h-87l259 472h358v-70h-233v-130h194v-71h-194v-131h233v-70h-311v117h-156zM208 187h120v220zM558 701l-146 -181h-60l106 181h100z" />
    <glyph glyph-name="ccedilla.smallcap" horiz-adv-x="490" 
d="M249 -9c-121 15 -199 105 -199 244c0 150 95 248 237 248c55 0 112 -14 152 -38l-25 -69c-40 24 -80 38 -127 38c-97 0 -158 -67 -158 -176c0 -110 61 -180 159 -180c50 0 98 19 131 44l16 -76c-34 -20 -82 -33 -129 -36l-59 -58c78 0 123 -32 123 -82
c0 -56 -47 -96 -164 -111l-6 52c74 4 106 25 106 54c0 31 -37 47 -120 34l-8 42z" />
    <glyph glyph-name="cacute.smallcap" horiz-adv-x="483" 
d="M439 445l-25 -69c-40 24 -80 38 -127 38c-97 0 -158 -67 -158 -176c0 -110 61 -180 159 -180c50 0 98 19 131 44l16 -76c-39 -23 -96 -37 -149 -37c-142 0 -236 93 -236 246c0 150 95 248 237 248c55 0 112 -14 152 -38zM423 701l-146 -181h-60l106 181h100z" />
    <glyph glyph-name="ccircumflex.smallcap" horiz-adv-x="483" 
d="M439 445l-25 -69c-40 24 -80 38 -127 38c-97 0 -158 -67 -158 -176c0 -110 61 -180 159 -180c50 0 98 19 131 44l16 -76c-39 -23 -96 -37 -149 -37c-142 0 -236 93 -236 246c0 150 95 248 237 248c55 0 112 -14 152 -38zM435 520h-60l-98 127h-1l-99 -127h-60l115 187h88
z" />
    <glyph glyph-name="cdotaccent.smallcap" horiz-adv-x="483" 
d="M439 445l-25 -69c-40 24 -80 38 -127 38c-97 0 -158 -67 -158 -176c0 -110 61 -180 159 -180c50 0 98 19 131 44l16 -76c-39 -23 -96 -37 -149 -37c-142 0 -236 93 -236 246c0 150 95 248 237 248c55 0 112 -14 152 -38zM335 585c0 -32 -23 -60 -58 -60
c-34 0 -57 28 -57 60c0 33 23 61 57 61c35 0 58 -28 58 -61z" />
    <glyph glyph-name="ccaron.smallcap" horiz-adv-x="483" 
d="M439 445l-25 -69c-40 24 -80 38 -127 38c-97 0 -158 -67 -158 -176c0 -110 61 -180 159 -180c50 0 98 19 131 44l16 -76c-39 -23 -96 -37 -149 -37c-142 0 -236 93 -236 246c0 150 95 248 237 248c55 0 112 -14 152 -38zM443 707l-115 -187h-88l-115 187h60l98 -127h1
l99 127h60z" />
    <glyph glyph-name="dcaron.smallcap" horiz-adv-x="528" 
d="M392 707l-115 -187h-88l-115 187h60l98 -127h1l99 127h60zM478 239c0 -145 -91 -239 -257 -239h-147v472h152c158 0 252 -92 252 -233zM398 235c0 111 -66 167 -179 167h-66v-332h70c105 0 175 56 175 165z" />
    <glyph glyph-name="eth.smallcap" horiz-adv-x="567" 
d="M517 239c0 -145 -92 -239 -257 -239h-148v202h-78v72h78v198h152c159 0 253 -92 253 -233zM437 235c0 111 -66 167 -180 167h-66v-128h130v-72h-130v-132h70c106 0 176 56 176 165z" />
    <glyph glyph-name="dcroat.smallcap" horiz-adv-x="567" 
d="M517 239c0 -145 -92 -239 -257 -239h-148v202h-78v72h78v198h152c159 0 253 -92 253 -233zM437 235c0 111 -66 167 -180 167h-66v-128h130v-72h-130v-132h70c106 0 176 56 176 165z" />
    <glyph glyph-name="egrave.smallcap" horiz-adv-x="437" 
d="M384 0h-310v472h310v-70h-232v-130h193v-71h-193v-131h232v-70zM266 520h-60l-146 181h100z" />
    <glyph glyph-name="eacute.smallcap" horiz-adv-x="437" 
d="M384 0h-310v472h310v-70h-232v-130h193v-71h-193v-131h232v-70zM398 701l-146 -181h-60l106 181h100z" />
    <glyph glyph-name="ecircumflex.smallcap" horiz-adv-x="437" 
d="M384 0h-310v472h310v-70h-232v-130h193v-71h-193v-131h232v-70zM388 520h-60l-98 127h-1l-99 -127h-60l115 187h88z" />
    <glyph glyph-name="edieresis.smallcap" horiz-adv-x="437" 
d="M384 0h-310v472h310v-70h-232v-130h193v-71h-193v-131h232v-70zM394 587c0 -34 -24 -63 -60 -63s-60 29 -60 63c0 33 24 62 60 62s60 -29 60 -62zM190 587c0 -34 -25 -63 -61 -63c-35 0 -60 29 -60 63c0 33 25 62 60 62c36 0 61 -29 61 -62z" />
    <glyph glyph-name="emacron.smallcap" horiz-adv-x="437" 
d="M384 0h-310v472h310v-70h-232v-130h193v-71h-193v-131h232v-70zM367 538h-275l4 53h266z" />
    <glyph glyph-name="ebreve.smallcap" horiz-adv-x="437" 
d="M384 0h-310v472h310v-70h-232v-130h193v-71h-193v-131h232v-70zM393 706c-14 -106 -63 -187 -160 -187s-146 81 -160 187h67c12 -66 40 -122 93 -122s82 56 93 122h67z" />
    <glyph glyph-name="edotaccent.smallcap" horiz-adv-x="437" 
d="M384 0h-310v472h310v-70h-232v-130h193v-71h-193v-131h232v-70zM294 585c0 -32 -23 -60 -58 -60c-34 0 -57 28 -57 60c0 33 23 61 57 61c35 0 58 -28 58 -61z" />
    <glyph glyph-name="eogonek.smallcap" horiz-adv-x="437" 
d="M384 0h-39c-47 -33 -73 -65 -73 -105c0 -30 16 -49 45 -49c18 0 38 6 51 16l18 -62c-21 -15 -50 -27 -90 -27c-62 0 -106 37 -106 96s45 105 98 131h-214v472h310v-70h-232v-130h193v-71h-193v-131h232v-70z" />
    <glyph glyph-name="ecaron.smallcap" horiz-adv-x="437" 
d="M384 0h-310v472h310v-70h-232v-130h193v-71h-193v-131h232v-70zM396 707l-115 -187h-88l-115 187h60l98 -127h1l99 127h60z" />
    <glyph glyph-name="gcircumflex.smallcap" horiz-adv-x="523" 
d="M128 238c0 -112 65 -181 164 -181c37 0 71 9 96 22v99h-121v71h196v-216c-50 -30 -117 -44 -172 -44c-142 0 -241 93 -241 246c0 151 99 248 241 248c57 0 122 -15 163 -40l-26 -71c-39 26 -88 42 -136 42c-98 0 -164 -67 -164 -176zM433 520h-60l-98 127h-1l-99 -127
h-60l115 187h88z" />
    <glyph glyph-name="gbreve.smallcap" horiz-adv-x="523" 
d="M128 238c0 -112 65 -181 164 -181c37 0 71 9 96 22v99h-121v71h196v-216c-50 -30 -117 -44 -172 -44c-142 0 -241 93 -241 246c0 151 99 248 241 248c57 0 122 -15 163 -40l-26 -71c-39 26 -88 42 -136 42c-98 0 -164 -67 -164 -176zM434 706
c-14 -106 -63 -187 -160 -187s-146 81 -160 187h67c12 -66 40 -122 93 -122s82 56 93 122h67z" />
    <glyph glyph-name="gdotaccent.smallcap" horiz-adv-x="523" 
d="M128 238c0 -112 65 -181 164 -181c37 0 71 9 96 22v99h-121v71h196v-216c-50 -30 -117 -44 -172 -44c-142 0 -241 93 -241 246c0 151 99 248 241 248c57 0 122 -15 163 -40l-26 -71c-39 26 -88 42 -136 42c-98 0 -164 -67 -164 -176zM331 585c0 -32 -23 -60 -58 -60
c-34 0 -57 28 -57 60c0 33 23 61 57 61c35 0 58 -28 58 -61z" />
    <glyph glyph-name="gcommaaccent.smallcap" horiz-adv-x="523" 
d="M128 238c0 -112 65 -181 164 -181c37 0 71 9 96 22v99h-121v71h196v-216c-50 -30 -117 -44 -172 -44c-142 0 -241 93 -241 246c0 151 99 248 241 248c57 0 122 -15 163 -40l-26 -71c-39 26 -88 42 -136 42c-98 0 -164 -67 -164 -176zM212 -101c3 23 22 49 57 49
c40 0 71 -32 71 -75c0 -62 -46 -105 -108 -142l-30 26c58 38 65 65 65 86c0 24 -10 37 -55 56z" />
    <glyph glyph-name="hcircumflex.smallcap" horiz-adv-x="545" 
d="M471 0h-79v202h-239v-202h-79v472h79v-199h239v199h79v-472zM434 522h-60l-98 127h-1l-99 -127h-60l115 187h88z" />
    <glyph glyph-name="hbar.smallcap" horiz-adv-x="545" 
d="M471 0h-79v202h-239v-202h-79v339h-76l4 53h72v80h79v-80h239v80h79v-80h70l5 -53h-75v-339zM153 273h239v66h-239v-66z" />
    <glyph glyph-name="igrave.smallcap" horiz-adv-x="229" 
d="M154 0h-79v472h79v-472zM158 520h-60l-146 181h100z" />
    <glyph glyph-name="iacute.smallcap" horiz-adv-x="229" 
d="M154 0h-79v472h79v-472zM279 701l-146 -181h-60l106 181h100z" />
    <glyph glyph-name="icircumflex.smallcap" horiz-adv-x="229" 
d="M154 0h-79v472h79v-472zM273 520h-60l-98 127h-1l-99 -127h-60l115 187h88z" />
    <glyph glyph-name="idieresis.smallcap" horiz-adv-x="229" 
d="M154 0h-79v472h79v-472zM276 587c0 -34 -24 -63 -60 -63s-60 29 -60 63c0 33 24 62 60 62s60 -29 60 -62zM72 587c0 -34 -25 -63 -61 -63c-35 0 -60 29 -60 63c0 33 25 62 60 62c36 0 61 -29 61 -62z" />
    <glyph glyph-name="imacron.smallcap" horiz-adv-x="229" 
d="M154 0h-79v472h79v-472zM254 538h-275l4 53h266z" />
    <glyph glyph-name="ibreve.smallcap" horiz-adv-x="229" 
d="M154 0h-79v472h79v-472zM277 706c-14 -106 -63 -187 -160 -187s-146 81 -160 187h67c12 -66 40 -122 93 -122s82 56 93 122h67z" />
    <glyph glyph-name="iogonek.smallcap" horiz-adv-x="229" 
d="M154 0c-38 -30 -60 -60 -60 -95c0 -30 16 -49 45 -49c18 0 38 6 51 16l18 -62c-21 -15 -50 -27 -90 -27c-62 0 -106 37 -106 96c0 53 35 94 79 121h-16v472h79v-472z" />
    <glyph glyph-name="idotaccent.smallcap" horiz-adv-x="229" 
d="M154 0h-79v472h79v-472zM174 599c0 -32 -23 -60 -58 -60c-34 0 -57 28 -57 60c0 33 23 61 57 61c35 0 58 -28 58 -61z" />
    <glyph glyph-name="dotlessi.smallcap" horiz-adv-x="229" 
d="M154 0h-79v472h79v-472z" />
    <glyph glyph-name="jcircumflex.smallcap" horiz-adv-x="352" 
d="M288 150c0 -98 -46 -161 -149 -161c-45 0 -85 13 -112 30l10 73c28 -18 65 -34 95 -34c54 0 77 32 77 97v317h79v-322zM409 519h-60l-98 127h-1l-99 -127h-60l115 187h88z" />
    <glyph glyph-name="jcircumflex.smallcap.alt" horiz-adv-x="352" 
d="M288 150c0 -98 -46 -161 -149 -161c-45 0 -85 13 -112 30l10 73c28 -18 65 -34 95 -34c54 0 77 32 77 97v317h79v-322zM409 519h-60l-98 127h-1l-99 -127h-60l115 187h88z" />
    <glyph glyph-name="dotlessj.smallcap" horiz-adv-x="352" 
d="M288 150c0 -98 -46 -161 -149 -161c-45 0 -85 13 -112 30l10 73c28 -18 65 -34 95 -34c54 0 77 32 77 97v317h79v-322z" />
    <glyph glyph-name="kcommaaccent.smallcap" horiz-adv-x="459" 
d="M153 251h1l187 221h97l-209 -232l211 -240h-98l-188 220h-1v-220h-79v472h79v-221zM161 -100c3 23 22 49 57 49c40 0 71 -32 71 -75c0 -62 -46 -105 -108 -142l-30 26c58 38 65 65 65 86c0 24 -10 37 -55 56z" />
    <glyph glyph-name="lacute.smallcap" horiz-adv-x="406" 
d="M377 0h-303v472h79v-401h224v-71zM281 699l-146 -181h-60l106 181h100z" />
    <glyph glyph-name="lcommaaccent.smallcap" horiz-adv-x="406" 
d="M377 0h-303v472h79v-401h224v-71zM162 -100c3 23 22 49 57 49c40 0 71 -32 71 -75c0 -62 -46 -105 -108 -142l-30 26c58 38 65 65 65 86c0 24 -10 37 -55 56z" />
    <glyph glyph-name="lcaron.smallcap" horiz-adv-x="626" 
d="M377 0h-303v472h79v-401h224v-71zM438 425c4 32 26 59 68 59c41 0 85 -38 85 -91c0 -83 -74 -146 -148 -195l-35 34c69 50 102 92 102 127c0 25 -18 41 -72 66z" />
    <glyph glyph-name="ldotaccent.smallcap" horiz-adv-x="579" 
d="M564 241c0 -34 -26 -65 -63 -65c-38 0 -65 31 -65 65s27 63 65 63c37 0 63 -29 63 -63zM377 0h-303v472h79v-401h224v-71z" />
    <glyph glyph-name="lslash.smallcap" horiz-adv-x="426" 
d="M173 196v-125h224v-71h-303v174c0 1 -76 -20 -76 -20v73s76 21 76 20v225h79v-203l118 32v-73z" />
    <glyph glyph-name="ntilde.smallcap" horiz-adv-x="546" 
d="M399 115l-2 357h76v-477h-85l-240 362l2 -357h-76v472h87zM443 649c-9 -85 -36 -126 -97 -126c-62 0 -116 69 -153 69c-18 0 -31 -16 -38 -62c-3 0 -63 0 -55 0c9 86 36 127 97 127c62 0 116 -70 153 -70c18 0 31 16 37 62c3 0 61 0 56 0z" />
    <glyph glyph-name="nacute.smallcap" horiz-adv-x="546" 
d="M399 115l-2 357h76v-477h-85l-240 362l2 -357h-76v472h87zM435 701l-146 -181h-60l106 181h100z" />
    <glyph glyph-name="ncommaaccent.smallcap" horiz-adv-x="546" 
d="M399 115l-2 357h76v-477h-85l-240 362l2 -357h-76v472h87zM194 -100c3 23 22 49 57 49c40 0 71 -32 71 -75c0 -62 -46 -105 -108 -142l-30 26c58 38 65 65 65 86c0 24 -10 37 -55 56z" />
    <glyph glyph-name="ncaron.smallcap" horiz-adv-x="546" 
d="M399 115l-2 357h76v-477h-85l-240 362l2 -357h-76v472h87zM446 707l-115 -187h-88l-115 187h60l98 -127h1l99 127h60z" />
    <glyph glyph-name="ograve.smallcap" horiz-adv-x="580" 
d="M530 238c0 -144 -101 -249 -240 -249s-240 94 -240 246c0 143 100 248 240 248c138 0 240 -93 240 -245zM450 235c0 109 -65 180 -162 180c-94 0 -159 -71 -159 -177c0 -110 65 -181 162 -181c95 0 159 71 159 178zM336 520h-60l-146 181h100z" />
    <glyph glyph-name="oacute.smallcap" horiz-adv-x="580" 
d="M530 238c0 -144 -101 -249 -240 -249s-240 94 -240 246c0 143 100 248 240 248c138 0 240 -93 240 -245zM450 235c0 109 -65 180 -162 180c-94 0 -159 -71 -159 -177c0 -110 65 -181 162 -181c95 0 159 71 159 178zM450 701l-146 -181h-60l106 181h100z" />
    <glyph glyph-name="ocircumflex.smallcap" horiz-adv-x="580" 
d="M530 238c0 -144 -101 -249 -240 -249s-240 94 -240 246c0 143 100 248 240 248c138 0 240 -93 240 -245zM450 235c0 109 -65 180 -162 180c-94 0 -159 -71 -159 -177c0 -110 65 -181 162 -181c95 0 159 71 159 178zM449 520h-60l-98 127h-1l-99 -127h-60l115 187h88z" />
    <glyph glyph-name="otilde.smallcap" horiz-adv-x="580" 
d="M530 238c0 -144 -101 -249 -240 -249s-240 94 -240 246c0 143 100 248 240 248c138 0 240 -93 240 -245zM450 235c0 109 -65 180 -162 180c-94 0 -159 -71 -159 -177c0 -110 65 -181 162 -181c95 0 159 71 159 178zM461 649c-9 -85 -36 -126 -97 -126
c-62 0 -116 69 -153 69c-18 0 -31 -16 -38 -62c-3 0 -63 0 -55 0c9 86 36 127 97 127c62 0 116 -70 153 -70c18 0 31 16 37 62c3 0 61 0 56 0z" />
    <glyph glyph-name="odieresis.smallcap" horiz-adv-x="580" 
d="M530 238c0 -144 -101 -249 -240 -249s-240 94 -240 246c0 143 100 248 240 248c138 0 240 -93 240 -245zM450 235c0 109 -65 180 -162 180c-94 0 -159 -71 -159 -177c0 -110 65 -181 162 -181c95 0 159 71 159 178zM452 587c0 -34 -24 -63 -60 -63s-60 29 -60 63
c0 33 24 62 60 62s60 -29 60 -62zM248 587c0 -34 -25 -63 -61 -63c-35 0 -60 29 -60 63c0 33 25 62 60 62c36 0 61 -29 61 -62z" />
    <glyph glyph-name="omacron.smallcap" horiz-adv-x="580" 
d="M530 238c0 -144 -101 -249 -240 -249s-240 94 -240 246c0 143 100 248 240 248c138 0 240 -93 240 -245zM450 235c0 109 -65 180 -162 180c-94 0 -159 -71 -159 -177c0 -110 65 -181 162 -181c95 0 159 71 159 178zM427 538h-275l4 53h266z" />
    <glyph glyph-name="obreve.smallcap" horiz-adv-x="580" 
d="M530 238c0 -144 -101 -249 -240 -249s-240 94 -240 246c0 143 100 248 240 248c138 0 240 -93 240 -245zM450 235c0 109 -65 180 -162 180c-94 0 -159 -71 -159 -177c0 -110 65 -181 162 -181c95 0 159 71 159 178zM461 706c-14 -106 -63 -187 -160 -187
s-146 81 -160 187h67c12 -66 40 -122 93 -122s82 56 93 122h67z" />
    <glyph glyph-name="ohungarumlaut.smallcap" horiz-adv-x="580" 
d="M530 238c0 -144 -101 -249 -240 -249s-240 94 -240 246c0 143 100 248 240 248c138 0 240 -93 240 -245zM450 235c0 109 -65 180 -162 180c-94 0 -159 -71 -159 -177c0 -110 65 -181 162 -181c95 0 159 71 159 178zM537 697l-147 -177h-71l134 177h84zM351 697l-124 -177
h-70l111 177h83z" />
    <glyph glyph-name="oslash.smallcap" horiz-adv-x="580" 
d="M397 374l-175 -303c20 -9 44 -14 69 -14c95 0 159 71 159 178c0 59 -19 107 -53 139zM182 98l176 303c-21 9 -44 14 -70 14c-94 0 -159 -71 -159 -177c0 -60 19 -108 53 -140zM144 33c-58 41 -94 111 -94 202c0 143 100 248 240 248c38 0 73 -7 104 -20l16 28h55l-30 -51
c59 -41 95 -111 95 -202c0 -144 -101 -249 -240 -249c-38 0 -73 7 -104 20l-16 -28h-56z" />
    <glyph glyph-name="oslashacute.smallcap" horiz-adv-x="580" 
d="M397 374l-175 -303c20 -9 44 -14 69 -14c95 0 159 71 159 178c0 59 -19 107 -53 139zM182 98l176 303c-21 9 -44 14 -70 14c-94 0 -159 -71 -159 -177c0 -60 19 -108 53 -140zM144 33c-58 41 -94 111 -94 202c0 143 100 248 240 248c38 0 73 -7 104 -20l16 28h55l-30 -51
c59 -41 95 -111 95 -202c0 -144 -101 -249 -240 -249c-38 0 -73 7 -104 20l-16 -28h-56zM446 700l-146 -181h-60l106 181h100z" />
    <glyph glyph-name="oe.smallcap" horiz-adv-x="741" 
d="M688 472v-70h-233v-130h194v-71h-194v-131h233v-70h-385c-159 0 -253 92 -253 233c0 145 90 239 256 239h382zM130 237c0 -111 66 -167 179 -167h67v332h-70c-105 0 -176 -56 -176 -165z" />
    <glyph glyph-name="thorn.smallcap" horiz-adv-x="460" 
d="M417 238c0 -109 -74 -165 -197 -165h-67v-73h-79v472h79v-79h74c129 0 190 -64 190 -155zM337 235c0 58 -39 88 -116 88h-69v-182l73 2c75 2 112 34 112 92z" />
    <glyph glyph-name="racute.smallcap" horiz-adv-x="489" 
d="M153 164v-164h-79v472h166c117 0 182 -55 182 -147c0 -69 -35 -115 -92 -138l117 -187h-91l-104 170zM152 231l81 1c77 1 109 35 109 88c0 57 -36 82 -110 82h-80v-171zM375 701l-146 -181h-60l106 181h100z" />
    <glyph glyph-name="rcommaaccent.smallcap" horiz-adv-x="489" 
d="M153 164v-164h-79v472h166c117 0 182 -55 182 -147c0 -69 -35 -115 -92 -138l117 -187h-91l-104 170zM152 231l81 1c77 1 109 35 109 88c0 57 -36 82 -110 82h-80v-171zM173 -100c3 23 22 49 57 49c40 0 71 -32 71 -75c0 -62 -46 -105 -108 -142l-30 26
c58 38 65 65 65 86c0 24 -10 37 -55 56z" />
    <glyph glyph-name="rcaron.smallcap" horiz-adv-x="489" 
d="M153 164v-164h-79v472h166c117 0 182 -55 182 -147c0 -69 -35 -115 -92 -138l117 -187h-91l-104 170zM152 231l81 1c77 1 109 35 109 88c0 57 -36 82 -110 82h-80v-171zM384 707l-115 -187h-88l-115 187h60l98 -127h1l99 127h60z" />
    <glyph glyph-name="sacute.smallcap" horiz-adv-x="429" 
d="M207 57c55 0 95 29 95 70c0 44 -35 59 -109 80c-67 18 -144 48 -144 141c0 81 64 135 164 135c60 0 112 -14 157 -41l-23 -68c-40 25 -90 40 -133 40c-61 0 -87 -28 -87 -62c0 -43 41 -58 111 -77c69 -19 141 -52 141 -142c0 -84 -69 -144 -173 -144
c-59 0 -119 17 -165 44l21 69c42 -26 89 -45 145 -45zM364 701l-146 -181h-60l106 181h100z" />
    <glyph glyph-name="scircumflex.smallcap" horiz-adv-x="429" 
d="M207 57c55 0 95 29 95 70c0 44 -35 59 -109 80c-67 18 -144 48 -144 141c0 81 64 135 164 135c60 0 112 -14 157 -41l-23 -68c-40 25 -90 40 -133 40c-61 0 -87 -28 -87 -62c0 -43 41 -58 111 -77c69 -19 141 -52 141 -142c0 -84 -69 -144 -173 -144
c-59 0 -119 17 -165 44l21 69c42 -26 89 -45 145 -45zM375 520h-60l-98 127h-1l-99 -127h-60l115 187h88z" />
    <glyph glyph-name="scedilla.smallcap" horiz-adv-x="429" 
d="M190 -68c78 0 123 -32 123 -82c0 -56 -47 -96 -164 -111l-6 52c74 4 106 25 106 54c0 31 -37 47 -120 34l-8 42l69 69c-54 2 -107 18 -149 43l21 69c42 -26 89 -45 145 -45c55 0 95 29 95 70c0 44 -35 59 -109 80c-67 18 -144 48 -144 141c0 81 64 135 164 135
c60 0 112 -14 157 -41l-23 -68c-40 25 -90 40 -133 40c-61 0 -87 -28 -87 -62c0 -43 41 -58 111 -77c69 -19 141 -52 141 -142c0 -71 -49 -124 -126 -139z" />
    <glyph glyph-name="scommaaccent.smallcap" horiz-adv-x="429" 
d="M207 57c55 0 95 29 95 70c0 44 -35 59 -109 80c-67 18 -144 48 -144 141c0 81 64 135 164 135c60 0 112 -14 157 -41l-23 -68c-40 25 -90 40 -133 40c-61 0 -87 -28 -87 -62c0 -43 41 -58 111 -77c69 -19 141 -52 141 -142c0 -84 -69 -144 -173 -144
c-59 0 -119 17 -165 44l21 69c42 -26 89 -45 145 -45zM151 -100c3 23 22 49 57 49c40 0 71 -32 71 -75c0 -62 -46 -105 -108 -142l-30 26c58 38 65 65 65 86c0 24 -10 37 -55 56z" />
    <glyph glyph-name="scaron.smallcap" horiz-adv-x="429" 
d="M207 57c55 0 95 29 95 70c0 44 -35 59 -109 80c-67 18 -144 48 -144 141c0 81 64 135 164 135c60 0 112 -14 157 -41l-23 -68c-40 25 -90 40 -133 40c-61 0 -87 -28 -87 -62c0 -43 41 -58 111 -77c69 -19 141 -52 141 -142c0 -84 -69 -144 -173 -144
c-59 0 -119 17 -165 44l21 69c42 -26 89 -45 145 -45zM383 708l-115 -187h-88l-115 187h60l98 -127h1l99 127h60z" />
    <glyph glyph-name="tcommaaccent.smallcap" horiz-adv-x="464" 
d="M434 401h-162v-401h-80v401h-162v71h404v-71zM166 -100c3 23 22 49 57 49c40 0 71 -32 71 -75c0 -62 -46 -105 -108 -142l-30 26c58 38 65 65 65 86c0 24 -10 37 -55 56z" />
    <glyph glyph-name="tcaron.smallcap" horiz-adv-x="464" 
d="M389 707l-115 -187h-88l-115 187h60l98 -127h1l99 127h60zM434 401h-162v-401h-80v401h-162v71h404v-71z" />
    <glyph glyph-name="ugrave.smallcap" horiz-adv-x="508" 
d="M445 185c0 -124 -67 -196 -191 -196c-120 0 -191 69 -191 188v295h79v-284c0 -81 36 -128 114 -128c70 0 110 40 110 124v288h79v-287zM300 520h-60l-146 181h100z" />
    <glyph glyph-name="uacute.smallcap" horiz-adv-x="508" 
d="M445 185c0 -124 -67 -196 -191 -196c-120 0 -191 69 -191 188v295h79v-284c0 -81 36 -128 114 -128c70 0 110 40 110 124v288h79v-287zM414 701l-146 -181h-60l106 181h100z" />
    <glyph glyph-name="ucircumflex.smallcap" horiz-adv-x="508" 
d="M445 185c0 -124 -67 -196 -191 -196c-120 0 -191 69 -191 188v295h79v-284c0 -81 36 -128 114 -128c70 0 110 40 110 124v288h79v-287zM413 520h-60l-98 127h-1l-99 -127h-60l115 187h88z" />
    <glyph glyph-name="udieresis.smallcap" horiz-adv-x="508" 
d="M445 185c0 -124 -67 -196 -191 -196c-120 0 -191 69 -191 188v295h79v-284c0 -81 36 -128 114 -128c70 0 110 40 110 124v288h79v-287zM416 587c0 -34 -24 -63 -60 -63s-60 29 -60 63c0 33 24 62 60 62s60 -29 60 -62zM212 587c0 -34 -25 -63 -61 -63
c-35 0 -60 29 -60 63c0 33 25 62 60 62c36 0 61 -29 61 -62z" />
    <glyph glyph-name="umacron.smallcap" horiz-adv-x="508" 
d="M445 185c0 -124 -67 -196 -191 -196c-120 0 -191 69 -191 188v295h79v-284c0 -81 36 -128 114 -128c70 0 110 40 110 124v288h79v-287zM404 538h-275l4 53h266z" />
    <glyph glyph-name="ubreve.smallcap" horiz-adv-x="508" 
d="M445 185c0 -124 -67 -196 -191 -196c-120 0 -191 69 -191 188v295h79v-284c0 -81 36 -128 114 -128c70 0 110 40 110 124v288h79v-287zM427 706c-14 -106 -63 -187 -160 -187s-146 81 -160 187h67c12 -66 40 -122 93 -122s82 56 93 122h67z" />
    <glyph glyph-name="uring.smallcap" horiz-adv-x="508" 
d="M445 185c0 -124 -67 -196 -191 -196c-120 0 -191 69 -191 188v295h79v-284c0 -81 36 -128 114 -128c70 0 110 40 110 124v288h79v-287zM383 631c1 -60 -47 -109 -124 -109s-124 49 -124 109s47 110 124 110s123 -50 124 -110zM331 632c0 36 -27 66 -72 66
c-44 0 -71 -30 -71 -66s27 -67 71 -67c45 0 72 31 72 67z" />
    <glyph glyph-name="uhungarumlaut.smallcap" horiz-adv-x="508" 
d="M445 185c0 -124 -67 -196 -191 -196c-120 0 -191 69 -191 188v295h79v-284c0 -81 36 -128 114 -128c70 0 110 40 110 124v288h79v-287zM511 697l-147 -177h-71l134 177h84zM325 697l-124 -177h-70l111 177h83z" />
    <glyph glyph-name="uogonek.smallcap" horiz-adv-x="508" 
d="M445 185c0 -85 -31 -141 -86 -175c-47 -29 -78 -65 -78 -105c0 -30 16 -49 45 -49c18 0 38 6 51 16l18 -62c-21 -15 -50 -27 -90 -27c-62 0 -106 37 -106 96c0 46 26 83 63 110h-8c-120 0 -191 69 -191 188v295h79v-284c0 -81 36 -128 114 -128c70 0 110 40 110 124v288
h79v-287z" />
    <glyph glyph-name="wcircumflex.smallcap" horiz-adv-x="737" 
d="M369 377l-113 -377h-79l-132 472h83l92 -369l105 369h90l106 -369l92 369h79l-132 -472h-81zM530 520h-60l-98 127h-1l-99 -127h-60l115 187h88z" />
    <glyph glyph-name="wgrave.smallcap" horiz-adv-x="737" 
d="M369 377l-113 -377h-79l-132 472h83l92 -369l105 369h90l106 -369l92 369h79l-132 -472h-81zM408 520h-60l-146 181h100z" />
    <glyph glyph-name="wacute.smallcap" horiz-adv-x="737" 
d="M369 377l-113 -377h-79l-132 472h83l92 -369l105 369h90l106 -369l92 369h79l-132 -472h-81zM537 701l-146 -181h-60l106 181h100z" />
    <glyph glyph-name="wdieresis.smallcap" horiz-adv-x="737" 
d="M369 377l-113 -377h-79l-132 472h83l92 -369l105 369h90l106 -369l92 369h79l-132 -472h-81zM533 587c0 -34 -24 -63 -60 -63s-60 29 -60 63c0 33 24 62 60 62s60 -29 60 -62zM329 587c0 -34 -25 -63 -61 -63c-35 0 -60 29 -60 63c0 33 25 62 60 62c36 0 61 -29 61 -62z
" />
    <glyph glyph-name="yacute.smallcap" horiz-adv-x="456" 
d="M432 472l-164 -288v-184h-79v185l-164 287h86l118 -212l116 212h87zM396 701l-146 -181h-60l106 181h100z" />
    <glyph glyph-name="ycircumflex.smallcap" horiz-adv-x="456" 
d="M432 472l-164 -288v-184h-79v185l-164 287h86l118 -212l116 212h87zM390 520h-60l-98 127h-1l-99 -127h-60l115 187h88z" />
    <glyph glyph-name="ydieresis.smallcap" horiz-adv-x="456" 
d="M432 472l-164 -288v-184h-79v185l-164 287h86l118 -212l116 212h87zM389 587c0 -34 -24 -63 -60 -63s-60 29 -60 63c0 33 24 62 60 62s60 -29 60 -62zM185 587c0 -34 -25 -63 -61 -63c-35 0 -60 29 -60 63c0 33 25 62 60 62c36 0 61 -29 61 -62z" />
    <glyph glyph-name="zacute.smallcap" horiz-adv-x="442" 
d="M393 0h-357v57l260 344h-256v71h354v-58l-258 -343h257v-71zM365 701l-146 -181h-60l106 181h100z" />
    <glyph glyph-name="zdotaccent.smallcap" horiz-adv-x="442" 
d="M393 0h-357v57l260 344h-256v71h354v-58l-258 -343h257v-71zM280 585c0 -32 -23 -60 -58 -60c-34 0 -57 28 -57 60c0 33 23 61 57 61c35 0 58 -28 58 -61z" />
    <glyph glyph-name="zcaron.smallcap" horiz-adv-x="442" 
d="M393 0h-357v57l260 344h-256v71h354v-58l-258 -343h257v-71zM370 707l-115 -187h-88l-115 187h60l98 -127h1l99 127h60z" />
    <glyph glyph-name="solidus" horiz-adv-x="198" 
d="M396 625l-531 -741h-63l531 741h63z" />
    <glyph glyph-name="zerosuperior" unicode="&#x2070;" horiz-adv-x="330" 
d="M309 462c0 -123 -55 -198 -145 -198c-91 0 -143 74 -143 197c0 122 55 197 145 197s143 -73 143 -196zM244 460c0 107 -35 149 -80 149s-78 -41 -78 -148c0 -104 35 -145 80 -145s78 40 78 144z" />
    <glyph glyph-name="foursuperior" unicode="&#x2074;" horiz-adv-x="330" 
d="M322 367h-60v-94h-59v94h-183l-6 42l174 244h74v-236h58zM203 417v174l-124 -174h124z" />
    <glyph glyph-name="fivesuperior" unicode="&#x2075;" horiz-adv-x="330" 
d="M107 497c11 1 25 4 45 4c84 0 142 -42 142 -112c0 -73 -57 -125 -148 -125c-42 0 -88 10 -116 25l10 55c25 -14 67 -27 105 -27c49 0 84 24 84 70c0 39 -32 65 -89 65c-37 0 -69 -7 -88 -15l-11 10l27 203h219l2 -55h-168z" />
    <glyph glyph-name="sixsuperior" unicode="&#x2076;" horiz-adv-x="330" 
d="M24 424c0 106 77 205 229 235l16 -51c-93 -19 -160 -67 -180 -136l3 -1c26 22 63 38 102 38c65 0 115 -45 115 -116c0 -73 -54 -129 -140 -129c-97 0 -145 72 -145 160zM89 406c0 -49 28 -91 83 -91c43 0 72 30 72 74s-27 69 -70 69c-34 0 -66 -15 -82 -29
c-2 -7 -3 -15 -3 -23z" />
    <glyph glyph-name="sevensuperior" unicode="&#x2077;" horiz-adv-x="330" 
d="M237 595h-213l2 55h273l5 -49l-181 -328h-65z" />
    <glyph glyph-name="eightsuperior" unicode="&#x2078;" horiz-adv-x="330" 
d="M308 374c0 -60 -48 -110 -144 -110c-94 0 -142 46 -142 104c0 49 41 79 80 94c-39 18 -73 44 -73 87c0 64 50 110 139 110s133 -46 133 -104c0 -44 -35 -74 -72 -90c42 -20 79 -45 79 -91zM238 550c0 37 -31 61 -72 61c-47 0 -72 -26 -72 -57c0 -35 39 -59 92 -72
c32 14 52 38 52 68zM244 369c0 39 -45 63 -98 77c-36 -14 -60 -39 -60 -71c0 -37 33 -62 81 -62c50 0 77 21 77 56z" />
    <glyph glyph-name="ninesuperior" unicode="&#x2079;" horiz-adv-x="330" 
d="M306 500c0 -107 -78 -207 -230 -236l-15 51c93 20 159 66 179 136h-2c-27 -22 -63 -37 -103 -37c-64 0 -114 45 -114 115c0 74 53 130 139 130c97 0 146 -72 146 -159zM240 517c0 48 -28 91 -82 91c-44 0 -72 -30 -72 -74c0 -43 26 -70 70 -70c33 0 65 15 82 29
c2 8 2 16 2 24z" />
    <glyph glyph-name="plussuperior" unicode="&#x207a;" horiz-adv-x="330" 
d="M300 440h-103v-105h-43v105h-104l1 43h103v104h43v-104h101z" />
    <glyph glyph-name="minussuperior" unicode="&#x207b;" horiz-adv-x="330" 
d="M300 440h-250l1 43h247z" />
    <glyph glyph-name="zeroinferior" unicode="&#x2080;" horiz-adv-x="330" 
d="M309 46c0 -123 -55 -198 -145 -198c-91 0 -143 74 -143 197c0 122 55 197 145 197s143 -73 143 -196zM244 44c0 107 -35 149 -80 149s-78 -41 -78 -148c0 -104 35 -145 80 -145s78 40 78 144z" />
    <glyph glyph-name="oneinferior" unicode="&#x2081;" horiz-adv-x="330" 
d="M159 -143v311l-101 -23l-2 55l168 39v-382h-65z" />
    <glyph glyph-name="twoinferior" unicode="&#x2082;" horiz-adv-x="330" 
d="M296 -143h-267l-2 54c123 107 191 153 191 215c0 37 -29 62 -71 62c-34 0 -69 -17 -96 -39l-22 50c28 23 76 43 126 43c80 0 129 -46 129 -112c0 -70 -61 -119 -183 -219c-3 -1 193 0 193 0z" />
    <glyph glyph-name="threeinferior" unicode="&#x2083;" horiz-adv-x="330" 
d="M179 56c82 0 120 -43 120 -91c0 -72 -69 -117 -154 -117c-42 0 -89 11 -118 26l11 52c27 -12 67 -25 107 -25c47 0 88 20 88 61c0 34 -31 60 -91 60c-20 -1 -44 -4 -61 -6v47c81 17 136 38 136 78c0 29 -23 48 -68 48c-32 0 -70 -14 -97 -36l-24 51c31 21 78 38 125 38
c77 0 130 -33 130 -92c0 -45 -37 -77 -104 -94z" />
    <glyph glyph-name="fourinferior" unicode="&#x2084;" horiz-adv-x="330" 
d="M322 -49h-60v-94h-59v94h-183l-6 42l174 244h74v-236h58zM203 1v174l-124 -174h124z" />
    <glyph glyph-name="fiveinferior" unicode="&#x2085;" horiz-adv-x="330" 
d="M107 81c11 1 25 4 45 4c84 0 142 -42 142 -112c0 -73 -57 -125 -148 -125c-42 0 -88 10 -116 25l10 55c25 -14 67 -27 105 -27c49 0 84 24 84 70c0 39 -32 65 -89 65c-37 0 -69 -7 -88 -15l-11 10l27 203h219l2 -55h-168z" />
    <glyph glyph-name="sixinferior" unicode="&#x2086;" horiz-adv-x="330" 
d="M24 8c0 106 77 205 229 235l16 -51c-93 -19 -160 -67 -180 -136l3 -1c26 22 63 38 102 38c65 0 115 -45 115 -116c0 -73 -54 -129 -140 -129c-97 0 -145 72 -145 160zM89 -10c0 -49 28 -91 83 -91c43 0 72 30 72 74s-27 69 -70 69c-34 0 -66 -15 -82 -29
c-2 -7 -3 -15 -3 -23z" />
    <glyph glyph-name="seveninferior" unicode="&#x2087;" horiz-adv-x="330" 
d="M237 179h-213l2 55h273l5 -49l-181 -328h-65z" />
    <glyph glyph-name="eightinferior" unicode="&#x2088;" horiz-adv-x="330" 
d="M308 -42c0 -60 -48 -110 -144 -110c-94 0 -142 46 -142 104c0 49 41 79 80 94c-39 18 -73 44 -73 87c0 64 50 110 139 110s133 -46 133 -104c0 -44 -35 -74 -72 -90c42 -20 79 -45 79 -91zM238 134c0 37 -31 61 -72 61c-47 0 -72 -26 -72 -57c0 -35 39 -59 92 -72
c32 14 52 38 52 68zM244 -47c0 39 -45 63 -98 77c-36 -14 -60 -39 -60 -71c0 -37 33 -62 81 -62c50 0 77 21 77 56z" />
    <glyph glyph-name="nineinferior" unicode="&#x2089;" horiz-adv-x="330" 
d="M306 84c0 -107 -78 -207 -230 -236l-15 51c93 20 159 66 179 136h-2c-27 -22 -63 -37 -103 -37c-64 0 -114 45 -114 115c0 74 53 130 139 130c97 0 146 -72 146 -159zM240 101c0 48 -28 91 -82 91c-44 0 -72 -30 -72 -74c0 -43 26 -70 70 -70c33 0 65 15 82 29
c2 8 2 16 2 24z" />
    <glyph glyph-name="plusinferior" horiz-adv-x="330" 
d="M300 24h-103v-105h-43v105h-104l1 43h103v104h43v-104h101z" />
    <glyph glyph-name="minusinferior" horiz-adv-x="330" 
d="M300 24h-250l1 43h247z" />
    <glyph glyph-name="degree.lnum" 
d="M413 476c0 -88 -62 -163 -164 -163c-100 0 -163 75 -163 163c0 89 63 164 163 164c102 0 164 -75 164 -164zM360 476c0 63 -41 114 -111 114c-69 0 -110 -51 -110 -114c0 -60 41 -112 110 -112c70 0 111 52 111 112z" />
    <glyph glyph-name="plus.lnum" 
d="M454 199h-167v-170h-70v170h-169l3 71h166v169h70v-169h164z" />
    <glyph glyph-name="minus.lnum" 
d="M454 199h-406l3 71h400z" />
    <glyph glyph-name="plusminus.lnum" 
d="M454 229h-167v-140h-70v140h-169l3 71h166v140h70v-140h164zM454 0h-406l3 71h400z" />
    <glyph glyph-name="logicalnot.lnum" 
d="M452 330v-213h-70v142h-334l3 71h401z" />
    <glyph glyph-name="equal.lnum" 
d="M445 290h-388l-5 71h398zM450 108h-398l5 71h388z" />
    <glyph glyph-name="notequal.lnum" 
d="M152 -33l37 141h-137l5 71h150l29 111h-179l-5 71h203l34 131h71l-34 -131h124l-5 -71h-138l-29 -111h167l5 -71h-190l-37 -141h-71z" />
    <glyph glyph-name="approxequal.lnum" 
d="M433 210c-13 -71 -60 -114 -111 -114c-53 0 -112 49 -147 49c-12 0 -35 -1 -46 -44h-62c13 71 60 114 111 114c52 0 117 -49 147 -49c19 0 35 5 47 44h61zM433 368c-13 -71 -60 -114 -111 -114c-53 0 -112 49 -147 49c-12 0 -35 -1 -46 -44h-62c13 71 60 114 111 114
c52 0 117 -49 147 -49c19 0 35 5 47 44h61z" />
    <glyph glyph-name="multiply.lnum" 
d="M458 77l-48 -48l-157 159l-157 -159l-48 48l159 157l-159 157l48 48l157 -159l157 159l48 -48l-159 -157z" />
    <glyph glyph-name="divide.lnum" 
d="M454 199h-406l3 71h400zM319 82c0 -35 -27 -67 -66 -67s-68 32 -68 67s29 65 68 65s66 -30 66 -65zM319 387c0 -35 -29 -65 -68 -65s-66 30 -66 65s27 67 66 67s68 -32 68 -67z" />
    <glyph glyph-name="less.lnum" 
d="M448 96v-79l-402 189v59l401 189v-79l-297 -135v-10z" />
    <glyph glyph-name="greater.lnum" 
d="M444 206l-402 -189v79l298 134v10l-297 135v79l401 -189v-59z" />
    <glyph glyph-name="lessequal.lnum" 
d="M430 161v-72l-361 152v88l361 152v-73l-285 -119v-9zM431 0h-355l3 68h349z" />
    <glyph glyph-name="greaterequal.lnum" 
d="M70 89v72l285 119v9l-285 119v73l361 -152v-88zM424 0h-355l3 68h349z" />
    <glyph glyph-name="bar.lnum" horiz-adv-x="250" 
d="M92 -199v901h67v-901h-67z" />
    <glyph glyph-name="brokenbar.lnum" horiz-adv-x="250" 
d="M92 307v335h67v-335h-67zM92 -139v335h67v-335h-67z" />
    <glyph glyph-name="bullet.lnum" 
d="M442 232c0 -29 -35 -116 -56 -137c-20 -20 -108 -56 -137 -56c-28 0 -116 36 -135 56c-20 21 -57 108 -57 137s37 116 57 136s108 56 136 56c29 0 116 -36 136 -56s56 -107 56 -136z" />
    <glyph glyph-name="asciitilde.lnum" 
d="M424 304c-9 -85 -36 -126 -97 -126c-62 0 -116 69 -153 69c-18 0 -31 -16 -38 -62c-3 0 -63 0 -55 0c9 86 36 127 97 127c62 0 116 -70 153 -70c18 0 31 16 37 62c3 0 61 0 56 0z" />
    <glyph glyph-name="quotesingle.lnum" horiz-adv-x="250" 
d="M77 398h-34l115 247l75 -36z" />
    <glyph glyph-name="quotedbl.lnum" 
d="M277 398h-34l115 247l75 -36zM127 398h-34l115 247l75 -36z" />
    <glyph glyph-name="parenleft.lnum" 
d="M415 -257c-119 59 -280 227 -280 476s161 418 279 477l36 -52c-108 -59 -243 -214 -243 -425c0 -210 135 -365 243 -424z" />
    <glyph glyph-name="parenright.lnum" 
d="M85 -257l-35 52c109 59 243 214 243 424c0 211 -134 366 -243 425l36 52c118 -59 279 -228 279 -477s-161 -417 -280 -476z" />
    <glyph glyph-name="bracketleft.lnum" 
d="M424 -222h-274v897h274v-65h-203v-767h203v-65z" />
    <glyph glyph-name="bracketright.lnum" 
d="M77 -222v65h203v767h-203v65h274v-897h-274z" />
    <glyph glyph-name="asterisk.lnum" 
d="M244 454l-101 -111l-55 70l141 61v5l-137 63l50 71l102 -116l4 1l19 150l81 -26l-78 -132l3 -3l144 29v-84l-144 30l-3 -3l75 -133l-81 -24l-17 151z" />
    <glyph glyph-name="braceleft.lnum" 
d="M402 -229c-143 6 -223 42 -223 134c0 81 47 141 47 204c0 57 -37 75 -122 82l-3 40l3 40c85 6 122 24 122 82c0 63 -47 123 -47 204c0 92 80 128 223 135v-57c-108 -8 -149 -31 -149 -73c0 -62 48 -117 48 -195c0 -75 -47 -126 -135 -131v-10c88 -6 135 -57 135 -132
c0 -77 -48 -132 -48 -191c0 -45 41 -69 149 -76v-56z" />
    <glyph glyph-name="braceright.lnum" 
d="M398 231l-3 -40c-85 -7 -123 -25 -123 -82c0 -63 48 -123 48 -204c0 -92 -79 -128 -223 -134v56c107 7 149 31 149 75c0 60 -47 115 -47 192c0 75 45 126 134 132v10c-89 5 -134 56 -134 131c0 78 47 133 47 195c0 42 -42 65 -149 73v57c144 -7 223 -43 223 -135
c0 -81 -48 -141 -48 -204c0 -58 38 -76 123 -82z" />
    <glyph glyph-name="section.lnum" 
d="M469 294c0 -60 -40 -104 -99 -124c29 -21 48 -49 48 -90c0 -86 -73 -146 -172 -146c-56 0 -117 17 -158 43l20 72c38 -26 93 -43 140 -43c53 0 93 25 93 67c0 45 -64 63 -132 82c-81 23 -169 50 -169 135c0 58 50 104 105 122c-32 21 -55 49 -55 91c0 85 72 140 163 140
c53 0 105 -13 147 -34l-21 -72c-38 21 -92 34 -130 34c-50 0 -83 -21 -83 -59c0 -43 63 -58 131 -77c82 -23 172 -53 172 -141zM395 277c0 66 -122 77 -211 116c-34 -20 -71 -49 -71 -85c0 -64 129 -73 219 -116c32 18 63 46 63 85z" />
    <glyph glyph-name="paragraph.lnum" 
d="M341 261c-19 -4 -40 -7 -63 -7c-158 0 -232 79 -232 182c0 125 98 189 237 189c-23 0 125 0 125 0v-689h-67v325z" />
    <glyph glyph-name="period.lnum" horiz-adv-x="250" 
d="M190 50c0 -34 -26 -65 -63 -65c-38 0 -65 31 -65 65s27 63 65 63c37 0 63 -29 63 -63z" />
    <glyph glyph-name="comma.lnum" horiz-adv-x="250" 
d="M56 63c4 32 26 59 68 59c41 0 85 -38 85 -92c0 -82 -74 -145 -148 -195l-35 35c69 50 102 92 102 127c0 25 -18 41 -72 66z" />
    <glyph glyph-name="colon.lnum" horiz-adv-x="250" 
d="M190 358c0 -34 -26 -65 -63 -65c-38 0 -65 31 -65 65s27 63 65 63c37 0 63 -29 63 -63zM190 50c0 -34 -26 -65 -63 -65c-38 0 -65 31 -65 65s27 63 65 63c37 0 63 -29 63 -63z" />
    <glyph glyph-name="semicolon.lnum" horiz-adv-x="250" 
d="M190 358c0 -34 -26 -65 -63 -65c-38 0 -65 31 -65 65s27 63 65 63c37 0 63 -29 63 -63zM56 63c4 32 26 59 68 59c41 0 85 -38 85 -92c0 -82 -74 -145 -148 -195l-35 35c69 50 102 92 102 127c0 25 -18 41 -72 66z" />
    <glyph glyph-name="guilsinglleft.lnum" horiz-adv-x="342" 
d="M300 85l-8 -60l-262 162v94l262 162l8 -60l-200 -148v-2z" />
    <glyph glyph-name="guilsinglright.lnum" horiz-adv-x="342" 
d="M312 187l-262 -162l-8 60l200 148v2l-200 148l8 60l262 -162v-94z" />
    <glyph glyph-name="guillemotleft.lnum" horiz-adv-x="580" 
d="M554 85l-7 -60l-262 162v94l262 162l7 -60l-194 -148v-2zM277 92l-8 -56l-249 153v90l249 153l8 -56l-185 -141v-2z" />
    <glyph glyph-name="guillemotright.lnum" horiz-adv-x="586" 
d="M566 189l-249 -153l-8 56l185 141v2l-185 141l8 56l249 -153v-90zM301 187l-262 -162l-7 60l194 148v2l-194 148l7 60l262 -162v-94z" />
    <glyph glyph-name="periodcentered.lnum" horiz-adv-x="250" 
d="M190 228c0 -34 -26 -65 -63 -65c-38 0 -65 31 -65 65s27 63 65 63c37 0 63 -29 63 -63z" />
    <glyph glyph-name="hyphen.lnum" horiz-adv-x="310" 
d="M279 204h-246v77h246v-77z" />
    <glyph glyph-name="endash.lnum" horiz-adv-x="461" 
d="M433 207h-403l3 59h397z" />
    <glyph glyph-name="emdash.lnum" horiz-adv-x="931" 
d="M903 207h-873l3 59h867z" />
    <glyph glyph-name="tribol_north.orn" horiz-adv-x="750" 
d="M88 45l288 539l286 -539h-574zM502 137l-127 261l-127 -261h254z" />
    <glyph glyph-name="tribol_east.orn" horiz-adv-x="750" 
d="M145 600l539 -288l-539 -286v574zM237 186l261 127l-261 127v-254z" />
    <glyph glyph-name="tribol_south.orn" horiz-adv-x="750" 
d="M88 584h574l-286 -539zM502 492h-254l127 -261z" />
    <glyph glyph-name="tribol_west.orn" horiz-adv-x="750" 
d="M604 600v-574l-539 286zM512 186v254l-261 -127z" />
    <glyph glyph-name="trisol_north.orn" horiz-adv-x="750" 
d="M88 45l288 539l286 -539h-574z" />
    <glyph glyph-name="trisol_east.orn" horiz-adv-x="750" 
d="M145 600l539 -288l-539 -286v574z" />
    <glyph glyph-name="trisol_south.orn" horiz-adv-x="750" 
d="M88 584h574l-286 -539z" />
    <glyph glyph-name="trisol_west.orn" horiz-adv-x="750" 
d="M604 600v-574l-539 286z" />
    <glyph glyph-name="arrow_north.orn" horiz-adv-x="750" 
d="M333 -10l6 512l-221 -231l-59 54l312 315h7l313 -315l-59 -54l-222 231l6 -512h-83z" />
    <glyph glyph-name="arrow_east.orn" horiz-adv-x="750" 
d="M390 -4l-54 59l231 221l-512 -6v83l512 -6l-231 222l54 59l315 -313v-7z" />
    <glyph glyph-name="arrow_south.orn" horiz-adv-x="750" 
d="M370 -15l-313 315l59 54l222 -231l-6 512h83l-6 -512l221 231l59 -54l-312 -315h-7z" />
    <glyph glyph-name="arrow_west.orn" horiz-adv-x="750" 
d="M360 -4l-315 312v7l315 313l54 -59l-231 -222l512 6v-83l-512 6l231 -221z" />
    <glyph glyph-name="sqrreg_2.orn" 
d="M41 417h418v-417h-418v417zM406 53v313h-313v-313h313z" />
    <glyph glyph-name="sqrbol_2.orn" 
d="M41 417h418v-417h-418v417zM368 91v236h-236v-236h236z" />
    <glyph glyph-name="sqrshd_2.orn" 
d="M41 417h418v-417h-418v417zM414 373h-37l37 -37v37zM414 307l-65 66h-65l130 -130v64zM414 215l-158 158h-64l222 -222v64zM414 123l-250 250h-64l314 -314v64zM400 46l-314 313v-65l250 -248h64zM307 46l-221 220v-64l157 -156h64zM214 46l-128 127v-64l64 -63h64z
M122 46l-36 36v-36h36z" />
    <glyph glyph-name="sqrsol_2.orn" 
d="M41 0v417h418v-417h-418z" />
    <glyph glyph-name="sqrreg_1.orn" horiz-adv-x="750" 
d="M688 626v-626h-626v626h626zM633 55v516h-516v-516h516z" />
    <glyph glyph-name="sqrbol_1.orn" horiz-adv-x="750" 
d="M688 626v-626h-626v626h626zM177 511v-396h396v396h-396z" />
    <glyph glyph-name="sqrshd_1.orn" horiz-adv-x="750" 
d="M688 626v-626h-626v626h626zM633 493v78h-78zM633 351v116l-104 104h-116zM633 209v116l-246 246h-116zM633 68v116l-387 387h-116zM505 55h116l-504 504v-116zM117 417v-116l246 -246h116zM221 55h116l-220 220v-116zM117 135v-80h80z" />
    <glyph glyph-name="sqrsol_1.orn" horiz-adv-x="750" 
d="M688 626v-626h-626v626h626z" />
    <glyph glyph-name="crcreg_2.orn" 
d="M250 -10c-123 0 -219 97 -219 219s96 218 219 218s219 -96 219 -218s-96 -219 -219 -219zM416 209c0 93 -72 168 -166 168s-166 -75 -166 -168s72 -168 166 -168s166 75 166 168z" />
    <glyph glyph-name="crcbol_2.orn" 
d="M250 -10c-123 0 -219 97 -219 219s96 218 219 218s219 -96 219 -218s-96 -219 -219 -219zM376 209c0 70 -54 128 -126 128s-126 -58 -126 -128c0 -71 54 -128 126 -128s126 57 126 128z" />
    <glyph glyph-name="crcshd_2.orn" 
d="M250 -10c-123 0 -219 97 -219 219s96 218 219 218s219 -96 219 -218s-96 -219 -219 -219zM376 337c-27 26 -61 45 -101 50l151 -151c-5 40 -23 74 -50 101zM428 205l-184 184c-19 -1 -38 -4 -55 -11l228 -229c7 18 10 37 11 56zM410 128l-241 242c-15 -6 -27 -16 -38 -27
l253 -254c11 11 20 24 26 39zM370 75l-254 254c-11 -11 -20 -25 -26 -40l242 -241c14 6 27 16 38 27zM311 39l-229 229c-6 -17 -9 -36 -10 -55l184 -184c19 0 38 3 55 10zM74 182c5 -41 25 -77 53 -104c26 -25 60 -43 98 -48z" />
    <glyph glyph-name="crcsol_2.orn" 
d="M250 -10c-123 0 -219 97 -219 219s96 218 219 218s219 -96 219 -218s-96 -219 -219 -219z" />
    <glyph glyph-name="crcreg_1.orn" horiz-adv-x="750" 
d="M703 313c0 -183 -143 -328 -328 -328s-328 145 -328 328s143 328 328 328s328 -145 328 -328zM375 37c155 0 273 123 273 276s-118 276 -273 276s-273 -123 -273 -276s118 -276 273 -276z" />
    <glyph glyph-name="crcbol_1.orn" horiz-adv-x="750" 
d="M703 313c0 -183 -143 -328 -328 -328s-328 145 -328 328s143 328 328 328s328 -145 328 -328zM375 529c-121 0 -213 -97 -213 -216s92 -216 213 -216s213 97 213 216s-92 216 -213 216z" />
    <glyph glyph-name="crcshd_1.orn" horiz-adv-x="750" 
d="M703 313c0 -183 -143 -328 -328 -328s-328 145 -328 328s143 330 328 330s328 -147 328 -330zM647 337c-10 135 -114 241 -251 251zM629 212c12 31 18 64 19 98l-279 279c-34 -1 -67 -7 -97 -19c0 0 358 -358 357 -358zM576 125c19 20 34 43 46 69c1 0 -367 368 -367 368
c-25 -12 -48 -28 -68 -48zM496 64c25 12 48 28 68 48l-390 390c-19 -20 -34 -44 -46 -70zM120 414c-11 -30 -17 -63 -18 -98l279 -279c34 0 67 7 97 19zM103 289c10 -135 114 -241 251 -251z" />
    <glyph glyph-name="crcsol_1.orn" horiz-adv-x="750" 
d="M703 313c0 -183 -143 -328 -328 -328s-328 145 -328 328s143 328 328 328s328 -145 328 -328z" />
    <glyph glyph-name="apple" horiz-adv-x="758" 
d="M763 233l-180 -85l69 -189l-189 69l-85 -181l-84 180l-187 -68l68 187l-181 86l181 83l-68 189l187 -69l86 181l83 -181l189 69l-69 -189zM663 232l-132 62l50 139l-139 -50l-63 133l-63 -133l-139 50l51 -139l-134 -63l134 -63l-51 -138l139 51l62 -135l64 135l139 -51
l-50 140z" />
    <glyph glyph-name="zero.onum" horiz-adv-x="577" 
d="M530 236c0 -149 -100 -251 -242 -251s-241 102 -241 251s99 251 241 251s242 -102 242 -251zM448 236c0 100 -65 173 -160 173s-159 -73 -159 -173s64 -173 159 -173s160 73 160 173z" />
    <glyph glyph-name="one.onum" horiz-adv-x="343" 
d="M161 0v384l-116 -37l-3 75l200 66v-488h-81z" />
    <glyph glyph-name="two.onum" horiz-adv-x="457" 
d="M422 0h-376v71c140 104 267 182 267 260c0 46 -35 79 -95 79c-50 0 -95 -22 -142 -57l-29 70c47 37 106 64 180 64c102 0 173 -58 173 -146c0 -109 -99 -169 -229 -263h251v-78z" />
    <glyph glyph-name="three.onum" horiz-adv-x="437" 
d="M270 170c99 -16 147 -87 147 -158c0 -126 -102 -199 -230 -199c-61 0 -128 13 -169 38l15 77c37 -25 93 -40 155 -40c84 0 143 40 143 118c0 69 -57 102 -136 105c-28 1 -57 -2 -92 -8v71c103 24 202 65 202 143c0 60 -42 93 -113 93c-51 0 -97 -23 -144 -58l-29 70
c47 37 108 65 182 65c122 0 194 -67 194 -158c0 -74 -58 -133 -125 -159z" />
    <glyph glyph-name="four.onum" horiz-adv-x="523" 
d="M512 10h-98v-194h-80v194h-308l-8 48l323 430h73v-400h95zM334 88v272l-201 -272h201z" />
    <glyph glyph-name="five.onum" horiz-adv-x="429" 
d="M126 215c20 2 38 5 71 5c131 0 215 -77 215 -192c0 -129 -99 -215 -220 -215c-66 0 -133 19 -174 43l15 81c38 -21 101 -46 160 -46c78 0 135 52 135 133c0 66 -50 125 -141 125c-59 0 -86 -6 -123 -17l-22 20l41 321h312l3 -81h-248z" />
    <glyph glyph-name="six.onum" horiz-adv-x="516" 
d="M43 245c0 173 113 339 343 393l25 -78c-144 -36 -246 -111 -279 -234l2 -1c41 38 88 62 159 62c100 0 183 -77 183 -194c0 -118 -83 -208 -213 -208c-142 0 -220 118 -220 260zM130 219c0 -84 52 -158 137 -158c77 0 126 53 126 128c0 76 -51 125 -122 125
c-57 0 -109 -28 -136 -53c-3 -11 -5 -27 -5 -42z" />
    <glyph glyph-name="seven.onum" horiz-adv-x="456" 
d="M346 392h-329l3 81h415v-71l-282 -586h-84z" />
    <glyph glyph-name="eight.onum" horiz-adv-x="507" 
d="M286 338c50 21 84 60 84 113c0 66 -51 105 -114 105c-77 0 -119 -43 -119 -95c0 -62 72 -91 149 -123zM226 282c-59 -20 -99 -62 -99 -119c0 -64 55 -105 130 -105c79 0 122 34 122 94c0 68 -75 97 -153 130zM348 310c63 -32 115 -74 115 -148c0 -95 -73 -177 -210 -177
c-141 0 -209 78 -209 169c0 81 67 141 120 155c-60 31 -110 71 -110 143c0 101 77 177 206 177c133 0 193 -82 193 -169c0 -74 -55 -130 -105 -150z" />
    <glyph glyph-name="nine.onum" horiz-adv-x="516" 
d="M473 227c0 -173 -113 -339 -343 -393l-25 78c144 36 246 111 279 234l-2 1c-41 -38 -88 -62 -159 -62c-100 0 -183 77 -183 194c0 118 83 208 213 208c142 0 220 -118 220 -260zM386 253c0 84 -52 158 -137 158c-77 0 -126 -53 -126 -128c0 -76 51 -125 122 -125
c57 0 109 28 136 53c3 11 5 27 5 42z" />
    <glyph glyph-name="dollar.onum" horiz-adv-x="505" 
d="M259 272l-28 -211h10c80 0 136 43 136 105c0 57 -37 82 -118 106zM266 640l12 90h48l-13 -95c48 -8 93 -24 134 -50l-30 -74c-33 22 -74 39 -114 47l-27 -200c91 -24 183 -68 183 -186c0 -108 -89 -187 -220 -187h-19c1 0 -14 -108 -14 -108h-48l15 114
c-51 8 -100 26 -142 53l28 77c38 -25 77 -45 124 -55l30 219c-85 25 -172 64 -172 179c0 105 84 176 208 176h17zM230 371l26 192h-6c-90 0 -126 -41 -126 -93s36 -78 106 -99z" />
    <glyph glyph-name="cent.onum" horiz-adv-x="445" 
d="M327 468c35 -5 65 -17 93 -34l-21 -75c-25 17 -53 28 -82 33l-44 -331c47 0 93 13 129 38l15 -76c-41 -25 -91 -38 -149 -38h-6c1 0 -14 -108 -14 -108h-49l15 113c-106 23 -173 114 -173 239c0 146 95 244 229 244h9l12 90h49zM269 397c-93 -1 -143 -64 -143 -167
c0 -86 37 -144 98 -163z" />
    <glyph glyph-name="sterling.onum" horiz-adv-x="510" 
d="M124 328c-2 36 -3 69 -3 98c0 146 87 214 199 214c58 0 107 -17 148 -43l-20 -73c-34 23 -79 42 -129 42c-80 0 -116 -56 -116 -132c0 -29 2 -65 4 -106h196l-3 -54h-191c1 -30 2 -60 2 -90c0 -25 -2 -47 -7 -67c45 -37 101 -57 138 -57c45 0 85 24 100 107l63 -14
c-8 -110 -78 -168 -156 -168c-60 0 -121 34 -169 77c-26 -36 -69 -62 -139 -79c0 0 -19 71 -19 66c86 23 107 55 107 127c0 31 -1 64 -3 98h-93l-3 54h94z" />
    <glyph glyph-name="yen.onum" horiz-adv-x="543" 
d="M231 263h-174l-3 55h154l-196 307h95l165 -275l164 275h92l-194 -307h153l-3 -55h-174v-78h174l3 -54h-176v-131h-81v131h-176l3 54h174v78z" />
    <glyph glyph-name="Euro.onum" horiz-adv-x="502" 
d="M105 369c1 0 -72 0 -72 0l-3 55h83c29 153 120 216 227 216c61 0 112 -13 153 -38l-20 -73c-38 25 -84 37 -133 37c-75 0 -124 -45 -144 -142h227l-3 -55h-231c-1 -16 -2 -34 -2 -52c0 -21 1 -41 3 -59h200l3 -55h-195c22 -100 74 -144 141 -144c52 0 100 13 137 37
l14 -74c-40 -24 -92 -37 -153 -37c-114 0 -201 58 -226 218h-81l3 55h72c-1 16 -2 33 -2 51c0 21 1 41 2 60z" />
    </font>
</defs>
</svg>
