<?xml version="1.0" encoding="UTF-8"?>
<!DOCTYPE svg PUBLIC "-//W3C//DTD SVG 1.1//EN" "http://www.w3.org/Graphics/SVG/1.1/DTD/svg11.dtd">
<!-- Creator: CorelDRAW X8 -->
<svg xmlns="http://www.w3.org/2000/svg" xml:space="preserve" width="184.246mm" height="133.22mm" version="1.1" style="shape-rendering:geometricPrecision; text-rendering:geometricPrecision; image-rendering:optimizeQuality; fill-rule:evenodd; clip-rule:evenodd"
viewBox="0 0 18425 13322"
 xmlns:xlink="http://www.w3.org/1999/xlink">
 <defs>
  <style type="text/css">
   <![CDATA[
    .fil1 {fill:#00A3A0}
    .fil0 {fill:#18C2C0}
   ]]>
  </style>
 </defs>
 <g id="Camada_x0020_1">
  <metadata id="CorelCorpID_0Corel-Layer"/>
  <path class="fil0" d="M4101 3141l1628 1711 2261 -8 1758 -1734c72,-83 214,-107 271,0 226,1217 582,2246 1010,2874 713,939 1338,1048 1844,35 403,-780 -819,-6124 -6287,-6017 -3801,-11 -6548,3121 -6586,6262 50,2944 1236,5183 3975,6457 1944,850 4436,801 7487,-164 3235,-1047 5385,-1134 6963,-540 -708,-2284 -2186,-3885 -4870,-4416 -2153,-290 -4177,567 -6100,2326 -248,266 -579,291 -895,26 -997,-949 -2150,-1636 -3414,-2137l680 -4669c19,-99 167,-119 275,-6zm10560 7856c1110,-164 1470,-134 2569,24 -284,-898 -1375,-1975 -2264,-2289 320,555 498,1094 103,1683 -219,328 -201,135 -408,582z"/>
  <path class="fil0" d="M4415 6852c885,54 1312,444 1494,1014 -879,-20 -1358,-374 -1494,-1014z"/>
  <path class="fil0" d="M9522 6852c-885,54 -1312,444 -1495,1014 879,-20 1359,-374 1495,-1014z"/>
  <path class="fil0" d="M6986 9826l-597 -535c-56,-155 -29,-283 163,-356l860 4c198,71 220,194 147,352l-573 535z"/>
  <path class="fil1" d="M3826 3147l-2288 5576c1754,420 3366,1463 4747,3515 118,120 256,156 442,8 1616,-1985 3340,-3735 5430,-4673 -1638,157 -3201,980 -4702,2354 -248,266 -579,291 -895,26 -997,-949 -2150,-1636 -3414,-2137l680 -4669z"/>
 </g>
</svg>
