<?xml version="1.0" encoding="UTF-8"?>
<!DOCTYPE svg PUBLIC "-//W3C//DTD SVG 1.1//EN" "http://www.w3.org/Graphics/SVG/1.1/DTD/svg11.dtd">
<!-- Creator: CorelDRAW X8 -->
<svg xmlns="http://www.w3.org/2000/svg" xml:space="preserve" width="77.548mm" height="6.364mm" version="1.1" style="shape-rendering:geometricPrecision; text-rendering:geometricPrecision; image-rendering:optimizeQuality; fill-rule:evenodd; clip-rule:evenodd"
viewBox="0 0 7755 636"
 xmlns:xlink="http://www.w3.org/1999/xlink">
 <defs>
  <style type="text/css">
   <![CDATA[
    .fil3 {fill:#292429}
    .fil2 {fill:#2E2600}
    .fil1 {fill:#3B3000}
    .fil0 {fill:#3D3200}
    .fil6 {fill:#423600}
    .fil5 {fill:#4D3F00}
    .fil4 {fill:#5A4900}
    .fil7 {fill:#705B00}
   ]]>
  </style>
 </defs>
 <g id="Camada_x0020_1">
  <metadata id="CorelCorpID_0Corel-Layer"/>
  <g id="_630642840">
   <g>
    <rect class="fil0" x="1123" y="276" width="213" height="164"/>
    <rect class="fil1" x="474" y="449" width="861" height="136"/>
    <rect class="fil0" x="474" y="281" width="178" height="154"/>
    <rect class="fil2" x="474" y="556" width="861.188" height="79.9627"/>
    <rect class="fil3" x="548" width="712" height="319"/>
    <rect class="fil4" x="687" y="80" width="436" height="325"/>
    <rect class="fil5" x="627" y="80" width="78.7938" height="354.857"/>
    <rect class="fil6" x="1104" y="80" width="78.7938" height="359.855"/>
    <rect class="fil3" x="474" y="160" width="95.158" height="159.588"/>
    <rect class="fil3" x="1240" y="160" width="95.158" height="159.588"/>
    <rect class="fil4" x="474" y="396" width="861.188" height="79.9627"/>
    <rect class="fil5" x="888" y="476" width="76.5235" height="79.9627"/>
    <rect class="fil5" x="491" y="556" width="76.5235" height="77.3028"/>
    <rect class="fil5" x="729" y="556" width="76.5235" height="77.3028"/>
    <rect class="fil5" x="888" y="556" width="76.5235" height="77.3028"/>
    <rect class="fil5" x="1046" y="556" width="76.5235" height="77.3028"/>
    <rect class="fil5" x="1205" y="556" width="76.5235" height="77.3028"/>
   </g>
   <g>
    <rect class="fil3" width="474" height="636"/>
    <rect class="fil4" x="80" y="396" width="394.112" height="79.9627"/>
    <rect class="fil7" x="80" y="80" width="238" height="317"/>
    <rect class="fil5" x="318" y="80" width="79.2959" height="316.659"/>
    <rect class="fil1" x="80" y="476" width="394.112" height="79.9627"/>
    <rect class="fil2" x="80" y="556" width="394.112" height="79.9627"/>
    <rect class="fil5" x="224" y="556" width="176.439" height="79.9627"/>
    <rect class="fil2" x="398" y="319" width="76.9132" height="77.3028"/>
   </g>
   <g>
    <rect class="fil0" x="1967" y="276" width="213" height="164"/>
    <rect class="fil1" x="1319" y="449" width="861" height="136"/>
    <rect class="fil0" x="1319" y="281" width="178" height="154"/>
    <rect class="fil2" x="1319" y="556" width="861.188" height="79.9627"/>
    <rect class="fil3" x="1392" width="712" height="319"/>
    <rect class="fil4" x="1532" y="80" width="436" height="325"/>
    <rect class="fil5" x="1472" y="80" width="78.7938" height="354.857"/>
    <rect class="fil6" x="1948" y="80" width="78.7938" height="359.855"/>
    <rect class="fil3" x="1319" y="160" width="95.158" height="159.588"/>
    <rect class="fil3" x="2085" y="160" width="95.158" height="159.588"/>
    <rect class="fil4" x="1319" y="396" width="861.188" height="79.9627"/>
    <rect class="fil5" x="1732" y="476" width="76.5235" height="79.9627"/>
    <rect class="fil5" x="1336" y="556" width="76.5235" height="77.3028"/>
    <rect class="fil5" x="1574" y="556" width="76.5235" height="77.3028"/>
    <rect class="fil5" x="1732" y="556" width="76.5235" height="77.3028"/>
    <rect class="fil5" x="1891" y="556" width="76.5235" height="77.3028"/>
    <rect class="fil5" x="2050" y="556" width="76.5235" height="77.3028"/>
   </g>
   <g>
    <rect class="fil0" x="2812" y="276" width="213" height="164"/>
    <rect class="fil1" x="2163" y="449" width="861" height="136"/>
    <rect class="fil0" x="2163" y="281" width="178" height="154"/>
    <rect class="fil2" x="2163" y="556" width="861.188" height="79.9627"/>
    <rect class="fil3" x="2236" width="712" height="319"/>
    <rect class="fil4" x="2376" y="80" width="436" height="325"/>
    <rect class="fil5" x="2316" y="80" width="78.7938" height="354.857"/>
    <rect class="fil6" x="2793" y="80" width="78.7938" height="359.855"/>
    <rect class="fil3" x="2163" y="160" width="95.158" height="159.588"/>
    <rect class="fil3" x="2929" y="160" width="95.158" height="159.588"/>
    <rect class="fil4" x="2163" y="396" width="861.188" height="79.9627"/>
    <rect class="fil5" x="2577" y="476" width="76.5235" height="79.9627"/>
    <rect class="fil5" x="2180" y="556" width="76.5235" height="77.3028"/>
    <rect class="fil5" x="2418" y="556" width="76.5235" height="77.3028"/>
    <rect class="fil5" x="2577" y="556" width="76.5235" height="77.3028"/>
    <rect class="fil5" x="2735" y="556" width="76.5235" height="77.3028"/>
    <rect class="fil5" x="2894" y="556" width="76.5235" height="77.3028"/>
   </g>
   <g>
    <rect class="fil0" x="3656" y="276" width="213" height="164"/>
    <rect class="fil1" x="3008" y="449" width="861" height="136"/>
    <rect class="fil0" x="3008" y="281" width="178" height="154"/>
    <rect class="fil2" x="3008" y="556" width="861.188" height="79.9627"/>
    <rect class="fil3" x="3081" width="712" height="319"/>
    <rect class="fil4" x="3221" y="80" width="436" height="325"/>
    <rect class="fil5" x="3161" y="80" width="78.7938" height="354.857"/>
    <rect class="fil6" x="3637" y="80" width="78.7938" height="359.855"/>
    <rect class="fil3" x="3008" y="160" width="95.158" height="159.588"/>
    <rect class="fil3" x="3774" y="160" width="95.158" height="159.588"/>
    <rect class="fil4" x="3008" y="396" width="861.188" height="79.9627"/>
    <rect class="fil5" x="3421" y="476" width="76.5235" height="79.9627"/>
    <rect class="fil5" x="3025" y="556" width="76.5235" height="77.3028"/>
    <rect class="fil5" x="3262" y="556" width="76.5235" height="77.3028"/>
    <rect class="fil5" x="3421" y="556" width="76.5235" height="77.3028"/>
    <rect class="fil5" x="3580" y="556" width="76.5235" height="77.3028"/>
    <rect class="fil5" x="3739" y="556" width="76.5235" height="77.3028"/>
   </g>
   <g>
    <rect class="fil0" x="4517" y="276" width="213" height="164"/>
    <rect class="fil1" x="3869" y="449" width="861" height="136"/>
    <rect class="fil0" x="3869" y="281" width="178" height="154"/>
    <rect class="fil2" x="3869" y="556" width="861.188" height="79.9627"/>
    <rect class="fil3" x="3942" width="712" height="319"/>
    <rect class="fil4" x="4082" y="80" width="436" height="325"/>
    <rect class="fil5" x="4022" y="80" width="78.7938" height="354.857"/>
    <rect class="fil6" x="4498" y="80" width="78.7938" height="359.855"/>
    <rect class="fil3" x="3869" y="160" width="95.158" height="159.588"/>
    <rect class="fil3" x="4635" y="160" width="95.158" height="159.588"/>
    <rect class="fil4" x="3869" y="396" width="861.188" height="79.9627"/>
    <rect class="fil5" x="4282" y="476" width="76.5235" height="79.9627"/>
    <rect class="fil5" x="3886" y="556" width="76.5235" height="77.3028"/>
    <rect class="fil5" x="4124" y="556" width="76.5235" height="77.3028"/>
    <rect class="fil5" x="4282" y="556" width="76.5235" height="77.3028"/>
    <rect class="fil5" x="4441" y="556" width="76.5235" height="77.3028"/>
    <rect class="fil5" x="4600" y="556" width="76.5235" height="77.3028"/>
   </g>
   <g>
    <rect class="fil0" x="5362" y="276" width="213" height="164"/>
    <rect class="fil1" x="4714" y="449" width="861" height="136"/>
    <rect class="fil0" x="4714" y="281" width="178" height="154"/>
    <rect class="fil2" x="4714" y="556" width="861.188" height="79.9627"/>
    <rect class="fil3" x="4787" width="712" height="319"/>
    <rect class="fil4" x="4926" y="80" width="436" height="325"/>
    <rect class="fil5" x="4867" y="80" width="78.7938" height="354.857"/>
    <rect class="fil6" x="5343" y="80" width="78.7938" height="359.855"/>
    <rect class="fil3" x="4714" y="160" width="95.158" height="159.588"/>
    <rect class="fil3" x="5480" y="160" width="95.158" height="159.588"/>
    <rect class="fil4" x="4714" y="396" width="861.188" height="79.9627"/>
    <rect class="fil5" x="5127" y="476" width="76.5235" height="79.9627"/>
    <rect class="fil5" x="4730" y="556" width="76.5235" height="77.3028"/>
    <rect class="fil5" x="4968" y="556" width="76.5235" height="77.3028"/>
    <rect class="fil5" x="5127" y="556" width="76.5235" height="77.3028"/>
    <rect class="fil5" x="5285" y="556" width="76.5235" height="77.3028"/>
    <rect class="fil5" x="5444" y="556" width="76.5235" height="77.3028"/>
   </g>
   <g>
    <rect class="fil0" x="6223" y="276" width="213" height="164"/>
    <rect class="fil1" x="5575" y="449" width="861" height="136"/>
    <rect class="fil0" x="5575" y="281" width="178" height="154"/>
    <rect class="fil2" x="5575" y="556" width="861.188" height="79.9627"/>
    <rect class="fil3" x="5648" width="712" height="319"/>
    <rect class="fil4" x="5788" y="80" width="436" height="325"/>
    <rect class="fil5" x="5728" y="80" width="78.7938" height="354.857"/>
    <rect class="fil6" x="6204" y="80" width="78.7938" height="359.855"/>
    <rect class="fil3" x="5575" y="160" width="95.158" height="159.588"/>
    <rect class="fil3" x="6341" y="160" width="95.158" height="159.588"/>
    <rect class="fil4" x="5575" y="396" width="861.188" height="79.9627"/>
    <rect class="fil5" x="5988" y="476" width="76.5235" height="79.9627"/>
    <rect class="fil5" x="5591" y="556" width="76.5235" height="77.3028"/>
    <rect class="fil5" x="5829" y="556" width="76.5235" height="77.3028"/>
    <rect class="fil5" x="5988" y="556" width="76.5235" height="77.3028"/>
    <rect class="fil5" x="6147" y="556" width="76.5235" height="77.3028"/>
    <rect class="fil5" x="6306" y="556" width="76.5235" height="77.3028"/>
   </g>
   <g>
    <rect class="fil0" x="7068" y="276" width="213" height="164"/>
    <rect class="fil1" x="6419" y="449" width="861" height="136"/>
    <rect class="fil0" x="6419" y="281" width="178" height="154"/>
    <rect class="fil2" x="6419" y="556" width="861.188" height="79.9627"/>
    <rect class="fil3" x="6492" width="712" height="319"/>
    <rect class="fil4" x="6632" y="80" width="436" height="325"/>
    <rect class="fil5" x="6572" y="80" width="78.7938" height="354.857"/>
    <rect class="fil6" x="7049" y="80" width="78.7938" height="359.855"/>
    <rect class="fil3" x="6419" y="160" width="95.158" height="159.588"/>
    <rect class="fil3" x="7185" y="160" width="95.158" height="159.588"/>
    <rect class="fil4" x="6419" y="396" width="861.188" height="79.9627"/>
    <rect class="fil5" x="6832" y="476" width="76.5235" height="79.9627"/>
    <rect class="fil5" x="6436" y="556" width="76.5235" height="77.3028"/>
    <rect class="fil5" x="6674" y="556" width="76.5235" height="77.3028"/>
    <rect class="fil5" x="6832" y="556" width="76.5235" height="77.3028"/>
    <rect class="fil5" x="6991" y="556" width="76.5235" height="77.3028"/>
    <rect class="fil5" x="7150" y="556" width="76.5235" height="77.3028"/>
   </g>
   <g>
    <rect class="fil3" x="7280" width="474" height="636"/>
    <rect class="fil4" x="7280" y="396" width="394.112" height="79.9627"/>
    <rect class="fil7" x="7437" y="80" width="238" height="317"/>
    <rect class="fil5" x="7357" y="80" width="79.2959" height="316.659"/>
    <rect class="fil1" x="7280" y="476" width="394.112" height="79.9627"/>
    <rect class="fil2" x="7280" y="556" width="394.112" height="79.9627"/>
    <rect class="fil5" x="7354" y="556" width="176.439" height="79.9627"/>
    <rect class="fil2" x="7280" y="319" width="76.9132" height="77.3028"/>
   </g>
  </g>
 </g>
</svg>
