<?xml version="1.0" encoding="UTF-8"?>
<!DOCTYPE svg PUBLIC "-//W3C//DTD SVG 1.1//EN" "http://www.w3.org/Graphics/SVG/1.1/DTD/svg11.dtd">
<!-- Creator: CorelDRAW X8 -->
<svg xmlns="http://www.w3.org/2000/svg" xml:space="preserve" width="52.1078mm" height="46.199mm" version="1.1" style="shape-rendering:geometricPrecision; text-rendering:geometricPrecision; image-rendering:optimizeQuality; fill-rule:evenodd; clip-rule:evenodd"
viewBox="0 0 5211 4620"
 xmlns:xlink="http://www.w3.org/1999/xlink">
 <defs>
  <style type="text/css">
   <![CDATA[
    .str0 {stroke:#312818;stroke-width:7.62}
    .fil5 {fill:#0036FF}
    .fil6 {fill:#004DFF}
    .fil7 {fill:#00D4FF}
    .fil10 {fill:#181410}
    .fil2 {fill:#292429}
    .fil8 {fill:#312818}
    .fil9 {fill:#423421}
    .fil3 {fill:#4A4531}
    .fil11 {fill:#736939}
    .fil4 {fill:#9FA09F}
    .fil1 {fill:#292429}
    .fil0 {fill:#5A4900}
   ]]>
  </style>
 </defs>
 <g id="Camada_x0020_1">
  <metadata id="CorelCorpID_0Corel-Layer"/>
  <g id="_803557384">
   <g>
    <polygon class="fil0" points="2073,3352 2196,3352 2196,3297 2458,3297 2458,3352 2580,3352 2580,3407 2580,3467 2580,3478 2588,3478 2588,4023 2511,4023 2511,4079 2460,4079 2460,4187 2395,4187 2395,4255 2365,4255 2365,4294 2292,4294 2292,4341 2243,4341 2243,4409 2168,4409 2168,4476 2119,4476 2119,4520 2006,4520 2006,4578 1933,4578 1933,4620 1635,4620 1635,4550 1686,4550 1686,4496 1800,4496 1800,4443 1862,4443 1862,4377 1958,4377 1958,4328 2022,4328 2022,4255 2062,4255 2062,4217 2144,4217 2144,4144 2192,4144 2192,4020 2255,4020 2255,3927 2291,3927 2291,3790 2269,3790 2269,3618 2241,3613 2213,3577 2213,3528 2130,3528 2130,3467 2073,3467 "/>
    <polygon class="fil1" points="2497,3269 2158,3269 2158,3324 1990,3324 1990,3385 2043,3385 2043,3495 2099,3495 2099,3550 2156,3550 2156,3605 2213,3605 2213,4005 2156,4005 2156,4117 2100,4117 2100,4172 2044,4172 2044,4228 1988,4228 1988,4285 1932,4285 1932,4340 1818,4340 1818,4399 1762,4399 1762,4454 1648,4454 1648,4509 1592,4509 1592,4565 1536,4565 1536,4620 1648,4620 1648,4565 1704,4565 1704,4509 1818,4509 1818,4454 1873,4454 1873,4399 1988,4399 1988,4340 2044,4340 2044,4285 2100,4285 2100,4228 2156,4228 2156,4172 2212,4172 2212,4117 2213,4117 2213,4061 2269,4061 2269,3946 2326,3946 2326,3605 2269,3605 2269,3549 2213,3549 2213,3495 2156,3495 2156,3440 2099,3440 2099,3385 2214,3385 2214,3324 2441,3324 2441,3379 2553,3379 2553,4002 2497,4002 2497,4058 2440,4058 2440,4171 2384,4171 2384,4227 2327,4227 2327,4283 2270,4283 2270,4341 2214,4341 2214,4397 2157,4397 2157,4453 2100,4453 2100,4509 1989,4509 1989,4565 1933,4565 1933,4620 2045,4620 2045,4565 2100,4565 2100,4565 2157,4565 2157,4509 2214,4509 2214,4453 2270,4453 2270,4398 2327,4398 2327,4339 2384,4339 2384,4283 2440,4283 2440,4226 2497,4226 2497,4114 2553,4114 2553,4058 2610,4058 2610,3379 2610,3324 2497,3324 "/>
   </g>
   <g>
    <polygon class="fil0" points="3138,3352 3015,3352 3015,3297 2753,3297 2753,3352 2631,3352 2631,3407 2631,3467 2631,3478 2622,3478 2622,4023 2700,4023 2700,4079 2750,4079 2750,4187 2815,4187 2815,4255 2846,4255 2846,4294 2919,4294 2919,4341 2967,4341 2967,4409 3042,4409 3042,4476 3092,4476 3092,4520 3205,4520 3205,4578 3278,4578 3278,4620 3576,4620 3576,4550 3524,4550 3524,4496 3411,4496 3411,4443 3349,4443 3349,4377 3253,4377 3253,4328 3189,4328 3189,4255 3149,4255 3149,4217 3067,4217 3067,4144 3018,4144 3018,4020 2956,4020 2956,3927 2920,3927 2920,3790 2942,3790 2942,3618 2970,3613 2998,3577 2998,3528 3081,3528 3081,3467 3138,3467 "/>
    <polygon class="fil1" points="2714,3269 3053,3269 3053,3324 3221,3324 3221,3385 3168,3385 3168,3495 3111,3495 3111,3550 3055,3550 3055,3605 2998,3605 2998,4005 3055,4005 3055,4117 3111,4117 3111,4172 3167,4172 3167,4228 3223,4228 3223,4285 3279,4285 3279,4340 3393,4340 3393,4399 3449,4399 3449,4454 3563,4454 3563,4509 3619,4509 3619,4565 3674,4565 3674,4620 3563,4620 3563,4565 3507,4565 3507,4509 3393,4509 3393,4454 3337,4454 3337,4399 3223,4399 3223,4340 3167,4340 3167,4285 3111,4285 3111,4228 3055,4228 3055,4172 2999,4172 2999,4117 2998,4117 2998,4061 2942,4061 2942,3946 2885,3946 2885,3605 2942,3605 2942,3549 2998,3549 2998,3495 3055,3495 3055,3440 3111,3440 3111,3385 2997,3385 2997,3324 2770,3324 2770,3379 2657,3379 2657,4002 2714,4002 2714,4058 2771,4058 2771,4171 2827,4171 2827,4227 2884,4227 2884,4283 2940,4283 2940,4341 2997,4341 2997,4397 3054,4397 3054,4453 3110,4453 3110,4509 3222,4509 3222,4565 3278,4565 3278,4620 3166,4620 3166,4565 3110,4565 3110,4565 3054,4565 3054,4509 2997,4509 2997,4453 2940,4453 2940,4397 2884,4397 2884,4339 2827,4339 2827,4283 2771,4283 2771,4226 2714,4226 2714,4114 2657,4114 2657,4058 2601,4058 2601,3379 2601,3324 2714,3324 "/>
   </g>
  </g>
  <g id="_803548720">
   <polygon class="fil2" points="1180,0 4031,0 4031,147 4223,147 4223,3082 988,3082 988,147 1180,147 "/>
   <rect class="fil3" x="1274" y="228" width="2662" height="2051"/>
   <rect class="fil3" x="1099" y="363" width="3011" height="1815"/>
   <polygon class="fil3 str0" points="3822,3114 2839,3114 2839,3455 3817,3455 3817,3579 3870,3579 3870,3622 3985,3622 3985,3687 4151,3687 4151,3769 4317,3769 4317,3850 4338,3850 4338,3931 4810,3931 4810,3894 4887,3894 4887,3769 4971,3769 4971,3700 5051,3700 5051,3622 5131,3622 5131,3350 5131,3291 5131,3256 5051,3256 5051,3197 4887,3197 4887,3114 4566,3114 4566,3197 4555,3197 4555,3256 4479,3256 4479,3291 4068,3291 4068,3278 3822,3278 "/>
   <polygon class="fil3 str0" points="1389,3114 2372,3114 2372,3455 1394,3455 1394,3579 1341,3579 1341,3622 1226,3622 1226,3687 1060,3687 1060,3769 894,3769 894,3850 873,3850 873,3931 401,3931 401,3894 324,3894 324,3769 240,3769 240,3700 160,3700 160,3622 80,3622 80,3350 80,3291 80,3256 160,3256 160,3197 324,3197 324,3114 645,3114 645,3197 656,3197 656,3256 731,3256 731,3291 1143,3291 1143,3278 1389,3278 "/>
   <g>
    <polygon class="fil2" points="324,3032 571,3032 571,3114 651,3114 651,3196 731,3196 731,3278 1064,3278 1064,3196 1226,3196 1226,3114 1226,3032 2595,3032 2616,3032 3984,3032 3984,3114 3984,3196 4146,3196 4146,3278 4479,3278 4479,3196 4560,3196 4560,3114 4640,3114 4640,3032 4887,3032 4887,3105 5051,3105 5051,3197 5131,3197 5131,3279 5211,3279 5211,3524 5131,3524 5131,3687 5051,3687 5051,3769 4970,3769 4970,3850 4890,3850 4890,3931 4810,3931 4810,4013 4397,4013 4397,3931 4317,3931 4317,3850 4151,3850 4151,3769 3985,3769 3985,3687 3819,3687 3819,3606 3661,3606 3661,3524 2837,3524 2837,3443 2837,3361 3576,3361 3576,3443 3819,3443 3819,3524 3902,3524 3902,3606 3985,3606 3985,3687 4151,3687 4151,3769 4317,3769 4317,3850 4397,3850 4397,3931 4810,3931 4810,3850 4890,3850 4890,3769 4970,3769 4970,3687 5051,3687 5051,3524 5131,3524 5131,3279 5051,3279 5051,3197 4887,3197 4887,3114 4640,3114 4640,3196 4560,3196 4560,3278 4479,3278 4479,3360 4068,3360 4068,3278 3822,3278 3822,3196 3822,3196 3822,3114 2839,3114 2839,3195 2839,3276 2839,3358 2753,3358 2753,3276 2753,3195 2616,3195 2595,3195 2458,3195 2458,3276 2458,3358 2372,3358 2372,3276 2372,3195 2372,3114 1389,3114 1389,3196 1389,3196 1389,3278 1143,3278 1143,3360 731,3360 731,3278 651,3278 651,3196 571,3196 571,3114 324,3114 324,3197 160,3197 160,3279 80,3279 80,3524 160,3524 160,3687 240,3687 240,3769 320,3769 320,3850 401,3850 401,3931 814,3931 814,3850 894,3850 894,3769 1060,3769 1060,3687 1226,3687 1226,3606 1309,3606 1309,3524 1392,3524 1392,3443 1634,3443 1634,3361 2373,3361 2373,3443 2373,3524 1550,3524 1550,3606 1392,3606 1392,3687 1226,3687 1226,3769 1060,3769 1060,3850 894,3850 894,3931 814,3931 814,4013 401,4013 401,3931 320,3931 320,3850 240,3850 240,3769 160,3769 160,3687 80,3687 80,3524 0,3524 0,3279 80,3279 80,3197 160,3197 160,3105 324,3105 "/>
    <polygon class="fil4" points="2550,3643 2667,3643 2667,3585 2727,3585 2727,3525 2785,3525 2785,3173 2432,3173 2432,3525 2492,3525 2492,3585 2550,3585 "/>
    <path class="fil2" d="M2668 3644l0 59 -118 0 0 -59 -58 0 0 -59 234 0 0 59 -58 0zm-296 -530l471 0 0 411 -59 0 0 60 -352 0 0 -60 -60 0 0 -411z"/>
    <polygon class="fil4" points="2550,3643 2667,3643 2667,3585 2727,3585 2727,3525 2785,3525 2785,3173 2432,3173 2432,3525 2492,3525 2492,3585 2550,3585 "/>
    <rect class="fil2" x="2491" y="3232" width="234" height="235"/>
    <g>
     <rect class="fil5" x="2550" y="3290" width="59.4858" height="58.9687"/>
     <rect class="fil6" x="2610" y="3290" width="59.4858" height="58.9687"/>
     <rect class="fil7" x="2550" y="3349" width="59.4858" height="58.9687"/>
     <rect class="fil5" x="2610" y="3349" width="59.4858" height="58.9687"/>
    </g>
   </g>
   <rect class="fil8" x="1489" y="584" width="2225" height="1339"/>
   <rect class="fil9" x="1635" y="727" width="1921" height="1064"/>
   <rect class="fil3" x="1767" y="854" width="1662" height="773"/>
   <rect class="fil10" x="3556" y="584" width="159" height="143"/>
   <rect class="fil10" x="1489" y="584" width="146" height="143"/>
   <g>
    <rect class="fil10" x="3556" y="986" width="159" height="143"/>
    <rect class="fil8" x="3715" y="1417" width="111.78" height="84.01"/>
    <rect class="fil11" x="3715" y="1501" width="112" height="155"/>
    <rect class="fil10" x="3715" y="845" width="126" height="141"/>
    <rect class="fil8" x="3841" y="845" width="107" height="141"/>
   </g>
   <rect class="fil10" x="1489" y="986" width="146" height="143"/>
   <rect class="fil8" x="1378" y="1417" width="111.78" height="84.01"/>
   <rect class="fil11" x="1378" y="1501" width="112" height="155"/>
   <rect class="fil10" x="1363" y="845" width="126" height="141"/>
   <rect class="fil8" x="1256" y="845" width="107" height="141"/>
   <rect class="fil8" x="1099" y="2178" width="175" height="101"/>
   <rect class="fil8" x="3936" y="2178" width="175" height="101"/>
   <rect class="fil10" x="2279" y="2279" width="648" height="153"/>
   <rect class="fil8" x="1274" y="2279" width="1006" height="153"/>
   <rect class="fil8" x="2928" y="2279" width="1008" height="153"/>
   <rect class="fil10" x="1099" y="2279" width="175" height="153"/>
   <rect class="fil10" x="3936" y="2279" width="175" height="153"/>
   <rect class="fil11" x="1274" y="47" width="1153" height="181"/>
   <rect class="fil11" x="1099" y="220" width="175" height="143"/>
   <rect class="fil11" x="2784" y="47" width="1153" height="181"/>
   <rect class="fil11" x="3936" y="220" width="175" height="143"/>
   <rect class="fil11" x="2569" y="47" width="74.08" height="180.59"/>
   <rect class="fil8" x="1114" y="2601" width="2977" height="378"/>
  </g>
 </g>
</svg>
