<?xml version="1.0" standalone="no"?>
<!DOCTYPE svg PUBLIC "-//W3C//DTD SVG 1.1//EN" "http://www.w3.org/Graphics/SVG/1.1/DTD/svg11.dtd" >
<svg xmlns="http://www.w3.org/2000/svg">
<metadata></metadata>
<defs>
<font id="freightsans_pro_bookregular" horiz-adv-x="1595" >
<font-face units-per-em="2048" ascent="1638" descent="-410" />
<missing-glyph horiz-adv-x="512" />
<glyph horiz-adv-x="0" />
<glyph horiz-adv-x="0" />
<glyph unicode="&#xd;" horiz-adv-x="0" />
<glyph unicode=" "  horiz-adv-x="512" />
<glyph unicode="&#x09;" horiz-adv-x="512" />
<glyph unicode="&#xa0;" horiz-adv-x="512" />
<glyph unicode="!" horiz-adv-x="585" d="M180 87q0 46 32 80t82 34t81 -34t31 -80t-31 -81t-81 -35t-83 35q-31 35 -31 81zM209 1462h168l-41 -1044h-80z" />
<glyph unicode="&#x22;" horiz-adv-x="681" d="M-6 895l285 557l135 -63l-346 -494h-74zM326 895l285 557l135 -63l-346 -494h-74z" />
<glyph unicode="#" horiz-adv-x="1265" d="M43 373v104h231l97 354h-283v105h309l135 508h111l-137 -508h387l135 508h109l-136 -508h203v-105h-233l-94 -354h282v-104h-311l-143 -539h-109l143 539h-383l-147 -539h-109l148 539h-205zM383 477h387l94 354h-387z" />
<glyph unicode="$" horiz-adv-x="1103" d="M76 100l53 129q137 -92 285 -120q51 391 75 557q-184 57 -251.5 112.5t-100.5 119t-33 151.5t33 158.5t92 119.5q127 109 322 109h27q12 0 24 -2q6 39 7 61.5t6.5 55t13.5 91.5h98l-31 -221q154 -29 279 -108l-53 -125q-111 78 -242 102l-70 -512q182 -55 271 -131 q121 -106 120 -272q0 -176 -133 -289q-133 -115 -342 -115h-32l-35 -247h-97l33 258q-168 25 -319 118zM244 1063q0 -98 71 -158q63 -53 203 -100l33 250q14 111 35 250h-35q-152 0 -232 -72q-76 -68 -75 -170zM508 98h22q145 0 240 78q94 76 94 186.5t-73.5 170 t-210.5 104.5z" />
<glyph unicode="%" horiz-adv-x="1671" d="M33 1083q0 156 102 265q102 113 273 112q170 0 272 -112q100 -106 100 -265q0 -154 -100 -260q-102 -110 -272 -110t-273 110q-102 109 -102 260zM137 1083q0 -113 74 -193.5t197 -80.5q121 0 198 84q74 76 74 190q0 119 -74 199q-74 82 -198 82q-125 0 -199 -82 q-72 -80 -72 -199zM205 -33l1141 1471h120l-1138 -1471h-123zM889 317.5q0 155.5 101.5 264t271.5 108.5q166 0 272 -110q100 -104 100 -261q0 -160 -100 -264q-106 -111 -272 -110q-170 0 -271.5 108.5t-101.5 264zM991 317q0 -57 18.5 -107t53.5 -87q74 -82 199 -82 q127 0 200 82q72 78 72 196q0 113 -72 193q-76 82 -200 82q-123 0 -199 -82q-72 -80 -72 -195z" />
<glyph unicode="&#x26;" horiz-adv-x="1402" d="M68 356q0 209 211 332q63 37 137 62q-238 121 -238 329q0 139 109 244q115 111 288 111q164 0 269 -99q98 -96 98 -224t-78 -215t-205 -138q164 -82 330 -279l240 377h166l-338 -453l319 -395l-137 -39l-262 334q-98 -147 -223 -239.5t-273 -92.5q-186 0 -305 115 q-109 109 -108 270zM209 362q0 -53 19.5 -101t58.5 -85q84 -82 205 -82q223 0 421 287q-202 243 -409 321q-295 -137 -295 -340zM322 1081.5q0 -100.5 67 -167t176 -113.5q240 102 240 289q0 96 -68 155q-72 66 -172 66q-109 0 -180 -68q-63 -61 -63 -161.5z" />
<glyph unicode="'" horiz-adv-x="366" d="M-6 895l285 557l135 -63l-346 -494h-74z" />
<glyph unicode="*" horiz-adv-x="761" d="M29 907l301 160v10l-297 162l86 119l243 -242l9 2l63 332l139 -45l-155 -303l8 -6l326 47v-146l-326 47l-8 -8l151 -305l-137 -43l-63 336l-7 2l-243 -240z" />
<glyph unicode="," horiz-adv-x="419" d="M25 -293q199 145 198 268q0 43 -32.5 72t-106.5 57q4 41 35 75t74 34t71.5 -13.5t50.5 -35.5q49 -49 49.5 -116.5t-22.5 -121t-59 -102.5q-78 -100 -197 -176z" />
<glyph unicode="-" horiz-adv-x="657" d="M76 481v131h510v-131h-510z" />
<glyph unicode="." horiz-adv-x="419" d="M98 87q0 46 32 80t81 34t81 -34t32 -80t-32 -81t-81 -35t-82 35q-31 35 -31 81z" />
<glyph unicode="/" horiz-adv-x="464" d="M-117 -449l547 2028h113l-549 -2028h-111z" />
<glyph unicode="0" horiz-adv-x="1300" d="M109 530q0 244 153 404q150 158 385.5 158t388.5 -158q156 -158 156 -404q0 -244 -156 -403q-154 -156 -388 -156t-386 156q-154 162 -153 403zM248 531.5q0 -181.5 111.5 -304.5t287.5 -123q178 0 293 123q113 121 113 303q0 184 -113 306q-115 123 -293 122 q-176 0 -287.5 -122.5t-111.5 -304z" />
<glyph unicode="1" horiz-adv-x="733" d="M96 942l406 150v-1092h-137v913l-261 -98z" />
<glyph unicode="2" horiz-adv-x="989" d="M106 0v129l252 190q236 176 314 297q41 66 41 145t-62.5 139.5t-173.5 60.5q-158 0 -319 -132l-49 119q176 143 380 144q166 0 269 -91q102 -90 102 -235q0 -162 -164 -322q-76 -74 -176 -149l-217 -162h608v-133h-805z" />
<glyph unicode="3" horiz-adv-x="942" d="M43 942q76 61 179.5 105.5t208 44.5t179 -26t127.5 -71q109 -98 109 -250q0 -125 -92 -227q-80 -90 -217 -143q168 -12 266 -117q94 -102 94 -240q0 -193 -143 -317q-137 -117 -346 -117q-98 0 -197.5 23.5t-165.5 64.5l37 127q145 -88 312 -88t262.5 78t95.5 212 t-89.5 202.5t-209 70.5t-222.5 -18v115q465 115 465 356q0 113 -72.5 173.5t-195.5 60.5q-166 0 -334 -136z" />
<glyph unicode="4" horiz-adv-x="1126" d="M33 131l723 967h121v-932h215l6 -133h-221v-447h-136v447h-690zM213 166h528v708z" />
<glyph unicode="5" horiz-adv-x="942" d="M43 -324l27 138q176 -96 338 -97q150 0 243 90q100 96 101 248q0 133 -93 221q-94 92 -247 93q-127 0 -182.5 -16.5t-86.5 -26.5l-47 45l90 692h668l8 -133h-561l-65 -463q90 23 193 22.5t189.5 -32t147.5 -88.5q127 -115 127 -306q0 -211 -143 -346q-139 -133 -347 -133 q-98 0 -195 27t-165 65z" />
<glyph unicode="6" horiz-adv-x="1130" d="M98 535q0 303 193 542q213 270 590 359l41 -131q-283 -68 -453 -231t-219 -378l4 -2q168 158 379 158q168 0 282 -107q123 -117 123 -311q0 -203 -125 -332q-127 -131 -335 -131q-221 0 -355 164q-125 158 -125 400zM246 506q0 -168 88 -285q94 -123 244.5 -123 t234.5 92.5t84 237.5q0 137 -84 221q-80 80 -197 80q-205 0 -364 -149q-6 -35 -6 -74z" />
<glyph unicode="7" horiz-adv-x="987" d="M41 926l6 137h889v-111l-637 -1366h-141l626 1340h-743z" />
<glyph unicode="8" horiz-adv-x="1101" d="M100 344q0 133 105 240q76 78 192 121q-129 57 -179 110t-72.5 102.5t-22.5 125t31.5 146.5t89.5 122q121 109 315.5 108.5t308.5 -104.5q111 -104 111 -266q0 -123 -88 -222q-72 -82 -176 -127q141 -70 190 -120q96 -100 96 -218q0 -166 -112 -272q-125 -119 -342 -119 t-336 111q-111 102 -111 262zM244 362q0 -123 82 -195.5t232.5 -72.5t226 68.5t75.5 179.5q0 154 -223 256q-63 31 -131 59q-180 -61 -240 -194q-22 -46 -22 -101zM266.5 1048.5q0.5 -104.5 104.5 -182.5q74 -49 239 -116q94 39 161 107.5t67 172.5q0 117 -80 195 q-80 74 -203 73q-135 0 -215 -75q-74 -70 -73.5 -174.5z" />
<glyph unicode="9" horiz-adv-x="1130" d="M92 627q0 203 125 331q129 133 338 134q221 0 354 -166q123 -158 123 -400q0 -303 -190 -542q-213 -272 -592 -357l-41 129q285 68 455 231t217 378l-4 2q-168 -158 -377 -158q-168 0 -283 108q-125 117 -125 310zM233 635q0 -139 84 -223q86 -78 201 -78q203 0 361 147 q8 33 8 94.5t-22.5 136t-65.5 130.5q-94 121 -250 121q-141 0 -230 -93q-86 -90 -86 -235z" />
<glyph unicode=":" horiz-adv-x="419" d="M98 87q0 46 32 80t81 34t81 -34t32 -80t-32 -81t-81 -35t-82 35q-31 35 -31 81zM98 802q0 46 32 80t81 34t81 -34t32 -80t-32 -81t-81 -35t-82 35q-31 35 -31 81z" />
<glyph unicode=";" horiz-adv-x="419" d="M25 -293q199 145 198 268q0 43 -32.5 72t-106.5 57q4 41 35 75t74 34t71.5 -13.5t50.5 -35.5q49 -49 49.5 -116.5t-22.5 -121t-59 -102.5q-78 -100 -197 -176zM98 804q0 46 32 80t81 34t81 -34t32 -80t-32 -81t-81 -35t-82 35q-31 35 -31 81z" />
<glyph unicode="?" horiz-adv-x="784" d="M117 1280v129q76 20 167 20.5t167.5 -31.5t130.5 -83q113 -104 112 -252q0 -182 -149 -260q-43 -23 -105.5 -49.5t-109.5 -58t-47 -86t37.5 -100.5t97.5 -91l-74 -27q-174 109 -174 236q0 125 133 196q41 23 83 40.5t77 34.5t61 40q55 47 55.5 108.5t-20 104.5t-59.5 78 q-84 72 -228 71q-68 0 -155 -20zM219 87q0 46 32 80t81 34t80.5 -34t31.5 -80t-31.5 -81t-80.5 -35t-82 35q-31 35 -31 81z" />
<glyph unicode="@" horiz-adv-x="1869" d="M96.5 549q-0.5 176 67 337t184.5 281.5t274.5 190t330.5 69.5t321.5 -51t261.5 -147t179.5 -233.5t66.5 -293t-36 -263t-95 -181.5q-121 -150 -293 -149q-94 0 -159.5 47t-94.5 118q-123 -150 -275 -149q-143 0 -231 108q-90 104 -90 263q0 211 139 364q141 154 332 154 q115 0 221 -68l131 60l-110 -541q-10 -47 -10.5 -98.5t26.5 -92.5q39 -68 137 -67q133 0 223 121q98 137 99 360q0 152 -61.5 274.5t-164 210t-234.5 134.5t-284.5 47t-295 -65.5t-248 -176.5t-166 -257t-60.5 -305t52.5 -295t147.5 -237.5t226 -160t273.5 -58.5t292.5 45 l20 -73q-154 -47 -314.5 -47t-306.5 63q-297 129 -417 434q-59 152 -59.5 328zM635 483.5q0 -98.5 62.5 -175.5t171 -77t210.5 115l97 475q-35 37 -90.5 64.5t-123 27.5t-128 -34.5t-104.5 -92t-69.5 -131t-25.5 -172z" />
<glyph unicode="A" horiz-adv-x="1292" d="M33 0l534 1405h168l525 -1405h-146l-149 403h-637l-148 -403h-147zM377 532h538l-268 732z" />
<glyph unicode="B" horiz-adv-x="1236" d="M180 0v1397h438q362 0 451 -219q29 -68 29 -159t-65.5 -180t-205.5 -124q156 -29 236 -117t80 -211q0 -274 -279 -358q-94 -29 -227 -29h-457zM324 131h323q352 0 352 256q0 123 -99 185.5t-288 62.5h-288v-504zM324 766h278q160 0 256 64.5t96 183.5t-80.5 186.5 t-248.5 67.5h-301v-502z" />
<glyph unicode="C" horiz-adv-x="1318" d="M106 696q0 334 193 533q187 198 482 198h3q129 0 243 -33.5t192 -80.5l-45 -129q-180 112 -388 112h-4q-236 0 -381 -155q-149 -161 -149 -437q0 -280 145 -442q147 -162 378 -162t407 127l26 -141q-78 -51 -189.5 -83t-249.5 -32t-263 49q-254 102 -350 373 q-49 135 -50 303z" />
<glyph unicode="D" horiz-adv-x="1413" d="M180 0v1397h383q344 0 545 -189q199 -186 199 -499q0 -330 -199 -521q-197 -188 -557 -188h-371zM324 133h233q430 0 561 313q45 106 45 252q0 268 -159.5 418t-450.5 150h-229v-1133z" />
<glyph unicode="E" horiz-adv-x="1140" d="M180 0v1397h850v-131h-706v-500h589v-131h-589v-502h706v-133h-850z" />
<glyph unicode="F" horiz-adv-x="1077" d="M180 0v1397h828v-135h-684v-519h567v-133h-567v-610h-144z" />
<glyph unicode="G" horiz-adv-x="1404" d="M106 696q0 334 193 533q187 198 482 198h3q131 0 250 -34.5t197 -81.5l-47 -131q-180 116 -398 116h-4q-236 0 -381 -155q-149 -161 -149 -437q0 -280 145 -442q147 -162 389 -162q180 0 338 86v379h-407v131h547v-585q-104 -70 -231.5 -105t-264.5 -35t-262 49 q-254 102 -350 373q-49 135 -50 303z" />
<glyph unicode="H" horiz-adv-x="1470" d="M180 0v1397h144v-629h823v629h143v-1397h-143v637h-823v-637h-144z" />
<glyph unicode="I" horiz-adv-x="512" d="M184 0v1397h142v-1397h-142z" />
<glyph unicode="J" horiz-adv-x="931" d="M31 59l24 140q154 -98 291 -99q279 0 279 336v961h141v-965q0 -332 -234 -428q-78 -33 -180 -33q-182 0 -321 88z" />
<glyph unicode="K" horiz-adv-x="1208" d="M180 0v1397h144v-670h2l651 670h184l-696 -692l706 -705h-186l-659 668h-2v-668h-144z" />
<glyph unicode="L" horiz-adv-x="1075" d="M180 0v1397h144v-1262h694v-135h-838z" />
<glyph unicode="M" horiz-adv-x="1712" d="M145 0l48 1397h194l475 -1233l467 1233h191l45 -1397h-146l-22 1221l-461 -1213h-158l-465 1215l-24 -1223h-144z" />
<glyph unicode="N" horiz-adv-x="1462" d="M180 0v1397h162l799 -1196v1196h139v-1411h-156l-805 1210v-1196h-139z" />
<glyph unicode="O" d="M106 696q0 324 195 527q196 204 495 204h3q297 0 491 -198q92 -94 145.5 -228.5t53.5 -295.5q0 -319 -197 -529q-195 -205 -493.5 -205t-493.5 199q-199 207 -199 526zM252 702.5q0 -268.5 155.5 -436.5t393 -168t390 165t152.5 432.5t-152 435t-396 167.5 q-238 0 -389 -163q-154 -164 -154 -432.5z" />
<glyph unicode="P" horiz-adv-x="1167" d="M180 0v1397h352q272 0 414 -123q135 -115 135 -316q0 -225 -151 -348q-145 -117 -416 -121l-190 -2v-487h-144zM324 618l200 7q199 4 304.5 82.5t105.5 237.5t-103.5 240t-302.5 81h-204v-648z" />
<glyph unicode="Q" d="M106 696q0 324 195 527q196 204 495 204h3q297 0 491 -198q92 -94 145.5 -228.5t53.5 -275.5t-29.5 -246.5t-85.5 -191.5q-113 -180 -303 -258l461 -234l-64 -123l-575 308q-45 -8 -96 -9q-297 0 -492 199q-199 207 -199 526zM252 702.5q0 -268.5 155.5 -436.5t393 -168 t390 165t152.5 432.5t-152 435t-396 167.5q-238 0 -389 -163q-154 -164 -154 -432.5z" />
<glyph unicode="R" horiz-adv-x="1189" d="M180 0v1397h377q260 0 386 -109.5t126 -292.5q0 -150 -94 -256q-86 -94 -234 -139l389 -600h-165l-361 575l-280 -16v-559h-144zM324 686l251 10q233 6 320 168q29 53 29 123q0 139 -98.5 210t-282.5 71h-219v-582z" />
<glyph unicode="S" horiz-adv-x="1101" d="M82 100l51 129q197 -131 404 -131q145 0 241 76q92 74 92 188q0 162 -206 244q-68 25 -146 47.5t-150.5 51t-129.5 73.5q-131 100 -132 269q0 166 127 274q123 106 322 106q238 0 424 -122l-53 -125q-169 116 -366 116h-3q-152 0 -233 -71q-78 -66 -78 -168 q0 -147 209 -230q66 -25 143.5 -48t151 -54t131.5 -78q127 -100 127 -274q0 -172 -131 -287t-345 -115q-242 0 -450 129z" />
<glyph unicode="T" horiz-adv-x="1236" d="M51 1262v135h1135v-135h-496v-1262h-143v1262h-496z" />
<glyph unicode="U" horiz-adv-x="1384" d="M164 514v883h139v-865q0 -201 98.5 -314.5t291 -113.5t290.5 110t98 321v862h142v-860q0 -266 -136 -414q-139 -152 -391 -152q-1 1 -2 1q-254 0 -395 145q-135 147 -135 397z" />
<glyph unicode="V" horiz-adv-x="1249" d="M23 1397h145l457 -1250l454 1250h148l-520 -1397h-170z" />
<glyph unicode="W" horiz-adv-x="2013" d="M92 1397h150l327 -1192l357 1192h172l364 -1192l316 1192h143l-393 -1397h-139l-379 1229l-381 -1229h-135z" />
<glyph unicode="X" horiz-adv-x="1263" d="M29 0l516 711l-490 686h172l406 -582l405 582h170l-493 -678l518 -719h-176l-430 618l-428 -618h-170z" />
<glyph unicode="Y" horiz-adv-x="1177" d="M27 1397h161l406 -699l397 699h160l-489 -840v-557h-144v557z" />
<glyph unicode="Z" horiz-adv-x="1146" d="M53 0v106l836 1162h-811v129h991v-107l-836 -1159h834v-131h-1014z" />
<glyph unicode="`" horiz-adv-x="890" d="M160 1567h180l264 -402h-102z" />
<glyph unicode="a" horiz-adv-x="987" d="M74 256q0 332 626 367v61q0 123 -57 184.5t-186 61.5q-123 0 -264 -78q-41 -23 -74 -47l-31 131q115 82 279 113q53 10 104 10q179 0 275 -86q95 -84 94 -275v-8v-493q0 -57 16 -81t76 -24h10l-8 -115h-29q-172 0 -196 146h-7q-53 -63 -131.5 -107.5t-160.5 -44.5 q-231 0 -312 172q-25 51 -24 113zM221 272q0 -84 59.5 -132t151.5 -48q150 0 268 135v301q-385 -47 -454 -163q-25 -41 -25 -93z" />
<glyph unicode="b" horiz-adv-x="1148" d="M162 -33v1549l139 28v-622q141 131 311 131q203 0 326 -148q123 -141 123 -377q0 -244 -143 -399q-146 -158 -373 -158q-119 0 -244 56zM301 178q104 -82 258 -82q162 0 262 121q96 115 97 305q0 178 -91 289q-90 113 -246.5 113t-279.5 -115v-631z" />
<glyph unicode="c" horiz-adv-x="1013" d="M94 512q0 240 144 393q141 154 362 154q186 0 322 -88l-35 -125q-129 84 -287 84q-166 0 -264 -114t-98 -298q0 -186 102 -303q98 -115 258 -115t291 86l29 -127q-141 -88 -320 -88q-227 0 -369 150q-135 147 -135 391z" />
<glyph unicode="d" horiz-adv-x="1155" d="M94 506q0 242 144 393q145 154 366 154q125 0 250 -56v519l139 28v-1544h-139v96q-135 -125 -299 -125q-205 0 -336 150q-125 152 -125 385zM238 508q0 -90 23.5 -165t68.5 -130q96 -115 250.5 -115t273.5 115v635q-100 78 -256 78q-166 0 -263 -117t-97 -301z" />
<glyph unicode="e" horiz-adv-x="1056" d="M94 506q0 240 139 397q135 156 347 156q172 0 274 -102.5t102 -276.5q0 -90 -22 -166l-698 -4v-10q4 -176 102 -287q100 -113 263 -113t294 86l27 -127q-141 -88 -330 -88q-219 0 -361 150q-137 150 -137 385zM246 621l571 2q2 10 2 24v21q0 119 -62.5 192.5t-185.5 73.5 q-201 0 -290 -193q-27 -57 -35 -120z" />
<glyph unicode="f" horiz-adv-x="669" d="M25 909l8 88l155 35l2 162q8 371 312 371q92 0 188 -45q-20 -82 -26 -103l-7 -22q-92 43 -168 43q-162 0 -161 -242v-170h323l-6 -125h-317v-901h-138v897z" />
<glyph unicode="g" horiz-adv-x="1052" d="M18 -256q0 88 62 158q61 70 162 96q-66 23 -104 65.5t-38 103t49.5 112t120.5 79.5q-76 45 -121 126t-45 175.5t29 165t82 121.5q115 113 293 113q131 0 244 -60l284 23l8 -141l-227 22q37 -37 59.5 -102.5t22.5 -138t-29.5 -141t-83.5 -120.5q-117 -106 -286 -106 q-76 0 -154 29q-41 -16 -78 -48t-37 -66t10.5 -53.5t37.5 -33.5q53 -29 186 -29h133q428 0 428 -270q0 -166 -162 -275q-158 -106 -381 -106q-209 0 -336 82q-129 84 -129 219zM154 -231q0 -92 92 -151.5t258 -59.5q160 0 274 69q113 68 113 166t-80 134t-221 36t-228 8 q-94 -27 -151 -82t-57 -120zM241 673q0 -115 70 -190q70 -76 190 -76q1 0 2 1q122 0 190.5 75.5t68.5 192.5t-66.5 192.5t-191.5 75.5t-194 -76q-69 -78 -69 -195z" />
<glyph unicode="h" horiz-adv-x="1136" d="M162 0v1516l139 28v-649q82 82 177 123t181 41q152 0 237 -91t85 -261v-707h-139v666q0 135 -54 197.5t-167 62.5q-174 0 -320 -146v-780h-139z" />
<glyph unicode="i" horiz-adv-x="471" d="M145 1369q0 40 24.5 70t72.5 30q47 0 70.5 -30t23.5 -70t-23.5 -70.5t-70.5 -30.5t-72 30.5t-25 70.5zM168 0v1018l139 31v-1049h-139z" />
<glyph unicode="j" horiz-adv-x="464" d="M-33 -463q113 57 154 141q43 86 43 250v1102l139 29v-1131q0 -291 -131 -411q-45 -43 -111 -80zM145 1369q0 40 24.5 70t72.5 30q47 0 70.5 -30t23.5 -70t-23.5 -70.5t-70.5 -30.5t-72 30.5t-25 70.5z" />
<glyph unicode="k" horiz-adv-x="976" d="M162 0v1516l139 28v-989h4l465 475h174l-493 -489l495 -541h-176l-465 512h-4v-512h-139z" />
<glyph unicode="l" horiz-adv-x="462" d="M162 0v1516l139 28v-1544h-139z" />
<glyph unicode="m" horiz-adv-x="1742" d="M162 0v1030l139 29v-141q158 141 326 141q203 0 280 -170q170 170 363 170q147 0 232 -91t85 -263v-705h-139v664q0 135 -53.5 198.5t-149.5 63.5q-164 0 -305 -131q4 -20 4 -93v-702h-139v664q0 135 -53 198.5t-164 63.5q-154 0 -287 -119v-807h-139z" />
<glyph unicode="n" horiz-adv-x="1136" d="M162 0v1030l139 29v-168q82 82 176 125t174 43q158 0 244 -91t86 -261v-707h-139v666q0 135 -55.5 197.5t-172.5 62.5q-168 0 -313 -146v-780h-139z" />
<glyph unicode="o" horiz-adv-x="1193" d="M94 512q0 244 148 397q141 150 360 150q221 0 356 -146q139 -152 140 -395q0 -244 -148 -397q-141 -150 -358 -150l-1 1q-218 0 -355 145q-141 154 -142 395zM233 514q-1 -185 101 -301q102 -117 264 -117t262 117q100 115 101 299q0 186 -101 305q-100 117 -264 117 q-162 0 -264 -117q-99 -116 -99 -303z" />
<glyph unicode="p" horiz-adv-x="1159" d="M162 -524v1558l139 29v-137q137 127 299 127q207 0 334 -152q127 -145 127 -381q0 -240 -143.5 -394.5t-374.5 -154.5q-121 0 -242 54v-549h-139zM301 178q104 -82 258 -82q162 0 262 121q96 115 97 301q0 180 -91 293q-93 113 -249 113q-154 0 -277 -115v-631z" />
<glyph unicode="q" horiz-adv-x="1155" d="M94 506q0 242 144 393q145 154 366 154q150 0 273 -60l116 66v-1583h-139v620q-135 -125 -299 -125q-205 0 -336 150q-125 152 -125 385zM238 508q0 -90 23.5 -165t68.5 -130q94 -117 248.5 -117t275.5 117v635q-104 82 -256 82q-166 0 -262 -119q-98 -121 -98 -303z" />
<glyph unicode="r" horiz-adv-x="800" d="M162 0v1030l139 29v-219q115 219 303 219q100 0 180 -47l-34 -131q-72 45 -158 45q-174 0 -291 -264v-662h-139z" />
<glyph unicode="s" horiz-adv-x="870" d="M74 63l39 127q143 -94 303 -94q156 0 213 101q18 31 18 74.5t-22.5 75.5t-58.5 54.5t-83 36.5l-94 33q-129 35 -187.5 81t-85 94t-26.5 116.5t27.5 124t75.5 92.5q98 80 245 80q170 0 314 -76l-41 -127q-147 78 -262 78t-170.5 -42t-55.5 -116q0 -80 76 -125 q55 -35 144 -60.5t143.5 -47t97.5 -56.5q96 -78 96 -206q0 -137 -106 -226q-100 -84 -262 -84q-197 0 -338 92z" />
<glyph unicode="t" horiz-adv-x="739" d="M27 909l6 88l155 35l9 234h131l-6 -240h344l-7 -125h-342l-16 -616v-15q0 -178 152 -178q84 0 196 49l25 -121q-111 -53 -244 -53q-262 0 -262 305v19l16 608z" />
<glyph unicode="u" horiz-adv-x="1132" d="M154 324v706h139v-665q0 -135 54 -198t167 -63q180 0 317 146v780h140v-1030l-140 -29v166q-78 -82 -173 -124t-181 -42q-152 0 -237.5 91.5t-85.5 261.5z" />
<glyph unicode="v" horiz-adv-x="954" d="M6 1030h152l325 -850l316 850h145l-403 -1032h-127z" />
<glyph unicode="w" horiz-adv-x="1488" d="M33 1030h149l238 -821l268 819h127l281 -823l213 825h153l-307 -1034h-123l-280 831l-281 -831h-123z" />
<glyph unicode="x" horiz-adv-x="886" d="M8 0l357 528l-334 502h155l256 -401l252 401h156l-328 -498l355 -532h-154l-281 434l-276 -434h-158z" />
<glyph unicode="y" horiz-adv-x="954" d="M-72 -487l43 127q82 -45 158 -46q61 0 96 37q57 55 115 203l70 182l-404 1014h152l323 -850l318 850h145l-399 -1020l-84 -221q-96 -262 -236 -309q-45 -14 -100 -15q-88 0 -197 48z" />
<glyph unicode="z" horiz-adv-x="880" d="M47 0v111l615 796h-594v123h759v-108l-614 -799h614v-123h-780z" />
<glyph unicode="~" horiz-adv-x="847" d="M84 412q18 133 65.5 195.5t133.5 62.5q49 0 97 -26t91 -54l82 -58q39 -25 70.5 -24.5t54 31t45.5 118.5h92q-20 -133 -67.5 -196.5t-133.5 -63.5q-74 0 -186 80q-43 31 -82 55.5t-71.5 24.5t-54 -29.5t-44.5 -115.5h-92z" />
<glyph horiz-adv-x="0" />
<glyph unicode="&#xa1;" horiz-adv-x="585" d="M180 1312q0 -46 32 -80t82 -34t81 34t31 80t-31 81t-81 35t-83 -35q-31 -35 -31 -81zM209 -63h168l-41 1044h-80z" />
<glyph unicode="&#xa8;" horiz-adv-x="892" d="M125 1333q0 45 29.5 78t78 33t78 -33t29.5 -78t-29.5 -78.5t-78 -33.5t-78 33.5t-29.5 78.5zM557 1333q0 45 30.5 78t79 33t78 -33t29.5 -78t-29.5 -78.5t-78 -33.5t-79 33.5t-30.5 78.5z" />
<glyph unicode="&#xaa;" horiz-adv-x="763" d="M51 804.5q0 110.5 109.5 189.5t367.5 91v56q0 88 -39.5 135t-130.5 47q-129 0 -254 -100l-49 98q160 115 312 115q195 0 256 -154q20 -55 20 -135v-342q0 -123 86 -215l-121 -27q-45 43 -67 121h-4q-41 -45 -108 -83t-160 -38t-155.5 65.5t-62.5 176zM164 807 q0 -72 45 -105.5t104 -33.5t119 26.5t96 67.5v235q-193 -12 -286 -69q-78 -49 -78 -121z" />
<glyph unicode="&#xab;" horiz-adv-x="1288" d="M60 453v147l551 393l18 -106l-449 -359v-4l449 -358l-18 -107zM643 453v147l551 393l18 -106l-449 -359v-4l449 -358l-18 -107z" />
<glyph unicode="&#xad;" horiz-adv-x="657" d="M76 481v131h510v-131h-510z" />
<glyph unicode="&#xb0;" horiz-adv-x="800" d="M68 1102q0 139 90 237q94 100 241 101q152 0 246 -101q88 -96 88 -237q0 -137 -88 -234q-92 -98 -244 -98q-78 0 -139 26.5t-104 71.5q-90 98 -90 234zM164 1102q0 -96 61 -166q31 -33 75 -52.5t99 -19.5q106 0 174 72q63 68 64 166q0 104 -64 172q-68 72 -174 72 q-109 0 -174 -72q-61 -70 -61 -172z" />
<glyph unicode="&#xb4;" horiz-adv-x="890" d="M295 1165l264 402h180l-342 -402h-102z" />
<glyph unicode="&#xba;" horiz-adv-x="952" d="M74 999q0 197 116 316q117 121 291 121t285 -117q111 -121 111 -318q0 -195 -115 -317q-113 -119 -289 -119q-172 0 -285.5 118t-113.5 316zM188 999.5q0 -147.5 79 -239.5t210 -92t209 93t78 236q0 150 -80 240q-80 94 -207 94q-129 0 -211 -94q-78 -90 -78 -237.5z" />
<glyph unicode="&#xbb;" horiz-adv-x="1296" d="M82 166l18 -107l551 394v147l-551 393l-18 -106l449 -359v-4zM670 166l18 -107l551 394v147l-551 393l-18 -106l449 -359v-4z" />
<glyph unicode="&#xbf;" horiz-adv-x="784" d="M88 338q0 182 149 260q43 23 105.5 49.5t109.5 58t47 86t-37.5 100.5t-97.5 91l74 27q174 -109 174 -236q0 -125 -133 -196q-41 -23 -83 -40.5t-77 -34.5t-61 -40q-55 -47 -55.5 -108.5t20 -104.5t59.5 -78q84 -72 228 -71q68 0 155 20v-129q-76 -20 -167 -20.5 t-167.5 31.5t-130.5 83q-113 104 -112 252zM338 1314q0 46 31.5 81t80.5 35t82 -35q31 -35 31 -81t-32 -80t-81 -34t-80.5 34t-31.5 80z" />
<glyph unicode="&#xc0;" horiz-adv-x="1292" d="M33 0l534 1405h168l525 -1405h-146l-149 403h-637l-148 -403h-147zM246 1946h180l264 -402h-102zM377 532h538l-268 732z" />
<glyph unicode="&#xc1;" horiz-adv-x="1292" d="M33 0l534 1405h168l525 -1405h-146l-149 403h-637l-148 -403h-147zM377 532h538l-268 732zM584 1540l264 402h180l-342 -402h-102z" />
<glyph unicode="&#xc2;" horiz-adv-x="1292" d="M33 0l534 1405h168l525 -1405h-146l-149 403h-637l-148 -403h-147zM318 1540l254 410h157l254 -410h-104l-225 303h-2l-228 -303h-106zM377 532h538l-268 732z" />
<glyph unicode="&#xc3;" horiz-adv-x="1292" d="M33 0l534 1405h168l525 -1405h-146l-149 403h-637l-148 -403h-147zM285 1563q18 133 65.5 195.5t133.5 62.5q49 0 97 -26t91 -54l82 -58q39 -25 70.5 -24.5t54 31t45.5 118.5h92q-20 -133 -67.5 -196.5t-133.5 -63.5q-74 0 -186 80q-43 31 -82 55.5t-71.5 24.5t-54 -29.5 t-44.5 -115.5h-92zM377 532h538l-268 732z" />
<glyph unicode="&#xc4;" horiz-adv-x="1292" d="M33 0l534 1405h168l525 -1405h-146l-149 403h-637l-148 -403h-147zM320 1708q0 45 29.5 78t78 33t78 -33t29.5 -78t-29.5 -78.5t-78 -33.5t-78 33.5t-29.5 78.5zM377 532h538l-268 732zM752 1708q0 45 30.5 78t79 33t78 -33t29.5 -78t-29.5 -78.5t-78 -33.5t-79 33.5 t-30.5 78.5z" />
<glyph unicode="&#xc5;" horiz-adv-x="1292" d="M33 0l508 1335q-72 29 -114 84.5t-42 114.5t18.5 102t51.5 76q76 70 194 70q117 0 195 -70q72 -66 71 -151q0 -166 -153 -226l498 -1335h-146l-149 403h-635l-150 -403h-147zM377 532h541l-271 732zM483 1548.5q0 -61.5 45 -106.5t122 -45t123 44t46 105.5t-46 107.5 t-123 46t-122 -45t-45 -106.5z" />
<glyph unicode="&#xc6;" horiz-adv-x="1839" d="M2 0l805 1397h930v-131h-707v-498h590v-133h-590v-502h707v-133h-850v387h-510l-221 -387h-154zM455 520h432v752z" />
<glyph unicode="&#xc7;" horiz-adv-x="1318" d="M106 700q0 332 193 531q188 197 485 196q129 0 243 -33.5t192 -80.5l-45 -129q-182 113 -392 112q-238 0 -381 -153q-150 -162 -149 -438q0 -279 145 -443q147 -162 378 -162t407 127l26 -141q-160 -104 -379 -113l-127 -127h27q102 0 175 -44t73 -138t-87 -160.5 t-274 -89.5l-12 97q131 6 195.5 44t64.5 97q0 106 -168 106q-55 0 -127 -12l-14 68l162 159q-276 20 -445 215q-166 197 -166 512z" />
<glyph unicode="&#xc8;" horiz-adv-x="1140" d="M180 0v1397h850v-131h-706v-500h589v-131h-589v-502h706v-133h-850zM234 1944h180l264 -402h-102z" />
<glyph unicode="&#xc9;" horiz-adv-x="1140" d="M180 0v1397h850v-131h-706v-500h589v-131h-589v-502h706v-133h-850zM496 1542l264 402h180l-342 -402h-102z" />
<glyph unicode="&#xca;" horiz-adv-x="1140" d="M180 0v1397h850v-131h-706v-500h589v-131h-589v-502h706v-133h-850zM275 1540l254 410h157l254 -410h-104l-225 303h-2l-228 -303h-106z" />
<glyph unicode="&#xcb;" horiz-adv-x="1140" d="M180 0v1397h850v-131h-706v-500h589v-131h-589v-502h706v-133h-850zM270 1706q0 45 29.5 78t78 33t78 -33t29.5 -78t-29.5 -78.5t-78 -33.5t-78 33.5t-29.5 78.5zM702 1706q0 45 30.5 78t79 33t78 -33t29.5 -78t-29.5 -78.5t-78 -33.5t-79 33.5t-30.5 78.5z" />
<glyph unicode="&#xcc;" horiz-adv-x="512" d="M-119 1942h180l264 -402h-102zM184 0v1397h142v-1397h-142z" />
<glyph unicode="&#xcd;" horiz-adv-x="512" d="M184 0v1397h142v-1397h-142zM203 1544l264 402h180l-342 -402h-102z" />
<glyph unicode="&#xce;" horiz-adv-x="512" d="M-69 1540l254 410h157l254 -410h-104l-225 303h-2l-228 -303h-106zM184 0v1397h142v-1397h-142z" />
<glyph unicode="&#xcf;" horiz-adv-x="512" d="M-63 1706q0 45 29.5 78t78 33t78 -33t29.5 -78t-29.5 -78.5t-78 -33.5t-78 33.5t-29.5 78.5zM184 0v1397h142v-1397h-142zM369 1706q0 45 30.5 78t79 33t78 -33t29.5 -78t-29.5 -78.5t-78 -33.5t-79 33.5t-30.5 78.5z" />
<glyph unicode="&#xd1;" horiz-adv-x="1462" d="M180 0v1397h162l799 -1196v1196h139v-1411h-156l-805 1210v-1196h-139zM369 1563q18 133 65.5 195.5t133.5 62.5q49 0 97 -26t91 -54l82 -58q39 -25 70.5 -24.5t54 31t45.5 118.5h92q-20 -133 -67.5 -196.5t-133.5 -63.5q-74 0 -186 80q-43 31 -82 55.5t-71.5 24.5 t-54 -29.5t-44.5 -115.5h-92z" />
<glyph unicode="&#xd2;" d="M106 696q0 324 195 527q197 205 498 204q297 0 491 -198q92 -94 145.5 -228.5t53.5 -295.5q0 -319 -197 -529q-195 -205 -493.5 -205t-493.5 199q-199 207 -199 526zM252 702.5q0 -268.5 155.5 -436.5t393 -168t390 165t152.5 432.5t-152 435t-396 167.5 q-238 0 -389 -163q-154 -164 -154 -432.5zM426 1944h180l264 -402h-102z" />
<glyph unicode="&#xd3;" d="M106 696q0 324 195 527q197 205 498 204q297 0 491 -198q92 -94 145.5 -228.5t53.5 -295.5q0 -319 -197 -529q-195 -205 -493.5 -205t-493.5 199q-199 207 -199 526zM252 702.5q0 -268.5 155.5 -436.5t393 -168t390 165t152.5 432.5t-152 435t-396 167.5 q-238 0 -389 -163q-154 -164 -154 -432.5zM733 1542l264 402h180l-342 -402h-102z" />
<glyph unicode="&#xd4;" d="M106 696q0 324 195 527q197 205 498 204q297 0 491 -198q92 -94 145.5 -228.5t53.5 -295.5q0 -319 -197 -529q-195 -205 -493.5 -205t-493.5 199q-199 207 -199 526zM252 702.5q0 -268.5 155.5 -436.5t393 -168t390 165t152.5 432.5t-152 435t-396 167.5 q-238 0 -389 -163q-154 -164 -154 -432.5zM467 1540l254 410h157l254 -410h-104l-225 303h-2l-228 -303h-106z" />
<glyph unicode="&#xd5;" d="M106 696q0 324 195 527q197 205 498 204q297 0 491 -198q92 -94 145.5 -228.5t53.5 -295.5q0 -319 -197 -529q-195 -205 -493.5 -205t-493.5 199q-199 207 -199 526zM252 702.5q0 -268.5 155.5 -436.5t393 -168t390 165t152.5 432.5t-152 435t-396 167.5 q-238 0 -389 -163q-154 -164 -154 -432.5zM436 1563q18 133 65.5 195.5t133.5 62.5q49 0 97 -26t91 -54l82 -58q39 -25 70.5 -24.5t54 31t45.5 118.5h92q-20 -133 -67.5 -196.5t-133.5 -63.5q-74 0 -186 80q-43 31 -82 55.5t-71.5 24.5t-54 -29.5t-44.5 -115.5h-92z" />
<glyph unicode="&#xd6;" d="M106 696q0 324 195 527q197 205 498 204q297 0 491 -198q92 -94 145.5 -228.5t53.5 -295.5q0 -319 -197 -529q-195 -205 -493.5 -205t-493.5 199q-199 207 -199 526zM252 702.5q0 -268.5 155.5 -436.5t393 -168t390 165t152.5 432.5t-152 435t-396 167.5 q-238 0 -389 -163q-154 -164 -154 -432.5zM477 1706q0 45 29.5 78t78 33t78 -33t29.5 -78t-29.5 -78.5t-78 -33.5t-78 33.5t-29.5 78.5zM909 1706q0 45 30.5 78t79 33t78 -33t29.5 -78t-29.5 -78.5t-78 -33.5t-79 33.5t-30.5 78.5z" />
<glyph unicode="&#xd8;" d="M111 677q0 179 51 314t143 232q197 205 498 204q160 0 319 -77l115 198h117l-144 -248q129 -94 205 -245.5t76 -330.5t-51 -314.5t-143.5 -232.5t-219.5 -151.5t-284.5 -54.5t-313.5 76l-112 -199h-117q39 72 61 111q72 119 82 137q-129 98 -205.5 250t-76.5 331z M254 691.5q0 -146.5 56.5 -269.5t152.5 -203l594 1016q-117 63 -248 63t-230.5 -43t-172 -120.5t-112.5 -187t-40 -256zM545 162q121 -63 250 -63.5t228 42.5t171 121q152 168 152 434q0 158 -55.5 281t-149.5 203z" />
<glyph unicode="&#xd9;" horiz-adv-x="1384" d="M164 514v883h139v-865q0 -201 98.5 -314.5t291 -113.5t290.5 110t98 321v862h142v-860q0 -266 -136 -414q-139 -152 -393 -151.5t-395 145.5q-135 147 -135 397zM334 1946h180l264 -402h-102z" />
<glyph unicode="&#xda;" horiz-adv-x="1384" d="M164 514v883h139v-865q0 -201 98.5 -314.5t291 -113.5t290.5 110t98 321v862h142v-860q0 -266 -136 -414q-139 -152 -393 -151.5t-395 145.5q-135 147 -135 397zM598 1540l264 402h180l-342 -402h-102z" />
<glyph unicode="&#xdb;" horiz-adv-x="1384" d="M164 514v883h139v-865q0 -201 98.5 -314.5t291 -113.5t290.5 110t98 321v862h142v-860q0 -266 -136 -414q-139 -152 -393 -151.5t-395 145.5q-135 147 -135 397zM363 1540l254 410h157l254 -410h-104l-225 303h-2l-228 -303h-106z" />
<glyph unicode="&#xdc;" horiz-adv-x="1384" d="M164 514v883h139v-865q0 -201 98.5 -314.5t291 -113.5t290.5 110t98 321v862h142v-860q0 -266 -136 -414q-139 -152 -393 -151.5t-395 145.5q-135 147 -135 397zM371 1708q0 45 29.5 78t78 33t78 -33t29.5 -78t-29.5 -78.5t-78 -33.5t-78 33.5t-29.5 78.5zM803 1708 q0 45 30.5 78t79 33t78 -33t29.5 -78t-29.5 -78.5t-78 -33.5t-79 33.5t-30.5 78.5z" />
<glyph unicode="&#xdf;" horiz-adv-x="1234" d="M25 909l8 88l155 35v68q0 27 2 63q0 205 113 312q100 90 264 90q162 0 264 -97q100 -92 101 -239q0 -74 -33 -127t-72 -96l-69 -80q-33 -37 -33 -86t33 -89t81 -74t105 -66.5t105 -75.5q115 -102 114 -244q0 -147 -100 -236q-96 -84 -258 -84q-180 0 -322 92l39 127 q150 -98 285 -98q96 0 155.5 47t59.5 127t-32 124t-80 79t-103 65.5t-102 67.5q-113 88 -113 221q0 70 30.5 116t66.5 87t66.5 84t30.5 125t-57 145.5t-165.5 63.5t-172 -69.5t-63.5 -198.5v-1176h-138v897z" />
<glyph unicode="&#xe0;" horiz-adv-x="987" d="M74 256q0 332 626 367v61q0 123 -57 184.5t-186 61.5q-123 0 -264 -78q-41 -23 -74 -47l-31 131q115 82 279 113q53 10 104 10q178 0 274.5 -86t94.5 -283v-493q0 -57 16 -81t76 -24h10l-8 -115h-29q-172 0 -196 146h-7q-53 -63 -131.5 -107.5t-160.5 -44.5 q-231 0 -312 172q-25 51 -24 113zM123 1567h180l264 -402h-102zM221 272q0 -84 59.5 -132t151.5 -48q150 0 268 135v301q-385 -47 -454 -163q-25 -41 -25 -93z" />
<glyph unicode="&#xe1;" horiz-adv-x="987" d="M74 256q0 332 626 367v61q0 123 -57 184.5t-186 61.5q-123 0 -264 -78q-41 -23 -74 -47l-31 131q115 82 279 113q53 10 104 10q178 0 274.5 -86t94.5 -283v-493q0 -57 16 -81t76 -24h10l-8 -115h-29q-172 0 -196 146h-7q-53 -63 -131.5 -107.5t-160.5 -44.5 q-231 0 -312 172q-25 51 -24 113zM221 272q0 -84 59.5 -132t151.5 -48q150 0 268 135v301q-385 -47 -454 -163q-25 -41 -25 -93zM365 1165l264 402h180l-342 -402h-102z" />
<glyph unicode="&#xe2;" horiz-adv-x="987" d="M74 256q0 332 626 367v61q0 123 -57 184.5t-186 61.5q-123 0 -264 -78q-41 -23 -74 -47l-31 131q115 82 279 113q53 10 104 10q178 0 274.5 -86t94.5 -283v-493q0 -57 16 -81t76 -24h10l-8 -115h-29q-172 0 -196 146h-7q-53 -63 -131.5 -107.5t-160.5 -44.5 q-231 0 -312 172q-25 51 -24 113zM140 1165l254 410h157l254 -410h-104l-225 303h-2l-228 -303h-106zM221 272q0 -84 59.5 -132t151.5 -48q150 0 268 135v301q-385 -47 -454 -163q-25 -41 -25 -93z" />
<glyph unicode="&#xe3;" horiz-adv-x="987" d="M74 256q0 332 626 367v61q0 123 -57 184.5t-186 61.5q-123 0 -264 -78q-41 -23 -74 -47l-31 131q115 82 279 113q53 10 104 10q178 0 274.5 -86t94.5 -283v-493q0 -57 16 -81t76 -24h10l-8 -115h-29q-172 0 -196 146h-7q-53 -63 -131.5 -107.5t-160.5 -44.5 q-231 0 -312 172q-25 51 -24 113zM104 1188q18 133 65.5 195.5t133.5 62.5q49 0 97 -26t91 -54l82 -58q39 -25 70.5 -24.5t54 31t45.5 118.5h92q-20 -133 -67.5 -196.5t-133.5 -63.5q-74 0 -186 80q-43 31 -82 55.5t-71.5 24.5t-54 -29.5t-44.5 -115.5h-92zM221 272 q0 -84 59.5 -132t151.5 -48q150 0 268 135v301q-385 -47 -454 -163q-25 -41 -25 -93z" />
<glyph unicode="&#xe4;" horiz-adv-x="987" d="M74 256q0 332 626 367v61q0 123 -57 184.5t-186 61.5q-123 0 -264 -78q-41 -23 -74 -47l-31 131q115 82 279 113q53 10 104 10q178 0 274.5 -86t94.5 -283v-493q0 -57 16 -81t76 -24h10l-8 -115h-29q-172 0 -196 146h-7q-53 -63 -131.5 -107.5t-160.5 -44.5 q-231 0 -312 172q-25 51 -24 113zM148 1333q0 45 29.5 78t78 33t78 -33t29.5 -78t-29.5 -78.5t-78 -33.5t-78 33.5t-29.5 78.5zM221 272q0 -84 59.5 -132t151.5 -48q150 0 268 135v301q-385 -47 -454 -163q-25 -41 -25 -93zM580 1333q0 45 30.5 78t79 33t78 -33t29.5 -78 t-29.5 -78.5t-78 -33.5t-79 33.5t-30.5 78.5z" />
<glyph unicode="&#xe5;" horiz-adv-x="987" d="M74 256q0 332 626 367v61q0 123 -57 184.5t-186 61.5q-123 0 -264 -78q-41 -23 -74 -47l-31 131q115 82 279 113q53 10 104 10q178 0 274.5 -86t94.5 -283v-493q0 -57 16 -81t76 -24h10l-8 -115h-29q-172 0 -196 146h-7q-53 -63 -131.5 -107.5t-160.5 -44.5 q-231 0 -312 172q-25 51 -24 113zM204 1391q0 96 70 163q74 70 197 70q121 0 194 -70q72 -68 72 -165t-70.5 -163.5t-195.5 -66.5t-196 66.5t-71 165.5zM221 272q0 -84 59.5 -132t151.5 -48q150 0 268 135v301q-385 -47 -454 -163q-25 -41 -25 -93zM305 1390.5 q0 -61.5 45 -106.5t121.5 -45t121.5 44t45 106q0 61 -45 107t-121.5 46t-121.5 -45t-45 -106.5z" />
<glyph unicode="&#xe6;" horiz-adv-x="1656" d="M74 250q0 244 332 328q121 29 294 34l2 56v16q0 123 -60 182.5t-167 59.5q-186 0 -352 -121l-37 125q113 84 270 119q53 10 107 10q276 0 338 -197q59 90 156.5 143.5t202 53.5t174 -26.5t118.5 -76.5q102 -102 102 -276q0 -90 -22 -166l-698 -4v-10q4 -176 102 -287 q100 -113 263 -113t294 86l27 -127q-141 -88 -303 -88q-303 0 -439 219q-94 -145 -280 -202q-57 -16 -121 -17q-131 0 -219 80q-84 84 -84 199zM219 266q0 -82 54.5 -126t138.5 -44t172 45t153 129q-41 102 -41 244q-375 -29 -452 -158q-25 -41 -25 -90zM844 621l571 2 q4 20 4 45q0 119 -63.5 192.5t-186.5 73.5q-201 0 -290 -193q-27 -57 -35 -120z" />
<glyph unicode="&#xe7;" horiz-adv-x="1013" d="M94 512q0 240 144 393q141 154 362 154q186 0 322 -88l-35 -125q-129 84 -287 84q-166 0 -264 -114t-98 -298q0 -186 102 -303q98 -115 258 -115t291 86l29 -127q-117 -74 -267 -86l-127 -127h27q102 0 175 -44t73 -138t-87 -160.5t-274 -89.5l-10 97q129 6 193.5 44 t64.5 97q0 106 -168 106q-55 0 -127 -12l-14 68l164 159q-203 20 -328 166q-119 147 -119 373z" />
<glyph unicode="&#xe8;" horiz-adv-x="1056" d="M94 506q0 240 139 397q135 156 347 156q172 0 274 -102.5t102 -276.5q0 -90 -22 -166l-698 -4v-10q4 -176 102 -287q100 -113 263 -113t294 86l27 -127q-141 -88 -330 -88q-219 0 -361 150q-137 150 -137 385zM193 1567h180l264 -402h-102zM246 621l571 2q2 10 2 24v21 q0 119 -62.5 192.5t-185.5 73.5q-201 0 -290 -193q-27 -57 -35 -120z" />
<glyph unicode="&#xe9;" horiz-adv-x="1056" d="M94 506q0 240 139 397q135 156 347 156q172 0 274 -102.5t102 -276.5q0 -90 -22 -166l-698 -4v-10q4 -176 102 -287q100 -113 263 -113t294 86l27 -127q-141 -88 -330 -88q-219 0 -361 150q-137 150 -137 385zM246 621l571 2q2 10 2 24v21q0 119 -62.5 192.5t-185.5 73.5 q-201 0 -290 -193q-27 -57 -35 -120zM475 1165l264 402h180l-342 -402h-102z" />
<glyph unicode="&#xea;" horiz-adv-x="1056" d="M94 506q0 240 139 397q135 156 347 156q172 0 274 -102.5t102 -276.5q0 -90 -22 -166l-698 -4v-10q4 -176 102 -287q100 -113 263 -113t294 86l27 -127q-141 -88 -330 -88q-219 0 -361 150q-137 150 -137 385zM195 1165l254 410h157l254 -410h-104l-225 303h-2l-228 -303 h-106zM246 621l571 2q2 10 2 24v21q0 119 -62.5 192.5t-185.5 73.5q-201 0 -290 -193q-27 -57 -35 -120z" />
<glyph unicode="&#xeb;" horiz-adv-x="1056" d="M94 506q0 240 139 397q135 156 347 156q172 0 274 -102.5t102 -276.5q0 -90 -22 -166l-698 -4v-10q4 -176 102 -287q100 -113 263 -113t294 86l27 -127q-141 -88 -330 -88q-219 0 -361 150q-137 150 -137 385zM211 1333q0 45 29.5 78t78 33t78 -33t29.5 -78t-29.5 -78.5 t-78 -33.5t-78 33.5t-29.5 78.5zM246 621l571 2q2 10 2 24v21q0 119 -62.5 192.5t-185.5 73.5q-201 0 -290 -193q-27 -57 -35 -120zM643 1333q0 45 30.5 78t79 33t78 -33t29.5 -78t-29.5 -78.5t-78 -33.5t-79 33.5t-30.5 78.5z" />
<glyph unicode="&#xec;" horiz-adv-x="471" d="M-141 1567h180l264 -402h-102zM168 0v1018l139 31v-1049h-139z" />
<glyph unicode="&#xed;" horiz-adv-x="471" d="M168 0v1018l139 31v-1049h-139zM176 1165l264 402h180l-342 -402h-102z" />
<glyph unicode="&#xee;" horiz-adv-x="471" d="M-88 1165l254 410h157l254 -410h-104l-225 303h-2l-228 -303h-106zM168 0v1018l139 31v-1049h-139z" />
<glyph unicode="&#xef;" horiz-adv-x="471" d="M-80 1333q0 45 29.5 78t78 33t78 -33t29.5 -78t-29.5 -78.5t-78 -33.5t-78 33.5t-29.5 78.5zM168 0v1018l139 31v-1049h-139zM352 1333q0 45 30.5 78t79 33t78 -33t29.5 -78t-29.5 -78.5t-78 -33.5t-79 33.5t-30.5 78.5z" />
<glyph unicode="&#xf1;" horiz-adv-x="1136" d="M162 0v1030l139 29v-168q82 82 176 125t174 43q158 0 244 -91t86 -261v-707h-139v666q0 135 -55.5 197.5t-172.5 62.5q-168 0 -313 -146v-780h-139zM205 1188q18 133 65.5 195.5t133.5 62.5q49 0 97 -26t91 -54l82 -58q39 -25 70.5 -24.5t54 31t45.5 118.5h92 q-20 -133 -67.5 -196.5t-133.5 -63.5q-74 0 -186 80q-43 31 -82 55.5t-71.5 24.5t-54 -29.5t-44.5 -115.5h-92z" />
<glyph unicode="&#xf2;" horiz-adv-x="1193" d="M94 512q0 244 148 397q141 150 360 150q221 0 356 -146q139 -152 140 -395q0 -244 -148 -397q-141 -150 -359 -149.5t-355 145.5q-141 154 -142 395zM233.5 516q-0.5 -186 101 -303t263.5 -117t262 117q100 115 101 299q0 186 -101 305q-100 117 -264 117 q-162 0 -264 -117q-98 -115 -98.5 -301zM254 1567h180l264 -402h-102z" />
<glyph unicode="&#xf3;" horiz-adv-x="1193" d="M94 512q0 244 148 397q141 150 360 150q221 0 356 -146q139 -152 140 -395q0 -244 -148 -397q-141 -150 -359 -149.5t-355 145.5q-141 154 -142 395zM233.5 516q-0.5 -186 101 -303t263.5 -117t262 117q100 115 101 299q0 186 -101 305q-100 117 -264 117 q-162 0 -264 -117q-98 -115 -98.5 -301zM506 1165l264 402h180l-342 -402h-102z" />
<glyph unicode="&#xf4;" horiz-adv-x="1193" d="M94 512q0 244 148 397q141 150 360 150q221 0 356 -146q139 -152 140 -395q0 -244 -148 -397q-141 -150 -359 -149.5t-355 145.5q-141 154 -142 395zM233.5 516q-0.5 -186 101 -303t263.5 -117t262 117q100 115 101 299q0 186 -101 305q-100 117 -264 117 q-162 0 -264 -117q-98 -115 -98.5 -301zM267 1165l254 410h157l254 -410h-104l-225 303h-2l-228 -303h-106z" />
<glyph unicode="&#xf5;" horiz-adv-x="1193" d="M94 512q0 244 148 397q141 150 360 150q221 0 356 -146q139 -152 140 -395q0 -244 -148 -397q-141 -150 -359 -149.5t-355 145.5q-141 154 -142 395zM233.5 516q-0.5 -186 101 -303t263.5 -117t262 117q100 115 101 299q0 186 -101 305q-100 117 -264 117 q-162 0 -264 -117q-98 -115 -98.5 -301zM234 1188q18 133 65.5 195.5t133.5 62.5q49 0 97 -26t91 -54l82 -58q39 -25 70.5 -24.5t54 31t45.5 118.5h92q-20 -133 -67.5 -196.5t-133.5 -63.5q-74 0 -186 80q-43 31 -82 55.5t-71.5 24.5t-54 -29.5t-44.5 -115.5h-92z" />
<glyph unicode="&#xf6;" horiz-adv-x="1193" d="M94 512q0 244 148 397q141 150 360 150q221 0 356 -146q139 -152 140 -395q0 -244 -148 -397q-141 -150 -359 -149.5t-355 145.5q-141 154 -142 395zM233.5 516q-0.5 -186 101 -303t263.5 -117t262 117q100 115 101 299q0 186 -101 305q-100 117 -264 117 q-162 0 -264 -117q-98 -115 -98.5 -301zM277 1333q0 45 29.5 78t78 33t78 -33t29.5 -78t-29.5 -78.5t-78 -33.5t-78 33.5t-29.5 78.5zM709 1333q0 45 30.5 78t79 33t78 -33t29.5 -78t-29.5 -78.5t-78 -33.5t-79 33.5t-30.5 78.5z" />
<glyph unicode="&#xf8;" horiz-adv-x="1193" d="M98 502q0 133 39 234.5t109 172.5q141 150 362 150q121 0 219 -47l99 172h121l-132 -228q86 -72 136.5 -183t50.5 -244.5t-39 -234.5t-107.5 -173t-161 -111t-203 -39t-216.5 49l-99 -172h-118q133 227 127 228q-86 70 -136.5 181.5t-50.5 244.5zM236 509 q0 -99 31.5 -182t88.5 -137l406 707q-72 37 -159 37t-153.5 -31t-114.5 -86t-73.5 -132t-25.5 -176zM438 133q82 -37 164 -37t148.5 31t113.5 86q100 115 101 299q0 205 -119 328z" />
<glyph unicode="&#xf9;" horiz-adv-x="1132" d="M154 324v706h139v-665q0 -135 54 -198t167 -63q180 0 317 146v780h140v-1030l-140 -29v166q-78 -82 -173 -124t-181 -42q-152 0 -237.5 91.5t-85.5 261.5zM209 1567h180l264 -402h-102z" />
<glyph unicode="&#xfa;" horiz-adv-x="1132" d="M154 324v706h139v-665q0 -135 54 -198t167 -63q180 0 317 146v780h140v-1030l-140 -29v166q-78 -82 -173 -124t-181 -42q-152 0 -237.5 91.5t-85.5 261.5zM488 1165l264 402h180l-342 -402h-102z" />
<glyph unicode="&#xfb;" horiz-adv-x="1132" d="M154 324v706h139v-665q0 -135 54 -198t167 -63q180 0 317 146v780h140v-1030l-140 -29v166q-78 -82 -173 -124t-181 -42q-152 0 -237.5 91.5t-85.5 261.5zM236 1165l254 410h157l254 -410h-104l-225 303h-2l-228 -303h-106z" />
<glyph unicode="&#xfc;" horiz-adv-x="1132" d="M154 324v706h139v-665q0 -135 54 -198t167 -63q180 0 317 146v780h140v-1030l-140 -29v166q-78 -82 -173 -124t-181 -42q-152 0 -237.5 91.5t-85.5 261.5zM236 1333q0 45 29.5 78t78 33t78 -33t29.5 -78t-29.5 -78.5t-78 -33.5t-78 33.5t-29.5 78.5zM668 1333 q0 45 30.5 78t79 33t78 -33t29.5 -78t-29.5 -78.5t-78 -33.5t-79 33.5t-30.5 78.5z" />
<glyph unicode="&#xff;" horiz-adv-x="954" d="M-72 -487l43 127q82 -45 158 -46q61 0 96 37q57 55 115 203l70 182l-404 1014h152l323 -850l318 850h145l-399 -1020l-84 -221q-96 -262 -236 -309q-45 -14 -100 -15q-88 0 -197 48zM154 1333q0 45 29.5 78t78 33t78 -33t29.5 -78t-29.5 -78.5t-78 -33.5t-78 33.5 t-29.5 78.5zM586 1333q0 45 30.5 78t79 33t78 -33t29.5 -78t-29.5 -78.5t-78 -33.5t-79 33.5t-30.5 78.5z" />
<glyph unicode="&#x152;" horiz-adv-x="2045" d="M111 688q0 336 196 520q201 188 559 189h1076v-131h-705v-498h588v-133h-588v-502h705v-133h-1088q-344 0 -545 188q-199 186 -198 500zM254 700q0 -270 160.5 -418.5t449.5 -148.5h230v1133h-234q-432 0 -561 -316q-45 -107 -45 -250z" />
<glyph unicode="&#x153;" horiz-adv-x="1927" d="M94 512q0 244 148 397q141 150 360 150q147 0 259 -69.5t171 -196.5q61 123 169 194.5t249 71.5q172 0 274.5 -102.5t102.5 -276.5q0 -90 -23 -166h-30l-193 -2h-127q-154 -2 -348 -2v-10q4 -176 102 -287q100 -113 262 -113t293 86l29 -127q-145 -88 -313 -88 q-322 0 -451 267q-63 -125 -177 -196t-241 -71q-358 0 -479 318q-37 100 -37 223zM233.5 516q-0.5 -186 101 -303t263.5 -117t262 117q100 115 101 299q0 186 -101 305q-100 117 -264 117q-162 0 -264 -117q-98 -115 -98.5 -301zM1116 621l572 2q2 10 2 24v21 q0 119 -63.5 192.5t-186.5 73.5q-133 0 -223 -92q-83 -86 -101 -221z" />
<glyph unicode="&#x178;" horiz-adv-x="1177" d="M27 1397h161l406 -699l397 699h160l-489 -840v-557h-144v557zM270 1708q0 45 29.5 78t78 33t78 -33t29.5 -78t-29.5 -78.5t-78 -33.5t-78 33.5t-29.5 78.5zM702 1708q0 45 30.5 78t79 33t78 -33t29.5 -78t-29.5 -78.5t-78 -33.5t-79 33.5t-30.5 78.5z" />
<glyph unicode="&#x2c6;" horiz-adv-x="892" d="M117 1165l254 410h157l254 -410h-104l-225 303h-2l-228 -303h-106z" />
<glyph unicode="&#x2dc;" horiz-adv-x="892" d="M84 1188q18 133 65.5 195.5t133.5 62.5q49 0 97 -25.5t91 -56.5l82 -53q39 -27 70.5 -27t54 29.5t45.5 120.5h92q-20 -133 -67.5 -196.5t-133.5 -63.5q-74 0 -186 79q-43 31 -82 55.5t-71.5 24.5t-54 -29.5t-44.5 -115.5h-92z" />
<glyph unicode="&#x2000;" horiz-adv-x="975" />
<glyph unicode="&#x2001;" horiz-adv-x="1950" />
<glyph unicode="&#x2002;" horiz-adv-x="975" />
<glyph unicode="&#x2003;" horiz-adv-x="1950" />
<glyph unicode="&#x2004;" horiz-adv-x="650" />
<glyph unicode="&#x2005;" horiz-adv-x="487" />
<glyph unicode="&#x2006;" horiz-adv-x="325" />
<glyph unicode="&#x2007;" horiz-adv-x="325" />
<glyph unicode="&#x2008;" horiz-adv-x="243" />
<glyph unicode="&#x2009;" horiz-adv-x="390" />
<glyph unicode="&#x200a;" horiz-adv-x="108" />
<glyph unicode="&#x2010;" horiz-adv-x="657" d="M76 481v131h510v-131h-510z" />
<glyph unicode="&#x2011;" horiz-adv-x="657" d="M76 481v131h510v-131h-510z" />
<glyph unicode="&#x2012;" horiz-adv-x="657" d="M76 481v131h510v-131h-510z" />
<glyph unicode="&#x2013;" horiz-adv-x="1001" d="M70 483l6 111h850l8 -111h-864z" />
<glyph unicode="&#x2014;" horiz-adv-x="2058" d="M70 483l6 111h1909l6 -111h-1921z" />
<glyph unicode="&#x2018;" horiz-adv-x="419" d="M55 1077.5q0 67.5 22.5 120.5t61.5 102q72 94 197 175l59 -56q-197 -143 -196 -270q0 -43 31.5 -70.5t107.5 -56.5q-4 -43 -35 -77t-75 -34t-72.5 13.5t-51.5 36.5q-49 49 -49 116.5z" />
<glyph unicode="&#x2019;" horiz-adv-x="419" d="M25 973q197 143 196 270q0 43 -31.5 70.5t-107.5 56.5q4 43 35 77t75 34t72.5 -13.5t51.5 -36.5q49 -49 49 -116.5t-22.5 -120.5t-61.5 -102q-72 -94 -197 -175z" />
<glyph unicode="&#x201a;" horiz-adv-x="419" d="M25 -283q199 145 198 269q0 43 -32.5 70.5t-106.5 56.5q4 43 35 77.5t74 34.5t71.5 -13t50.5 -36q49 -49 49.5 -117.5t-22.5 -122t-59 -102.5q-76 -96 -197 -174z" />
<glyph unicode="&#x201c;" horiz-adv-x="864" d="M55 1077.5q0 67.5 22.5 120.5t61.5 102q72 94 197 175l59 -56q-197 -143 -196 -270q0 -43 31.5 -70.5t107.5 -56.5q-4 -43 -35 -77t-75 -34t-72.5 13.5t-51.5 36.5q-49 49 -49 116.5zM499 1077.5q0 67.5 22.5 120.5t61.5 102q72 94 197 175l59 -56q-197 -143 -196 -270 q0 -43 31.5 -70.5t107.5 -56.5q-4 -43 -35 -77t-75 -34t-72.5 13.5t-51.5 36.5q-49 49 -49 116.5z" />
<glyph unicode="&#x201d;" horiz-adv-x="864" d="M25 973q197 143 196 270q0 43 -31.5 70.5t-107.5 56.5q4 43 35 77t75 34t72.5 -13.5t51.5 -36.5q49 -49 49 -116.5t-22.5 -120.5t-61.5 -102q-72 -94 -197 -175zM467 973q197 143 196 270q0 43 -31.5 70.5t-107.5 56.5q4 43 35 77t75 34t72.5 -13.5t51.5 -36.5 q49 -49 49 -116.5t-22.5 -120.5t-61.5 -102q-72 -94 -197 -175z" />
<glyph unicode="&#x201e;" horiz-adv-x="847" d="M25 -282q197 143 196 270q0 43 -31.5 70.5t-107.5 56.5q4 43 35 77t75 34t72.5 -13.5t51.5 -36.5q49 -49 49 -116.5t-22.5 -120.5t-61.5 -102q-72 -94 -197 -175zM467 -282q197 143 196 270q0 43 -31.5 70.5t-107.5 56.5q4 43 35 77t75 34t72.5 -13.5t51.5 -36.5 q49 -49 49 -116.5t-22.5 -120.5t-61.5 -102q-72 -94 -197 -175z" />
<glyph unicode="&#x2022;" horiz-adv-x="1015" d="M74 522q0 84 90 248q23 41 39 57q35 35 114 68q141 59 191 59q51 0 129 -32q143 -59 178 -95q33 -33 66 -112q59 -143 59 -193q0 -47 -31 -127q-57 -145 -94 -182q-31 -31 -113 -63q-145 -61 -196 -62q-49 0 -128 33t-119 54.5t-56.5 38.5t-39 58t-42.5 88 q-47 109 -47 162z" />
<glyph unicode="&#x202f;" horiz-adv-x="390" />
<glyph unicode="&#x2039;" horiz-adv-x="737" d="M70 453v147l551 393l18 -106l-449 -359v-4l449 -358l-18 -107z" />
<glyph unicode="&#x203a;" horiz-adv-x="737" d="M98 166l18 -107l551 394v147l-551 393l-18 -106l449 -359v-4z" />
<glyph unicode="&#x205f;" horiz-adv-x="487" />
<glyph unicode="&#x25fc;" horiz-adv-x="1034" d="M0 0v1034h1034v-1034h-1034z" />
</font>
</defs>
</svg>
