<?xml version="1.0" encoding="UTF-8"?>
<!DOCTYPE svg PUBLIC "-//W3C//DTD SVG 1.1//EN" "http://www.w3.org/Graphics/SVG/1.1/DTD/svg11.dtd">
<!-- Creator: CorelDRAW 2017 -->
<svg xmlns="http://www.w3.org/2000/svg" xml:space="preserve" width="264.088mm" height="93.8408mm" version="1.1" style="shape-rendering:geometricPrecision; text-rendering:geometricPrecision; image-rendering:optimizeQuality; fill-rule:evenodd; clip-rule:evenodd"
viewBox="0 0 26409 9384"
 xmlns:xlink="http://www.w3.org/1999/xlink">
 <defs>
  <style type="text/css">
   <![CDATA[
    .str1 {stroke:#FEFEFE;stroke-width:200;stroke-linejoin:round}
    .str0 {stroke:#FEFEFE;stroke-width:200;stroke-linejoin:round}
    .fil18 {fill:none}
    .fil36 {fill:none;fill-rule:nonzero}
    .fil35 {fill:#414042}
    .fil37 {fill:#414042;fill-rule:nonzero}
    .fil8 {fill:url(#id0)}
    .fil2 {fill:url(#id1)}
    .fil7 {fill:url(#id2)}
    .fil24 {fill:url(#id3)}
    .fil14 {fill:url(#id4)}
    .fil10 {fill:url(#id5)}
    .fil32 {fill:url(#id6)}
    .fil23 {fill:url(#id7)}
    .fil13 {fill:url(#id8)}
    .fil30 {fill:url(#id9)}
    .fil6 {fill:url(#id10)}
    .fil1 {fill:url(#id11)}
    .fil11 {fill:url(#id12)}
    .fil17 {fill:url(#id13)}
    .fil27 {fill:url(#id14)}
    .fil31 {fill:url(#id15)}
    .fil34 {fill:url(#id16)}
    .fil4 {fill:url(#id17)}
    .fil9 {fill:url(#id18)}
    .fil22 {fill:url(#id19)}
    .fil16 {fill:url(#id20)}
    .fil21 {fill:url(#id21)}
    .fil19 {fill:url(#id22)}
    .fil15 {fill:url(#id23)}
    .fil3 {fill:url(#id24)}
    .fil20 {fill:url(#id25)}
    .fil25 {fill:url(#id26)}
    .fil28 {fill:url(#id27)}
    .fil33 {fill:url(#id28)}
    .fil0 {fill:url(#id29)}
    .fil12 {fill:url(#id30)}
    .fil29 {fill:url(#id31)}
    .fil26 {fill:url(#id32)}
    .fil5 {fill:url(#id33)}
   ]]>
  </style>
  <linearGradient id="id0" gradientUnits="userSpaceOnUse" x1="23724" y1="831" x2="17809" y2="5679">
   <stop offset="0" style="stop-opacity:1; stop-color:#84B5E0"/>
   <stop offset="0.329412" style="stop-opacity:1; stop-color:#4283E1"/>
   <stop offset="1" style="stop-opacity:1; stop-color:#0050E3"/>
  </linearGradient>
  <linearGradient id="id1" gradientUnits="userSpaceOnUse" xlink:href="#id0" x1="23710" y1="815" x2="17777" y2="5711">
  </linearGradient>
  <linearGradient id="id2" gradientUnits="userSpaceOnUse" xlink:href="#id0" x1="23724" y1="831" x2="17809" y2="5679">
  </linearGradient>
  <linearGradient id="id3" gradientUnits="userSpaceOnUse" xlink:href="#id0" x1="23733" y1="833" x2="17800" y2="5681">
  </linearGradient>
  <linearGradient id="id4" gradientUnits="userSpaceOnUse" xlink:href="#id0" x1="23724" y1="831" x2="17809" y2="5679">
  </linearGradient>
  <linearGradient id="id5" gradientUnits="userSpaceOnUse" xlink:href="#id0" x1="23724" y1="831" x2="17809" y2="5679">
  </linearGradient>
  <linearGradient id="id6" gradientUnits="userSpaceOnUse" xlink:href="#id0" x1="23724" y1="831" x2="17809" y2="5679">
  </linearGradient>
  <linearGradient id="id7" gradientUnits="userSpaceOnUse" xlink:href="#id0" x1="23724" y1="831" x2="17806" y2="5679">
  </linearGradient>
  <linearGradient id="id8" gradientUnits="userSpaceOnUse" xlink:href="#id0" x1="23724" y1="831" x2="17809" y2="5679">
  </linearGradient>
  <linearGradient id="id9" gradientUnits="userSpaceOnUse" xlink:href="#id0" x1="23733" y1="833" x2="17797" y2="5681">
  </linearGradient>
  <linearGradient id="id10" gradientUnits="userSpaceOnUse" xlink:href="#id0" x1="23724" y1="828" x2="17806" y2="5679">
  </linearGradient>
  <linearGradient id="id11" gradientUnits="userSpaceOnUse" xlink:href="#id0" x1="23724" y1="831" x2="17809" y2="5679">
  </linearGradient>
  <linearGradient id="id12" gradientUnits="userSpaceOnUse" xlink:href="#id0" x1="23724" y1="831" x2="17809" y2="5679">
  </linearGradient>
  <linearGradient id="id13" gradientUnits="userSpaceOnUse" xlink:href="#id0" x1="23724" y1="828" x2="17806" y2="5679">
  </linearGradient>
  <linearGradient id="id14" gradientUnits="userSpaceOnUse" xlink:href="#id0" x1="23727" y1="826" x2="17803" y2="5677">
  </linearGradient>
  <linearGradient id="id15" gradientUnits="userSpaceOnUse" xlink:href="#id0" x1="23739" y1="810" x2="17800" y2="5679">
  </linearGradient>
  <linearGradient id="id16" gradientUnits="userSpaceOnUse" xlink:href="#id0" x1="23724" y1="831" x2="17809" y2="5679">
  </linearGradient>
  <linearGradient id="id17" gradientUnits="userSpaceOnUse" xlink:href="#id0" x1="23724" y1="831" x2="17809" y2="5679">
  </linearGradient>
  <linearGradient id="id18" gradientUnits="userSpaceOnUse" xlink:href="#id0" x1="23724" y1="828" x2="17803" y2="5679">
  </linearGradient>
  <linearGradient id="id19" gradientUnits="userSpaceOnUse" xlink:href="#id0" x1="23724" y1="831" x2="17809" y2="5679">
  </linearGradient>
  <linearGradient id="id20" gradientUnits="userSpaceOnUse" xlink:href="#id0" x1="23727" y1="828" x2="17806" y2="5679">
  </linearGradient>
  <linearGradient id="id21" gradientUnits="userSpaceOnUse" xlink:href="#id0" x1="23721" y1="828" x2="17806" y2="5681">
  </linearGradient>
  <linearGradient id="id22" gradientUnits="userSpaceOnUse" xlink:href="#id0" x1="23724" y1="831" x2="17806" y2="5679">
  </linearGradient>
  <linearGradient id="id23" gradientUnits="userSpaceOnUse" xlink:href="#id0" x1="23727" y1="828" x2="17806" y2="5679">
  </linearGradient>
  <linearGradient id="id24" gradientUnits="userSpaceOnUse" xlink:href="#id0" x1="23724" y1="831" x2="17809" y2="5679">
  </linearGradient>
  <linearGradient id="id25" gradientUnits="userSpaceOnUse" xlink:href="#id0" x1="23724" y1="831" x2="17809" y2="5679">
  </linearGradient>
  <linearGradient id="id26" gradientUnits="userSpaceOnUse" xlink:href="#id0" x1="23721" y1="828" x2="17806" y2="5681">
  </linearGradient>
  <linearGradient id="id27" gradientUnits="userSpaceOnUse" xlink:href="#id0" x1="23724" y1="831" x2="17809" y2="5679">
  </linearGradient>
  <linearGradient id="id28" gradientUnits="userSpaceOnUse" xlink:href="#id0" x1="23721" y1="826" x2="17785" y2="5707">
  </linearGradient>
  <linearGradient id="id29" gradientUnits="userSpaceOnUse" xlink:href="#id0" x1="23017" y1="293" x2="18515" y2="6217">
  </linearGradient>
  <linearGradient id="id30" gradientUnits="userSpaceOnUse" xlink:href="#id0" x1="23730" y1="831" x2="17806" y2="5681">
  </linearGradient>
  <linearGradient id="id31" gradientUnits="userSpaceOnUse" xlink:href="#id0" x1="23724" y1="824" x2="17794" y2="5681">
  </linearGradient>
  <linearGradient id="id32" gradientUnits="userSpaceOnUse" xlink:href="#id0" x1="23724" y1="831" x2="17809" y2="5679">
  </linearGradient>
  <linearGradient id="id33" gradientUnits="userSpaceOnUse" xlink:href="#id0" x1="23724" y1="831" x2="17809" y2="5679">
  </linearGradient>
 </defs>
 <g id="Camada_x0020_1">
  <metadata id="CorelCorpID_0Corel-Layer"/>
  <g id="_877116216">
   <path class="fil0" d="M16113 2291l0 9 573 164c32,14 23,7 61,12 50,7 58,25 129,37 50,9 26,12 58,25 56,25 70,-16 164,65 -6,42 3,2 -18,35l-41 85c0,2 -3,5 -3,7l-56 136c-76,23 -161,-39 -263,-44l237 72c-73,194 -123,385 -149,577l-3 2c-35,263 -26,524 12,787l9 85c3,-42 6,-78 23,-102 32,55 6,108 38,171 23,44 9,44 20,90 6,30 18,25 26,65l88 231c12,28 0,-7 18,30l316 552c26,25 26,30 47,60l44 60c9,12 20,23 29,32l41 42c3,2 6,5 6,7l73 81c6,9 15,18 20,25l94 108c26,23 -20,-18 12,9l44 44c12,12 15,12 26,21l164 143c73,74 170,120 196,159 20,28 12,-7 20,42l135 95c29,18 44,28 70,46 29,21 47,28 79,46 91,51 237,129 301,180 38,32 44,12 117,58l251 111c18,5 29,5 50,12 20,5 20,9 38,18l76 39c3,0 6,2 6,2l70 18c3,0 3,0 6,2l58 39c0,76 -61,168 -99,238 0,0 -3,5 -3,7 -44,0 -193,-60 -231,-81l-132 -60c-18,-7 -70,-28 -88,-39 -23,-14 -9,-9 -35,-21l-175 -81 -3 0c211,111 433,212 673,305l-26 48 0 2 -12 21 -3 2 -50 95 -58 129c0,2 -3,5 -3,7l-105 201 -56 88 0 242 12 46 82 32 -12 -7c-3,-2 -12,-7 -18,-12 -53,-37 -53,-231 -41,-307 137,-12 132,67 213,18 26,-14 15,-9 29,-44 9,-18 12,-32 23,-58l99 -205c29,-72 64,-120 94,-189 0,-2 0,-5 3,-7 0,-2 0,-5 3,-7l152 -314c97,-14 91,16 155,25 146,21 79,28 146,37 26,2 56,-2 82,7 35,9 12,18 70,25 97,9 85,-2 167,25 53,21 111,9 173,14 79,5 47,35 143,35 132,2 240,0 357,21 249,39 468,-18 705,-18 64,0 111,5 170,-14 70,-21 79,-23 167,-23 94,0 82,-25 152,-32 32,-2 67,2 97,-2 47,-5 38,-14 67,-25 44,-18 97,-7 155,-30 38,-16 23,-12 70,-16 64,-7 32,-12 70,-25 26,-9 50,-5 79,-12 47,-9 26,-14 70,-25 70,-21 70,-7 170,-58 91,-46 53,-7 114,-32 35,-18 6,-9 61,-25 47,-12 29,-14 73,-25l561 -265c18,-12 35,-21 61,-35 70,-39 295,-175 348,-222 38,-32 53,-28 108,-76 23,-21 79,-74 108,-74 15,-35 -3,-5 15,-23l114 -108c41,-42 94,-90 132,-129l187 -196c70,-69 67,-81 117,-143 132,-166 254,-372 342,-563 158,-5 70,12 216,35 67,9 12,7 61,25 29,9 44,2 70,7 29,7 26,21 56,28 29,12 50,5 79,12 20,7 26,21 56,28 26,7 41,2 67,12 20,7 29,18 58,25 32,7 38,0 67,12 23,7 29,21 58,25 26,5 38,0 70,12 29,9 18,16 61,23 44,7 32,-2 70,16 41,18 23,16 79,16l53 -108 18 -2 3 -30 -56 -16c-91,-16 -193,-60 -234,-67 -58,-12 -70,-21 -91,-30l-3 0 -26 -7 -298 -85c-67,-18 -184,-53 -251,-55l-3 -23 -18 -5 20 -95 3 -2 26 -182 0 -7 0 -21 0 -53 9 -14 15 -210 0 -18 0 -21 0 -2 3 -78c32,-1334 -705,-2372 -2059,-3037l-76 -35 -462 -192 -18 -12 -67 -25 -3 7c-23,2 -50,5 -76,0 -29,-7 -38,-16 -44,-30 -18,-28 -6,-44 6,-62l6 -12c70,-115 137,-298 208,-422 41,-76 50,-166 111,-173 18,120 3,127 -15,222l-3 48 41 -88 0 -189c-12,-25 -26,-35 -44,-37l-187 -28 -20 39 -20 42 -56 111 -9 25c-12,28 -9,16 -20,37l-143 288c-20,51 -3,28 -41,76l-6 9 -18 35 -35 -7 -58 -7 -18 -5c-792,-136 -1497,-150 -2120,-67 -18,5 -44,14 -88,14l-3 0 -73 12 -18 9c-29,14 -53,14 -91,16l-53 5 -9 0 -32 18c-29,14 -61,7 -97,12l-15 2c-26,9 -35,23 -76,30 -99,14 -26,-2 -91,25 -32,12 -61,7 -97,18 -53,21 0,18 -79,35l-418 152c-18,12 -20,12 -41,16 -56,14 -61,23 -123,51l-120 55 -211 113c-559,330 -1009,768 -1357,1283l-333 -97 -20 0 -32 -14 -61 -18 -35 -9 -108 -30 -6 -2 -26 -9 -336 -97 -26 5 -47 76 -3 12 -3 0 -20 32zm5559 1417l389 118c23,7 44,9 67,16l795 231c26,5 50,2 76,9l132 44c20,7 29,18 56,25 29,9 44,7 70,18l345 83c58,7 20,9 64,23 23,9 47,7 73,14 26,9 29,18 56,21 38,2 58,2 91,14 29,12 23,16 64,23 117,16 73,44 137,30l73 -224c41,-275 41,-272 35,-568 0,-76 -9,-67 -26,-122 -12,-44 -3,-88 -15,-129 -12,-37 -12,-23 -20,-58l-38 -118c-6,-28 0,-25 -15,-53l-94 -203c-18,-30 -41,-69 -58,-97 -20,-32 -32,-55 -53,-90 -20,-30 -50,-53 -67,-78 -20,-25 -32,-60 -56,-90 -73,-92 -146,-148 -225,-226l-164 -136c-73,-39 -58,-76 -254,-180 -47,-25 -18,-18 -91,-60l-368 -173c-3,-2 -6,-2 -9,-5 0,0 -3,-2 -6,-2l-184 -74c-23,-7 -35,-5 -56,-14 -50,-16 -114,-78 -155,51 -18,58 -111,222 -143,298l-85 182c-15,21 0,-5 -15,16l-82 159c-15,32 -18,37 -35,81l-111 217c-26,58 -56,92 -58,164 -58,14 -15,-9 -35,32 -3,9 -6,16 -12,28l-269 572c-9,28 3,-2 -6,21 -3,7 -9,16 -15,21 -23,32 -20,35 -29,76 32,21 137,48 173,53 38,7 38,21 73,30 41,9 76,-7 79,30zm-1497 -415c29,28 202,60 269,88l298 78c61,14 53,39 105,46 123,18 58,18 111,35l126 25c26,-39 35,-51 53,-104 12,-35 32,-67 50,-104 35,-72 56,-37 114,-203 15,-48 20,-62 53,-102l149 -323c12,-21 18,-35 26,-51 15,-32 15,-25 29,-48 18,-32 26,-74 47,-108 20,-37 32,-69 50,-104 12,-28 15,-30 26,-51l126 -270c18,-46 96,-182 96,-212 -6,-42 29,-115 47,-152 12,-25 61,-125 58,-141 -41,-58 -56,-30 -129,-44 -58,-12 0,-35 -129,-35 -126,-2 -61,-39 -278,-39 -123,0 -164,-28 -289,-30 -105,0 -213,-2 -319,0 -64,2 -94,12 -152,12 -213,0 -170,14 -310,21 -73,2 -70,18 -120,30 -29,7 -56,2 -82,7 -53,9 -15,9 -53,23 -15,5 -53,9 -67,12 -53,7 -135,39 -184,58 -23,9 -38,9 -61,16l-94 32c-47,16 -205,81 -249,118l-213 95c0,2 -3,2 -6,5 -12,7 -29,18 -47,28 -94,46 -67,44 -149,92 -26,16 -23,16 -47,32 -32,25 -58,42 -88,65l-219 185c-123,99 -392,406 -380,478l26 9c12,2 15,0 26,2 20,0 32,-2 53,2 44,14 3,9 38,21 26,9 29,5 53,7 50,7 47,23 76,35 38,16 58,2 97,21 73,32 29,12 97,21 56,12 29,25 82,35 18,2 32,0 53,5 58,14 -15,25 149,30 6,12 9,23 15,32 140,9 82,18 143,35 29,7 44,2 73,14 41,16 6,14 67,23 85,12 50,32 135,37 35,2 44,2 70,14 32,14 -12,5 38,16 117,25 3,-18 91,30l126 44c26,7 47,5 73,14l225 69c38,21 9,-14 26,28zm102 2423c-6,69 -79,175 -102,247 18,-5 20,5 44,12 26,9 44,9 73,16 61,12 76,28 140,30 64,5 76,25 135,30 56,5 114,-2 170,7 56,12 64,25 137,25 61,0 111,5 164,7 114,7 234,2 348,2 234,-2 140,-16 301,-37 50,-5 123,5 170,-7 73,-21 -41,-7 140,-32 73,-9 53,-23 132,-32 102,-12 44,-30 135,-37 67,-7 328,-99 386,-127l237 -111c64,-35 161,-81 213,-122 29,-21 29,-16 58,-30l97 -76c50,-85 50,-23 146,-113 15,-14 29,-23 41,-37 38,-46 50,-76 129,-132 70,-48 44,-42 88,-85 67,-72 44,-60 76,-97l143 -194c38,-55 132,-210 96,-240 -29,-12 -26,-5 -58,-12 -61,-16 3,-25 -120,-35 -85,-7 -6,-23 -114,-32 -91,-7 -9,-18 -123,-32 -85,-12 -35,-28 -108,-35 -32,-5 -38,5 -61,-12 -38,-21 23,-12 -53,-25 -137,-25 -29,-18 -108,-37 -32,-7 -35,2 -67,-9 -123,-48 -64,-16 -120,-35 -32,-12 -15,-14 -41,-23 -29,-12 -41,-5 -70,-12 -53,-12 20,-9 -114,-35 -50,-12 -15,-16 -117,-32l-225 -69c-35,-7 -173,-60 -231,-69 -32,-5 -38,0 -67,-12l-50 -30 -99 -37c-61,-18 -6,16 -117,-30 0,0 -170,-32 -234,-58 -61,-25 -20,9 -114,-30l-175 -48c-140,-25 -38,-44 -167,-39 -12,23 -26,39 -35,62 -32,97 9,-2 -38,78 -29,53 -32,88 -41,113l-56 104c-35,44 -38,85 -64,129l-181 360c-20,42 -44,74 -61,111 -20,46 -35,83 -53,132l-47 97c-9,14 -6,2 -15,25l-85 185c-41,104 -32,62 -64,118 -38,69 -108,247 -146,298 -53,72 -12,58 -56,108zm-2307 -2100c-6,83 -50,298 38,360l20 -76c-18,51 47,279 50,302 9,106 35,203 67,300l111 254c23,72 3,115 70,182l137 113c29,23 26,28 44,53 32,51 190,189 249,242 91,81 117,60 196,136 56,55 307,155 360,182l401 157c50,14 50,2 99,28 137,72 149,-76 167,-115l47 -76c0,-2 3,-5 3,-7l15 -16c0,0 3,-2 6,-5 12,-16 18,-37 26,-55l219 -492c18,-42 15,-5 38,-62l91 -182c9,-12 9,-21 15,-35l61 -108c44,-76 79,-159 117,-240 9,-14 29,-48 32,-53l114 -231c29,-67 32,-51 58,-115 18,-42 18,-42 53,-58 3,-16 50,-115 58,-125 12,-76 41,-81 56,-134 -20,-23 -41,-44 -76,-53 -91,-21 -3,14 -114,-32l-330 -85c-20,-7 -26,-14 -50,-18l-170 -44c-53,-7 -53,-23 -108,-35l-433 -125c-35,-14 -76,-9 -114,-23 -82,-30 -243,-81 -328,-95 -58,-12 -44,-25 -99,-35l-175 -42c-47,-16 12,-14 -99,-32l-167 -46c-85,-46 -38,-12 -108,-32 -23,-7 -29,-14 -53,-18l-175 -39c-53,-9 -41,-28 -99,-37 -120,-21 -137,97 -152,127 -9,21 -6,2 -23,44l-41 104c-18,55 -9,-5 -35,102 -15,69 -61,118 -67,291zm4372 3722l-79 5c-70,5 -58,23 -111,32l190 -37zm-190 37c-38,5 -82,0 -120,5 -44,7 -50,23 -105,28m-1290 18l-15 -5c-26,-9 -67,-9 -111,-9l126 14zm-292 -37l-12 -5 -50 -5 61 9zm-184 -30l-47 -14 -35 -2 82 16zm-477 -85l-23 9c-3,2 -6,5 -6,5l-9 9c-23,37 -53,127 -70,162 -18,35 -41,46 -50,81 -9,28 -6,28 -18,53 -12,23 -9,12 -23,46l-88 171c-6,14 -12,35 -20,48l-64 136c-20,35 -41,60 -47,88 -35,2 -91,2 -123,-7l-6 -2 126 51 421 -849zm2945 -6060c1699,475 3067,2185 2497,3491l-743 -215c263,-1336 -368,-2317 -1933,-2924l178 -353zm-2521 5167c1684,288 3152,53 4106,-1428l708 185c-915,1516 -3287,2123 -5009,1645l196 -402zm-2790 -3388l675 178c-597,1458 395,2626 1757,3099l-216 434c-965,-369 -1652,-870 -2070,-1472 -480,-690 -620,-1412 -146,-2238zm278 -450c1155,-1345 2740,-1765 4682,-1415l-155 265 -6 81c-1664,-328 -2994,42 -3910,1265l-611 -196z"/>
   <path class="fil1" d="M22891 789l18 12 462 192c-152,-72 -313,-141 -480,-203zm2597 3605l-9 14 0 53 9 -67zm-41 378l3 23c67,2 184,37 251,55l298 85 -553 -164zm582 171l91 30c41,7 143,51 234,67l-325 -97zm-3018 -4915c18,2 32,12 44,37l0 -30 -44 -7z"/>
   <path class="fil2" d="M23014 342l3 -48c18,-95 32,-102 15,-222 -61,7 -70,97 -111,173 -70,125 -137,307 -208,422l-6 12c-12,18 -23,35 -6,62 6,14 15,23 44,30 26,5 53,2 76,0l3 -7 -9 -2 199 -420z"/>
   <g>
    <path class="fil3" d="M23011 7151l-6 0 -91 28 -12 7 108 -35zm-401 122l-15 2 -73 21 88 -23z"/>
    <path class="fil4" d="M17800 6254l-32 -35 -23 -18 56 53zm-79 -74l-3 -9 -12 -5 15 14z"/>
    <path class="fil5" d="M16133 2259l3 0 3 -12 -6 12zm53 -88l26 -5 -20 -5 -6 9zm599 162l32 14 20 0 -53 -14zm1743 -1172l211 -113 120 -55c61,-28 67,-37 123,-51 20,-5 23,-5 41,-16l418 -152c79,-16 26,-14 79,-35 35,-12 64,-7 97,-18 64,-28 -9,-12 91,-25 41,-7 50,-21 76,-30 -468,108 -886,279 -1254,496zm1269 -498c35,-5 67,2 97,-12l32 -18 -129 30zm137 -30l53 -5c38,-2 61,-2 91,-16l18 -9 -161 30zm234 -42l3 0c44,0 70,-9 88,-14l-91 14zm2345 28c38,-48 20,-25 41,-76l143 -288c12,-21 9,-9 20,-37l9 -25 -213 427z"/>
    <path class="fil6" d="M22087 1512c0,0 -18,46 -20,48l-108 238c-44,97 -20,72 -56,88 0,30 -79,166 -96,212l-126 270c-12,21 -15,23 -26,51 -18,35 -29,67 -50,104 -20,35 -29,76 -47,108 -15,23 -15,16 -29,48 -9,16 -15,30 -26,51l-149 323c-32,39 -38,53 -53,102 -58,166 -79,132 -114,203 -18,37 -38,69 -50,104 -18,53 -26,65 -53,104l-126 -25c-53,-16 12,-16 -111,-35 -53,-7 -44,-32 -105,-46l-298 -78c-67,-28 -240,-60 -269,-88 -99,-5 -82,-14 -167,-32l-18 -5c-3,0 -3,-2 -6,-2 -85,-30 -3,-23 -187,-53 -73,-12 -181,-42 -240,-72 -58,-32 -146,-32 -240,-67 -44,-18 -79,-12 -120,-25l-240 -69c-82,-37 -61,-7 -126,-30 -18,-7 -26,-14 -53,-21 -35,-9 -29,-5 -61,-16 -126,-51 -216,-60 -240,-69 -32,-12 -29,-16 -53,-23 -53,-12 -79,9 -152,-16l-12 -5c-3,0 -6,-2 -6,-2 -3,0 -18,-2 -20,-5 -64,7 -38,0 -70,-30 -79,25 -35,113 -132,95 -29,-5 -3,-9 -99,-28 -38,-7 -18,-7 -50,-18 -35,-14 -64,-5 -102,-23 -76,-37 9,-12 -96,-35 -85,-18 -158,-51 -243,-67 -67,-12 -38,-37 -158,-35 -26,42 -102,228 -126,288l-32 60c-12,30 -18,48 -29,78l-44 164c-12,127 -29,81 -38,166 -12,113 15,25 -20,192 -15,76 -26,323 3,388l26 -18c6,-247 67,-503 190,-768l38 -122c15,-37 35,-78 67,-97 35,-18 155,42 181,46l377 106c47,7 73,23 91,42l23 7 -6 18 12 46c0,-2 3,5 3,7l114 -217c9,-16 18,-30 26,-39 56,-55 96,-85 190,-58 50,14 44,14 102,25 41,7 44,25 85,37 38,9 61,9 105,23 35,12 64,14 105,28l146 46c23,7 35,5 58,9 32,7 53,25 91,32 123,28 281,85 401,111l199 62c85,16 6,-12 108,28 32,14 58,12 97,25 41,14 76,16 108,28 41,16 41,23 91,32 53,9 53,21 97,28 26,5 38,5 61,12l257 65c73,28 -18,5 99,32 26,7 61,18 99,28 44,9 47,25 94,37 70,16 240,53 284,95 0,46 -15,60 -32,95 -6,12 -12,28 -18,37 -3,2 -12,16 -15,18 -23,23 23,-2 -23,14 -9,9 -56,108 -58,125 -9,72 -58,143 -85,196l-208 420c-9,18 -15,37 -29,55 -50,67 -237,466 -304,591 -38,74 -56,152 -79,192l-61 113c-18,37 -38,85 -53,120 -44,97 -67,141 -126,217 -32,0 -202,-39 -234,-51l-202 -78c-18,-7 -35,-18 -53,-23l-330 -148c-105,-7 -251,-127 -336,-125 -38,2 -58,18 -94,0l-26 -21c-73,-53 -304,-291 -348,-355 -35,-53 -143,-212 -167,-265l-190 -475c-6,-35 -3,-65 -12,-95 -9,-42 -15,-28 -23,-81 -15,-88 -18,-323 -15,-418 3,-58 9,-145 18,-201 9,-53 47,-90 26,-162l-15 0c-20,58 9,12 -32,95 -20,44 -6,74 -15,120 -20,90 -35,9 -32,235 0,76 -9,330 6,395 9,42 23,46 26,106 3,60 20,102 41,180l53 145c12,21 9,25 18,48 38,99 108,224 161,312 20,39 23,62 53,85l-6 39c9,37 105,150 155,210l26 28 15 16 129 132 20 21c99,90 208,175 322,254 38,-5 41,5 67,25 18,12 29,16 50,28 35,21 58,39 96,62 70,42 251,145 322,166 50,14 26,2 64,23l164 74c23,9 38,9 61,18 97,42 82,0 114,-104l67 -111c29,0 129,55 202,62l26 -67c18,-32 12,-25 23,-65 9,-32 44,-92 58,-122l82 -194c3,-2 6,-14 9,-18l18 -42c15,-23 3,2 18,-28l155 -330c15,-30 15,-23 32,-55l111 -254c73,-127 146,-249 202,-388l26 -58c41,-65 73,-150 99,-219 41,-104 41,-74 53,-78 6,-60 23,-102 26,-164 3,-72 -3,-88 50,-118l32 -18c44,-37 58,-99 91,-150 0,-2 3,-5 3,-7 3,0 3,-2 6,-5 0,-2 3,-5 3,-7 9,-18 0,2 12,-28 26,-62 61,-111 91,-178 12,-30 12,-35 26,-58l184 -358c23,-65 -3,-12 26,-60 35,-51 53,-106 79,-162l64 -129c0,-2 3,-5 3,-7 12,-28 3,-12 15,-32 26,-35 29,-53 44,-92 18,-48 44,-53 61,-111 9,-28 18,-48 29,-69 29,-76 67,-85 73,-194 35,-14 53,-44 67,-78l260 -489c73,-150 94,-60 205,-85 26,-74 82,-168 120,-247l32 -88 35 -2 3 -5 20 7 117 25 67 32 3 0 29 9 76 30 196 78 58 23c67,21 190,74 251,118 0,0 3,2 6,5l53 28c56,25 96,67 158,95 41,18 35,23 41,39l319 226 99 69c73,62 47,48 164,136 29,23 18,25 44,51l105 88c18,16 32,30 50,46l82 92c129,134 199,270 307,427 58,88 50,102 96,171 35,51 67,134 94,210l73 185 3 5 12 16c29,55 47,166 70,231 12,35 9,62 12,104l6 48 0 5 0 2c9,44 26,69 29,138 0,60 -12,148 12,198 23,-46 23,-556 15,-632 -3,-35 -15,-46 -23,-81 -9,-39 0,-74 -6,-111 -6,-30 -20,-37 -29,-74 -9,-30 -3,-62 -18,-90 -15,-35 -18,-28 -29,-76 -15,-78 -91,-245 -126,-316l-237 -418c-15,-21 -29,-48 -47,-69 -85,-99 -44,-85 -114,-155 -44,-44 -76,-97 -120,-150 -29,-32 -20,0 -94,-72 -20,-21 -9,-9 -32,-25 -23,-16 -41,-35 -61,-55l-418 -342c-61,-46 -50,-53 -105,-85 -3,-2 -3,-2 -6,-5l-47 -28c-20,-12 -3,0 -20,-12l-228 -120c-111,-62 -152,-72 -260,-125l-509 -203c-15,-5 -108,-30 -132,-23 -6,0 -26,18 -32,23 -15,25 -3,16 -15,44 -18,39 -9,12 -23,35 -12,23 -3,9 -12,35l-32 74c-44,113 -47,74 -76,145 -18,42 -67,166 -99,182 -76,37 -117,-48 -178,-14 -32,53 15,97 -79,102z"/>
    <path class="fil7" d="M17780 5615l91 97 64 53 -155 -150zm389 346l190 157c23,14 35,21 53,35l208 129c20,14 29,23 44,32 26,16 32,9 61,28 64,44 143,81 213,111 32,14 35,12 67,23 -316,-155 -594,-323 -836,-515zm228 -540l-15 -16 -26 -28c-50,-60 -146,-173 -155,-210l-35 -35 -12 -16 -105 -180c12,18 20,28 32,44l73 136m-108 -180l-70 -157c-18,-32 -70,-192 -76,-240 -6,-44 -20,-53 -32,-76 38,164 99,323 178,473zm-187 -510l-3 -69c-6,-55 -6,-16 -20,-53l23 122zm-23 -122l0 -2 -9 -76 9 78zm-404 -1281l0 -2 -12 0 12 2z"/>
    <path class="fil8" d="M22482 1578l6 21 94 21 -99 -42zm2658 1835l0 -5 -3 -5 3 9zm-76 -194c-26,-76 -58,-159 -94,-210 -47,-69 -38,-83 -96,-171 -108,-157 -178,-293 -307,-427l-82 -92c-18,-16 -32,-30 -50,-46l-105 -88c-26,-25 -15,-28 -44,-51 -117,-88 -91,-74 -164,-136l-99 -69c465,367 830,817 1041,1290z"/>
    <path class="fil9" d="M24359 6085c-29,0 -85,53 -108,74 -56,48 -70,44 -108,76 -53,46 -278,182 -348,222 -26,14 -44,23 -61,35l-561 265c-44,12 -26,14 -73,25 -56,16 -26,7 -61,25 -61,25 -23,-14 -114,32 -99,51 -99,37 -170,58 -44,12 -23,16 -70,25 -29,7 -53,2 -79,12 -38,14 -6,18 -70,25 -47,5 -32,0 -70,16 -58,23 -111,12 -155,30 -29,12 -20,21 -67,25 -29,5 -64,0 -97,2 -70,7 -58,32 -152,32 -88,0 -96,2 -167,23 -58,18 -105,14 -170,14 -237,0 -456,58 -705,18 -117,-21 -225,-18 -357,-21 -97,0 -64,-30 -143,-35 -61,-5 -120,7 -173,-14 -82,-28 -70,-16 -167,-25 -58,-7 -35,-16 -70,-25 -26,-9 -56,-5 -82,-7 -67,-9 0,-16 -146,-37 -64,-9 -58,-39 -155,-25l-152 314c-3,2 -3,5 -3,7 -3,2 -3,5 -3,7 -29,69 -64,118 -94,189l-99 205c-12,25 -15,39 -23,58 -15,35 -3,30 -29,44 -82,48 -76,-30 -213,-18 -12,76 -12,270 41,307 6,5 15,9 18,12l12 7 23 9 6 2c32,9 88,9 123,7 6,-28 26,-53 47,-88l64 -136c9,-14 15,-35 20,-48l88 -171c15,-35 12,-23 23,-46 12,-25 9,-25 18,-53 9,-35 32,-46 50,-81 18,-35 47,-125 70,-162l9 -9c0,0 3,-2 6,-5l23 -9 9 -21 85 23 9 0 15 5 114 28 53 12 111 23 35 2 47 14 123 21 50 5 12 5 167 23c44,0 85,0 111,9l15 5 278 23 15 0 15 0 18 0 20 0 70 2 23 0 29 0 237 0 29 0 29 0 23 0 6 0 29 0 29 -2 173 -12 15 -2 12 -2c96,-28 146,-14 240,-25 56,-5 61,-21 105,-28 38,-5 82,0 120,-5 53,-9 41,-28 111,-32l79 -5 50 -12 35 -9 9 0 88 -21 73 -21 15 -2 222 -62 12 -5 58 -21 12 -7 91 -28 6 0 173 -65 20 -9 15 -7 3 0 20 -9 6 -5 15 -7 26 -9c599,-254 1117,-623 1503,-1087l-3 -18c38,-23 41,-55 73,-88 79,-81 190,-265 257,-372l53 -99c15,-30 18,-28 29,-51 15,-28 18,-60 44,-76l6 -9 6 2 6 -5 129 30c20,5 26,14 56,23 20,7 44,7 64,12 29,7 32,14 53,21 50,18 9,-7 120,35 23,7 41,7 64,14 32,9 32,16 56,23 32,9 50,5 76,12 44,12 -12,7 120,35 35,9 29,14 53,23l20 7 99 28c38,14 70,9 120,30 67,-104 91,-205 73,-332 -56,55 -41,25 -196,-5 -26,-7 -32,-16 -64,-23 -29,-7 -47,-5 -73,-14 -29,-9 -32,-21 -58,-28 -38,-7 -38,2 -73,-14l-205 -58c-56,-7 -20,-5 -64,-21 -35,-14 -44,-5 -79,-12 -35,-7 -18,-14 -56,-28 -29,-12 -44,-5 -76,-12 -56,-16 -18,-37 -140,-30 -18,39 -29,53 -47,90 -9,23 -9,28 -20,46 -129,233 -269,436 -450,628l-319 316c-58,51 -47,44 -85,51z"/>
    <path class="fil10" d="M21897 6888c70,-2 88,-7 96,-14l-96 14zm199 -30l44 -5c70,-2 53,-12 67,-18l-111 23zm152 -30l64 -7c61,-5 44,-9 64,-23l-129 30zm196 -46l32 -5 6 -5 -38 9zm135 -35c23,0 38,2 67,-14 50,-23 32,-9 88,-21l167 -65 -322 99zm1015 -402l82 -39 23 -18 -105 58zm339 -205l61 -39 18 -14 53 -37"/>
    <path class="fil11" d="M19160 1853l38 -21c76,-32 94,-53 120,-69l-158 90zm219 -122c132,-48 50,-18 108,-53l-108 53zm260 -120l117 -39c41,-7 35,-12 50,-21l-167 60zm181 -65c32,-7 50,2 79,-14 26,-14 3,-21 58,-28m2181 -141c12,-2 23,-16 53,-85l9 -16 -61 102zm-2111 120l-208 62"/>
    <path class="fil12" d="M17806 2315c12,-39 44,-62 76,-92 85,-92 20,-39 158,-157 53,-46 205,-180 278,-203 611,-459 1310,-725 2091,-817l32 -5 44 -2 26 -2 164 -14 29 -5c67,-18 769,-28 828,-5 76,30 173,23 260,25 64,2 73,18 117,28 47,9 97,2 140,9 53,7 50,25 108,32 44,2 94,9 132,9 23,-32 140,-242 135,-277 -26,-74 -82,-28 -158,-51 -32,-12 -23,-23 -79,-25 -61,-2 -53,5 -99,-16 -79,-37 -120,-7 -199,-23 -32,-7 -38,-23 -79,-28 -123,-12 -167,18 -310,-25 -53,-16 -146,-12 -211,-14 -237,0 -412,-18 -623,32 -64,16 -143,-2 -211,9 -120,23 -23,18 -196,30 -88,5 -35,25 -193,32 -38,0 -53,5 -82,18 -38,18 18,7 -44,16 -18,2 -35,2 -53,5 -56,9 -29,18 -82,28 -50,7 -58,-5 -97,16 -76,44 -29,-2 -123,39l-123 42c-41,16 -47,5 -88,28 -35,18 -50,14 -79,28 -70,39 -158,69 -231,97 -155,53 -152,81 -219,106l-187 95c-44,23 -15,-5 -67,35 -23,18 -20,14 -41,23 -44,21 -23,21 -61,48l-143 83c-58,28 -79,67 -132,90 -58,25 -67,60 -111,97 -29,25 -35,16 -64,44 -23,23 -26,35 -56,60 -82,72 -85,67 -167,162 -91,108 -225,231 -304,358 -15,21 -32,42 -50,69 -26,44 -70,97 -70,152 44,25 29,14 85,21 79,12 73,74 152,-28 44,-60 41,-65 105,-127 3,0 29,-25 32,-28l29 -16 9 -7z"/>
    <path class="fil13" d="M19715 6258l50 12c97,-166 32,-102 123,-215 0,0 3,-5 3,-5 44,12 6,2 35,14 47,21 76,16 114,30 -3,51 0,23 -15,53l-53 118c-9,18 -9,25 -20,42l-23 23c0,2 -3,5 -3,7 -26,37 -12,69 -73,157 -15,25 -6,2 -18,39 -23,69 -47,92 -70,162 -9,23 -9,14 -18,42 20,48 91,83 158,53l6 -7 23 -46 20 -42 152 -314 50 9 76 12c190,30 374,48 559,65l-140 -18c-149,-39 -199,-18 -371,-111 -44,-21 -29,-30 -53,-62l-67 -60c-47,-30 -44,-53 -47,-115 0,-69 3,-58 15,-74 3,-23 -3,-5 9,-28 0,-2 3,-12 6,-14 9,-16 3,-9 15,-21 0,-35 6,-35 18,-62l61 -122c18,-44 20,-46 41,-62 44,-51 3,-37 56,-108 38,-51 108,-228 146,-298 32,-55 23,-14 64,-118l85 -185c9,-23 6,-12 15,-25l47 -97c18,-48 32,-85 53,-132 18,-37 41,-69 61,-111l181 -360c26,-44 29,-85 64,-129l56 -104c9,-25 12,-60 41,-113 47,-81 6,18 38,-78 9,-23 23,-39 35,-62 129,-5 26,14 167,39l175 48c94,39 53,5 114,30 64,25 234,58 234,58 111,46 56,12 117,30l99 37c26,2 44,9 58,14 29,7 35,7 64,14 91,18 398,122 459,136l234 67c26,7 44,2 67,9 15,5 26,16 56,23 23,5 41,2 61,9 41,12 -15,5 117,35 38,9 3,16 108,37l351 102c105,18 35,23 111,39 23,5 41,5 64,14 35,16 3,14 50,25 26,5 44,2 53,12 56,7 61,16 97,39 41,5 64,30 76,58 79,72 3,185 15,245 6,30 0,12 15,28l18 18 6 5 9 -14 708 185 -3 2 15 2c38,-72 152,-245 114,-300 -50,-32 -35,-16 -99,-28 -53,-12 -32,-23 -99,-32 -58,-9 -53,-23 -91,-32 -23,-7 -41,-2 -64,-9 -32,-7 -18,-9 -44,-21 -32,-18 -61,-7 -102,-23 -97,-37 -196,-42 -295,-99l3 -65c-18,-32 -3,-16 -44,-32l-178 -53c-41,-14 -152,-28 -196,-46l-15 -5c0,-2 -3,-2 -6,-5 -26,-12 -15,-7 -47,-12l-386 -106c-41,-9 -58,-21 -88,-32 -58,-25 -161,-39 -202,-53l-193 -58c-94,-12 -50,-16 -102,-46l-61 -25c-67,-28 -137,-25 -211,-44 -41,-12 0,-12 -97,-30 -35,-7 -53,-18 -94,-30 -18,-2 -38,-5 -56,-12 -6,-2 -26,-12 -41,-16l-196 -55c-35,-9 -41,-23 -82,-30l-588 -157c-44,-12 -56,-12 -70,-58 -9,-32 -3,-60 26,-83 6,-42 35,-90 56,-122 44,-69 82,-180 114,-254l126 -228c102,-194 167,-369 263,-538 6,-14 23,-48 29,-60 26,-62 73,-194 108,-245 26,-35 47,-74 67,-115 44,-78 41,-102 53,-125l97 -171c18,-21 20,-32 35,-53 35,-88 73,-44 170,-53l15 -9 -12 -5 175 -348 -35 2 -32 88c-38,78 -94,173 -120,247 -111,25 -132,-65 -205,85l-260 489c-15,35 -32,65 -67,78 -6,108 -44,118 -73,194 -12,21 -20,42 -29,69 -18,58 -44,62 -61,111 -15,39 -18,58 -44,92 -12,21 -3,5 -15,32 0,2 -3,5 -3,7l-64 129c-26,55 -44,111 -79,162 -29,48 -3,-5 -26,60l-184 358c-15,23 -15,28 -26,58 -29,67 -64,115 -91,178 -12,30 -3,9 -12,28 0,2 -3,5 -3,7 -3,2 -3,5 -6,5 0,2 -3,5 -3,7 -32,51 -47,113 -91,150l-32 18c-53,30 -47,46 -50,118 -3,62 -20,104 -26,164 -12,5 -12,-25 -53,78 -26,69 -58,155 -99,219l-26 58c-56,138 -129,261 -202,388l-111 254c-18,32 -18,25 -32,55l-155 330c-15,30 -3,5 -18,28l-18 42c-3,5 -6,16 -9,18l-82 194c-15,30 -50,90 -58,122 -12,39 -6,32 -23,65l-26 67c-73,-7 -173,-62 -202,-62l-67 111c-32,104 -18,145 -114,104 -23,-9 -38,-9 -61,-18l-164 -74c-38,-21 -15,-9 -64,-23 -70,-21 -251,-125 -322,-166 -38,-23 -61,-42 -96,-62 -20,-12 -32,-16 -50,-28 -26,-21 -29,-30 -67,-25 254,175 544,321 848,432zm3989 -4555c-6,-16 0,-21 -41,-39 -61,-28 -102,-69 -158,-95l-53 -28c-3,-2 -6,-5 -6,-5 -61,-44 -184,-97 -251,-118l-58 -23c199,88 389,189 567,307zm-871 -425l-67 -32 -117 -25 184 58z"/>
    <path class="fil14" d="M17718 6171l3 9 23 21 23 18 32 35 12 9 12 14c94,83 199,164 307,240l26 18 3 2 53 37c140,97 289,185 447,270l3 0 175 81c26,12 12,7 35,21 18,12 70,32 88,39l132 60c38,21 187,81 231,81 0,-2 3,-7 3,-7 38,-69 99,-162 99,-238l-58 -39c-3,-2 -3,-2 -6,-2l-70 -18c0,0 -3,-2 -6,-2l-76 -39c-18,-9 -18,-14 -38,-18 -20,-7 -32,-7 -50,-12l-251 -111c-73,-46 -79,-25 -117,-58 -64,-51 -211,-129 -301,-180 -32,-18 -50,-25 -79,-46 -26,-18 -41,-28 -70,-46l-135 -95c-29,-14 -6,-2 -23,-12 -35,-21 -38,-35 -97,-72l-366 -300c-15,-18 -20,-32 -44,-53 -32,-35 -58,-62 -94,-99 -94,-90 -53,-65 -88,-104 -32,-35 -61,-62 -88,-97l-135 -201c-58,-65 -29,-60 -73,-120l-143 -279c-15,-44 -18,-23 -32,-62l-58 -136c0,-5 -29,-138 -53,-187l-20 -25c-3,0 -3,5 -3,5l9 136 3 30 3 12c9,23 20,-2 29,83 6,92 23,53 32,134l53 155c26,46 12,44 26,85 53,129 260,508 339,600 64,76 26,46 79,113l263 295c15,14 20,9 29,55z"/>
    <path class="fil15" d="M20157 5963c-12,12 -6,5 -15,21 -3,2 -6,12 -6,14 -12,23 -6,5 -9,28 3,138 0,97 61,152 58,53 6,37 137,83 88,30 -3,46 105,51 0,2 3,2 3,7 6,30 41,44 61,53 20,12 -6,5 32,14 53,16 99,7 149,37 56,35 29,7 146,21 298,42 716,46 994,-18 56,-14 114,-9 170,-18 18,-5 44,-16 64,-21 47,-9 56,-2 102,-21 91,-37 137,-28 178,-53 50,-30 -9,-9 56,-25 208,-55 211,-81 260,-97 23,-7 41,-14 64,-23 53,-23 47,0 114,-42l184 -97c29,-21 73,-32 120,-62l120 -72c20,-12 26,-18 56,-30 15,-7 15,-5 29,-12l181 -136c79,-78 94,-76 135,-115l70 -76c3,0 3,-5 6,-5 0,-2 6,-9 9,-9 26,-28 20,-12 44,-44 9,-12 9,-12 20,-25 97,-106 228,-258 272,-395 9,-30 12,-48 20,-76 32,-88 85,-180 58,-300 -12,-28 -35,-53 -76,-58l12 16c44,44 35,7 38,55 15,122 -170,422 -249,522l-187 198c-41,55 -50,30 -97,72 -12,12 -18,16 -29,25 -6,7 -9,9 -15,16 0,0 -3,2 -3,5l-181 166c-18,14 -53,35 -70,46l-269 173c-23,16 -47,25 -70,37 -91,44 -58,2 -123,51l-32 18c-41,18 -96,12 -170,48 -53,28 -38,44 -158,67 -64,12 -76,0 -181,39 -47,18 -32,21 -97,23l0 16c-108,5 -126,21 -193,28l-260 51c-96,5 -114,16 -202,18 -23,0 -117,9 -140,14 -38,9 -56,23 -140,16 -58,-7 -23,-9 -58,-16 -61,-12 -357,0 -465,-30 -82,-25 -73,0 -129,-25 -35,-14 0,-2 -26,-12 -44,-12 -88,-2 -135,-21 -23,-9 -26,-14 -56,-21 -76,-16 -237,-92 -249,-138 0,-65 20,-46 15,-108z"/>
    <path class="fil16" d="M20174 5963l0 76c35,7 79,18 108,28 38,12 76,18 117,30 64,18 38,23 97,37 114,25 67,14 32,32 38,5 187,9 213,18 58,18 29,12 105,12 61,2 61,14 105,18 85,12 444,21 532,-14 3,-2 6,-2 9,-2 9,-5 -6,-2 20,-7 64,-14 135,16 260,-30 76,-25 97,0 170,-12 53,-9 32,-23 88,-28 208,-16 -6,-21 213,-32 9,-9 0,2 12,-18 6,-12 0,-2 6,-14 18,-2 53,0 67,-2 38,-7 26,-12 47,-23 41,-21 73,-9 114,-32l73 -32c140,-55 70,9 105,-72 41,-2 149,-14 164,-55 12,-28 6,-9 0,-14l120 -28c3,-2 6,-2 6,-5l32 -16c85,-37 23,-23 85,-58l85 -53c29,-16 18,2 53,-23 26,-21 -3,-9 38,-28 18,-9 32,-14 47,-23l61 -55c0,-2 3,-5 6,-5l9 -9c38,-30 91,-21 129,-76 3,-9 6,-14 15,-23l18 -18c9,-9 26,-18 38,-28l79 -69c0,-2 3,-5 3,-5l26 -30c3,-2 9,-5 18,-14 38,-30 23,-46 79,-95 23,-21 20,-12 41,-37 44,-53 47,-74 91,-120 3,-2 3,-5 6,-5l20 -37c0,0 9,-12 12,-18 3,-2 18,-23 18,-23l20 -58c23,-62 32,9 41,-108 3,0 12,-5 12,-5 23,-14 9,-5 20,-14 3,-51 20,-74 0,-106 -32,-51 -44,5 -79,-62 -9,-9 -26,-7 -53,-12 -47,-12 -15,-9 -50,-25 -23,-9 -41,-9 -64,-14 -76,-16 -6,-21 -111,-39l-351 -102c-105,-21 -70,-28 -108,-37 -132,-30 -76,-23 -117,-35 -20,-7 -38,-5 -61,-9 -29,-7 -41,-18 -56,-23 -23,-7 -41,-2 -67,-9l-234 -67c-61,-14 -368,-118 -459,-136 -29,-7 -35,-7 -64,-14 -15,-5 -32,-12 -58,-14l50 30c29,12 35,7 67,12 58,9 196,62 231,69l225 69c102,16 67,21 117,32 135,25 61,23 114,35 29,7 41,0 70,12 26,9 9,12 41,23 56,18 -3,-14 120,35 32,12 35,2 67,9 79,18 -29,12 108,37 76,14 15,5 53,25 23,16 29,7 61,12 73,7 23,23 108,35 114,14 32,25 123,32 108,9 29,25 114,32 123,9 58,18 120,35 32,7 29,0 58,12 35,30 -58,185 -96,240l-143 194c-32,37 -9,25 -76,97 -44,44 -18,37 -88,85 -79,55 -91,85 -129,132 -12,14 -26,23 -41,37 -97,90 -97,28 -146,113l-97 76c-29,14 -29,9 -58,30 -53,42 -149,88 -213,122l-237 111c-58,28 -319,120 -386,127 -91,7 -32,25 -135,37 -79,9 -58,23 -132,32 -181,25 -67,12 -140,32 -47,12 -120,2 -170,7 -161,21 -67,35 -301,37 -114,0 -234,5 -348,-2 -53,-2 -102,-7 -164,-7 -73,0 -82,-14 -137,-25 -56,-9 -114,-2 -170,-7 -58,-5 -70,-25 -135,-30 -64,-2 -79,-18 -140,-30 -29,-7 -47,-7 -73,-16 -23,-7 -26,-16 -44,-12z"/>
    <path class="fil17" d="M20174 5963c23,-72 97,-178 102,-247 -20,16 -23,18 -41,62l-61 122c-12,28 -18,28 -18,62 6,62 -15,44 -15,108 12,46 173,122 249,138 29,7 32,12 56,21 47,18 91,9 135,21 26,9 -9,-2 26,12 56,25 47,0 129,25 108,30 404,18 465,30 35,7 0,9 58,16 85,7 102,-7 140,-16 23,-5 117,-14 140,-14 88,-2 105,-14 202,-18l260 -51c67,-7 85,-23 193,-28l0 -16c64,-2 50,-5 97,-23 105,-39 117,-28 181,-39 120,-23 105,-39 158,-67 73,-37 129,-30 170,-48l32 -18c64,-48 32,-7 123,-51 23,-12 47,-21 70,-37l269 -173c18,-12 53,-32 70,-46l181 -166c0,-2 3,-5 3,-5 6,-7 9,-9 15,-16 12,-9 18,-14 29,-25 47,-42 56,-16 97,-72l187 -198c79,-99 263,-399 249,-522 -3,-48 6,-12 -38,-55l-12 -16c-35,-23 -41,-32 -97,-39 35,67 47,12 79,62 20,32 3,55 0,106 -12,9 3,0 -20,14 0,0 -9,5 -12,5 -9,118 -18,46 -41,108l-20 58c0,0 -15,21 -18,23 -3,7 -12,18 -12,18l-20 37c-3,0 -3,2 -6,5 -44,46 -47,67 -91,120 -20,25 -18,16 -41,37 -56,48 -41,65 -79,95 -9,9 -15,12 -18,14l-26 30c0,0 -3,2 -3,5l-79 69c-12,9 -29,18 -38,28l-18 18c-9,9 -12,14 -15,23 -38,55 -91,46 -129,76l-9 9c-3,0 -6,2 -6,5l-61 55c-15,9 -29,14 -47,23 -41,18 -12,7 -38,28 -35,25 -23,7 -53,23l-85 53c-61,35 0,21 -85,58l-32 16c0,2 -3,2 -6,5l-120 28c6,5 12,-14 0,14 -15,42 -123,53 -164,55 -35,81 35,16 -105,72l-73 32c-41,23 -73,12 -114,32 -20,12 -9,16 -47,23 -15,2 -50,0 -67,2 -6,12 0,2 -6,14 -12,21 -3,9 -12,18 -219,12 -6,16 -213,32 -56,5 -35,18 -88,28 -73,12 -94,-14 -170,12 -126,46 -196,16 -260,30 -26,5 -12,2 -20,7 -3,0 -6,0 -9,2 -88,35 -447,25 -532,14 -44,-5 -44,-16 -105,-18 -76,0 -47,7 -105,-12 -26,-9 -175,-14 -213,-18 35,-18 82,-7 -32,-32 -58,-14 -32,-18 -97,-37 -41,-12 -79,-18 -117,-30 -29,-9 -73,-21 -108,-28l0 -76z"/>
    <path class="fil18" d="M22277 1634l38 -9 0 -25c12,16 18,12 53,25l114 39c47,16 126,35 175,58l246 111c3,0 9,5 12,7l313 178c0,2 3,2 6,5 0,0 3,2 3,5 20,14 3,0 15,7 9,7 9,7 20,16l158 113c29,23 44,39 70,72l243 249c6,7 9,12 15,23 41,58 126,145 187,247l35 62c18,37 35,42 56,88l167 438c32,106 29,473 26,582 0,85 -41,307 -70,383 -47,129 -23,48 -47,99 35,18 94,48 126,37 23,-9 26,-25 38,-51 26,-58 26,-35 58,-134 0,-2 3,-7 3,-9l61 -295 0 -328 6 -125c-32,-178 -91,-348 -167,-510l-26 -48 -23 -46 -3 -5 -23 -44 -6 -5c-29,-42 -38,-72 -88,-115 -18,-16 -3,5 -20,-18 -12,-18 -9,-37 -38,-67l-278 -318 -6 -5m-363 -284c-114,-69 -56,-23 -88,-62l-99 -60 -12 -9 -15 -7 -6 -2 -9 -2 -44 -21c-76,-32 -50,-23 -64,-42l-117 -62 -3 0 -41 -21 -20 -7c-76,-32 -187,-76 -234,-85 -53,-12 -35,-23 -79,-35 -44,-12 -47,5 -85,-39 -97,9 -135,-35 -170,53"/>
    <path class="fil18" d="M19900 1532c-29,16 -47,7 -79,14l-15 5c-15,9 -9,14 -50,21l-117 39 -58 25 -94 42c-58,35 23,5 -108,53l-3 0 -26 14 -18 7 -15 12c-23,16 -41,37 -120,69l-38 21 -29 18 -15 12 -41 23 -3 5 -9 5 -67 46 -26 18 -105 78 -12 12 -38 28 -9 9 -237 210 -161 173 -15 32 -12 18c0,2 -3,5 -3,7l-85 115c-41,46 -56,69 -58,118 3,2 18,5 20,5 0,0 3,2 6,2l12 5c73,25 99,5 152,16 23,7 20,12 53,23 23,9 114,18 240,69 32,12 26,7 61,16 26,7 35,14 53,21 64,23 44,-7 126,30l240 69c41,14 76,7 120,25 94,35 181,35 240,67 58,30 167,60 240,72 184,30 102,23 187,53 3,0 3,2 6,2l18 5c85,18 67,28 167,32 -18,-42 12,-7 -26,-28l-225 -69c-26,-9 -47,-7 -73,-14l-126 -44c-88,-48 26,-5 -91,-30 -50,-12 -6,-2 -38,-16 -26,-12 -35,-12 -70,-14 -85,-5 -50,-25 -135,-37 -61,-9 -26,-7 -67,-23 -29,-12 -44,-7 -73,-14 -61,-16 -3,-25 -143,-35 -6,-9 -9,-21 -15,-32 -164,-5 -91,-16 -149,-30 -20,-5 -35,-2 -53,-5 -53,-9 -26,-23 -82,-35 -67,-9 -23,12 -97,-21 -38,-18 -58,-5 -97,-21 -29,-12 -26,-28 -76,-35 -23,-2 -26,2 -53,-7 -35,-12 6,-7 -38,-21 -20,-5 -32,-2 -53,-2 -12,-2 -15,0 -26,-2l-26 -9c-12,-72 257,-378 380,-478l219 -185c29,-23 56,-39 88,-65 23,-16 20,-16 47,-32 82,-48 56,-46 149,-92 18,-9 35,-21 47,-28 3,-2 6,-2 6,-5l213 -95c44,-37 202,-102 249,-118l94 -32c23,-7 38,-7 61,-16 50,-18 132,-51 184,-58 15,-2 53,-7 67,-12 38,-14 0,-14 53,-23 26,-5 53,0 82,-7 50,-12 47,-28 120,-30 140,-7 96,-21 310,-21 58,0 88,-9 152,-12 105,-2 213,0 319,0 126,2 167,30 289,30 216,0 152,37 278,39 129,0 70,23 129,35 73,14 88,-14 129,44 3,16 -47,115 -58,141 -18,37 -53,111 -47,152 35,-16 12,9 56,-88l108 -238c3,-2 20,-48 20,-48 -6,-23 0,-18 -9,-32 -196,-7 -94,-21 -173,-30 -26,-5 -47,0 -73,-7 -41,-9 -35,-28 -99,-32 -44,-2 -99,7 -140,-5l-53 -18 -181 -14 -12 0c-97,0 -193,-2 -289,-2l-363 2 -129 12 -50 16c-44,7 -91,2 -126,9 -56,9 -50,28 -114,30 -79,2 -61,2 -123,21l-123 21 -3 2"/>
    <path class="fil19" d="M17420 3021l12 0 0 2 538 141c-18,-18 -44,-35 -91,-42l-377 -106c-26,-5 -146,-65 -181,-46 -32,18 -53,60 -67,97l-38 122 102 -196 102 28zm404 822l0 23 0 23 0 268 0 21 0 21 0 7 3 12 0 9 9 76 0 2c15,37 15,-2 20,53l3 69 0 7 3 7 6 23c12,23 26,32 32,76 6,48 58,208 76,240l70 157 3 0c12,18 20,28 32,44l73 136 12 16 35 35 6 -39c-29,-23 -32,-46 -53,-85 -53,-88 -123,-212 -161,-312 -9,-23 -6,-28 -18,-48l-53 -145c-20,-78 -38,-120 -41,-180 -3,-60 -18,-65 -26,-106 -15,-65 -6,-318 -6,-395 -3,-226 12,-145 32,-235 9,-46 -6,-76 15,-120 41,-83 12,-37 32,-95l15 0c20,72 -18,108 -26,162 -9,55 -15,143 -18,201 -3,95 0,330 15,418 9,53 15,39 23,81 9,30 6,60 12,95l190 475c23,53 132,212 167,265 44,65 275,302 348,355l26 21c35,18 56,2 94,0 85,-2 231,118 336,125 -56,-51 -140,-74 -205,-108l-64 -39c-50,-37 -61,-16 -105,-35 0,0 -12,-7 -18,-9l-146 -90c-3,-2 -3,-5 -6,-5l-32 -28c-56,-46 -126,-90 -181,-164 0,0 -20,-35 -26,-42 -15,-23 -15,-21 -29,-39 -35,-42 -67,-145 -82,-196 -47,-162 38,-7 -102,-305 -18,-39 -38,-60 -44,-102 -47,21 -32,7 -35,7l-9 -95c-20,-9 -32,-9 -50,-16 -3,-76 15,-90 -6,-175 -26,-118 -23,-7 -23,-182 0,-104 -50,-293 23,-365 6,-173 53,-222 67,-291 26,-106 18,-46 35,-102l41 -104c18,-42 15,-23 23,-44 15,-30 32,-148 152,-127 58,9 47,28 99,37l175 39c23,5 29,12 53,18 70,21 23,-14 108,32l167 46c111,18 53,16 99,32l175 42c56,9 41,23 99,35 85,14 246,65 328,95 38,14 79,9 114,23l433 125c56,12 56,28 108,35l170 44c23,5 29,12 50,18l330 85c111,46 23,12 114,32 35,9 56,30 76,53 -15,53 -44,58 -56,134 47,-16 0,9 23,-14 3,-2 12,-16 15,-18 6,-9 12,-25 18,-37 18,-35 32,-48 32,-95 -44,-42 -213,-78 -284,-95 -47,-12 -50,-28 -94,-37 -38,-9 -73,-21 -99,-28 -117,-28 -26,-5 -99,-32l-257 -65c-23,-7 -35,-7 -61,-12 -44,-7 -44,-18 -97,-28 -50,-9 -50,-16 -91,-32 -32,-12 -67,-14 -108,-28 -38,-14 -64,-12 -97,-25 -102,-39 -23,-12 -108,-28l-199 -62c-120,-25 -278,-83 -401,-111 -38,-7 -58,-25 -91,-32 -23,-5 -35,-2 -58,-9l-146 -46c-41,-14 -70,-16 -105,-28 -44,-14 -67,-14 -105,-23 -41,-12 -44,-30 -85,-37 -58,-12 -53,-12 -102,-25 -94,-28 -135,2 -190,58 -9,9 -18,23 -26,39l-114 217c0,-2 -3,-9 -3,-7l-12 -46c-91,226 -143,443 -164,653z"/>
    <path class="fil20" d="M20128 6025c-12,16 -15,5 -15,74 3,62 0,85 47,115l67 60c23,32 9,42 53,62 173,92 222,72 371,111l140 18 12 2 61 5 15 2 3 0c1278,88 2389,-231 3187,-1313l0 -2 6 -7 94 -143c12,-28 18,-21 23,-25l12 -18 -6 -5 -18 -18c-15,-16 -9,2 -15,-28 -12,-60 64,-173 -15,-245 26,120 -26,212 -58,300 -9,28 -12,46 -20,76 -44,136 -175,288 -272,395 -12,14 -12,14 -20,25 -23,32 -18,16 -44,44 -3,0 -9,7 -9,9 -3,0 -3,5 -6,5l-70 76c-41,39 -56,37 -135,115l-181 136c-15,7 -15,5 -29,12 -29,12 -35,18 -56,30l-120 72c-47,30 -91,42 -120,62l-184 97c-67,42 -61,18 -114,42 -23,9 -41,16 -64,23 -50,16 -53,42 -260,97 -64,16 -6,-5 -56,25 -41,25 -88,16 -178,53 -47,18 -56,12 -102,21 -20,5 -47,16 -64,21 -56,9 -114,5 -170,18 -278,65 -696,60 -994,18 -117,-14 -91,14 -146,-21 -50,-30 -97,-21 -149,-37 -38,-9 -12,-2 -32,-14 -20,-9 -56,-23 -61,-53 0,-5 -3,-5 -3,-7 -108,-5 -18,-21 -105,-51 -132,-46 -79,-30 -137,-83 -61,-55 -58,-14 -61,-152z"/>
    <path class="fil21" d="M24110 4405c-94,-25 -216,-46 -301,-85l-15 -9c-26,-2 -29,-12 -56,-21 -26,-7 -50,-5 -73,-14 -44,-14 -6,-16 -64,-23l-345 -83c-26,-12 -41,-9 -70,-18 -26,-7 -35,-18 -56,-25l-132 -44c-26,-7 -50,-5 -76,-9l-795 -231c-23,-7 -44,-9 -67,-16l-389 -118c-140,-23 -158,-32 -266,-67 -88,-28 -91,14 -76,-97 -29,23 -35,51 -26,83 15,46 26,46 70,58l588 157c41,7 47,21 82,30l196 55c15,5 35,14 41,16 18,7 38,9 56,12 41,12 58,23 94,30 97,18 56,18 97,30 73,18 143,16 211,44l61 25c53,30 9,35 102,46l193 58c41,14 143,28 202,53 29,12 47,23 88,32l386 106c32,5 20,0 47,12 3,2 6,2 6,5l15 5c44,18 155,32 196,46l178 53c41,16 26,0 44,32 26,-21 18,-16 23,-62l99 -14c6,-42 15,-48 23,-62l15 -88c38,-286 35,-554 -12,-805l-6 125 0 328 -61 295c0,2 -3,7 -3,9 -32,99 -32,76 -58,134 -12,25 -15,42 -38,51 -32,12 -91,-18 -126,-37zm-1529 -2785l-94 -21 -6 -21 -20 -7 -15 9c38,44 41,28 85,39 44,12 26,23 79,35 47,9 158,53 234,85l-263 -120zm444 210c15,18 -12,9 64,42l44 21 9 2 -117 -65zm249 143c32,39 -26,-7 88,62l357 277m6 7l6 5c170,159 313,332 424,519 -29,-42 -38,-72 -88,-115 -18,-16 -3,5 -20,-18 -12,-18 -9,-37 -38,-67l-278 -318m-6 -5c-135,-122 -281,-240 -450,-346"/>
    <path class="fil22" d="M19110 5603l330 148c18,5 35,16 53,23l202 78c32,12 202,51 234,51 58,-76 82,-120 126,-217 15,-35 35,-83 53,-120l61 -113c23,-39 41,-118 79,-192 67,-125 254,-524 304,-591 15,-18 20,-37 29,-55l208 -420c26,-53 76,-125 85,-196 -35,16 -35,16 -53,58 -26,65 -29,48 -58,115l-114 231c-3,5 -23,39 -32,53 -38,81 -73,164 -117,240l-61 108c-6,14 -6,23 -15,35l-91 182c-23,58 -20,21 -38,62l-219 492c-9,18 -15,39 -26,55 -3,2 -6,5 -6,5l-15 16c0,2 -3,5 -3,7l-47 76c-18,39 -29,187 -167,115 -50,-25 -50,-14 -99,-28l-401 -157c-53,-28 -304,-127 -360,-182 -79,-76 -105,-55 -196,-136 -58,-53 -216,-192 -249,-242 -18,-25 -15,-30 -44,-53l-137 -113c-67,-67 -47,-111 -70,-182l-111 -254c-32,-97 -58,-194 -67,-300 -3,-23 -67,-252 -50,-302l-20 76c-88,-62 -44,-277 -38,-360 -73,72 -23,261 -23,365 0,175 -3,65 23,182 20,85 3,99 6,175 18,7 29,7 50,16l9 95c3,0 -12,14 35,-7 6,42 26,62 44,102 140,298 56,143 102,305 15,51 47,155 82,196 15,18 15,16 29,39 6,7 26,42 26,42 56,74 126,118 181,164l32 28c3,0 3,2 6,5l146 90c6,2 18,9 18,9 44,18 56,-2 105,35l64 39c64,35 149,58 205,108z"/>
    <path class="fil23" d="M24877 5125l44 0 76 -138c35,-78 38,-65 38,-118 -91,-44 -32,-12 -105,-30 -20,-5 -29,-14 -47,-21 -29,-7 -44,-2 -67,-9 -53,-14 -26,-30 -102,-42 -9,0 -170,-58 -222,-67 -61,-9 -73,-23 -117,-30 -29,-5 -29,2 -56,-9 -102,-35 -73,-39 -99,-102 -18,-37 -146,-32 -175,-12 50,28 9,-14 91,58 23,23 56,48 64,81 47,141 -29,201 6,242 26,28 38,14 79,23 38,9 26,18 64,28l190 58 50 12c29,5 53,2 82,16 67,30 99,21 123,37l85 23z"/>
    <path class="fil24" d="M16113 2564c44,16 12,9 32,44 20,35 9,18 44,25l491 141c3,0 158,62 213,67 82,7 82,-30 91,-62 20,-55 64,-111 67,-166 -15,-16 -20,-30 -44,-37 -26,-9 -44,-5 -70,-9 -47,-9 15,-12 -117,-37 -70,-14 9,-18 -120,-35 -64,-7 -29,-25 -117,-32 -73,-5 -32,-28 -114,-35 -140,-14 -32,-21 -117,-37 -38,-7 -26,5 -64,-14 -29,-14 -3,-14 -58,-18 -152,-16 -23,-16 -117,-35l0 240z"/>
    <path class="fil25" d="M22277 1634c-15,21 -18,32 -35,53l-97 171c-12,23 -9,46 -53,125 -20,42 -41,81 -67,115 -35,51 -82,182 -108,245 -6,12 -23,46 -29,60 -96,168 -161,344 -263,538l-126 228c-32,74 -70,185 -114,254 -20,32 -50,81 -56,122 -15,111 -12,69 76,97 108,35 126,44 266,67 -3,-37 -38,-21 -79,-30 -35,-9 -35,-23 -73,-30 -35,-5 -140,-32 -173,-53 9,-42 6,-44 29,-76 6,-5 12,-14 15,-21 9,-23 -3,7 6,-21l269 -572c6,-12 9,-18 12,-28 20,-42 -23,-18 35,-32 3,-72 32,-106 58,-164l111 -217c18,-44 20,-48 35,-81l82 -159c15,-21 0,5 15,-16l85 -182c32,-76 126,-240 143,-298 41,-129 105,-67 155,-51 20,9 32,7 56,14l184 74c3,0 6,2 6,2 3,2 6,2 9,5l368 173c73,42 44,35 91,60 196,104 181,141 254,180l164 136c79,78 152,134 225,226 23,30 35,65 56,90 18,25 47,48 67,78 20,35 32,58 53,90 18,28 41,67 58,97l94 203c15,28 9,25 15,53l38 118c9,35 9,21 20,58 12,42 3,85 15,129 18,55 26,46 26,122 6,295 6,293 -35,568l-73 224c-64,14 -20,-14 -137,-30 -41,-7 -35,-12 -64,-23 -32,-12 -53,-12 -91,-14l15 9c85,39 208,60 301,85 23,-51 0,30 47,-99 29,-76 70,-298 70,-383 3,-108 6,-475 -26,-582l-167 -438c-20,-46 -38,-51 -56,-88l-35 -62c-61,-102 -146,-189 -187,-247 -6,-12 -9,-16 -15,-23l-243 -249c-26,-32 -41,-48 -70,-72l-158 -113c-12,-9 -12,-9 -20,-16 -12,-7 6,7 -15,-7 0,-2 -3,-5 -3,-5 -3,-2 -6,-2 -6,-5l-313 -178c-3,-2 -9,-7 -12,-7l-246 -111c-50,-23 -129,-42 -175,-58l-114 -39c-35,-14 -41,-9 -53,-25l0 25 -38 9z"/>
    <path class="fil26" d="M17706 6166l12 5c-9,-46 -15,-42 -29,-55l-263 -295c-53,-67 -15,-37 -79,-113 -79,-92 -287,-471 -339,-600 -15,-42 0,-39 -26,-85l-53 -155c-9,-81 -26,-42 -32,-134 -9,-85 -20,-60 -29,-83 120,598 406,1098 839,1516zm-845 -1558l-9 -136c0,0 0,-5 3,-5l20 25c23,48 53,182 53,187l58 136c15,39 18,18 32,62l143 279c44,60 15,55 73,120l135 201c26,35 56,62 88,97 35,39 -6,14 88,104 35,37 61,65 94,99 23,21 29,35 44,53l366 300c58,37 61,51 97,72 18,9 -6,-2 23,12 -9,-48 0,-14 -20,-42 -26,-39 -123,-85 -196,-159l-164 -143c-12,-9 -15,-9 -26,-21l-44 -44c-32,-28 15,14 -12,-9l-94 -108c-6,-7 -15,-16 -20,-25l-73 -81c0,-2 -3,-5 -6,-7l-41 -42c-9,-9 -20,-21 -29,-32l-44 -60c-20,-30 -20,-35 -47,-60l-316 -552c-18,-37 -6,-2 -18,-30l-88 -231c-9,-39 -20,-35 -26,-65 -12,-46 3,-46 -20,-90 -32,-62 -6,-115 -38,-171 -18,23 -20,60 -23,102l38 263z"/>
    <path class="fil27" d="M24359 6085c38,-7 26,0 85,-51l319 -316c181,-192 322,-395 450,-628 12,-18 12,-23 20,-46 18,-37 29,-51 47,-90 123,-7 85,14 140,30 32,7 47,0 76,12 38,14 20,21 56,28 35,7 44,-2 79,12 44,16 9,14 64,21l205 58c35,16 35,7 73,14 26,7 29,18 58,28 26,9 44,7 73,14 32,7 38,16 64,23 155,30 140,60 196,5 18,127 -6,228 -73,332 -50,-21 -82,-16 -120,-30l-99 -28 234 67 64 -141 35 -312 -18 2 -53 108c-56,0 -38,2 -79,-16 -38,-18 -26,-9 -70,-16 -44,-7 -32,-14 -61,-23 -32,-12 -44,-7 -70,-12 -29,-5 -35,-18 -58,-25 -29,-12 -35,-5 -67,-12 -29,-7 -38,-18 -58,-25 -26,-9 -41,-5 -67,-12 -29,-7 -35,-21 -56,-28 -29,-7 -50,0 -79,-12 -29,-7 -26,-21 -56,-28 -26,-5 -41,2 -70,-7 -50,-18 6,-16 -61,-25 -146,-23 -58,-39 -216,-35 -88,192 -211,397 -342,563 -50,62 -47,74 -117,143l-187 196c-38,39 -91,88 -132,129l-114 108c-18,18 0,-12 -15,23zm1693 -621c-23,-9 -18,-14 -53,-23 -132,-28 -76,-23 -120,-35 -26,-7 -44,-2 -76,-12 -23,-7 -23,-14 -56,-23 -23,-7 -41,-7 -64,-14 -111,-42 -70,-16 -120,-35 -20,-7 -23,-14 -53,-21 -20,-5 -44,-5 -64,-12 -29,-9 -35,-18 -56,-23l-129 -30 -6 5 795 222zm-807 -215c-26,16 -29,48 -44,76 -12,23 -15,21 -29,51l-53 99c-67,106 -178,291 -257,372 -32,32 -35,65 -73,88l3 18c181,-217 333,-450 453,-704z"/>
    <path class="fil28" d="M24192 4985c-6,5 -12,-2 -23,25l-94 143 117 -168z"/>
    <path class="fil29" d="M24400 4394c-9,14 -18,21 -23,62l3 55c61,30 23,18 111,25l216 72c53,12 35,-7 88,21 47,25 44,7 88,16 53,12 3,23 108,37 29,5 35,7 61,18 35,14 56,12 73,5l-743 -215 18 -97zm725 312c35,-18 41,-78 67,-150 0,-2 0,-5 3,-7 35,-111 23,-35 41,-152 9,-42 9,-18 23,-53 29,-74 0,-189 -3,-272l-12 194 -3 32c-20,138 -58,275 -117,408z"/>
    <path class="fil30" d="M16113 2324c94,18 -35,18 117,35 56,5 29,5 58,18 38,18 26,7 64,14 85,16 -23,23 117,37 82,7 41,30 114,35 88,7 53,25 117,32 129,16 50,21 120,35 132,25 70,28 117,37 26,5 44,0 70,9 23,7 29,21 44,37 -3,55 -47,111 -67,166 -9,32 -9,69 -91,62 -56,-5 -211,-67 -213,-67l-491 -141c-35,-7 -23,9 -44,-25 -20,-35 12,-28 -32,-44l0 78 605 180c102,5 187,67 263,44l56 -136c0,-2 3,-5 3,-7l41 -85c20,-32 12,7 18,-35 -94,-81 -108,-39 -164,-65 -32,-14 -9,-16 -58,-25 -70,-12 -79,-30 -129,-37 -38,-5 -29,2 -61,-12l-573 -164 0 23z"/>
    <path class="fil31" d="M19780 6741c50,23 41,42 111,37l132 -254c53,-113 108,-173 50,-268 -20,-35 18,0 -15,-18 -56,-30 -23,16 -105,143l-105 217c-6,14 -6,23 -12,35 -12,23 -47,65 -56,108z"/>
    <path class="fil32" d="M19031 8031l-12 -46 0 42 12 5zm-12 -288l56 -88 105 -201c0,-2 3,-5 3,-7l58 -129 -222 415 0 9z"/>
    <path class="fil33" d="M22721 715c26,30 32,39 91,37l29 -46 155 -328 12 -138c0,-2 6,-16 -12,-42 -29,14 -12,0 -29,28 0,0 -15,35 -15,35 -44,102 -44,72 -82,157l-79 164c-32,65 -26,25 -53,95 -9,23 -9,23 -18,39z"/>
    <path class="fil34" d="M18318 1862c-73,23 -225,157 -278,203 -137,118 -73,65 -158,157 -32,30 -64,53 -76,92 161,-166 333,-316 512,-452z"/>
   </g>
  </g>
  <g>
   <path class="fil18 str0" d="M1415 1262l988 -7c638,-5 1061,13 1269,53 208,40 353,107 433,202 81,95 111,201 96,318 -17,117 -92,346 -226,690l-496 1268c-127,325 -233,542 -320,652 -85,109 -193,196 -324,259 -131,63 -280,106 -446,132 -167,26 -407,39 -723,42l-1666 12 1415 -3620zm1079 610l-931 2381c190,-1 318,-29 383,-83 65,-55 145,-204 239,-445l550 -1407c64,-164 98,-269 102,-315 3,-46 -17,-80 -61,-101 -44,-21 -138,-32 -282,-31zm3739 -644l-184 472 -1305 9 184 -472 1305 -9zm-255 653l-1160 2968 -1305 9 1160 -2968 1305 -9zm3334 -24l-893 2285c-121,309 -208,508 -263,599 -56,90 -164,186 -324,288 -160,102 -360,180 -597,234 -237,54 -520,83 -849,85 -403,3 -708,-44 -915,-140 -206,-96 -257,-287 -154,-573l1229 -9c-51,130 -9,196 125,195 96,-1 167,-21 214,-62 48,-40 96,-125 146,-253l87 -224c-136,71 -271,124 -405,161 -135,37 -267,56 -399,57 -228,2 -404,-30 -525,-95 -122,-65 -189,-150 -202,-257 -13,-106 19,-257 96,-454l421 -1078c110,-282 260,-485 451,-610 191,-125 431,-188 721,-190 160,-1 295,21 408,66 113,45 202,113 269,205l178 -224 1179 -8zm-1578 797c53,-136 76,-222 68,-259 -7,-37 -49,-56 -124,-56 -73,1 -134,22 -180,65 -47,43 -95,126 -145,252l-390 997c-52,133 -74,219 -66,259 7,39 48,58 121,58 85,-1 147,-25 192,-73 43,-48 98,-156 164,-324l359 -919zm3590 -1462l-184 472 -1305 9 184 -472 1305 -9zm-255 653l-1160 2968 -1305 9 1160 -2968 1305 -9zm1946 -408l-183 467 342 -3 -184 469 -342 2 -621 1588c-76,195 -105,304 -85,326 19,22 132,33 339,31l-187 479 -511 4c-289,2 -491,-5 -609,-22 -117,-16 -209,-55 -279,-116 -70,-61 -101,-132 -93,-211 8,-80 69,-267 185,-562l589 -1507 -272 2 184 -469 272 -2 183 -467 1271 -9zm1150 1532l-1190 9 78 -199c90,-229 196,-406 319,-531 124,-125 316,-237 577,-334 261,-97 570,-146 927,-149 429,-3 730,49 906,155 176,107 255,239 237,396 -17,157 -123,480 -315,971l-582 1489 -1232 9 103 -264c-119,107 -250,187 -393,240 -143,54 -299,81 -469,83 -222,2 -408,-41 -558,-129 -150,-87 -167,-281 -50,-581l95 -244c87,-222 195,-374 325,-454 130,-82 410,-177 841,-287 461,-120 714,-199 760,-240 45,-41 92,-123 140,-246 61,-155 83,-256 69,-303 -14,-47 -58,-70 -134,-70 -86,1 -147,21 -183,61 -37,40 -87,142 -151,308l-121 311zm243 404c-245,108 -397,197 -458,269 -60,72 -117,175 -169,309 -60,154 -85,253 -75,297 10,45 58,67 142,66 79,-1 138,-18 176,-54 37,-35 86,-128 144,-276l239 -611zm3871 -2230l-1415 3620 -1305 9 1415 -3620 1305 -9z"/>
   <path id="1" class="fil35" d="M1415 1262l988 -7c638,-5 1061,13 1269,53 208,40 353,107 433,202 81,95 111,201 96,318 -17,117 -92,346 -226,690l-496 1268c-127,325 -233,542 -320,652 -85,109 -193,196 -324,259 -131,63 -280,106 -446,132 -167,26 -407,39 -723,42l-1666 12 1415 -3620zm1079 610l-931 2381c190,-1 318,-29 383,-83 65,-55 145,-204 239,-445l550 -1407c64,-164 98,-269 102,-315 3,-46 -17,-80 -61,-101 -44,-21 -138,-32 -282,-31zm3739 -644l-184 472 -1305 9 184 -472 1305 -9zm-255 653l-1160 2968 -1305 9 1160 -2968 1305 -9zm3334 -24l-893 2285c-121,309 -208,508 -263,599 -56,90 -164,186 -324,288 -160,102 -360,180 -597,234 -237,54 -520,83 -849,85 -403,3 -708,-44 -915,-140 -206,-96 -257,-287 -154,-573l1229 -9c-51,130 -9,196 125,195 96,-1 167,-21 214,-62 48,-40 96,-125 146,-253l87 -224c-136,71 -271,124 -405,161 -135,37 -267,56 -399,57 -228,2 -404,-30 -525,-95 -122,-65 -189,-150 -202,-257 -13,-106 19,-257 96,-454l421 -1078c110,-282 260,-485 451,-610 191,-125 431,-188 721,-190 160,-1 295,21 408,66 113,45 202,113 269,205l178 -224 1179 -8zm-1578 797c53,-136 76,-222 68,-259 -7,-37 -49,-56 -124,-56 -73,1 -134,22 -180,65 -47,43 -95,126 -145,252l-390 997c-52,133 -74,219 -66,259 7,39 48,58 121,58 85,-1 147,-25 192,-73 43,-48 98,-156 164,-324l359 -919zm3590 -1462l-184 472 -1305 9 184 -472 1305 -9zm-255 653l-1160 2968 -1305 9 1160 -2968 1305 -9zm1946 -408l-183 467 342 -3 -184 469 -342 2 -621 1588c-76,195 -105,304 -85,326 19,22 132,33 339,31l-187 479 -511 4c-289,2 -491,-5 -609,-22 -117,-16 -209,-55 -279,-116 -70,-61 -101,-132 -93,-211 8,-80 69,-267 185,-562l589 -1507 -272 2 184 -469 272 -2 183 -467 1271 -9zm1150 1532l-1190 9 78 -199c90,-229 196,-406 319,-531 124,-125 316,-237 577,-334 261,-97 570,-146 927,-149 429,-3 730,49 906,155 176,107 255,239 237,396 -17,157 -123,480 -315,971l-582 1489 -1232 9 103 -264c-119,107 -250,187 -393,240 -143,54 -299,81 -469,83 -222,2 -408,-41 -558,-129 -150,-87 -167,-281 -50,-581l95 -244c87,-222 195,-374 325,-454 130,-82 410,-177 841,-287 461,-120 714,-199 760,-240 45,-41 92,-123 140,-246 61,-155 83,-256 69,-303 -14,-47 -58,-70 -134,-70 -86,1 -147,21 -183,61 -37,40 -87,142 -151,308l-121 311zm243 404c-245,108 -397,197 -458,269 -60,72 -117,175 -169,309 -60,154 -85,253 -75,297 10,45 58,67 142,66 79,-1 138,-18 176,-54 37,-35 86,-128 144,-276l239 -611zm3871 -2230l-1415 3620 -1305 9 1415 -3620 1305 -9z"/>
  </g>
  <g>
   <path class="fil36 str1" d="M7605 7036l-1289 9 168 -325c106,-204 159,-333 162,-384 1,-51 -43,-76 -135,-76 -80,1 -145,23 -197,67 -51,44 -124,158 -219,341l-887 1717c-83,161 -123,266 -121,317 3,51 46,76 132,75 94,-1 173,-30 237,-87 63,-58 138,-170 224,-337l219 -424 -260 2 281 -544 1509 -11 -992 1920 -811 6 13 -256c-145,111 -298,194 -461,251 -162,56 -334,85 -516,86 -216,2 -399,-35 -548,-110 -150,-75 -245,-167 -285,-279 -41,-111 -40,-228 -2,-351 39,-123 122,-307 249,-553l549 -1063c177,-342 330,-590 461,-745 131,-156 351,-299 660,-429 308,-131 654,-198 1039,-200 377,-3 662,51 853,161 191,110 285,242 281,396 -4,153 -82,376 -234,670l-80 155zm2048 -684l-248 385c322,-277 658,-425 1007,-443l-533 1032c-227,2 -404,25 -534,70 -128,45 -226,107 -291,186 -66,79 -171,260 -318,545l-598 1158 -1238 9 1516 -2932 1238 -9zm1525 1121l-1161 8 102 -197c117,-226 244,-401 380,-525 137,-123 338,-234 606,-330 267,-96 575,-145 924,-147 419,-3 706,48 863,153 158,106 217,236 180,391 -37,155 -182,475 -432,960l-760 1471 -1203 9 135 -261c-129,105 -268,185 -414,237 -147,54 -302,80 -468,81 -216,2 -392,-41 -528,-127 -134,-86 -126,-278 27,-574l125 -241c113,-219 239,-369 376,-449 138,-81 423,-175 858,-283 465,-118 722,-197 772,-237 49,-40 105,-121 168,-243 79,-153 114,-253 107,-299 -7,-47 -48,-70 -122,-69 -84,1 -146,21 -186,60 -41,39 -103,140 -188,304l-158 307zm184 399c-253,106 -413,194 -481,266 -68,71 -136,173 -204,305 -79,152 -116,250 -111,294 4,44 48,66 130,65 77,-1 136,-18 178,-53 41,-35 101,-126 177,-273l312 -603zm2112 -2339l-1317 606 -622 4 849 -603 1090 -8zm2255 134l-234 452c-255,2 -410,12 -465,29 -55,18 -103,66 -144,145l-48 93 521 -4 -240 464 -295 2 -1239 2398 -1237 9 1239 -2398 -254 2 240 -464 254 -2c100,-193 176,-322 227,-387 52,-65 127,-123 226,-174 98,-51 220,-90 364,-118 145,-28 354,-42 630,-44l454 -3zm1509 -11l-241 466 -1274 9 241 -466 1274 -9zm-333 645l-1515 2932 -1274 9 1515 -2933 1274 -9zm2606 1085l-1166 8 175 -338c61,-118 89,-197 84,-240 -5,-42 -43,-63 -115,-62 -71,1 -129,20 -172,57 -44,37 -99,120 -165,248l-715 1383c-54,104 -76,182 -66,235 10,52 50,78 121,77 84,-1 155,-28 213,-83 57,-54 125,-158 204,-309l180 -349 1103 -8c-123,235 -226,410 -308,528 -81,117 -212,238 -391,362 -178,124 -377,218 -595,282 -218,64 -463,96 -737,98 -349,2 -604,-39 -763,-123 -159,-85 -242,-204 -246,-360 -4,-155 68,-375 215,-661l430 -833c129,-250 261,-438 395,-565 136,-127 341,-241 619,-342 278,-101 580,-153 904,-155 323,-2 573,45 750,142 178,97 265,221 264,370 -3,150 -75,363 -217,638zm1459 18l-1161 8 102 -197c117,-226 244,-401 380,-525 137,-123 338,-234 606,-330 267,-96 575,-145 924,-147 419,-3 706,48 863,153 158,106 218,236 180,391 -37,155 -182,475 -432,960l-760 1472 -1203 8 135 -261c-129,106 -268,185 -414,237 -146,54 -302,80 -468,81 -216,2 -392,-41 -528,-127 -135,-86 -126,-278 27,-574l125 -241c113,-219 239,-369 376,-449 137,-81 423,-175 858,-283 465,-118 722,-197 772,-237 49,-40 105,-121 168,-243 79,-153 114,-253 107,-299 -7,-46 -47,-69 -122,-69 -84,1 -146,21 -186,60 -41,39 -103,141 -187,304l-159 307zm184 399c-253,106 -413,195 -481,266 -68,71 -136,173 -205,305 -78,152 -115,249 -111,294 4,44 48,66 130,65 77,-1 136,-18 178,-53 41,-35 101,-126 177,-273l312 -603z"/>
   <path id="1" class="fil37" d="M7605 7036l-1289 9 168 -325c106,-204 159,-333 162,-384 1,-51 -43,-76 -135,-76 -80,1 -145,23 -197,67 -51,44 -124,158 -219,341l-887 1717c-83,161 -123,266 -121,317 3,51 46,76 132,75 94,-1 173,-30 237,-87 63,-58 138,-170 224,-337l219 -424 -260 2 281 -544 1509 -11 -992 1920 -811 6 13 -256c-145,111 -298,194 -461,251 -162,56 -334,85 -516,86 -216,2 -399,-35 -548,-110 -150,-75 -245,-167 -285,-279 -41,-111 -40,-228 -2,-351 39,-123 122,-307 249,-553l549 -1063c177,-342 330,-590 461,-745 131,-156 351,-299 660,-429 308,-131 654,-198 1039,-200 377,-3 662,51 853,161 191,110 285,242 281,396 -4,153 -82,376 -234,670l-80 155zm2048 -684l-248 385c322,-277 658,-425 1007,-443l-533 1032c-227,2 -404,25 -534,70 -128,45 -226,107 -291,186 -66,79 -171,260 -318,545l-598 1158 -1238 9 1516 -2932 1238 -9zm1525 1121l-1161 8 102 -197c117,-226 244,-401 380,-525 137,-123 338,-234 606,-330 267,-96 575,-145 924,-147 419,-3 706,48 863,153 158,106 217,236 180,391 -37,155 -182,475 -432,960l-760 1471 -1203 9 135 -261c-129,105 -268,185 -414,237 -147,54 -302,80 -468,81 -216,2 -392,-41 -528,-127 -134,-86 -126,-278 27,-574l125 -241c113,-219 239,-369 376,-449 138,-81 423,-175 858,-283 465,-118 722,-197 772,-237 49,-40 105,-121 168,-243 79,-153 114,-253 107,-299 -7,-47 -48,-70 -122,-69 -84,1 -146,21 -186,60 -41,39 -103,140 -188,304l-158 307zm184 399c-253,106 -413,194 -481,266 -68,71 -136,173 -204,305 -79,152 -116,250 -111,294 4,44 48,66 130,65 77,-1 136,-18 178,-53 41,-35 101,-126 177,-273l312 -603zm2112 -2339l-1317 606 -622 4 849 -603 1090 -8zm2255 134l-234 452c-255,2 -410,12 -465,29 -55,18 -103,66 -144,145l-48 93 521 -4 -240 464 -295 2 -1239 2398 -1237 9 1239 -2398 -254 2 240 -464 254 -2c100,-193 176,-322 227,-387 52,-65 127,-123 226,-174 98,-51 220,-90 364,-118 145,-28 354,-42 630,-44l454 -3zm1509 -11l-241 466 -1274 9 241 -466 1274 -9zm-333 645l-1515 2932 -1274 9 1515 -2933 1274 -9zm2606 1085l-1166 8 175 -338c61,-118 89,-197 84,-240 -5,-42 -43,-63 -115,-62 -71,1 -129,20 -172,57 -44,37 -99,120 -165,248l-715 1383c-54,104 -76,182 -66,235 10,52 50,78 121,77 84,-1 155,-28 213,-83 57,-54 125,-158 204,-309l180 -349 1103 -8c-123,235 -226,410 -308,528 -81,117 -212,238 -391,362 -178,124 -377,218 -595,282 -218,64 -463,96 -737,98 -349,2 -604,-39 -763,-123 -159,-85 -242,-204 -246,-360 -4,-155 68,-375 215,-661l430 -833c129,-250 261,-438 395,-565 136,-127 341,-241 619,-342 278,-101 580,-153 904,-155 323,-2 573,45 750,142 178,97 265,221 264,370 -3,150 -75,363 -217,638zm1459 18l-1161 8 102 -197c117,-226 244,-401 380,-525 137,-123 338,-234 606,-330 267,-96 575,-145 924,-147 419,-3 706,48 863,153 158,106 218,236 180,391 -37,155 -182,475 -432,960l-760 1472 -1203 8 135 -261c-129,106 -268,185 -414,237 -146,54 -302,80 -468,81 -216,2 -392,-41 -528,-127 -135,-86 -126,-278 27,-574l125 -241c113,-219 239,-369 376,-449 137,-81 423,-175 858,-283 465,-118 722,-197 772,-237 49,-40 105,-121 168,-243 79,-153 114,-253 107,-299 -7,-46 -47,-69 -122,-69 -84,1 -146,21 -186,60 -41,39 -103,141 -187,304l-159 307zm184 399c-253,106 -413,195 -481,266 -68,71 -136,173 -205,305 -78,152 -115,249 -111,294 4,44 48,66 130,65 77,-1 136,-18 178,-53 41,-35 101,-126 177,-273l312 -603z"/>
  </g>
 </g>
</svg>
