<?xml version="1.0" encoding="UTF-8"?>
<!DOCTYPE svg PUBLIC "-//W3C//DTD SVG 1.1//EN" "http://www.w3.org/Graphics/SVG/1.1/DTD/svg11.dtd">
<!-- Creator: CorelDRAW 2017 -->
<svg xmlns="http://www.w3.org/2000/svg" xml:space="preserve" width="18.7958mm" height="19.3886mm" version="1.1" style="shape-rendering:geometricPrecision; text-rendering:geometricPrecision; image-rendering:optimizeQuality; fill-rule:evenodd; clip-rule:evenodd"
viewBox="0 0 1880 1939"
 xmlns:xlink="http://www.w3.org/1999/xlink">
 <defs>
  <style type="text/css">
   <![CDATA[
    .fil0 {fill:#0050E3}
   ]]>
  </style>
 </defs>
 <g id="Camada_x0020_1">
  <metadata id="CorelCorpID_0Corel-Layer"/>
  <g id="like.svg">
   <g>
    <g>
     <path class="fil0" d="M1879 1031c0,-99 -80,-179 -179,-179l-61 0 -263 0c50,-91 77,-177 77,-295l0 -19c0,0 0,0 0,0 0,-64 -25,-124 -69,-169 -45,-45 -104,-71 -168,-72 -1,0 -1,0 -2,0 -62,0 -116,49 -121,110 -24,291 -305,442 -493,533l0 -30c0,-32 -26,-57 -57,-57l-487 0c-32,0 -57,26 -57,57l0 973c0,32 26,57 57,57l365 0c70,0 131,-40 160,-99 203,88 380,100 582,100 35,0 70,0 106,-1 40,0 82,-1 126,-1l180 0c99,0 179,-80 179,-179 0,-33 -9,-64 -25,-91 51,-31 86,-88 86,-153 0,-33 -9,-64 -25,-91 51,-31 86,-88 86,-153 0,-46 -18,-89 -47,-121 30,-32 49,-75 49,-123zm-1392 731c0,36 -29,65 -65,65l-65 0 0 -186c0,-32 -26,-57 -57,-57 -31,0 -57,26 -57,57l0 186 -129 0 0 -859 373 0 0 795 0 0zm1092 -552l61 0 59 0c36,0 65,29 65,65 0,36 -29,65 -65,65l-59 0 -2 0 -59 0c-32,0 -57,26 -57,57 0,31 26,57 57,57l59 0c36,0 65,29 65,65 0,36 -29,65 -65,65l-61 0c-32,0 -57,26 -57,57 0,32 26,57 57,57 36,0 65,29 65,65 0,36 -29,65 -65,65l-180 0c-44,0 -86,0 -127,1 -254,2 -441,4 -668,-101l0 -659 0 0c6,-3 12,-6 18,-9 99,-48 235,-113 352,-212 143,-121 222,-266 236,-429 0,-2 4,-6 7,-6 0,0 0,0 0,0 69,1 125,58 125,127l0 19c0,119 -31,194 -96,295l-91 0c-32,0 -57,26 -57,57 0,31 26,57 57,57l122 0c0,0 0,0 0,0l364 0 61 0c36,0 65,29 65,65 0,36 -29,65 -65,65l-61 0 -61 0c-32,0 -57,26 -57,57 0,32 26,57 57,57z"/>
    </g>
   </g>
   <g>
    <g>
     <path class="fil0" d="M1761 419l-122 0c-31,0 -57,26 -57,57 0,31 26,57 57,57l122 0c32,0 57,-26 57,-57 0,-31 -26,-57 -57,-57z"/>
    </g>
   </g>
   <g>
    <g>
     <path class="fil0" d="M909 419l-122 0c-32,0 -57,26 -57,57 0,31 26,57 57,57l122 0c32,0 57,-26 57,-57 0,-31 -26,-57 -57,-57z"/>
    </g>
   </g>
   <g>
    <g>
     <path class="fil0" d="M1141 132l-61 -105c-16,-27 -51,-37 -78,-21 -27,16 -37,51 -21,78l61 105c11,18 30,29 49,29 10,0 19,-2 28,-8 27,-16 37,-51 21,-78z"/>
    </g>
   </g>
   <g>
    <g>
     <path class="fil0" d="M1546 6c-27,-16 -62,-6 -78,21l-61 105c-16,27 -6,62 21,78 9,5 19,8 28,8 20,0 39,-10 49,-29l61 -105c16,-27 6,-62 -21,-78z"/>
    </g>
   </g>
   <g>
   </g>
   <g>
   </g>
   <g>
   </g>
   <g>
   </g>
   <g>
   </g>
   <g>
   </g>
   <g>
   </g>
   <g>
   </g>
   <g>
   </g>
   <g>
   </g>
   <g>
   </g>
   <g>
   </g>
   <g>
   </g>
   <g>
   </g>
   <g>
   </g>
  </g>
 </g>
</svg>
