<?xml version="1.0" encoding="UTF-8"?>
<!DOCTYPE svg PUBLIC "-//W3C//DTD SVG 1.1//EN" "http://www.w3.org/Graphics/SVG/1.1/DTD/svg11.dtd">
<!-- Creator: CorelDRAW 2017 -->
<svg xmlns="http://www.w3.org/2000/svg" xml:space="preserve" width="18.7958mm" height="19.3886mm" version="1.1" style="shape-rendering:geometricPrecision; text-rendering:geometricPrecision; image-rendering:optimizeQuality; fill-rule:evenodd; clip-rule:evenodd"
viewBox="0 0 1880 1939"
 xmlns:xlink="http://www.w3.org/1999/xlink">
 <defs>
  <style type="text/css">
   <![CDATA[
    .fil0 {fill:#0050E3}
   ]]>
  </style>
 </defs>
 <g id="Camada_x0020_1">
  <metadata id="CorelCorpID_0Corel-Layer"/>
  <g id="online-shopping-cart.svg">
   <g>
    <g>
     <path class="fil0" d="M70 256l199 0 284 1027c8,30 36,51 67,51l873 0c28,0 52,-16 64,-42l318 -730c9,-22 7,-46 -6,-66 -13,-20 -35,-31 -58,-31l-964 0c-38,0 -70,31 -70,70 0,38 31,70 70,70l858 0 -257 591 -774 0 -284 -1027c-8,-30 -36,-51 -67,-51l-251 0c-38,0 -70,31 -70,70 0,38 31,70 70,70z"/>
     <path class="fil0" d="M554 1822c87,0 158,-71 158,-158 0,-87 -71,-158 -158,-158 -87,0 -158,71 -158,158 0,87 71,158 158,158z"/>
     <path class="fil0" d="M1539 1822c3,0 8,0 12,0 42,-3 80,-22 108,-54 28,-31 41,-72 38,-115 -6,-86 -81,-152 -168,-146 -87,6 -152,82 -146,168 6,82 74,147 156,147z"/>
    </g>
   </g>
   <g>
   </g>
   <g>
   </g>
   <g>
   </g>
   <g>
   </g>
   <g>
   </g>
   <g>
   </g>
   <g>
   </g>
   <g>
   </g>
   <g>
   </g>
   <g>
   </g>
   <g>
   </g>
   <g>
   </g>
   <g>
   </g>
   <g>
   </g>
   <g>
   </g>
  </g>
 </g>
</svg>
