<?xml version="1.0" encoding="UTF-8"?>
<!DOCTYPE svg PUBLIC "-//W3C//DTD SVG 1.1//EN" "http://www.w3.org/Graphics/SVG/1.1/DTD/svg11.dtd">
<!-- Creator: CorelDRAW 2017 -->
<svg xmlns="http://www.w3.org/2000/svg" xml:space="preserve" width="18.7958mm" height="19.3886mm" version="1.1" style="shape-rendering:geometricPrecision; text-rendering:geometricPrecision; image-rendering:optimizeQuality; fill-rule:evenodd; clip-rule:evenodd"
viewBox="0 0 1880 1939"
 xmlns:xlink="http://www.w3.org/1999/xlink">
 <defs>
  <style type="text/css">
   <![CDATA[
    .str0 {stroke:#0050E3;stroke-width:50;stroke-linejoin:round}
    .fil0 {fill:#0050E3}
   ]]>
  </style>
 </defs>
 <g id="Camada_x0020_1">
  <metadata id="CorelCorpID_0Corel-Layer"/>
  <g id="stopwatch.svg">
   <g>
    <path class="fil0 str0" d="M940 64c-17,0 -30,13 -30,30l0 401c0,17 13,30 30,30 17,0 30,-13 30,-30l0 -370c452,16 815,389 815,844 0,466 -379,845 -845,845 -466,0 -845,-379 -845,-845 0,-225 87,-437 246,-596 12,-12 12,-31 0,-43 -12,-12 -31,-12 -43,0 -170,171 -264,398 -264,639 0,499 406,905 905,905 499,0 905,-406 905,-905 0,-499 -406,-905 -905,-905z"/>
    <path class="fil0 str0" d="M896 1076c19,26 47,42 79,44 3,0 6,0 8,0 28,0 56,-11 76,-32 22,-22 34,-53 31,-84 -2,-31 -18,-60 -44,-79l-391 -282c-12,-9 -29,-7 -39,3 -11,10 -12,27 -3,39l283 391zm115 -101c11,8 18,21 19,35 1,14 -4,27 -14,37 -10,10 -24,15 -37,14 -14,-1 -26,-8 -34,-19l-172 -238 238 172z"/>
   </g>
   <g>
   </g>
   <g>
   </g>
   <g>
   </g>
   <g>
   </g>
   <g>
   </g>
   <g>
   </g>
   <g>
   </g>
   <g>
   </g>
   <g>
   </g>
   <g>
   </g>
   <g>
   </g>
   <g>
   </g>
   <g>
   </g>
   <g>
   </g>
   <g>
   </g>
  </g>
 </g>
</svg>
