<svg class="nc-icon outline" xmlns="http://www.w3.org/2000/svg" xmlns:xlink="http://www.w3.org/1999/xlink" x="0px" y="0px" width="48px" height="48px" viewBox="0 0 48 48">
<g transform="translate(0, 0)">
<path data-cap="butt" data-color="color-2" fill="none" stroke="#404c62" stroke-width="2" stroke-miterlimit="10" d="M19,24.153V30L8.454,32.812
	C5.828,33.513,4,35.891,4,38.61V46h40v-7.39c0-2.718-1.828-5.097-4.454-5.797L29,30v-5.847" stroke-linejoin="miter" stroke-linecap="butt"></path>
<path fill="none" stroke="#404c62" stroke-width="2" stroke-linecap="square" stroke-miterlimit="10" d="M24,26L24,26
	c-5.523,0-10-6.477-10-12v-2c0-5.523,4.477-10,10-10h0c5.523,0,10,4.477,10,10v2C34,19.523,29.523,26,24,26z" stroke-linejoin="miter"></path>
</g>
</svg>