<?xml version="1.0" encoding="UTF-8"?>
<!DOCTYPE svg PUBLIC "-//W3C//DTD SVG 1.1//EN" "http://www.w3.org/Graphics/SVG/1.1/DTD/svg11.dtd">
<!-- Creator: CorelDRAW X8 -->
<svg xmlns="http://www.w3.org/2000/svg" xml:space="preserve" width="136.093mm" height="145.913mm" version="1.1" style="shape-rendering:geometricPrecision; text-rendering:geometricPrecision; image-rendering:optimizeQuality; fill-rule:evenodd; clip-rule:evenodd"
viewBox="0 0 13609 14591"
 xmlns:xlink="http://www.w3.org/1999/xlink">
 <defs>
  <style type="text/css">
   <![CDATA[
    .fil0 {fill:#DDDFEB}
   ]]>
  </style>
 </defs>
 <g id="Camada_x0020_1">
  <metadata id="CorelCorpID_0Corel-Layer"/>
  <g id="avatar_x0020__x0028_1_x0029_.svg">
   <g>
    <g>
     <path class="fil0" d="M6756 7822c14,0 28,0 44,0 6,0 12,0 17,0 9,0 20,0 28,0 822,-14 1487,-303 1978,-856 1080,-1217 901,-3305 881,-3504 -70,-1495 -777,-2210 -1361,-2544 -434,-250 -942,-384 -1509,-396l-20 0c-2,0 -8,0 -11,0l-17 0c-311,0 -923,51 -1509,385 -589,333 -1307,1049 -1377,2555 -20,199 -199,2287 881,3504 488,553 1153,842 1975,856zm-2107 -4290c0,-8 3,-16 3,-22 92,-2011 1520,-2227 2132,-2227l11 0c5,0 14,0 22,0 758,16 2045,325 2132,2227 0,8 0,17 3,22 3,20 199,1928 -693,2932 -353,398 -825,595 -1445,600 -5,0 -8,0 -14,0l0 0c-5,0 -8,0 -14,0 -617,-5 -1091,-202 -1442,-600 -889,-999 -698,-2915 -695,-2932z"/>
     <path class="fil0" d="M12565 11283c0,-2 0,-5 0,-8 0,-23 -3,-45 -3,-70 -16,-556 -53,-1854 -1270,-2270 -9,-2 -20,-5 -28,-8 -1266,-323 -2318,-1052 -2329,-1060 -171,-121 -407,-79 -527,92 -121,171 -79,407 92,527 48,34 1165,811 2562,1170 653,233 726,932 746,1571 0,25 0,48 3,70 2,253 -14,643 -59,867 -455,258 -2236,1150 -4946,1150 -2699,0 -4491,-895 -4948,-1153 -45,-224 -65,-614 -59,-866 0,-23 2,-45 2,-71 20,-639 93,-1338 747,-1571 1397,-359 2513,-1138 2561,-1169 171,-121 213,-357 92,-528 -120,-171 -356,-213 -527,-92 -11,8 -1058,737 -2328,1060 -12,3 -20,6 -28,9 -1218,418 -1254,1716 -1271,2269 0,25 0,48 -3,70 0,3 0,6 0,9 -3,145 -6,894 143,1270 28,73 79,135 146,177 84,56 2101,1341 5476,1341 3375,0 5392,-1288 5476,-1341 64,-42 118,-104 146,-177 140,-373 137,-1122 134,-1268z"/>
    </g>
   </g>
   <g>
   </g>
   <g>
   </g>
   <g>
   </g>
   <g>
   </g>
   <g>
   </g>
   <g>
   </g>
   <g>
   </g>
   <g>
   </g>
   <g>
   </g>
   <g>
   </g>
   <g>
   </g>
   <g>
   </g>
   <g>
   </g>
   <g>
   </g>
   <g>
   </g>
  </g>
 </g>
</svg>
